%TF.GenerationSoftware,KiCad,Pcbnew,9.0.5*%
%TF.CreationDate,2026-08-22T20:43:22+02:00*%
%TF.ProjectId,MPPT Controller,4d505054-2043-46f6-9e74-726f6c6c6572,rev?*%
%TF.SameCoordinates,Original*%
%TF.FileFunction,Copper,L4,Bot*%
%TF.FilePolarity,Positive*%
%FSLAX46Y46*%
G04 Gerber Fmt 4.6, Leading zero omitted, Abs format (unit mm)*
G04 Created by KiCad (PCBNEW 9.0.5) date 2026-08-22 20:43:22*
%MOMM*%
%LPD*%
G01*
G04 APERTURE LIST*
G04 Aperture macros list*
%AMRoundRect*
0 Rectangle with rounded corners*
0 $1 Rounding radius*
0 $2 $3 $4 $5 $6 $7 $8 $9 X,Y pos of 4 corners*
0 Add a 4 corners polygon primitive as box body*
4,1,4,$2,$3,$4,$5,$6,$7,$8,$9,$2,$3,0*
0 Add four circle primitives for the rounded corners*
1,1,$1+$1,$2,$3*
1,1,$1+$1,$4,$5*
1,1,$1+$1,$6,$7*
1,1,$1+$1,$8,$9*
0 Add four rect primitives between the rounded corners*
20,1,$1+$1,$2,$3,$4,$5,0*
20,1,$1+$1,$4,$5,$6,$7,0*
20,1,$1+$1,$6,$7,$8,$9,0*
20,1,$1+$1,$8,$9,$2,$3,0*%
G04 Aperture macros list end*
%TA.AperFunction,ComponentPad*%
%ADD10C,3.000000*%
%TD*%
%TA.AperFunction,HeatsinkPad*%
%ADD11C,0.600000*%
%TD*%
%TA.AperFunction,ComponentPad*%
%ADD12RoundRect,0.249999X-0.850001X0.850001X-0.850001X-0.850001X0.850001X-0.850001X0.850001X0.850001X0*%
%TD*%
%TA.AperFunction,ComponentPad*%
%ADD13C,2.200000*%
%TD*%
%TA.AperFunction,ComponentPad*%
%ADD14RoundRect,0.250000X-0.750000X0.750000X-0.750000X-0.750000X0.750000X-0.750000X0.750000X0.750000X0*%
%TD*%
%TA.AperFunction,ComponentPad*%
%ADD15C,2.000000*%
%TD*%
%TA.AperFunction,ComponentPad*%
%ADD16RoundRect,0.250000X-1.050000X1.050000X-1.050000X-1.050000X1.050000X-1.050000X1.050000X1.050000X0*%
%TD*%
%TA.AperFunction,ComponentPad*%
%ADD17C,2.600000*%
%TD*%
%TA.AperFunction,ComponentPad*%
%ADD18R,1.700000X1.700000*%
%TD*%
%TA.AperFunction,ComponentPad*%
%ADD19C,1.700000*%
%TD*%
%TA.AperFunction,ComponentPad*%
%ADD20R,1.905000X2.000000*%
%TD*%
%TA.AperFunction,ComponentPad*%
%ADD21O,1.905000X2.000000*%
%TD*%
%TA.AperFunction,ComponentPad*%
%ADD22RoundRect,0.250000X-0.750000X-0.750000X0.750000X-0.750000X0.750000X0.750000X-0.750000X0.750000X0*%
%TD*%
%TA.AperFunction,ComponentPad*%
%ADD23RoundRect,0.250000X1.350000X1.350000X-1.350000X1.350000X-1.350000X-1.350000X1.350000X-1.350000X0*%
%TD*%
%TA.AperFunction,ComponentPad*%
%ADD24C,3.200000*%
%TD*%
%TA.AperFunction,ComponentPad*%
%ADD25R,2.000000X1.905000*%
%TD*%
%TA.AperFunction,ComponentPad*%
%ADD26O,2.000000X1.905000*%
%TD*%
%TA.AperFunction,HeatsinkPad*%
%ADD27O,1.000000X2.100000*%
%TD*%
%TA.AperFunction,HeatsinkPad*%
%ADD28O,1.000000X1.600000*%
%TD*%
%TA.AperFunction,ViaPad*%
%ADD29C,0.800000*%
%TD*%
%TA.AperFunction,ViaPad*%
%ADD30C,0.600000*%
%TD*%
%TA.AperFunction,Conductor*%
%ADD31C,1.500000*%
%TD*%
%TA.AperFunction,Conductor*%
%ADD32C,0.250000*%
%TD*%
%TA.AperFunction,Conductor*%
%ADD33C,0.500000*%
%TD*%
G04 APERTURE END LIST*
D10*
%TO.P,F1,1*%
%TO.N,Net-(D7-K)*%
X135520000Y-118505401D03*
%TO.P,F1,2*%
%TO.N,/VBAT_RAW*%
X113020000Y-118505401D03*
%TD*%
%TO.P,F2,1*%
%TO.N,/VIN_RAW*%
X112805000Y-75695401D03*
%TO.P,F2,2*%
%TO.N,Net-(D2-A)*%
X135305000Y-75695401D03*
%TD*%
D11*
%TO.P,U5,39,GND*%
%TO.N,GND*%
X197590000Y-90682901D03*
X197590000Y-89157901D03*
X196827500Y-91445401D03*
X196827500Y-89920401D03*
X196827500Y-88395401D03*
X196065000Y-90682901D03*
X196065000Y-89157901D03*
X195302500Y-91445401D03*
X195302500Y-89920401D03*
X195302500Y-88395401D03*
X194540000Y-90682901D03*
X194540000Y-89157901D03*
%TD*%
D12*
%TO.P,D3,1,K*%
%TO.N,Net-(D3-K)*%
X115570000Y-97790000D03*
D13*
%TO.P,D3,2,A*%
%TO.N,/VOUT*%
X115570000Y-107950000D03*
%TD*%
D14*
%TO.P,C4,1*%
%TO.N,/VIN*%
X106275000Y-89202724D03*
D15*
%TO.P,C4,2*%
%TO.N,GND*%
X106275000Y-94202724D03*
%TD*%
D16*
%TO.P,J3,1,Pin_1*%
%TO.N,/VBAT_RAW*%
X104867500Y-115960401D03*
D17*
%TO.P,J3,2,Pin_2*%
%TO.N,GND*%
X104867500Y-121040401D03*
%TD*%
D18*
%TO.P,J5,1,Pin_1*%
%TO.N,Net-(D1-K)*%
X202790000Y-115065401D03*
D19*
%TO.P,J5,2,Pin_2*%
%TO.N,+3.3V*%
X205330000Y-115065401D03*
%TD*%
D20*
%TO.P,IRFZ44N1,1,G*%
%TO.N,/GATE_HI*%
X116435000Y-92520401D03*
D21*
%TO.P,IRFZ44N1,2,D*%
%TO.N,/VIN*%
X118975000Y-92520401D03*
%TO.P,IRFZ44N1,3,S*%
%TO.N,/SW*%
X121515000Y-92520401D03*
%TD*%
D22*
%TO.P,C2,1*%
%TO.N,/VOUT*%
X148127323Y-92710000D03*
D15*
%TO.P,C2,2*%
%TO.N,GND*%
X153127323Y-92710000D03*
%TD*%
D23*
%TO.P,D2,1,K*%
%TO.N,Net-(D2-K)*%
X156620000Y-76965401D03*
D24*
%TO.P,D2,2,A*%
%TO.N,Net-(D2-A)*%
X141380000Y-76965401D03*
%TD*%
D16*
%TO.P,J1,1,Pin_1*%
%TO.N,/VIN_RAW*%
X104832500Y-73150401D03*
D17*
%TO.P,J1,2,Pin_2*%
%TO.N,GND*%
X104832500Y-78230401D03*
%TD*%
D25*
%TO.P,IRFZ44N2,1,G*%
%TO.N,/GATE_LO*%
X126050000Y-89535000D03*
D26*
%TO.P,IRFZ44N2,2,D*%
%TO.N,/SW*%
X126050000Y-92075000D03*
%TO.P,IRFZ44N2,3,S*%
%TO.N,GND*%
X126050000Y-94615000D03*
%TD*%
D18*
%TO.P,J2,1,Pin_1*%
%TO.N,GND*%
X157710000Y-125225401D03*
D19*
%TO.P,J2,2,Pin_2*%
%TO.N,/ESP_RX*%
X157710000Y-122685401D03*
%TO.P,J2,3,Pin_3*%
%TO.N,/ESP_TX*%
X157710000Y-120145401D03*
%TO.P,J2,4,Pin_4*%
%TO.N,+3.3V*%
X157710000Y-117605401D03*
%TD*%
D27*
%TO.P,J4,S1,SHIELD*%
%TO.N,GND*%
X165455000Y-120825401D03*
D28*
X165455000Y-125005401D03*
D27*
X174095000Y-120825401D03*
D28*
X174095000Y-125005401D03*
%TD*%
D29*
%TO.N,GND*%
X182144800Y-92459401D03*
X156819600Y-90935401D03*
X188444000Y-112373001D03*
X178285254Y-118264547D03*
X125459000Y-104164648D03*
X207149600Y-84280601D03*
X132334000Y-100482400D03*
X179830800Y-87966201D03*
X171375200Y-116030601D03*
X180570000Y-83874404D03*
X106148000Y-82147001D03*
X154865200Y-126139801D03*
X187936000Y-102365401D03*
X124917200Y-106695200D03*
X183216253Y-88755654D03*
X127406400Y-109235200D03*
X177014000Y-123701401D03*
X203836400Y-126901801D03*
X171324400Y-114811401D03*
X118644800Y-86566601D03*
X164517200Y-114925401D03*
X200940800Y-123345801D03*
X169648000Y-79911801D03*
X113260000Y-94999401D03*
X148132800Y-86058601D03*
X150039200Y-121263001D03*
X143967200Y-100181001D03*
X110720000Y-95456601D03*
X163145600Y-123955401D03*
X141403200Y-123447401D03*
X165888800Y-108258201D03*
X106249600Y-125123801D03*
X167971600Y-109172601D03*
X199772400Y-111001401D03*
X138202800Y-78743401D03*
X195454400Y-123599801D03*
X189663200Y-123650601D03*
X184126000Y-88547801D03*
X182195600Y-95304201D03*
X196318000Y-117453001D03*
X163755200Y-115929001D03*
X203938000Y-111052201D03*
%TO.N,/VOUT*%
X154178000Y-106680000D03*
X182043200Y-123955401D03*
D30*
%TO.N,/ADC_VOUT*%
X175794800Y-90427401D03*
X160300800Y-100536601D03*
X157051000Y-103786401D03*
X118200000Y-112014000D03*
%TO.N,+3.3V*%
X198858000Y-103940201D03*
X164314000Y-71834601D03*
X164212400Y-103991001D03*
X167616000Y-104143401D03*
X180722400Y-85499801D03*
X164263200Y-70259801D03*
X206782800Y-112576201D03*
X163755200Y-72901401D03*
X157405200Y-114760601D03*
X204192000Y-102162201D03*
X154942000Y-114277401D03*
%TO.N,+5V*%
X167870000Y-114709801D03*
X186361200Y-116741801D03*
%TO.N,/EN*%
X175845600Y-95101001D03*
X183364000Y-87582601D03*
%TO.N,/ESP_RX*%
X169749600Y-113135001D03*
X203938000Y-88205401D03*
%TO.N,Net-(Q2-B)*%
X171375200Y-98453801D03*
X176252000Y-97539401D03*
%TO.N,/IO0*%
X170788074Y-97910401D03*
X201455000Y-96834401D03*
%TO.N,/SDA*%
X201144000Y-88649401D03*
X177670000Y-86363401D03*
%TO.N,/SCL*%
X177776000Y-82299401D03*
X202871200Y-84585401D03*
%TO.N,/PWM_CTRL*%
X185142000Y-99505401D03*
X131206200Y-106045000D03*
%TO.N,/SD_CTRL*%
X131267200Y-104206000D03*
X184430800Y-102060601D03*
%TO.N,/GATE_LO*%
X127762000Y-97790000D03*
%TO.N,/ESP_TX*%
X172394269Y-107188332D03*
X203176000Y-86905401D03*
%TD*%
D31*
%TO.N,/VOUT*%
X160758000Y-113260000D02*
X154178000Y-106680000D01*
X177415000Y-126856401D02*
X162897000Y-126856401D01*
X182043200Y-123955401D02*
X180316000Y-123955401D01*
X180316000Y-123955401D02*
X177415000Y-126856401D01*
X162897000Y-126856401D02*
X160758000Y-124717401D01*
X160758000Y-124717401D02*
X160758000Y-113260000D01*
D32*
%TO.N,/ADC_VOUT*%
X145995799Y-112322201D02*
X154531599Y-103786401D01*
X154531599Y-103786401D02*
X157051000Y-103786401D01*
X118200000Y-112014000D02*
X118508201Y-112322201D01*
X175794800Y-90427401D02*
X170410000Y-90427401D01*
X170410000Y-90427401D02*
X160300800Y-100536601D01*
X118508201Y-112322201D02*
X145995799Y-112322201D01*
D33*
%TO.N,+3.3V*%
X156389200Y-114760601D02*
X157405200Y-114760601D01*
X154942000Y-114277401D02*
X155906000Y-114277401D01*
X155906000Y-114277401D02*
X156389200Y-114760601D01*
D32*
%TO.N,/EN*%
X175845600Y-95101001D02*
X183364000Y-87582601D01*
%TO.N,/ESP_RX*%
X203938000Y-88205401D02*
X203938000Y-101095401D01*
X203938000Y-101095401D02*
X195048000Y-109985401D01*
X195048000Y-109985401D02*
X186920000Y-109985401D01*
X186920000Y-109985401D02*
X183770400Y-113135001D01*
X183770400Y-113135001D02*
X169749600Y-113135001D01*
%TO.N,Net-(Q2-B)*%
X172543600Y-97285401D02*
X175998000Y-97285401D01*
X171375200Y-98453801D02*
X172543600Y-97285401D01*
X175998000Y-97285401D02*
X176252000Y-97539401D01*
%TO.N,/IO0*%
X201455000Y-96834401D02*
X171864074Y-96834401D01*
X171864074Y-96834401D02*
X170788074Y-97910401D01*
%TO.N,/SDA*%
X177670000Y-86363401D02*
X198858000Y-86363401D01*
X198858000Y-86363401D02*
X201144000Y-88649401D01*
%TO.N,/SCL*%
X201652000Y-84585401D02*
X202871200Y-84585401D01*
X177776000Y-82299401D02*
X199366000Y-82299401D01*
X199366000Y-82299401D02*
X201652000Y-84585401D01*
%TO.N,/PWM_CTRL*%
X185142000Y-102365401D02*
X184634000Y-102873401D01*
X132461000Y-106045000D02*
X131206200Y-106045000D01*
X184634000Y-102873401D02*
X135632599Y-102873401D01*
X135632599Y-102873401D02*
X132461000Y-106045000D01*
X185142000Y-99505401D02*
X185142000Y-102365401D01*
%TO.N,/SD_CTRL*%
X132014000Y-104206000D02*
X131267200Y-104206000D01*
X134159399Y-102060601D02*
X132014000Y-104206000D01*
X184430800Y-102060601D02*
X134159399Y-102060601D01*
D33*
%TO.N,/GATE_LO*%
X127762000Y-91247000D02*
X126050000Y-89535000D01*
X127762000Y-97790000D02*
X127762000Y-91247000D01*
D32*
%TO.N,/ESP_TX*%
X190222000Y-101603401D02*
X185904000Y-105921401D01*
X173661200Y-105921401D02*
X172394269Y-107188332D01*
X185904000Y-105921401D02*
X173661200Y-105921401D01*
X203176000Y-100841401D02*
X202414000Y-101603401D01*
X202414000Y-101603401D02*
X190222000Y-101603401D01*
X203176000Y-86905401D02*
X203176000Y-100841401D01*
%TD*%
M02*
