%TF.GenerationSoftware,KiCad,Pcbnew,9.0.5*%
%TF.CreationDate,2026-08-22T20:43:22+02:00*%
%TF.ProjectId,MPPT Controller,4d505054-2043-46f6-9e74-726f6c6c6572,rev?*%
%TF.SameCoordinates,Original*%
%TF.FileFunction,Copper,L2,Inr*%
%TF.FilePolarity,Positive*%
%FSLAX46Y46*%
G04 Gerber Fmt 4.6, Leading zero omitted, Abs format (unit mm)*
G04 Created by KiCad (PCBNEW 9.0.5) date 2026-08-22 20:43:22*
%MOMM*%
%LPD*%
G01*
G04 APERTURE LIST*
G04 Aperture macros list*
%AMRoundRect*
0 Rectangle with rounded corners*
0 $1 Rounding radius*
0 $2 $3 $4 $5 $6 $7 $8 $9 X,Y pos of 4 corners*
0 Add a 4 corners polygon primitive as box body*
4,1,4,$2,$3,$4,$5,$6,$7,$8,$9,$2,$3,0*
0 Add four circle primitives for the rounded corners*
1,1,$1+$1,$2,$3*
1,1,$1+$1,$4,$5*
1,1,$1+$1,$6,$7*
1,1,$1+$1,$8,$9*
0 Add four rect primitives between the rounded corners*
20,1,$1+$1,$2,$3,$4,$5,0*
20,1,$1+$1,$4,$5,$6,$7,0*
20,1,$1+$1,$6,$7,$8,$9,0*
20,1,$1+$1,$8,$9,$2,$3,0*%
G04 Aperture macros list end*
%TA.AperFunction,ComponentPad*%
%ADD10C,3.000000*%
%TD*%
%TA.AperFunction,HeatsinkPad*%
%ADD11C,0.600000*%
%TD*%
%TA.AperFunction,ComponentPad*%
%ADD12RoundRect,0.249999X-0.850001X0.850001X-0.850001X-0.850001X0.850001X-0.850001X0.850001X0.850001X0*%
%TD*%
%TA.AperFunction,ComponentPad*%
%ADD13C,2.200000*%
%TD*%
%TA.AperFunction,ComponentPad*%
%ADD14RoundRect,0.250000X-0.750000X0.750000X-0.750000X-0.750000X0.750000X-0.750000X0.750000X0.750000X0*%
%TD*%
%TA.AperFunction,ComponentPad*%
%ADD15C,2.000000*%
%TD*%
%TA.AperFunction,ComponentPad*%
%ADD16RoundRect,0.250000X-1.050000X1.050000X-1.050000X-1.050000X1.050000X-1.050000X1.050000X1.050000X0*%
%TD*%
%TA.AperFunction,ComponentPad*%
%ADD17C,2.600000*%
%TD*%
%TA.AperFunction,ComponentPad*%
%ADD18R,1.700000X1.700000*%
%TD*%
%TA.AperFunction,ComponentPad*%
%ADD19C,1.700000*%
%TD*%
%TA.AperFunction,ComponentPad*%
%ADD20R,1.905000X2.000000*%
%TD*%
%TA.AperFunction,ComponentPad*%
%ADD21O,1.905000X2.000000*%
%TD*%
%TA.AperFunction,ComponentPad*%
%ADD22RoundRect,0.250000X-0.750000X-0.750000X0.750000X-0.750000X0.750000X0.750000X-0.750000X0.750000X0*%
%TD*%
%TA.AperFunction,ComponentPad*%
%ADD23RoundRect,0.250000X1.350000X1.350000X-1.350000X1.350000X-1.350000X-1.350000X1.350000X-1.350000X0*%
%TD*%
%TA.AperFunction,ComponentPad*%
%ADD24C,3.200000*%
%TD*%
%TA.AperFunction,ComponentPad*%
%ADD25R,2.000000X1.905000*%
%TD*%
%TA.AperFunction,ComponentPad*%
%ADD26O,2.000000X1.905000*%
%TD*%
%TA.AperFunction,HeatsinkPad*%
%ADD27O,1.000000X2.100000*%
%TD*%
%TA.AperFunction,HeatsinkPad*%
%ADD28O,1.000000X1.600000*%
%TD*%
%TA.AperFunction,ViaPad*%
%ADD29C,0.800000*%
%TD*%
%TA.AperFunction,ViaPad*%
%ADD30C,0.600000*%
%TD*%
G04 APERTURE END LIST*
D10*
%TO.N,Net-(D7-K)*%
%TO.C,F1*%
X135520000Y-118505401D03*
%TO.N,/VBAT_RAW*%
X113020000Y-118505401D03*
%TD*%
%TO.N,/VIN_RAW*%
%TO.C,F2*%
X112805000Y-75695401D03*
%TO.N,Net-(D2-A)*%
X135305000Y-75695401D03*
%TD*%
D11*
%TO.N,GND*%
%TO.C,U5*%
X197590000Y-90682901D03*
X197590000Y-89157901D03*
X196827500Y-91445401D03*
X196827500Y-89920401D03*
X196827500Y-88395401D03*
X196065000Y-90682901D03*
X196065000Y-89157901D03*
X195302500Y-91445401D03*
X195302500Y-89920401D03*
X195302500Y-88395401D03*
X194540000Y-90682901D03*
X194540000Y-89157901D03*
%TD*%
D12*
%TO.N,Net-(D3-K)*%
%TO.C,D3*%
X115570000Y-97790000D03*
D13*
%TO.N,/VOUT*%
X115570000Y-107950000D03*
%TD*%
D14*
%TO.N,/VIN*%
%TO.C,C4*%
X106275000Y-89202724D03*
D15*
%TO.N,GND*%
X106275000Y-94202724D03*
%TD*%
D16*
%TO.N,/VBAT_RAW*%
%TO.C,J3*%
X104867500Y-115960401D03*
D17*
%TO.N,GND*%
X104867500Y-121040401D03*
%TD*%
D18*
%TO.N,Net-(D1-K)*%
%TO.C,J5*%
X202790000Y-115065401D03*
D19*
%TO.N,+3.3V*%
X205330000Y-115065401D03*
%TD*%
D20*
%TO.N,/GATE_HI*%
%TO.C,IRFZ44N1*%
X116435000Y-92520401D03*
D21*
%TO.N,/VIN*%
X118975000Y-92520401D03*
%TO.N,/SW*%
X121515000Y-92520401D03*
%TD*%
D22*
%TO.N,/VOUT*%
%TO.C,C2*%
X148127323Y-92710000D03*
D15*
%TO.N,GND*%
X153127323Y-92710000D03*
%TD*%
D23*
%TO.N,Net-(D2-K)*%
%TO.C,D2*%
X156620000Y-76965401D03*
D24*
%TO.N,Net-(D2-A)*%
X141380000Y-76965401D03*
%TD*%
D16*
%TO.N,/VIN_RAW*%
%TO.C,J1*%
X104832500Y-73150401D03*
D17*
%TO.N,GND*%
X104832500Y-78230401D03*
%TD*%
D25*
%TO.N,/GATE_LO*%
%TO.C,IRFZ44N2*%
X126050000Y-89535000D03*
D26*
%TO.N,/SW*%
X126050000Y-92075000D03*
%TO.N,GND*%
X126050000Y-94615000D03*
%TD*%
D18*
%TO.N,GND*%
%TO.C,J2*%
X157710000Y-125225401D03*
D19*
%TO.N,/ESP_RX*%
X157710000Y-122685401D03*
%TO.N,/ESP_TX*%
X157710000Y-120145401D03*
%TO.N,+3.3V*%
X157710000Y-117605401D03*
%TD*%
D27*
%TO.N,GND*%
%TO.C,J4*%
X165455000Y-120825401D03*
D28*
X165455000Y-125005401D03*
D27*
X174095000Y-120825401D03*
D28*
X174095000Y-125005401D03*
%TD*%
D29*
%TO.N,GND*%
X182144800Y-92459401D03*
X156819600Y-90935401D03*
X188444000Y-112373001D03*
X178285254Y-118264547D03*
X125459000Y-104164648D03*
X207149600Y-84280601D03*
X132334000Y-100482400D03*
X179830800Y-87966201D03*
X171375200Y-116030601D03*
X180570000Y-83874404D03*
X106148000Y-82147001D03*
X154865200Y-126139801D03*
X187936000Y-102365401D03*
X124917200Y-106695200D03*
X183216253Y-88755654D03*
X127406400Y-109235200D03*
X177014000Y-123701401D03*
X203836400Y-126901801D03*
X171324400Y-114811401D03*
X118644800Y-86566601D03*
X164517200Y-114925401D03*
X200940800Y-123345801D03*
X169648000Y-79911801D03*
X113260000Y-94999401D03*
X148132800Y-86058601D03*
X150039200Y-121263001D03*
X143967200Y-100181001D03*
X110720000Y-95456601D03*
X163145600Y-123955401D03*
X141403200Y-123447401D03*
X165888800Y-108258201D03*
X106249600Y-125123801D03*
X167971600Y-109172601D03*
X199772400Y-111001401D03*
X138202800Y-78743401D03*
X195454400Y-123599801D03*
X189663200Y-123650601D03*
X184126000Y-88547801D03*
X182195600Y-95304201D03*
X196318000Y-117453001D03*
X163755200Y-115929001D03*
X203938000Y-111052201D03*
%TO.N,/VOUT*%
X154178000Y-106680000D03*
X182043200Y-123955401D03*
D30*
%TO.N,/ADC_VOUT*%
X175794800Y-90427401D03*
X160300800Y-100536601D03*
X157051000Y-103786401D03*
X118200000Y-112014000D03*
%TO.N,+3.3V*%
X198858000Y-103940201D03*
X164314000Y-71834601D03*
X164212400Y-103991001D03*
X167616000Y-104143401D03*
X180722400Y-85499801D03*
X164263200Y-70259801D03*
X206782800Y-112576201D03*
X163755200Y-72901401D03*
X157405200Y-114760601D03*
X204192000Y-102162201D03*
X154942000Y-114277401D03*
%TO.N,+5V*%
X167870000Y-114709801D03*
X186361200Y-116741801D03*
%TO.N,/EN*%
X175845600Y-95101001D03*
X183364000Y-87582601D03*
%TO.N,/ESP_RX*%
X169749600Y-113135001D03*
X203938000Y-88205401D03*
%TO.N,Net-(Q2-B)*%
X171375200Y-98453801D03*
X176252000Y-97539401D03*
%TO.N,/IO0*%
X170788074Y-97910401D03*
X201455000Y-96834401D03*
%TO.N,/SDA*%
X201144000Y-88649401D03*
X177670000Y-86363401D03*
%TO.N,/SCL*%
X177776000Y-82299401D03*
X202871200Y-84585401D03*
%TO.N,/PWM_CTRL*%
X185142000Y-99505401D03*
X131206200Y-106045000D03*
%TO.N,/SD_CTRL*%
X131267200Y-104206000D03*
X184430800Y-102060601D03*
%TO.N,/GATE_LO*%
X127762000Y-97790000D03*
%TO.N,/ESP_TX*%
X172394269Y-107188332D03*
X203176000Y-86905401D03*
%TD*%
%TA.AperFunction,Conductor*%
%TO.N,GND*%
G36*
X169886451Y-69647587D02*
G01*
X170115175Y-69663796D01*
X170132677Y-69666301D01*
X170352432Y-69713969D01*
X170369394Y-69718939D01*
X170580123Y-69797409D01*
X170596217Y-69804749D01*
X170735323Y-69880622D01*
X170793613Y-69912415D01*
X170808506Y-69921977D01*
X170988555Y-70056644D01*
X171001937Y-70068230D01*
X171160984Y-70227167D01*
X171172579Y-70240540D01*
X171307373Y-70420496D01*
X171316945Y-70435383D01*
X171424748Y-70632701D01*
X171432105Y-70648800D01*
X171510717Y-70859461D01*
X171515703Y-70876434D01*
X171549026Y-71029538D01*
X171563520Y-71096134D01*
X171566040Y-71113652D01*
X171582384Y-71342012D01*
X171582700Y-71350864D01*
X171582700Y-79333638D01*
X171582699Y-79333641D01*
X171582699Y-79385001D01*
X171582699Y-79524156D01*
X171616245Y-79800436D01*
X171650282Y-79938530D01*
X171682850Y-80070663D01*
X171690563Y-80090999D01*
X171781539Y-80330882D01*
X171781541Y-80330886D01*
X171781542Y-80330888D01*
X171781542Y-80330889D01*
X171910874Y-80577309D01*
X172068970Y-80806351D01*
X172068972Y-80806353D01*
X172068974Y-80806356D01*
X172253527Y-81014674D01*
X172461845Y-81199227D01*
X172690889Y-81357324D01*
X172937319Y-81486661D01*
X173139790Y-81563448D01*
X173197537Y-81585349D01*
X173197539Y-81585349D01*
X173197543Y-81585351D01*
X173467765Y-81651955D01*
X173681422Y-81677897D01*
X173744042Y-81685501D01*
X173744045Y-81685501D01*
X173843638Y-81685501D01*
X176991453Y-81685501D01*
X177058492Y-81705186D01*
X177104247Y-81757990D01*
X177114191Y-81827148D01*
X177094555Y-81878391D01*
X177066612Y-81920210D01*
X177066602Y-81920228D01*
X177006264Y-82065899D01*
X177006261Y-82065911D01*
X176975500Y-82220554D01*
X176975500Y-82378247D01*
X177006261Y-82532890D01*
X177006264Y-82532902D01*
X177066602Y-82678573D01*
X177066609Y-82678586D01*
X177154210Y-82809689D01*
X177154213Y-82809693D01*
X177265707Y-82921187D01*
X177265711Y-82921190D01*
X177396814Y-83008791D01*
X177396827Y-83008798D01*
X177542498Y-83069136D01*
X177542503Y-83069138D01*
X177697153Y-83099900D01*
X177697156Y-83099901D01*
X177697158Y-83099901D01*
X177854844Y-83099901D01*
X177854845Y-83099900D01*
X178009497Y-83069138D01*
X178155179Y-83008795D01*
X178286289Y-82921190D01*
X178397789Y-82809690D01*
X178485394Y-82678580D01*
X178545737Y-82532898D01*
X178576500Y-82378243D01*
X178576500Y-82220559D01*
X178576500Y-82220556D01*
X178576499Y-82220554D01*
X178553887Y-82106878D01*
X178545737Y-82065904D01*
X178498159Y-81951039D01*
X178485397Y-81920228D01*
X178485387Y-81920210D01*
X178457445Y-81878391D01*
X178436567Y-81811714D01*
X178455052Y-81744334D01*
X178507031Y-81697644D01*
X178560547Y-81685501D01*
X205802005Y-81685501D01*
X205845172Y-81685501D01*
X205854018Y-81685817D01*
X206082620Y-81702166D01*
X206100129Y-81704684D01*
X206319744Y-81752459D01*
X206336703Y-81757438D01*
X206547294Y-81835984D01*
X206563377Y-81843328D01*
X206736640Y-81937938D01*
X206760632Y-81951039D01*
X206775516Y-81960604D01*
X206955439Y-82095293D01*
X206968801Y-82106871D01*
X207127731Y-82265800D01*
X207139311Y-82279165D01*
X207273994Y-82459081D01*
X207283559Y-82473964D01*
X207391267Y-82671216D01*
X207398617Y-82687309D01*
X207477160Y-82897890D01*
X207482144Y-82914866D01*
X207529915Y-83134469D01*
X207532433Y-83151981D01*
X207548784Y-83380601D01*
X207549100Y-83389447D01*
X207549100Y-111911060D01*
X207529415Y-111978099D01*
X207476611Y-112023854D01*
X207407453Y-112033798D01*
X207343897Y-112004773D01*
X207337419Y-111998741D01*
X207293092Y-111954414D01*
X207293088Y-111954411D01*
X207161985Y-111866810D01*
X207161972Y-111866803D01*
X207016301Y-111806465D01*
X207016289Y-111806462D01*
X206861645Y-111775701D01*
X206861642Y-111775701D01*
X206703958Y-111775701D01*
X206703955Y-111775701D01*
X206549310Y-111806462D01*
X206549298Y-111806465D01*
X206403627Y-111866803D01*
X206403614Y-111866810D01*
X206272511Y-111954411D01*
X206272507Y-111954414D01*
X206161013Y-112065908D01*
X206161010Y-112065912D01*
X206073409Y-112197015D01*
X206073402Y-112197028D01*
X206013064Y-112342699D01*
X206013061Y-112342711D01*
X205982300Y-112497354D01*
X205982300Y-112655047D01*
X206013061Y-112809690D01*
X206013064Y-112809702D01*
X206073402Y-112955373D01*
X206073409Y-112955386D01*
X206161010Y-113086489D01*
X206161013Y-113086493D01*
X206272507Y-113197987D01*
X206272511Y-113197990D01*
X206403614Y-113285591D01*
X206403627Y-113285598D01*
X206549298Y-113345936D01*
X206549303Y-113345938D01*
X206703953Y-113376700D01*
X206703956Y-113376701D01*
X206703958Y-113376701D01*
X206861644Y-113376701D01*
X206861645Y-113376700D01*
X207016297Y-113345938D01*
X207161979Y-113285595D01*
X207293089Y-113197990D01*
X207293092Y-113197987D01*
X207337419Y-113153661D01*
X207398742Y-113120176D01*
X207468434Y-113125160D01*
X207524367Y-113167032D01*
X207548784Y-113232496D01*
X207549100Y-113241342D01*
X207549100Y-126472173D01*
X207548784Y-126481020D01*
X207532433Y-126709620D01*
X207529915Y-126727131D01*
X207482144Y-126946734D01*
X207477160Y-126963710D01*
X207398616Y-127174292D01*
X207391266Y-127190384D01*
X207283561Y-127387633D01*
X207273996Y-127402518D01*
X207139307Y-127582440D01*
X207127722Y-127595810D01*
X206968807Y-127754726D01*
X206955435Y-127766312D01*
X206775519Y-127900995D01*
X206760636Y-127910560D01*
X206563383Y-128018269D01*
X206547289Y-128025619D01*
X206336712Y-128104159D01*
X206319737Y-128109143D01*
X206100129Y-128156916D01*
X206082617Y-128159434D01*
X205854000Y-128175785D01*
X205845154Y-128176101D01*
X99872028Y-128176101D01*
X99863182Y-128175785D01*
X99634581Y-128159435D01*
X99617069Y-128156917D01*
X99397462Y-128109144D01*
X99380487Y-128104160D01*
X99169911Y-128025620D01*
X99153817Y-128018270D01*
X98956563Y-127910560D01*
X98941680Y-127900995D01*
X98761763Y-127766311D01*
X98748399Y-127754732D01*
X98589466Y-127595800D01*
X98577887Y-127582436D01*
X98443204Y-127402520D01*
X98443203Y-127402518D01*
X98433639Y-127387637D01*
X98325932Y-127190385D01*
X98318582Y-127174292D01*
X98289734Y-127096949D01*
X98240035Y-126963702D01*
X98235056Y-126946743D01*
X98187282Y-126727128D01*
X98184765Y-126709619D01*
X98175165Y-126575401D01*
X98168416Y-126481032D01*
X98168100Y-126472186D01*
X98168100Y-120922415D01*
X103067500Y-120922415D01*
X103067500Y-121158386D01*
X103098299Y-121392315D01*
X103159370Y-121620238D01*
X103249660Y-121838220D01*
X103249665Y-121838229D01*
X103367644Y-122042572D01*
X103367645Y-122042573D01*
X103430221Y-122124124D01*
X104266458Y-121287888D01*
X104291478Y-121348291D01*
X104362612Y-121454752D01*
X104453149Y-121545289D01*
X104559610Y-121616423D01*
X104620011Y-121641442D01*
X103783775Y-122477678D01*
X103865327Y-122540255D01*
X103865328Y-122540256D01*
X104069671Y-122658235D01*
X104069680Y-122658240D01*
X104287663Y-122748530D01*
X104287661Y-122748530D01*
X104515585Y-122809601D01*
X104749514Y-122840400D01*
X104749529Y-122840401D01*
X104985471Y-122840401D01*
X104985485Y-122840400D01*
X105219414Y-122809601D01*
X105447337Y-122748530D01*
X105665319Y-122658240D01*
X105665328Y-122658235D01*
X105869681Y-122540251D01*
X105951223Y-122477680D01*
X105951223Y-122477677D01*
X105114987Y-121641442D01*
X105175390Y-121616423D01*
X105281851Y-121545289D01*
X105372388Y-121454752D01*
X105443522Y-121348291D01*
X105468541Y-121287889D01*
X106304776Y-122124124D01*
X106304779Y-122124124D01*
X106367350Y-122042582D01*
X106485334Y-121838229D01*
X106485339Y-121838220D01*
X106575629Y-121620238D01*
X106636700Y-121392315D01*
X106667499Y-121158386D01*
X106667500Y-121158372D01*
X106667500Y-120922429D01*
X106667499Y-120922415D01*
X106636700Y-120688486D01*
X106575629Y-120460563D01*
X106485339Y-120242581D01*
X106485334Y-120242572D01*
X106367355Y-120038229D01*
X106367354Y-120038228D01*
X106304777Y-119956676D01*
X105468541Y-120792912D01*
X105443522Y-120732511D01*
X105372388Y-120626050D01*
X105281851Y-120535513D01*
X105175390Y-120464379D01*
X105114988Y-120439359D01*
X105951223Y-119603122D01*
X105869672Y-119540546D01*
X105869671Y-119540545D01*
X105665328Y-119422566D01*
X105665319Y-119422561D01*
X105447336Y-119332271D01*
X105447338Y-119332271D01*
X105219414Y-119271200D01*
X104985485Y-119240401D01*
X104749514Y-119240401D01*
X104515585Y-119271200D01*
X104287662Y-119332271D01*
X104069680Y-119422561D01*
X104069671Y-119422566D01*
X103865328Y-119540545D01*
X103865318Y-119540551D01*
X103783775Y-119603121D01*
X103783775Y-119603122D01*
X104620012Y-120439359D01*
X104559610Y-120464379D01*
X104453149Y-120535513D01*
X104362612Y-120626050D01*
X104291478Y-120732511D01*
X104266458Y-120792912D01*
X103430221Y-119956676D01*
X103430220Y-119956676D01*
X103367650Y-120038219D01*
X103367644Y-120038229D01*
X103249665Y-120242572D01*
X103249660Y-120242581D01*
X103159370Y-120460563D01*
X103098299Y-120688486D01*
X103067500Y-120922415D01*
X98168100Y-120922415D01*
X98168100Y-118374273D01*
X111019500Y-118374273D01*
X111019500Y-118636528D01*
X111036404Y-118764917D01*
X111053730Y-118896517D01*
X111078873Y-118990352D01*
X111121602Y-119149819D01*
X111121605Y-119149829D01*
X111221951Y-119392085D01*
X111221958Y-119392101D01*
X111353075Y-119619204D01*
X111512718Y-119827252D01*
X111512726Y-119827261D01*
X111698140Y-120012675D01*
X111698148Y-120012682D01*
X111906196Y-120172325D01*
X112133299Y-120303442D01*
X112133309Y-120303447D01*
X112343235Y-120390401D01*
X112375581Y-120403799D01*
X112628884Y-120471671D01*
X112888880Y-120505901D01*
X112888887Y-120505901D01*
X113151113Y-120505901D01*
X113151120Y-120505901D01*
X113411116Y-120471671D01*
X113664419Y-120403799D01*
X113906697Y-120303444D01*
X114133803Y-120172325D01*
X114341851Y-120012683D01*
X114341855Y-120012678D01*
X114341860Y-120012675D01*
X114527274Y-119827261D01*
X114527277Y-119827256D01*
X114527282Y-119827252D01*
X114686924Y-119619204D01*
X114818043Y-119392098D01*
X114818045Y-119392092D01*
X114818049Y-119392085D01*
X114918394Y-119149829D01*
X114918398Y-119149820D01*
X114986270Y-118896517D01*
X115020500Y-118636521D01*
X115020500Y-118375498D01*
X122619500Y-118375498D01*
X122619500Y-118635303D01*
X122660140Y-118891894D01*
X122740422Y-119138977D01*
X122804948Y-119265614D01*
X122829514Y-119313828D01*
X122858368Y-119370455D01*
X122981946Y-119540546D01*
X123011069Y-119580630D01*
X123194771Y-119764332D01*
X123404949Y-119917035D01*
X123535800Y-119983707D01*
X123636423Y-120034978D01*
X123636425Y-120034978D01*
X123636428Y-120034980D01*
X123883507Y-120115261D01*
X124015706Y-120136198D01*
X124140098Y-120155901D01*
X124140103Y-120155901D01*
X124399902Y-120155901D01*
X124513298Y-120137940D01*
X124656493Y-120115261D01*
X124903572Y-120034980D01*
X125135051Y-119917035D01*
X125345229Y-119764332D01*
X125528931Y-119580630D01*
X125681634Y-119370452D01*
X125799579Y-119138973D01*
X125879860Y-118891894D01*
X125902539Y-118748699D01*
X125920500Y-118635303D01*
X125920500Y-118375499D01*
X125920499Y-118375497D01*
X125920305Y-118374273D01*
X133519500Y-118374273D01*
X133519500Y-118636528D01*
X133536404Y-118764917D01*
X133553730Y-118896517D01*
X133578873Y-118990352D01*
X133621602Y-119149819D01*
X133621605Y-119149829D01*
X133721951Y-119392085D01*
X133721958Y-119392101D01*
X133853075Y-119619204D01*
X134012718Y-119827252D01*
X134012726Y-119827261D01*
X134198140Y-120012675D01*
X134198148Y-120012682D01*
X134406196Y-120172325D01*
X134633299Y-120303442D01*
X134633309Y-120303447D01*
X134843235Y-120390401D01*
X134875581Y-120403799D01*
X135128884Y-120471671D01*
X135388880Y-120505901D01*
X135388887Y-120505901D01*
X135651113Y-120505901D01*
X135651120Y-120505901D01*
X135911116Y-120471671D01*
X136164419Y-120403799D01*
X136406697Y-120303444D01*
X136633803Y-120172325D01*
X136841851Y-120012683D01*
X136841855Y-120012678D01*
X136841860Y-120012675D01*
X137027274Y-119827261D01*
X137027277Y-119827256D01*
X137027282Y-119827252D01*
X137186924Y-119619204D01*
X137318043Y-119392098D01*
X137318045Y-119392092D01*
X137318049Y-119392085D01*
X137418394Y-119149829D01*
X137418398Y-119149820D01*
X137486270Y-118896517D01*
X137520500Y-118636521D01*
X137520500Y-118374281D01*
X137486270Y-118114285D01*
X137418398Y-117860982D01*
X137376942Y-117760899D01*
X137318046Y-117618710D01*
X137318037Y-117618693D01*
X137281982Y-117556243D01*
X137281981Y-117556242D01*
X137248998Y-117499114D01*
X156359500Y-117499114D01*
X156359500Y-117711688D01*
X156392754Y-117921644D01*
X156456849Y-118118908D01*
X156458444Y-118123815D01*
X156554951Y-118313221D01*
X156679890Y-118485187D01*
X156830213Y-118635510D01*
X157002182Y-118760451D01*
X157010946Y-118764917D01*
X157061742Y-118812892D01*
X157078536Y-118880713D01*
X157055998Y-118946848D01*
X157010946Y-118985885D01*
X157002182Y-118990350D01*
X156830213Y-119115291D01*
X156679890Y-119265614D01*
X156554951Y-119437580D01*
X156458444Y-119626986D01*
X156392753Y-119829161D01*
X156359500Y-120039114D01*
X156359500Y-120251687D01*
X156392753Y-120461640D01*
X156458444Y-120663815D01*
X156554951Y-120853221D01*
X156679890Y-121025187D01*
X156830213Y-121175510D01*
X157002182Y-121300451D01*
X157010946Y-121304917D01*
X157061742Y-121352892D01*
X157078536Y-121420713D01*
X157055998Y-121486848D01*
X157010946Y-121525885D01*
X157002182Y-121530350D01*
X156830213Y-121655291D01*
X156679890Y-121805614D01*
X156554951Y-121977580D01*
X156458444Y-122166986D01*
X156392753Y-122369161D01*
X156359500Y-122579114D01*
X156359500Y-122791688D01*
X156392754Y-123001644D01*
X156443357Y-123157384D01*
X156458444Y-123203815D01*
X156554951Y-123393221D01*
X156679890Y-123565187D01*
X156793818Y-123679115D01*
X156827303Y-123740438D01*
X156822319Y-123810130D01*
X156780447Y-123866063D01*
X156749471Y-123882978D01*
X156617912Y-123932047D01*
X156617906Y-123932050D01*
X156502812Y-124018210D01*
X156502809Y-124018213D01*
X156416649Y-124133307D01*
X156416645Y-124133314D01*
X156366403Y-124268021D01*
X156366401Y-124268028D01*
X156360000Y-124327556D01*
X156360000Y-124975401D01*
X157276988Y-124975401D01*
X157244075Y-125032408D01*
X157210000Y-125159575D01*
X157210000Y-125291227D01*
X157244075Y-125418394D01*
X157276988Y-125475401D01*
X156360000Y-125475401D01*
X156360000Y-126123245D01*
X156366401Y-126182773D01*
X156366403Y-126182780D01*
X156416645Y-126317487D01*
X156416649Y-126317494D01*
X156502809Y-126432588D01*
X156502812Y-126432591D01*
X156617906Y-126518751D01*
X156617913Y-126518755D01*
X156752620Y-126568997D01*
X156752627Y-126568999D01*
X156812155Y-126575400D01*
X156812172Y-126575401D01*
X157460000Y-126575401D01*
X157460000Y-125658413D01*
X157517007Y-125691326D01*
X157644174Y-125725401D01*
X157775826Y-125725401D01*
X157902993Y-125691326D01*
X157960000Y-125658413D01*
X157960000Y-126575401D01*
X158607828Y-126575401D01*
X158607844Y-126575400D01*
X158667372Y-126568999D01*
X158667379Y-126568997D01*
X158802086Y-126518755D01*
X158802093Y-126518751D01*
X158917187Y-126432591D01*
X158917190Y-126432588D01*
X159003350Y-126317494D01*
X159003354Y-126317487D01*
X159053596Y-126182780D01*
X159053598Y-126182773D01*
X159059999Y-126123245D01*
X159060000Y-126123228D01*
X159060000Y-125475401D01*
X158143012Y-125475401D01*
X158175925Y-125418394D01*
X158210000Y-125291227D01*
X158210000Y-125159575D01*
X158175925Y-125032408D01*
X158143012Y-124975401D01*
X159060000Y-124975401D01*
X159060000Y-124606905D01*
X164455000Y-124606905D01*
X164455000Y-124755401D01*
X165155000Y-124755401D01*
X165155000Y-125255401D01*
X164455000Y-125255401D01*
X164455000Y-125403896D01*
X164493427Y-125597082D01*
X164493430Y-125597094D01*
X164568807Y-125779072D01*
X164568814Y-125779085D01*
X164678248Y-125942863D01*
X164678251Y-125942867D01*
X164817533Y-126082149D01*
X164817537Y-126082152D01*
X164981315Y-126191586D01*
X164981328Y-126191593D01*
X165163308Y-126266970D01*
X165205000Y-126275263D01*
X165205000Y-125472389D01*
X165214940Y-125489606D01*
X165270795Y-125545461D01*
X165339204Y-125584957D01*
X165415504Y-125605401D01*
X165494496Y-125605401D01*
X165570796Y-125584957D01*
X165639205Y-125545461D01*
X165695060Y-125489606D01*
X165705000Y-125472389D01*
X165705000Y-126275263D01*
X165746690Y-126266970D01*
X165746692Y-126266970D01*
X165928671Y-126191593D01*
X165928684Y-126191586D01*
X166092462Y-126082152D01*
X166092466Y-126082149D01*
X166231748Y-125942867D01*
X166231751Y-125942863D01*
X166341185Y-125779085D01*
X166341192Y-125779072D01*
X166416569Y-125597094D01*
X166416572Y-125597082D01*
X166454999Y-125403896D01*
X166455000Y-125403893D01*
X166455000Y-125255401D01*
X165755000Y-125255401D01*
X165755000Y-124755401D01*
X166455000Y-124755401D01*
X166455000Y-124606909D01*
X166454999Y-124606905D01*
X173095000Y-124606905D01*
X173095000Y-124755401D01*
X173795000Y-124755401D01*
X173795000Y-125255401D01*
X173095000Y-125255401D01*
X173095000Y-125403896D01*
X173133427Y-125597082D01*
X173133430Y-125597094D01*
X173208807Y-125779072D01*
X173208814Y-125779085D01*
X173318248Y-125942863D01*
X173318251Y-125942867D01*
X173457533Y-126082149D01*
X173457537Y-126082152D01*
X173621315Y-126191586D01*
X173621328Y-126191593D01*
X173803308Y-126266970D01*
X173845000Y-126275263D01*
X173845000Y-125472389D01*
X173854940Y-125489606D01*
X173910795Y-125545461D01*
X173979204Y-125584957D01*
X174055504Y-125605401D01*
X174134496Y-125605401D01*
X174210796Y-125584957D01*
X174279205Y-125545461D01*
X174335060Y-125489606D01*
X174345000Y-125472389D01*
X174345000Y-126275263D01*
X174386690Y-126266970D01*
X174386692Y-126266970D01*
X174568671Y-126191593D01*
X174568684Y-126191586D01*
X174732462Y-126082152D01*
X174732466Y-126082149D01*
X174871748Y-125942867D01*
X174871751Y-125942863D01*
X174981185Y-125779085D01*
X174981192Y-125779072D01*
X175056569Y-125597094D01*
X175056572Y-125597082D01*
X175094999Y-125403896D01*
X175095000Y-125403893D01*
X175095000Y-125255401D01*
X174395000Y-125255401D01*
X174395000Y-124755401D01*
X175095000Y-124755401D01*
X175095000Y-124606909D01*
X175094999Y-124606905D01*
X175056572Y-124413719D01*
X175056569Y-124413707D01*
X174981192Y-124231729D01*
X174981185Y-124231716D01*
X174871751Y-124067938D01*
X174871748Y-124067934D01*
X174732466Y-123928652D01*
X174732462Y-123928649D01*
X174639757Y-123866705D01*
X181142700Y-123866705D01*
X181142700Y-124044096D01*
X181177303Y-124218059D01*
X181177306Y-124218068D01*
X181245183Y-124381941D01*
X181245190Y-124381954D01*
X181343735Y-124529435D01*
X181343738Y-124529439D01*
X181469161Y-124654862D01*
X181469165Y-124654865D01*
X181616646Y-124753410D01*
X181616659Y-124753417D01*
X181739563Y-124804324D01*
X181780534Y-124821295D01*
X181780536Y-124821295D01*
X181780541Y-124821297D01*
X181954504Y-124855900D01*
X181954507Y-124855901D01*
X181954509Y-124855901D01*
X182131893Y-124855901D01*
X182131894Y-124855900D01*
X182189882Y-124844365D01*
X182305858Y-124821297D01*
X182305861Y-124821295D01*
X182305866Y-124821295D01*
X182469747Y-124753414D01*
X182617235Y-124654865D01*
X182742664Y-124529436D01*
X182841213Y-124381948D01*
X182909094Y-124218067D01*
X182943700Y-124044092D01*
X182943700Y-123866710D01*
X182943700Y-123866707D01*
X182943699Y-123866705D01*
X182909096Y-123692742D01*
X182909093Y-123692733D01*
X182841216Y-123528860D01*
X182841209Y-123528847D01*
X182742664Y-123381366D01*
X182742661Y-123381362D01*
X182617238Y-123255939D01*
X182617234Y-123255936D01*
X182469753Y-123157391D01*
X182469740Y-123157384D01*
X182305867Y-123089507D01*
X182305858Y-123089504D01*
X182131894Y-123054901D01*
X182131891Y-123054901D01*
X181954509Y-123054901D01*
X181954506Y-123054901D01*
X181780541Y-123089504D01*
X181780532Y-123089507D01*
X181616659Y-123157384D01*
X181616646Y-123157391D01*
X181469165Y-123255936D01*
X181469161Y-123255939D01*
X181343738Y-123381362D01*
X181343735Y-123381366D01*
X181245190Y-123528847D01*
X181245183Y-123528860D01*
X181177306Y-123692733D01*
X181177303Y-123692742D01*
X181142700Y-123866705D01*
X174639757Y-123866705D01*
X174568684Y-123819215D01*
X174568671Y-123819208D01*
X174386691Y-123743830D01*
X174386683Y-123743828D01*
X174345000Y-123735536D01*
X174345000Y-124538412D01*
X174335060Y-124521196D01*
X174279205Y-124465341D01*
X174210796Y-124425845D01*
X174134496Y-124405401D01*
X174055504Y-124405401D01*
X173979204Y-124425845D01*
X173910795Y-124465341D01*
X173854940Y-124521196D01*
X173845000Y-124538412D01*
X173845000Y-123735537D01*
X173844999Y-123735536D01*
X173803316Y-123743828D01*
X173803308Y-123743830D01*
X173621328Y-123819208D01*
X173621315Y-123819215D01*
X173457537Y-123928649D01*
X173457533Y-123928652D01*
X173318251Y-124067934D01*
X173318248Y-124067938D01*
X173208814Y-124231716D01*
X173208807Y-124231729D01*
X173133430Y-124413707D01*
X173133427Y-124413719D01*
X173095000Y-124606905D01*
X166454999Y-124606905D01*
X166416572Y-124413719D01*
X166416569Y-124413707D01*
X166341192Y-124231729D01*
X166341185Y-124231716D01*
X166231751Y-124067938D01*
X166231748Y-124067934D01*
X166092466Y-123928652D01*
X166092462Y-123928649D01*
X165928684Y-123819215D01*
X165928671Y-123819208D01*
X165746691Y-123743830D01*
X165746683Y-123743828D01*
X165705000Y-123735536D01*
X165705000Y-124538412D01*
X165695060Y-124521196D01*
X165639205Y-124465341D01*
X165570796Y-124425845D01*
X165494496Y-124405401D01*
X165415504Y-124405401D01*
X165339204Y-124425845D01*
X165270795Y-124465341D01*
X165214940Y-124521196D01*
X165205000Y-124538412D01*
X165205000Y-123735537D01*
X165204999Y-123735536D01*
X165163316Y-123743828D01*
X165163308Y-123743830D01*
X164981328Y-123819208D01*
X164981315Y-123819215D01*
X164817537Y-123928649D01*
X164817533Y-123928652D01*
X164678251Y-124067934D01*
X164678248Y-124067938D01*
X164568814Y-124231716D01*
X164568807Y-124231729D01*
X164493430Y-124413707D01*
X164493427Y-124413719D01*
X164455000Y-124606905D01*
X159060000Y-124606905D01*
X159060000Y-124327573D01*
X159059999Y-124327556D01*
X159053598Y-124268028D01*
X159053596Y-124268021D01*
X159003354Y-124133314D01*
X159003350Y-124133307D01*
X158917190Y-124018213D01*
X158917187Y-124018210D01*
X158802093Y-123932050D01*
X158802088Y-123932047D01*
X158670528Y-123882978D01*
X158614595Y-123841106D01*
X158590178Y-123775642D01*
X158605030Y-123707369D01*
X158626175Y-123679121D01*
X158740104Y-123565193D01*
X158865051Y-123393217D01*
X158961557Y-123203813D01*
X159027246Y-123001644D01*
X159060500Y-122791688D01*
X159060500Y-122579114D01*
X159027246Y-122369158D01*
X158961557Y-122166989D01*
X158865051Y-121977585D01*
X158865049Y-121977582D01*
X158865048Y-121977580D01*
X158740109Y-121805614D01*
X158589786Y-121655291D01*
X158417820Y-121530352D01*
X158417115Y-121529992D01*
X158409054Y-121525886D01*
X158358259Y-121477913D01*
X158341463Y-121410093D01*
X158363999Y-121343957D01*
X158409054Y-121304916D01*
X158417816Y-121300452D01*
X158514787Y-121229999D01*
X158589786Y-121175510D01*
X158589788Y-121175507D01*
X158589792Y-121175505D01*
X158740104Y-121025193D01*
X158740106Y-121025189D01*
X158740109Y-121025187D01*
X158793897Y-120951154D01*
X158865048Y-120853221D01*
X158865047Y-120853221D01*
X158865051Y-120853217D01*
X158961557Y-120663813D01*
X159027246Y-120461644D01*
X159060500Y-120251688D01*
X159060500Y-120176905D01*
X164455000Y-120176905D01*
X164455000Y-120575401D01*
X165155000Y-120575401D01*
X165155000Y-121075401D01*
X164455000Y-121075401D01*
X164455000Y-121473896D01*
X164493427Y-121667082D01*
X164493430Y-121667094D01*
X164568807Y-121849072D01*
X164568814Y-121849085D01*
X164678248Y-122012863D01*
X164678251Y-122012867D01*
X164817533Y-122152149D01*
X164817537Y-122152152D01*
X164981315Y-122261586D01*
X164981328Y-122261593D01*
X165163308Y-122336970D01*
X165205000Y-122345263D01*
X165205000Y-121542389D01*
X165214940Y-121559606D01*
X165270795Y-121615461D01*
X165339204Y-121654957D01*
X165415504Y-121675401D01*
X165494496Y-121675401D01*
X165570796Y-121654957D01*
X165639205Y-121615461D01*
X165695060Y-121559606D01*
X165705000Y-121542389D01*
X165705000Y-122345263D01*
X165746690Y-122336970D01*
X165746692Y-122336970D01*
X165928671Y-122261593D01*
X165928684Y-122261586D01*
X166092462Y-122152152D01*
X166092466Y-122152149D01*
X166231748Y-122012867D01*
X166231754Y-122012859D01*
X166320690Y-121879758D01*
X166374302Y-121834952D01*
X166443627Y-121826245D01*
X166492682Y-121845545D01*
X166588714Y-121909712D01*
X166702548Y-121956864D01*
X166806698Y-121977580D01*
X166823389Y-121980900D01*
X166823393Y-121980901D01*
X166823394Y-121980901D01*
X166946607Y-121980901D01*
X166946608Y-121980900D01*
X167067452Y-121956864D01*
X167181286Y-121909712D01*
X167283733Y-121841259D01*
X167370858Y-121754134D01*
X167439311Y-121651687D01*
X167486463Y-121537853D01*
X167510500Y-121417007D01*
X167510500Y-121293795D01*
X167510499Y-121293790D01*
X172039500Y-121293790D01*
X172039500Y-121417011D01*
X172063535Y-121537845D01*
X172063538Y-121537855D01*
X172110687Y-121651684D01*
X172110692Y-121651693D01*
X172179141Y-121754133D01*
X172179144Y-121754137D01*
X172266263Y-121841256D01*
X172266267Y-121841259D01*
X172368707Y-121909708D01*
X172368713Y-121909711D01*
X172368714Y-121909712D01*
X172482548Y-121956864D01*
X172586698Y-121977580D01*
X172603389Y-121980900D01*
X172603393Y-121980901D01*
X172603394Y-121980901D01*
X172726607Y-121980901D01*
X172726608Y-121980900D01*
X172847452Y-121956864D01*
X172961286Y-121909712D01*
X173057318Y-121845544D01*
X173123992Y-121824668D01*
X173191373Y-121843152D01*
X173229309Y-121879757D01*
X173318248Y-122012863D01*
X173318251Y-122012867D01*
X173457533Y-122152149D01*
X173457537Y-122152152D01*
X173621315Y-122261586D01*
X173621328Y-122261593D01*
X173803308Y-122336970D01*
X173845000Y-122345263D01*
X173845000Y-121542389D01*
X173854940Y-121559606D01*
X173910795Y-121615461D01*
X173979204Y-121654957D01*
X174055504Y-121675401D01*
X174134496Y-121675401D01*
X174210796Y-121654957D01*
X174279205Y-121615461D01*
X174335060Y-121559606D01*
X174345000Y-121542389D01*
X174345000Y-122345263D01*
X174386690Y-122336970D01*
X174386692Y-122336970D01*
X174568671Y-122261593D01*
X174568684Y-122261586D01*
X174732462Y-122152152D01*
X174732466Y-122152149D01*
X174871748Y-122012867D01*
X174871751Y-122012863D01*
X174981185Y-121849085D01*
X174981192Y-121849072D01*
X175056569Y-121667094D01*
X175056572Y-121667082D01*
X175094999Y-121473896D01*
X175095000Y-121473893D01*
X175095000Y-121075401D01*
X174395000Y-121075401D01*
X174395000Y-120575401D01*
X175095000Y-120575401D01*
X175095000Y-120176909D01*
X175094999Y-120176905D01*
X175056572Y-119983719D01*
X175056569Y-119983707D01*
X174981192Y-119801729D01*
X174981185Y-119801716D01*
X174871751Y-119637938D01*
X174871748Y-119637934D01*
X174732466Y-119498652D01*
X174732462Y-119498649D01*
X174568684Y-119389215D01*
X174568671Y-119389208D01*
X174386691Y-119313830D01*
X174386683Y-119313828D01*
X174345000Y-119305536D01*
X174345000Y-120108412D01*
X174335060Y-120091196D01*
X174279205Y-120035341D01*
X174210796Y-119995845D01*
X174134496Y-119975401D01*
X174055504Y-119975401D01*
X173979204Y-119995845D01*
X173910795Y-120035341D01*
X173854940Y-120091196D01*
X173845000Y-120108412D01*
X173845000Y-119305537D01*
X173844999Y-119305536D01*
X173803316Y-119313828D01*
X173803308Y-119313830D01*
X173621328Y-119389208D01*
X173621315Y-119389215D01*
X173457537Y-119498649D01*
X173457533Y-119498652D01*
X173318251Y-119637934D01*
X173318248Y-119637938D01*
X173208814Y-119801716D01*
X173208807Y-119801729D01*
X173133430Y-119983707D01*
X173133427Y-119983719D01*
X173095000Y-120176905D01*
X173095000Y-120670896D01*
X173075315Y-120737935D01*
X173022511Y-120783690D01*
X172953353Y-120793634D01*
X172923548Y-120785457D01*
X172847458Y-120753940D01*
X172847454Y-120753938D01*
X172847452Y-120753938D01*
X172847448Y-120753937D01*
X172847444Y-120753936D01*
X172726610Y-120729901D01*
X172726606Y-120729901D01*
X172603394Y-120729901D01*
X172603389Y-120729901D01*
X172482555Y-120753936D01*
X172482545Y-120753939D01*
X172368716Y-120801088D01*
X172368707Y-120801093D01*
X172266267Y-120869542D01*
X172266263Y-120869545D01*
X172179144Y-120956664D01*
X172179141Y-120956668D01*
X172110692Y-121059108D01*
X172110687Y-121059117D01*
X172063538Y-121172946D01*
X172063535Y-121172956D01*
X172039500Y-121293790D01*
X167510499Y-121293790D01*
X167486463Y-121172949D01*
X167439311Y-121059115D01*
X167439310Y-121059114D01*
X167439307Y-121059108D01*
X167370858Y-120956668D01*
X167370855Y-120956664D01*
X167283736Y-120869545D01*
X167283732Y-120869542D01*
X167181292Y-120801093D01*
X167181283Y-120801088D01*
X167086070Y-120761650D01*
X167067452Y-120753938D01*
X167067448Y-120753937D01*
X167067444Y-120753936D01*
X166946610Y-120729901D01*
X166946606Y-120729901D01*
X166823394Y-120729901D01*
X166823389Y-120729901D01*
X166702555Y-120753936D01*
X166702541Y-120753940D01*
X166626452Y-120785457D01*
X166556982Y-120792926D01*
X166494503Y-120761650D01*
X166458852Y-120701561D01*
X166455000Y-120670896D01*
X166455000Y-120176909D01*
X166454999Y-120176905D01*
X166416572Y-119983719D01*
X166416569Y-119983707D01*
X166341192Y-119801729D01*
X166341185Y-119801716D01*
X166231751Y-119637938D01*
X166231748Y-119637934D01*
X166092466Y-119498652D01*
X166092462Y-119498649D01*
X165928684Y-119389215D01*
X165928671Y-119389208D01*
X165746691Y-119313830D01*
X165746683Y-119313828D01*
X165705000Y-119305536D01*
X165705000Y-120108412D01*
X165695060Y-120091196D01*
X165639205Y-120035341D01*
X165570796Y-119995845D01*
X165494496Y-119975401D01*
X165415504Y-119975401D01*
X165339204Y-119995845D01*
X165270795Y-120035341D01*
X165214940Y-120091196D01*
X165205000Y-120108412D01*
X165205000Y-119305537D01*
X165204999Y-119305536D01*
X165163316Y-119313828D01*
X165163308Y-119313830D01*
X164981328Y-119389208D01*
X164981315Y-119389215D01*
X164817537Y-119498649D01*
X164817533Y-119498652D01*
X164678251Y-119637934D01*
X164678248Y-119637938D01*
X164568814Y-119801716D01*
X164568807Y-119801729D01*
X164493430Y-119983707D01*
X164493427Y-119983719D01*
X164455000Y-120176905D01*
X159060500Y-120176905D01*
X159060500Y-120039114D01*
X159027246Y-119829158D01*
X158961557Y-119626989D01*
X158865051Y-119437585D01*
X158865049Y-119437582D01*
X158865048Y-119437580D01*
X158740109Y-119265614D01*
X158589786Y-119115291D01*
X158417820Y-118990352D01*
X158417115Y-118989992D01*
X158409054Y-118985886D01*
X158358259Y-118937913D01*
X158341463Y-118870093D01*
X158363999Y-118803957D01*
X158409054Y-118764916D01*
X158417816Y-118760452D01*
X158439789Y-118744487D01*
X158589786Y-118635510D01*
X158589788Y-118635507D01*
X158589792Y-118635505D01*
X158740104Y-118485193D01*
X158740106Y-118485189D01*
X158740109Y-118485187D01*
X158865048Y-118313221D01*
X158865047Y-118313221D01*
X158865051Y-118313217D01*
X158961557Y-118123813D01*
X159027246Y-117921644D01*
X159060500Y-117711688D01*
X159060500Y-117499114D01*
X159027246Y-117289158D01*
X158961557Y-117086989D01*
X158865051Y-116897585D01*
X158865049Y-116897582D01*
X158865048Y-116897580D01*
X158743117Y-116729755D01*
X158743114Y-116729752D01*
X158740104Y-116725609D01*
X158677449Y-116662954D01*
X185560700Y-116662954D01*
X185560700Y-116820647D01*
X185591461Y-116975290D01*
X185591464Y-116975302D01*
X185651802Y-117120973D01*
X185651809Y-117120986D01*
X185739410Y-117252089D01*
X185739413Y-117252093D01*
X185850907Y-117363587D01*
X185850911Y-117363590D01*
X185982014Y-117451191D01*
X185982027Y-117451198D01*
X186127698Y-117511536D01*
X186127703Y-117511538D01*
X186282353Y-117542300D01*
X186282356Y-117542301D01*
X186282358Y-117542301D01*
X186440044Y-117542301D01*
X186440045Y-117542300D01*
X186594697Y-117511538D01*
X186740379Y-117451195D01*
X186871489Y-117363590D01*
X186982989Y-117252090D01*
X187070594Y-117120980D01*
X187130937Y-116975298D01*
X187161700Y-116820643D01*
X187161700Y-116662959D01*
X187161700Y-116662956D01*
X187161699Y-116662954D01*
X187150570Y-116607006D01*
X187130937Y-116508304D01*
X187130935Y-116508299D01*
X187070597Y-116362628D01*
X187070590Y-116362615D01*
X186982989Y-116231512D01*
X186982986Y-116231508D01*
X186871492Y-116120014D01*
X186871488Y-116120011D01*
X186740385Y-116032410D01*
X186740372Y-116032403D01*
X186594701Y-115972065D01*
X186594689Y-115972062D01*
X186440045Y-115941301D01*
X186440042Y-115941301D01*
X186282358Y-115941301D01*
X186282355Y-115941301D01*
X186127710Y-115972062D01*
X186127698Y-115972065D01*
X185982027Y-116032403D01*
X185982014Y-116032410D01*
X185850911Y-116120011D01*
X185850907Y-116120014D01*
X185739413Y-116231508D01*
X185739410Y-116231512D01*
X185651809Y-116362615D01*
X185651802Y-116362628D01*
X185591464Y-116508299D01*
X185591461Y-116508311D01*
X185560700Y-116662954D01*
X158677449Y-116662954D01*
X158589792Y-116575297D01*
X158589786Y-116575291D01*
X158417820Y-116450352D01*
X158228414Y-116353845D01*
X158228413Y-116353844D01*
X158228412Y-116353844D01*
X158026243Y-116288155D01*
X158026241Y-116288154D01*
X158026240Y-116288154D01*
X157864957Y-116262609D01*
X157816287Y-116254901D01*
X157603713Y-116254901D01*
X157555042Y-116262609D01*
X157393760Y-116288154D01*
X157191585Y-116353845D01*
X157002179Y-116450352D01*
X156830213Y-116575291D01*
X156679890Y-116725614D01*
X156554951Y-116897580D01*
X156458444Y-117086986D01*
X156392753Y-117289161D01*
X156380965Y-117363590D01*
X156359500Y-117499114D01*
X137248998Y-117499114D01*
X137186924Y-117391597D01*
X137027281Y-117183549D01*
X137027274Y-117183541D01*
X136841860Y-116998127D01*
X136841851Y-116998119D01*
X136633803Y-116838476D01*
X136406700Y-116707359D01*
X136406690Y-116707354D01*
X136164428Y-116607006D01*
X136164421Y-116607004D01*
X136164419Y-116607003D01*
X135911116Y-116539131D01*
X135853339Y-116531524D01*
X135651127Y-116504901D01*
X135651120Y-116504901D01*
X135388880Y-116504901D01*
X135388872Y-116504901D01*
X135157772Y-116535327D01*
X135128884Y-116539131D01*
X134993910Y-116575297D01*
X134875581Y-116607003D01*
X134875571Y-116607006D01*
X134633309Y-116707354D01*
X134633299Y-116707359D01*
X134406196Y-116838476D01*
X134198148Y-116998119D01*
X134012718Y-117183549D01*
X133853075Y-117391597D01*
X133721958Y-117618700D01*
X133721953Y-117618710D01*
X133621605Y-117860972D01*
X133621602Y-117860982D01*
X133553730Y-118114285D01*
X133553121Y-118118908D01*
X133519500Y-118374273D01*
X125920305Y-118374273D01*
X125915851Y-118346154D01*
X125879860Y-118118908D01*
X125799579Y-117871829D01*
X125799577Y-117871826D01*
X125799577Y-117871824D01*
X125743058Y-117760901D01*
X125681634Y-117640350D01*
X125528931Y-117430172D01*
X125345229Y-117246470D01*
X125258615Y-117183541D01*
X125135054Y-117093769D01*
X125135053Y-117093768D01*
X125135051Y-117093767D01*
X125062764Y-117056935D01*
X124903576Y-116975823D01*
X124656493Y-116895541D01*
X124399902Y-116854901D01*
X124399897Y-116854901D01*
X124140103Y-116854901D01*
X124140098Y-116854901D01*
X123883506Y-116895541D01*
X123636423Y-116975823D01*
X123404945Y-117093769D01*
X123194774Y-117246467D01*
X123194768Y-117246472D01*
X123011071Y-117430169D01*
X123011066Y-117430175D01*
X122858368Y-117640346D01*
X122740422Y-117871824D01*
X122660140Y-118118907D01*
X122619500Y-118375498D01*
X115020500Y-118375498D01*
X115020500Y-118374281D01*
X114986270Y-118114285D01*
X114918398Y-117860982D01*
X114876942Y-117760899D01*
X114818046Y-117618710D01*
X114818041Y-117618700D01*
X114686924Y-117391597D01*
X114527281Y-117183549D01*
X114527274Y-117183541D01*
X114341860Y-116998127D01*
X114341851Y-116998119D01*
X114133803Y-116838476D01*
X113906700Y-116707359D01*
X113906690Y-116707354D01*
X113664428Y-116607006D01*
X113664421Y-116607004D01*
X113664419Y-116607003D01*
X113411116Y-116539131D01*
X113353339Y-116531524D01*
X113151127Y-116504901D01*
X113151120Y-116504901D01*
X112888880Y-116504901D01*
X112888872Y-116504901D01*
X112657772Y-116535327D01*
X112628884Y-116539131D01*
X112493910Y-116575297D01*
X112375581Y-116607003D01*
X112375571Y-116607006D01*
X112133309Y-116707354D01*
X112133299Y-116707359D01*
X111906196Y-116838476D01*
X111698148Y-116998119D01*
X111512718Y-117183549D01*
X111353075Y-117391597D01*
X111221958Y-117618700D01*
X111221953Y-117618710D01*
X111121605Y-117860972D01*
X111121602Y-117860982D01*
X111053730Y-118114285D01*
X111053121Y-118118908D01*
X111019500Y-118374273D01*
X98168100Y-118374273D01*
X98168100Y-114860384D01*
X103067000Y-114860384D01*
X103067000Y-117060402D01*
X103067001Y-117060419D01*
X103077500Y-117163197D01*
X103077501Y-117163200D01*
X103106957Y-117252090D01*
X103132686Y-117329735D01*
X103224788Y-117479057D01*
X103348844Y-117603113D01*
X103498166Y-117695215D01*
X103664703Y-117750400D01*
X103767491Y-117760901D01*
X105967508Y-117760900D01*
X106070297Y-117750400D01*
X106236834Y-117695215D01*
X106386156Y-117603113D01*
X106510212Y-117479057D01*
X106602314Y-117329735D01*
X106657499Y-117163198D01*
X106668000Y-117060410D01*
X106667999Y-114860393D01*
X106657499Y-114757604D01*
X106602314Y-114591067D01*
X106510212Y-114441745D01*
X106386156Y-114317689D01*
X106354243Y-114298005D01*
X106354242Y-114298004D01*
X106236840Y-114225590D01*
X106236835Y-114225588D01*
X106236834Y-114225587D01*
X106155254Y-114198554D01*
X154141500Y-114198554D01*
X154141500Y-114356247D01*
X154172261Y-114510890D01*
X154172264Y-114510902D01*
X154232602Y-114656573D01*
X154232609Y-114656586D01*
X154320210Y-114787689D01*
X154320213Y-114787693D01*
X154431707Y-114899187D01*
X154431711Y-114899190D01*
X154562814Y-114986791D01*
X154562827Y-114986798D01*
X154708498Y-115047136D01*
X154708503Y-115047138D01*
X154863153Y-115077900D01*
X154863156Y-115077901D01*
X154863158Y-115077901D01*
X155020844Y-115077901D01*
X155020845Y-115077900D01*
X155175497Y-115047138D01*
X155321179Y-114986795D01*
X155452289Y-114899190D01*
X155563789Y-114787690D01*
X155634573Y-114681754D01*
X156604700Y-114681754D01*
X156604700Y-114839447D01*
X156635461Y-114994090D01*
X156635464Y-114994102D01*
X156695802Y-115139773D01*
X156695809Y-115139786D01*
X156783410Y-115270889D01*
X156783413Y-115270893D01*
X156894907Y-115382387D01*
X156894911Y-115382390D01*
X157026014Y-115469991D01*
X157026027Y-115469998D01*
X157123329Y-115510301D01*
X157171703Y-115530338D01*
X157326353Y-115561100D01*
X157326356Y-115561101D01*
X157326358Y-115561101D01*
X157484044Y-115561101D01*
X157484045Y-115561100D01*
X157638697Y-115530338D01*
X157784379Y-115469995D01*
X157915489Y-115382390D01*
X158026989Y-115270890D01*
X158114594Y-115139780D01*
X158174937Y-114994098D01*
X158205700Y-114839443D01*
X158205700Y-114681759D01*
X158205700Y-114681756D01*
X158205699Y-114681754D01*
X158199196Y-114649058D01*
X158195595Y-114630954D01*
X167069500Y-114630954D01*
X167069500Y-114788647D01*
X167100261Y-114943290D01*
X167100264Y-114943302D01*
X167160602Y-115088973D01*
X167160609Y-115088986D01*
X167248210Y-115220089D01*
X167248213Y-115220093D01*
X167359707Y-115331587D01*
X167359711Y-115331590D01*
X167490814Y-115419191D01*
X167490827Y-115419198D01*
X167613454Y-115469991D01*
X167636503Y-115479538D01*
X167791153Y-115510300D01*
X167791156Y-115510301D01*
X167791158Y-115510301D01*
X167948844Y-115510301D01*
X167948845Y-115510300D01*
X168103497Y-115479538D01*
X168249179Y-115419195D01*
X168380289Y-115331590D01*
X168491789Y-115220090D01*
X168579394Y-115088980D01*
X168583984Y-115077900D01*
X168639735Y-114943302D01*
X168639737Y-114943298D01*
X168670500Y-114788643D01*
X168670500Y-114630959D01*
X168670500Y-114630956D01*
X168670499Y-114630954D01*
X168653797Y-114546989D01*
X168639737Y-114476304D01*
X168625422Y-114441745D01*
X168579397Y-114330628D01*
X168579390Y-114330615D01*
X168514231Y-114233098D01*
X168491789Y-114199512D01*
X168491786Y-114199508D01*
X168459814Y-114167536D01*
X201439500Y-114167536D01*
X201439500Y-115963271D01*
X201439501Y-115963277D01*
X201445908Y-116022884D01*
X201496202Y-116157729D01*
X201496206Y-116157736D01*
X201582452Y-116272945D01*
X201582455Y-116272948D01*
X201697664Y-116359194D01*
X201697671Y-116359198D01*
X201832517Y-116409492D01*
X201832516Y-116409492D01*
X201839444Y-116410236D01*
X201892127Y-116415901D01*
X203687872Y-116415900D01*
X203747483Y-116409492D01*
X203882331Y-116359197D01*
X203997546Y-116272947D01*
X204083796Y-116157732D01*
X204132810Y-116026317D01*
X204174681Y-115970385D01*
X204240145Y-115945967D01*
X204308418Y-115960818D01*
X204336673Y-115981970D01*
X204450213Y-116095510D01*
X204622179Y-116220449D01*
X204622181Y-116220450D01*
X204622184Y-116220452D01*
X204811588Y-116316958D01*
X205013757Y-116382647D01*
X205223713Y-116415901D01*
X205223714Y-116415901D01*
X205436286Y-116415901D01*
X205436287Y-116415901D01*
X205646243Y-116382647D01*
X205848412Y-116316958D01*
X206037816Y-116220452D01*
X206124138Y-116157736D01*
X206209786Y-116095510D01*
X206209788Y-116095507D01*
X206209792Y-116095505D01*
X206360104Y-115945193D01*
X206360106Y-115945189D01*
X206360109Y-115945187D01*
X206485048Y-115773221D01*
X206485047Y-115773221D01*
X206485051Y-115773217D01*
X206581557Y-115583813D01*
X206647246Y-115381644D01*
X206680500Y-115171688D01*
X206680500Y-114959114D01*
X206647246Y-114749158D01*
X206581557Y-114546989D01*
X206485051Y-114357585D01*
X206485049Y-114357582D01*
X206485048Y-114357580D01*
X206360109Y-114185614D01*
X206209786Y-114035291D01*
X206037820Y-113910352D01*
X205848414Y-113813845D01*
X205848413Y-113813844D01*
X205848412Y-113813844D01*
X205646243Y-113748155D01*
X205646241Y-113748154D01*
X205646240Y-113748154D01*
X205484957Y-113722609D01*
X205436287Y-113714901D01*
X205223713Y-113714901D01*
X205175042Y-113722609D01*
X205013760Y-113748154D01*
X204811585Y-113813845D01*
X204622179Y-113910352D01*
X204450215Y-114035290D01*
X204336673Y-114148832D01*
X204275350Y-114182316D01*
X204205658Y-114177332D01*
X204149725Y-114135460D01*
X204132810Y-114104483D01*
X204083797Y-113973072D01*
X204083793Y-113973065D01*
X203997547Y-113857856D01*
X203997544Y-113857853D01*
X203882335Y-113771607D01*
X203882328Y-113771603D01*
X203747482Y-113721309D01*
X203747483Y-113721309D01*
X203687883Y-113714902D01*
X203687881Y-113714901D01*
X203687873Y-113714901D01*
X203687864Y-113714901D01*
X201892129Y-113714901D01*
X201892123Y-113714902D01*
X201832516Y-113721309D01*
X201697671Y-113771603D01*
X201697664Y-113771607D01*
X201582455Y-113857853D01*
X201582452Y-113857856D01*
X201496206Y-113973065D01*
X201496202Y-113973072D01*
X201445908Y-114107918D01*
X201439501Y-114167517D01*
X201439500Y-114167536D01*
X168459814Y-114167536D01*
X168380292Y-114088014D01*
X168380288Y-114088011D01*
X168249185Y-114000410D01*
X168249172Y-114000403D01*
X168103501Y-113940065D01*
X168103489Y-113940062D01*
X167948845Y-113909301D01*
X167948842Y-113909301D01*
X167791158Y-113909301D01*
X167791155Y-113909301D01*
X167636510Y-113940062D01*
X167636498Y-113940065D01*
X167490827Y-114000403D01*
X167490814Y-114000410D01*
X167359711Y-114088011D01*
X167359707Y-114088014D01*
X167248213Y-114199508D01*
X167248210Y-114199512D01*
X167160609Y-114330615D01*
X167160602Y-114330628D01*
X167100264Y-114476299D01*
X167100261Y-114476311D01*
X167069500Y-114630954D01*
X158195595Y-114630954D01*
X158174938Y-114527109D01*
X158174937Y-114527108D01*
X158174937Y-114527104D01*
X158153893Y-114476299D01*
X158114597Y-114381428D01*
X158114590Y-114381415D01*
X158026989Y-114250312D01*
X158026986Y-114250308D01*
X157915492Y-114138814D01*
X157915488Y-114138811D01*
X157784385Y-114051210D01*
X157784372Y-114051203D01*
X157638701Y-113990865D01*
X157638689Y-113990862D01*
X157484045Y-113960101D01*
X157484042Y-113960101D01*
X157326358Y-113960101D01*
X157326355Y-113960101D01*
X157171710Y-113990862D01*
X157171698Y-113990865D01*
X157026027Y-114051203D01*
X157026014Y-114051210D01*
X156894911Y-114138811D01*
X156894907Y-114138814D01*
X156783413Y-114250308D01*
X156783410Y-114250312D01*
X156695809Y-114381415D01*
X156695802Y-114381428D01*
X156635464Y-114527099D01*
X156635461Y-114527111D01*
X156604700Y-114681754D01*
X155634573Y-114681754D01*
X155651394Y-114656580D01*
X155658021Y-114640578D01*
X155663144Y-114628214D01*
X155663144Y-114628212D01*
X155678531Y-114591064D01*
X155711737Y-114510898D01*
X155742500Y-114356243D01*
X155742500Y-114198559D01*
X155742500Y-114198556D01*
X155742499Y-114198554D01*
X155736328Y-114167529D01*
X155711737Y-114043904D01*
X155708172Y-114035297D01*
X155651397Y-113898228D01*
X155651390Y-113898215D01*
X155563789Y-113767112D01*
X155563786Y-113767108D01*
X155452292Y-113655614D01*
X155452288Y-113655611D01*
X155321185Y-113568010D01*
X155321172Y-113568003D01*
X155175501Y-113507665D01*
X155175489Y-113507662D01*
X155020845Y-113476901D01*
X155020842Y-113476901D01*
X154863158Y-113476901D01*
X154863155Y-113476901D01*
X154708510Y-113507662D01*
X154708498Y-113507665D01*
X154562827Y-113568003D01*
X154562814Y-113568010D01*
X154431711Y-113655611D01*
X154431707Y-113655614D01*
X154320213Y-113767108D01*
X154320210Y-113767112D01*
X154232609Y-113898215D01*
X154232602Y-113898228D01*
X154172264Y-114043899D01*
X154172261Y-114043911D01*
X154141500Y-114198554D01*
X106155254Y-114198554D01*
X106070297Y-114170402D01*
X106070295Y-114170401D01*
X105967510Y-114159901D01*
X103767498Y-114159901D01*
X103767481Y-114159902D01*
X103664703Y-114170401D01*
X103664700Y-114170402D01*
X103498168Y-114225586D01*
X103498163Y-114225588D01*
X103348842Y-114317690D01*
X103224789Y-114441743D01*
X103132687Y-114591064D01*
X103132685Y-114591069D01*
X103119469Y-114630954D01*
X103077501Y-114757604D01*
X103077501Y-114757605D01*
X103077500Y-114757605D01*
X103067000Y-114860384D01*
X98168100Y-114860384D01*
X98168100Y-113056154D01*
X168949100Y-113056154D01*
X168949100Y-113213847D01*
X168979861Y-113368490D01*
X168979864Y-113368502D01*
X169040202Y-113514173D01*
X169040209Y-113514186D01*
X169127810Y-113645289D01*
X169127813Y-113645293D01*
X169239307Y-113756787D01*
X169239311Y-113756790D01*
X169370414Y-113844391D01*
X169370427Y-113844398D01*
X169500355Y-113898215D01*
X169516103Y-113904738D01*
X169670753Y-113935500D01*
X169670756Y-113935501D01*
X169670758Y-113935501D01*
X169828444Y-113935501D01*
X169828445Y-113935500D01*
X169983097Y-113904738D01*
X170128779Y-113844395D01*
X170259889Y-113756790D01*
X170371389Y-113645290D01*
X170458994Y-113514180D01*
X170519337Y-113368498D01*
X170550100Y-113213843D01*
X170550100Y-113056159D01*
X170550100Y-113056156D01*
X170550099Y-113056154D01*
X170530055Y-112955386D01*
X170519337Y-112901504D01*
X170481307Y-112809690D01*
X170458997Y-112755828D01*
X170458990Y-112755815D01*
X170371389Y-112624712D01*
X170371386Y-112624708D01*
X170259892Y-112513214D01*
X170259888Y-112513211D01*
X170128785Y-112425610D01*
X170128772Y-112425603D01*
X169983101Y-112365265D01*
X169983089Y-112365262D01*
X169828445Y-112334501D01*
X169828442Y-112334501D01*
X169670758Y-112334501D01*
X169670755Y-112334501D01*
X169516110Y-112365262D01*
X169516098Y-112365265D01*
X169370427Y-112425603D01*
X169370414Y-112425610D01*
X169239311Y-112513211D01*
X169239307Y-112513214D01*
X169127813Y-112624708D01*
X169127810Y-112624712D01*
X169040209Y-112755815D01*
X169040202Y-112755828D01*
X168979864Y-112901499D01*
X168979861Y-112901511D01*
X168949100Y-113056154D01*
X98168100Y-113056154D01*
X98168100Y-111935153D01*
X117399500Y-111935153D01*
X117399500Y-112092846D01*
X117430261Y-112247489D01*
X117430264Y-112247501D01*
X117490602Y-112393172D01*
X117490609Y-112393185D01*
X117578210Y-112524288D01*
X117578213Y-112524292D01*
X117689707Y-112635786D01*
X117689711Y-112635789D01*
X117820814Y-112723390D01*
X117820827Y-112723397D01*
X117899124Y-112755828D01*
X117966503Y-112783737D01*
X118096977Y-112809690D01*
X118121153Y-112814499D01*
X118121156Y-112814500D01*
X118121158Y-112814500D01*
X118278844Y-112814500D01*
X118278845Y-112814499D01*
X118433497Y-112783737D01*
X118579179Y-112723394D01*
X118710289Y-112635789D01*
X118821789Y-112524289D01*
X118909394Y-112393179D01*
X118969737Y-112247497D01*
X119000500Y-112092842D01*
X119000500Y-111935158D01*
X119000500Y-111935155D01*
X119000499Y-111935153D01*
X118995707Y-111911060D01*
X118969737Y-111780503D01*
X118967748Y-111775701D01*
X118909397Y-111634827D01*
X118909390Y-111634814D01*
X118821789Y-111503711D01*
X118821786Y-111503707D01*
X118710292Y-111392213D01*
X118710288Y-111392210D01*
X118579185Y-111304609D01*
X118579172Y-111304602D01*
X118433501Y-111244264D01*
X118433489Y-111244261D01*
X118278845Y-111213500D01*
X118278842Y-111213500D01*
X118121158Y-111213500D01*
X118121155Y-111213500D01*
X117966510Y-111244261D01*
X117966498Y-111244264D01*
X117820827Y-111304602D01*
X117820814Y-111304609D01*
X117689711Y-111392210D01*
X117689707Y-111392213D01*
X117578213Y-111503707D01*
X117578210Y-111503711D01*
X117490609Y-111634814D01*
X117490602Y-111634827D01*
X117430264Y-111780498D01*
X117430261Y-111780510D01*
X117399500Y-111935153D01*
X98168100Y-111935153D01*
X98168100Y-107824038D01*
X113969500Y-107824038D01*
X113969500Y-108075961D01*
X114008910Y-108324785D01*
X114086760Y-108564383D01*
X114201132Y-108788848D01*
X114349201Y-108992649D01*
X114349205Y-108992654D01*
X114527345Y-109170794D01*
X114527350Y-109170798D01*
X114705117Y-109299952D01*
X114731155Y-109318870D01*
X114874184Y-109391747D01*
X114955616Y-109433239D01*
X114955618Y-109433239D01*
X114955621Y-109433241D01*
X115195215Y-109511090D01*
X115444038Y-109550500D01*
X115444039Y-109550500D01*
X115695961Y-109550500D01*
X115695962Y-109550500D01*
X115944785Y-109511090D01*
X116184379Y-109433241D01*
X116408845Y-109318870D01*
X116612656Y-109170793D01*
X116790793Y-108992656D01*
X116938870Y-108788845D01*
X117053241Y-108564379D01*
X117131090Y-108324785D01*
X117170500Y-108075962D01*
X117170500Y-107824038D01*
X117131090Y-107575215D01*
X117053241Y-107335621D01*
X117053239Y-107335618D01*
X117053239Y-107335616D01*
X117011670Y-107254034D01*
X116938870Y-107111155D01*
X116919952Y-107085117D01*
X116790798Y-106907350D01*
X116790794Y-106907345D01*
X116612654Y-106729205D01*
X116612649Y-106729201D01*
X116408848Y-106581132D01*
X116408847Y-106581131D01*
X116408845Y-106581130D01*
X116338747Y-106545413D01*
X116184383Y-106466760D01*
X115944785Y-106388910D01*
X115937979Y-106387832D01*
X115695962Y-106349500D01*
X115444038Y-106349500D01*
X115319626Y-106369205D01*
X115195214Y-106388910D01*
X114955616Y-106466760D01*
X114731151Y-106581132D01*
X114527350Y-106729201D01*
X114527345Y-106729205D01*
X114349205Y-106907345D01*
X114349201Y-106907350D01*
X114201132Y-107111151D01*
X114086760Y-107335616D01*
X114008910Y-107575214D01*
X113969500Y-107824038D01*
X98168100Y-107824038D01*
X98168100Y-105966153D01*
X130405700Y-105966153D01*
X130405700Y-106123846D01*
X130436461Y-106278489D01*
X130436464Y-106278501D01*
X130496802Y-106424172D01*
X130496809Y-106424185D01*
X130584410Y-106555288D01*
X130584413Y-106555292D01*
X130695907Y-106666786D01*
X130695911Y-106666789D01*
X130827014Y-106754390D01*
X130827027Y-106754397D01*
X130942018Y-106802027D01*
X130972703Y-106814737D01*
X131127353Y-106845499D01*
X131127356Y-106845500D01*
X131127358Y-106845500D01*
X131285044Y-106845500D01*
X131285045Y-106845499D01*
X131439697Y-106814737D01*
X131585379Y-106754394D01*
X131716489Y-106666789D01*
X131825305Y-106557973D01*
X136879500Y-106557973D01*
X136879500Y-106802026D01*
X136901775Y-106942667D01*
X136917679Y-107043076D01*
X136993096Y-107275185D01*
X137096443Y-107478016D01*
X137103896Y-107492642D01*
X137247339Y-107690076D01*
X137247343Y-107690081D01*
X137419918Y-107862656D01*
X137419923Y-107862660D01*
X137551245Y-107958070D01*
X137617361Y-108006106D01*
X137834815Y-108116904D01*
X138066924Y-108192321D01*
X138307973Y-108230500D01*
X138307974Y-108230500D01*
X138552026Y-108230500D01*
X138552027Y-108230500D01*
X138793076Y-108192321D01*
X139025185Y-108116904D01*
X139242639Y-108006106D01*
X139440083Y-107862655D01*
X139612655Y-107690083D01*
X139756106Y-107492639D01*
X139866904Y-107275185D01*
X139942321Y-107043076D01*
X139980500Y-106802027D01*
X139980500Y-106591304D01*
X153277500Y-106591304D01*
X153277500Y-106768695D01*
X153312103Y-106942658D01*
X153312106Y-106942667D01*
X153379983Y-107106540D01*
X153379990Y-107106553D01*
X153478535Y-107254034D01*
X153478538Y-107254038D01*
X153603961Y-107379461D01*
X153603965Y-107379464D01*
X153751446Y-107478009D01*
X153751459Y-107478016D01*
X153874363Y-107528923D01*
X153915334Y-107545894D01*
X153915336Y-107545894D01*
X153915341Y-107545896D01*
X154089304Y-107580499D01*
X154089307Y-107580500D01*
X154089309Y-107580500D01*
X154266693Y-107580500D01*
X154266694Y-107580499D01*
X154332026Y-107567504D01*
X154440658Y-107545896D01*
X154440661Y-107545894D01*
X154440666Y-107545894D01*
X154604547Y-107478013D01*
X154752035Y-107379464D01*
X154877464Y-107254035D01*
X154974050Y-107109485D01*
X171593769Y-107109485D01*
X171593769Y-107267178D01*
X171624530Y-107421821D01*
X171624533Y-107421833D01*
X171684871Y-107567504D01*
X171684878Y-107567517D01*
X171772479Y-107698620D01*
X171772482Y-107698624D01*
X171883976Y-107810118D01*
X171883980Y-107810121D01*
X172015083Y-107897722D01*
X172015096Y-107897729D01*
X172160767Y-107958067D01*
X172160772Y-107958069D01*
X172315422Y-107988831D01*
X172315425Y-107988832D01*
X172315427Y-107988832D01*
X172473113Y-107988832D01*
X172473114Y-107988831D01*
X172627766Y-107958069D01*
X172773448Y-107897726D01*
X172904558Y-107810121D01*
X173016058Y-107698621D01*
X173103663Y-107567511D01*
X173164006Y-107421829D01*
X173194769Y-107267174D01*
X173194769Y-107109490D01*
X173194769Y-107109487D01*
X173194768Y-107109485D01*
X173181558Y-107043076D01*
X173164006Y-106954835D01*
X173158966Y-106942667D01*
X173103666Y-106809159D01*
X173103659Y-106809146D01*
X173016058Y-106678043D01*
X173016055Y-106678039D01*
X172904561Y-106566545D01*
X172904557Y-106566542D01*
X172773454Y-106478941D01*
X172773441Y-106478934D01*
X172627770Y-106418596D01*
X172627758Y-106418593D01*
X172473114Y-106387832D01*
X172473111Y-106387832D01*
X172315427Y-106387832D01*
X172315424Y-106387832D01*
X172160779Y-106418593D01*
X172160767Y-106418596D01*
X172015096Y-106478934D01*
X172015083Y-106478941D01*
X171883980Y-106566542D01*
X171883976Y-106566545D01*
X171772482Y-106678039D01*
X171772479Y-106678043D01*
X171684878Y-106809146D01*
X171684871Y-106809159D01*
X171624533Y-106954830D01*
X171624530Y-106954842D01*
X171593769Y-107109485D01*
X154974050Y-107109485D01*
X154976013Y-107106547D01*
X154976016Y-107106540D01*
X154996970Y-107055953D01*
X154996972Y-107055946D01*
X155002303Y-107043076D01*
X155043894Y-106942666D01*
X155078500Y-106768691D01*
X155078500Y-106591309D01*
X155078500Y-106591306D01*
X155078499Y-106591304D01*
X155043896Y-106417341D01*
X155043893Y-106417332D01*
X155032120Y-106388910D01*
X155002305Y-106316927D01*
X154976016Y-106253459D01*
X154976009Y-106253446D01*
X154877464Y-106105965D01*
X154877461Y-106105961D01*
X154752038Y-105980538D01*
X154752034Y-105980535D01*
X154604553Y-105881990D01*
X154604540Y-105881983D01*
X154440667Y-105814106D01*
X154440658Y-105814103D01*
X154266694Y-105779500D01*
X154266691Y-105779500D01*
X154089309Y-105779500D01*
X154089306Y-105779500D01*
X153915341Y-105814103D01*
X153915332Y-105814106D01*
X153751459Y-105881983D01*
X153751446Y-105881990D01*
X153603965Y-105980535D01*
X153603961Y-105980538D01*
X153478538Y-106105961D01*
X153478535Y-106105965D01*
X153379990Y-106253446D01*
X153379983Y-106253459D01*
X153312106Y-106417332D01*
X153312103Y-106417341D01*
X153277500Y-106591304D01*
X139980500Y-106591304D01*
X139980500Y-106557973D01*
X139942321Y-106316924D01*
X139866904Y-106084815D01*
X139756106Y-105867361D01*
X139715519Y-105811498D01*
X139612660Y-105669923D01*
X139612656Y-105669918D01*
X139440081Y-105497343D01*
X139440076Y-105497339D01*
X139242642Y-105353896D01*
X139242641Y-105353895D01*
X139242639Y-105353894D01*
X139025185Y-105243096D01*
X138793076Y-105167679D01*
X138793074Y-105167678D01*
X138793072Y-105167678D01*
X138624769Y-105141021D01*
X138552027Y-105129500D01*
X138307973Y-105129500D01*
X138252093Y-105138350D01*
X138066927Y-105167678D01*
X137834812Y-105243097D01*
X137617357Y-105353896D01*
X137419923Y-105497339D01*
X137419918Y-105497343D01*
X137247343Y-105669918D01*
X137247339Y-105669923D01*
X137103896Y-105867357D01*
X136993097Y-106084812D01*
X136917678Y-106316927D01*
X136879500Y-106557973D01*
X131825305Y-106557973D01*
X131827989Y-106555289D01*
X131879004Y-106478941D01*
X131915590Y-106424185D01*
X131915590Y-106424184D01*
X131915594Y-106424179D01*
X131975937Y-106278497D01*
X132006700Y-106123842D01*
X132006700Y-105966158D01*
X132006700Y-105966155D01*
X132006699Y-105966153D01*
X131987047Y-105867357D01*
X131975937Y-105811503D01*
X131962681Y-105779500D01*
X131915597Y-105665827D01*
X131915590Y-105665814D01*
X131827989Y-105534711D01*
X131827986Y-105534707D01*
X131716492Y-105423213D01*
X131716488Y-105423210D01*
X131585385Y-105335609D01*
X131585372Y-105335602D01*
X131439701Y-105275264D01*
X131439689Y-105275261D01*
X131332556Y-105253950D01*
X131332548Y-105253949D01*
X131285042Y-105244500D01*
X131127358Y-105244500D01*
X131126567Y-105244657D01*
X131126563Y-105244657D01*
X130972710Y-105275261D01*
X130972698Y-105275264D01*
X130827027Y-105335602D01*
X130827014Y-105335609D01*
X130695911Y-105423210D01*
X130695907Y-105423213D01*
X130584413Y-105534707D01*
X130584410Y-105534711D01*
X130496809Y-105665814D01*
X130496802Y-105665827D01*
X130436464Y-105811498D01*
X130436461Y-105811510D01*
X130405700Y-105966153D01*
X98168100Y-105966153D01*
X98168100Y-104127153D01*
X130466700Y-104127153D01*
X130466700Y-104284846D01*
X130497461Y-104439489D01*
X130497464Y-104439501D01*
X130557802Y-104585172D01*
X130557809Y-104585185D01*
X130645410Y-104716288D01*
X130645413Y-104716292D01*
X130756907Y-104827786D01*
X130756911Y-104827789D01*
X130888014Y-104915390D01*
X130888027Y-104915397D01*
X131033698Y-104975735D01*
X131033703Y-104975737D01*
X131087787Y-104986495D01*
X131140843Y-104997049D01*
X131140845Y-104997049D01*
X131188358Y-105006500D01*
X131346042Y-105006500D01*
X131500697Y-104975737D01*
X131646379Y-104915394D01*
X131777489Y-104827789D01*
X131888989Y-104716289D01*
X131976594Y-104585179D01*
X132036937Y-104439497D01*
X132067700Y-104284842D01*
X132067700Y-104127158D01*
X132067700Y-104127155D01*
X132067699Y-104127153D01*
X132055248Y-104064559D01*
X132036937Y-103972503D01*
X132011008Y-103909904D01*
X131976597Y-103826827D01*
X131976590Y-103826814D01*
X131938867Y-103770358D01*
X131896902Y-103707554D01*
X156250500Y-103707554D01*
X156250500Y-103865247D01*
X156281261Y-104019890D01*
X156281264Y-104019902D01*
X156341602Y-104165573D01*
X156341609Y-104165586D01*
X156429210Y-104296689D01*
X156429213Y-104296693D01*
X156540707Y-104408187D01*
X156540711Y-104408190D01*
X156671814Y-104495791D01*
X156671827Y-104495798D01*
X156817498Y-104556136D01*
X156817503Y-104556138D01*
X156963466Y-104585172D01*
X156972153Y-104586900D01*
X156972156Y-104586901D01*
X156972158Y-104586901D01*
X157129844Y-104586901D01*
X157129845Y-104586900D01*
X157284497Y-104556138D01*
X157430179Y-104495795D01*
X157561289Y-104408190D01*
X157672789Y-104296690D01*
X157760394Y-104165580D01*
X157820737Y-104019898D01*
X157842168Y-103912159D01*
X157842169Y-103912154D01*
X163411900Y-103912154D01*
X163411900Y-104069847D01*
X163442661Y-104224490D01*
X163442664Y-104224502D01*
X163503002Y-104370173D01*
X163503009Y-104370186D01*
X163590610Y-104501289D01*
X163590613Y-104501293D01*
X163702107Y-104612787D01*
X163702111Y-104612790D01*
X163833214Y-104700391D01*
X163833227Y-104700398D01*
X163930529Y-104740701D01*
X163978903Y-104760738D01*
X164133553Y-104791500D01*
X164133556Y-104791501D01*
X164133558Y-104791501D01*
X164291244Y-104791501D01*
X164291245Y-104791500D01*
X164445897Y-104760738D01*
X164591579Y-104700395D01*
X164722689Y-104612790D01*
X164834189Y-104501290D01*
X164921794Y-104370180D01*
X164982137Y-104224498D01*
X165012900Y-104069843D01*
X165012900Y-104064554D01*
X166815500Y-104064554D01*
X166815500Y-104222247D01*
X166846261Y-104376890D01*
X166846264Y-104376902D01*
X166906602Y-104522573D01*
X166906609Y-104522586D01*
X166994210Y-104653689D01*
X166994213Y-104653693D01*
X167105707Y-104765187D01*
X167105711Y-104765190D01*
X167236814Y-104852791D01*
X167236827Y-104852798D01*
X167382498Y-104913136D01*
X167382503Y-104913138D01*
X167537153Y-104943900D01*
X167537156Y-104943901D01*
X167537158Y-104943901D01*
X167694844Y-104943901D01*
X167694845Y-104943900D01*
X167849497Y-104913138D01*
X167995179Y-104852795D01*
X168126289Y-104765190D01*
X168237789Y-104653690D01*
X168325394Y-104522580D01*
X168385737Y-104376898D01*
X168416500Y-104222243D01*
X168416500Y-104064559D01*
X168416500Y-104064556D01*
X168416499Y-104064554D01*
X168398188Y-103972498D01*
X168385737Y-103909904D01*
X168365627Y-103861354D01*
X198057500Y-103861354D01*
X198057500Y-104019047D01*
X198088261Y-104173690D01*
X198088264Y-104173702D01*
X198148602Y-104319373D01*
X198148609Y-104319386D01*
X198236210Y-104450489D01*
X198236213Y-104450493D01*
X198347707Y-104561987D01*
X198347711Y-104561990D01*
X198478814Y-104649591D01*
X198478827Y-104649598D01*
X198601454Y-104700391D01*
X198624503Y-104709938D01*
X198779153Y-104740700D01*
X198779156Y-104740701D01*
X198779158Y-104740701D01*
X198936844Y-104740701D01*
X198936845Y-104740700D01*
X199091497Y-104709938D01*
X199204166Y-104663268D01*
X199237172Y-104649598D01*
X199237172Y-104649597D01*
X199237179Y-104649595D01*
X199368289Y-104561990D01*
X199479789Y-104450490D01*
X199567394Y-104319380D01*
X199627737Y-104173698D01*
X199658500Y-104019043D01*
X199658500Y-103861359D01*
X199658500Y-103861356D01*
X199658499Y-103861354D01*
X199651630Y-103826821D01*
X199627737Y-103706704D01*
X199623182Y-103695707D01*
X199567397Y-103561028D01*
X199567390Y-103561015D01*
X199479789Y-103429912D01*
X199479786Y-103429908D01*
X199368292Y-103318414D01*
X199368288Y-103318411D01*
X199237185Y-103230810D01*
X199237172Y-103230803D01*
X199091501Y-103170465D01*
X199091489Y-103170462D01*
X198936845Y-103139701D01*
X198936842Y-103139701D01*
X198779158Y-103139701D01*
X198779155Y-103139701D01*
X198624510Y-103170462D01*
X198624498Y-103170465D01*
X198478827Y-103230803D01*
X198478814Y-103230810D01*
X198347711Y-103318411D01*
X198347707Y-103318414D01*
X198236213Y-103429908D01*
X198236210Y-103429912D01*
X198148609Y-103561015D01*
X198148602Y-103561028D01*
X198088264Y-103706699D01*
X198088261Y-103706711D01*
X198057500Y-103861354D01*
X168365627Y-103861354D01*
X168327936Y-103770358D01*
X168325397Y-103764228D01*
X168325390Y-103764215D01*
X168237789Y-103633112D01*
X168237786Y-103633108D01*
X168126292Y-103521614D01*
X168126288Y-103521611D01*
X167995185Y-103434010D01*
X167995172Y-103434003D01*
X167849501Y-103373665D01*
X167849489Y-103373662D01*
X167694845Y-103342901D01*
X167694842Y-103342901D01*
X167537158Y-103342901D01*
X167537155Y-103342901D01*
X167382510Y-103373662D01*
X167382498Y-103373665D01*
X167236827Y-103434003D01*
X167236814Y-103434010D01*
X167105711Y-103521611D01*
X167105707Y-103521614D01*
X166994213Y-103633108D01*
X166994210Y-103633112D01*
X166906609Y-103764215D01*
X166906602Y-103764228D01*
X166846264Y-103909899D01*
X166846261Y-103909911D01*
X166815500Y-104064554D01*
X165012900Y-104064554D01*
X165012900Y-103912159D01*
X165012900Y-103912156D01*
X165012899Y-103912154D01*
X165006876Y-103881875D01*
X164982137Y-103757504D01*
X164930611Y-103633108D01*
X164921797Y-103611828D01*
X164921790Y-103611815D01*
X164834189Y-103480712D01*
X164834186Y-103480708D01*
X164722692Y-103369214D01*
X164722688Y-103369211D01*
X164591585Y-103281610D01*
X164591572Y-103281603D01*
X164445901Y-103221265D01*
X164445889Y-103221262D01*
X164291245Y-103190501D01*
X164291242Y-103190501D01*
X164133558Y-103190501D01*
X164133555Y-103190501D01*
X163978910Y-103221262D01*
X163978898Y-103221265D01*
X163833227Y-103281603D01*
X163833214Y-103281610D01*
X163702111Y-103369211D01*
X163702107Y-103369214D01*
X163590613Y-103480708D01*
X163590610Y-103480712D01*
X163503009Y-103611815D01*
X163503002Y-103611828D01*
X163442664Y-103757499D01*
X163442661Y-103757511D01*
X163411900Y-103912154D01*
X157842169Y-103912154D01*
X157848192Y-103881876D01*
X157848192Y-103881875D01*
X157851500Y-103865245D01*
X157851500Y-103707556D01*
X157851499Y-103707554D01*
X157836691Y-103633112D01*
X157820737Y-103552904D01*
X157820735Y-103552899D01*
X157760397Y-103407228D01*
X157760390Y-103407215D01*
X157672789Y-103276112D01*
X157672786Y-103276108D01*
X157561292Y-103164614D01*
X157561288Y-103164611D01*
X157430185Y-103077010D01*
X157430172Y-103077003D01*
X157284501Y-103016665D01*
X157284489Y-103016662D01*
X157129845Y-102985901D01*
X157129842Y-102985901D01*
X156972158Y-102985901D01*
X156972155Y-102985901D01*
X156817510Y-103016662D01*
X156817498Y-103016665D01*
X156671827Y-103077003D01*
X156671814Y-103077010D01*
X156540711Y-103164611D01*
X156540707Y-103164614D01*
X156429213Y-103276108D01*
X156429210Y-103276112D01*
X156341609Y-103407215D01*
X156341602Y-103407228D01*
X156281264Y-103552899D01*
X156281261Y-103552911D01*
X156250500Y-103707554D01*
X131896902Y-103707554D01*
X131888989Y-103695711D01*
X131888986Y-103695707D01*
X131777492Y-103584213D01*
X131777488Y-103584210D01*
X131646385Y-103496609D01*
X131646372Y-103496602D01*
X131500701Y-103436264D01*
X131500689Y-103436261D01*
X131346045Y-103405500D01*
X131346042Y-103405500D01*
X131188358Y-103405500D01*
X131188355Y-103405500D01*
X131033710Y-103436261D01*
X131033698Y-103436264D01*
X130888027Y-103496602D01*
X130888014Y-103496609D01*
X130756911Y-103584210D01*
X130756907Y-103584213D01*
X130645413Y-103695707D01*
X130645410Y-103695711D01*
X130557809Y-103826814D01*
X130557802Y-103826827D01*
X130497464Y-103972498D01*
X130497461Y-103972510D01*
X130466700Y-104127153D01*
X98168100Y-104127153D01*
X98168100Y-101981754D01*
X183630300Y-101981754D01*
X183630300Y-102139447D01*
X183661061Y-102294090D01*
X183661064Y-102294102D01*
X183721402Y-102439773D01*
X183721409Y-102439786D01*
X183809010Y-102570889D01*
X183809013Y-102570893D01*
X183920507Y-102682387D01*
X183920511Y-102682390D01*
X184051614Y-102769991D01*
X184051627Y-102769998D01*
X184197298Y-102830336D01*
X184197303Y-102830338D01*
X184351953Y-102861100D01*
X184351956Y-102861101D01*
X184351958Y-102861101D01*
X184509644Y-102861101D01*
X184509645Y-102861100D01*
X184664297Y-102830338D01*
X184809979Y-102769995D01*
X184941089Y-102682390D01*
X185052589Y-102570890D01*
X185140194Y-102439780D01*
X185200537Y-102294098D01*
X185231300Y-102139443D01*
X185231300Y-102083354D01*
X203391500Y-102083354D01*
X203391500Y-102241047D01*
X203422261Y-102395690D01*
X203422264Y-102395702D01*
X203482602Y-102541373D01*
X203482609Y-102541386D01*
X203570210Y-102672489D01*
X203570213Y-102672493D01*
X203681707Y-102783987D01*
X203681711Y-102783990D01*
X203812814Y-102871591D01*
X203812827Y-102871598D01*
X203958498Y-102931936D01*
X203958503Y-102931938D01*
X204113153Y-102962700D01*
X204113156Y-102962701D01*
X204113158Y-102962701D01*
X204270844Y-102962701D01*
X204270845Y-102962700D01*
X204425497Y-102931938D01*
X204571179Y-102871595D01*
X204702289Y-102783990D01*
X204813789Y-102672490D01*
X204901394Y-102541380D01*
X204961737Y-102395698D01*
X204992500Y-102241043D01*
X204992500Y-102083359D01*
X204992500Y-102083356D01*
X204992499Y-102083354D01*
X204961738Y-101928711D01*
X204961737Y-101928704D01*
X204961735Y-101928699D01*
X204901397Y-101783028D01*
X204901390Y-101783015D01*
X204813789Y-101651912D01*
X204813786Y-101651908D01*
X204702292Y-101540414D01*
X204702288Y-101540411D01*
X204571185Y-101452810D01*
X204571172Y-101452803D01*
X204425501Y-101392465D01*
X204425489Y-101392462D01*
X204270845Y-101361701D01*
X204270842Y-101361701D01*
X204113158Y-101361701D01*
X204113155Y-101361701D01*
X203958510Y-101392462D01*
X203958498Y-101392465D01*
X203812827Y-101452803D01*
X203812814Y-101452810D01*
X203681711Y-101540411D01*
X203681707Y-101540414D01*
X203570213Y-101651908D01*
X203570210Y-101651912D01*
X203482609Y-101783015D01*
X203482602Y-101783028D01*
X203422264Y-101928699D01*
X203422261Y-101928711D01*
X203391500Y-102083354D01*
X185231300Y-102083354D01*
X185231300Y-101981759D01*
X185231300Y-101981756D01*
X185231299Y-101981754D01*
X185220748Y-101928711D01*
X185200537Y-101827104D01*
X185182275Y-101783015D01*
X185140197Y-101681428D01*
X185140190Y-101681415D01*
X185052589Y-101550312D01*
X185052586Y-101550308D01*
X184941092Y-101438814D01*
X184941088Y-101438811D01*
X184809985Y-101351210D01*
X184809972Y-101351203D01*
X184664301Y-101290865D01*
X184664289Y-101290862D01*
X184509645Y-101260101D01*
X184509642Y-101260101D01*
X184351958Y-101260101D01*
X184351955Y-101260101D01*
X184197310Y-101290862D01*
X184197298Y-101290865D01*
X184051627Y-101351203D01*
X184051614Y-101351210D01*
X183920511Y-101438811D01*
X183920507Y-101438814D01*
X183809013Y-101550308D01*
X183809010Y-101550312D01*
X183721409Y-101681415D01*
X183721402Y-101681428D01*
X183661064Y-101827099D01*
X183661061Y-101827111D01*
X183630300Y-101981754D01*
X98168100Y-101981754D01*
X98168100Y-100457754D01*
X159500300Y-100457754D01*
X159500300Y-100615447D01*
X159531061Y-100770090D01*
X159531064Y-100770102D01*
X159591402Y-100915773D01*
X159591409Y-100915786D01*
X159679010Y-101046889D01*
X159679013Y-101046893D01*
X159790507Y-101158387D01*
X159790511Y-101158390D01*
X159921614Y-101245991D01*
X159921627Y-101245998D01*
X160067298Y-101306336D01*
X160067303Y-101306338D01*
X160221953Y-101337100D01*
X160221956Y-101337101D01*
X160221958Y-101337101D01*
X160379644Y-101337101D01*
X160379645Y-101337100D01*
X160534297Y-101306338D01*
X160679979Y-101245995D01*
X160811089Y-101158390D01*
X160922589Y-101046890D01*
X161010194Y-100915780D01*
X161070537Y-100770098D01*
X161101300Y-100615443D01*
X161101300Y-100457759D01*
X161101300Y-100457756D01*
X161101299Y-100457754D01*
X161070538Y-100303111D01*
X161070537Y-100303104D01*
X161058953Y-100275138D01*
X161010197Y-100157428D01*
X161010190Y-100157415D01*
X160922589Y-100026312D01*
X160922586Y-100026308D01*
X160811092Y-99914814D01*
X160811088Y-99914811D01*
X160679985Y-99827210D01*
X160679972Y-99827203D01*
X160534301Y-99766865D01*
X160534289Y-99766862D01*
X160379645Y-99736101D01*
X160379642Y-99736101D01*
X160221958Y-99736101D01*
X160221955Y-99736101D01*
X160067310Y-99766862D01*
X160067298Y-99766865D01*
X159921627Y-99827203D01*
X159921614Y-99827210D01*
X159790511Y-99914811D01*
X159790507Y-99914814D01*
X159679013Y-100026308D01*
X159679010Y-100026312D01*
X159591409Y-100157415D01*
X159591402Y-100157428D01*
X159531064Y-100303099D01*
X159531061Y-100303111D01*
X159500300Y-100457754D01*
X98168100Y-100457754D01*
X98168100Y-99426554D01*
X184341500Y-99426554D01*
X184341500Y-99584247D01*
X184372261Y-99738890D01*
X184372264Y-99738902D01*
X184432602Y-99884573D01*
X184432609Y-99884586D01*
X184520210Y-100015689D01*
X184520213Y-100015693D01*
X184631707Y-100127187D01*
X184631711Y-100127190D01*
X184762814Y-100214791D01*
X184762827Y-100214798D01*
X184908498Y-100275136D01*
X184908503Y-100275138D01*
X185049097Y-100303104D01*
X185063153Y-100305900D01*
X185063156Y-100305901D01*
X185063158Y-100305901D01*
X185220844Y-100305901D01*
X185220845Y-100305900D01*
X185375497Y-100275138D01*
X185521179Y-100214795D01*
X185652289Y-100127190D01*
X185763789Y-100015690D01*
X185851394Y-99884580D01*
X185911737Y-99738898D01*
X185942500Y-99584243D01*
X185942500Y-99426559D01*
X185942500Y-99426556D01*
X185942499Y-99426554D01*
X185935327Y-99390499D01*
X185911737Y-99271904D01*
X185895503Y-99232712D01*
X185851397Y-99126228D01*
X185851390Y-99126215D01*
X185763789Y-98995112D01*
X185763786Y-98995108D01*
X185652292Y-98883614D01*
X185652288Y-98883611D01*
X185521185Y-98796010D01*
X185521172Y-98796003D01*
X185375501Y-98735665D01*
X185375489Y-98735662D01*
X185220845Y-98704901D01*
X185220842Y-98704901D01*
X185063158Y-98704901D01*
X185063155Y-98704901D01*
X184908510Y-98735662D01*
X184908498Y-98735665D01*
X184762827Y-98796003D01*
X184762814Y-98796010D01*
X184631711Y-98883611D01*
X184631707Y-98883614D01*
X184520213Y-98995108D01*
X184520210Y-98995112D01*
X184432609Y-99126215D01*
X184432602Y-99126228D01*
X184372264Y-99271899D01*
X184372261Y-99271911D01*
X184341500Y-99426554D01*
X98168100Y-99426554D01*
X98168100Y-96889982D01*
X113969500Y-96889982D01*
X113969500Y-98690017D01*
X113980000Y-98792796D01*
X114010094Y-98883612D01*
X114035186Y-98959335D01*
X114127288Y-99108656D01*
X114251344Y-99232712D01*
X114400665Y-99324814D01*
X114567202Y-99379999D01*
X114669990Y-99390500D01*
X114669995Y-99390500D01*
X116470005Y-99390500D01*
X116470010Y-99390500D01*
X116572798Y-99379999D01*
X116739335Y-99324814D01*
X116888656Y-99232712D01*
X117012712Y-99108656D01*
X117104814Y-98959335D01*
X117159999Y-98792798D01*
X117170500Y-98690010D01*
X117170500Y-97711153D01*
X126961500Y-97711153D01*
X126961500Y-97868846D01*
X126992261Y-98023489D01*
X126992264Y-98023501D01*
X127052602Y-98169172D01*
X127052609Y-98169185D01*
X127140210Y-98300288D01*
X127140213Y-98300292D01*
X127251707Y-98411786D01*
X127251711Y-98411789D01*
X127382814Y-98499390D01*
X127382827Y-98499397D01*
X127463101Y-98532647D01*
X127528503Y-98559737D01*
X127683153Y-98590499D01*
X127683156Y-98590500D01*
X127683158Y-98590500D01*
X127840844Y-98590500D01*
X127840845Y-98590499D01*
X127995497Y-98559737D01*
X128141179Y-98499394D01*
X128272289Y-98411789D01*
X128383789Y-98300289D01*
X128471394Y-98169179D01*
X128531737Y-98023497D01*
X128562500Y-97868842D01*
X128562500Y-97831554D01*
X169987574Y-97831554D01*
X169987574Y-97989247D01*
X170018335Y-98143890D01*
X170018338Y-98143902D01*
X170078676Y-98289573D01*
X170078683Y-98289586D01*
X170166284Y-98420689D01*
X170166287Y-98420693D01*
X170277781Y-98532187D01*
X170277785Y-98532190D01*
X170408888Y-98619791D01*
X170408897Y-98619796D01*
X170560206Y-98682470D01*
X170559611Y-98683906D01*
X170611684Y-98718017D01*
X170631827Y-98750947D01*
X170665806Y-98832980D01*
X170665807Y-98832983D01*
X170753410Y-98964089D01*
X170753413Y-98964093D01*
X170864907Y-99075587D01*
X170864911Y-99075590D01*
X170996014Y-99163191D01*
X170996027Y-99163198D01*
X171141698Y-99223536D01*
X171141703Y-99223538D01*
X171296353Y-99254300D01*
X171296356Y-99254301D01*
X171296358Y-99254301D01*
X171454044Y-99254301D01*
X171454045Y-99254300D01*
X171608697Y-99223538D01*
X171754379Y-99163195D01*
X171885489Y-99075590D01*
X171996989Y-98964090D01*
X172084594Y-98832980D01*
X172144937Y-98687298D01*
X172175700Y-98532643D01*
X172175700Y-98374959D01*
X172175700Y-98374956D01*
X172175699Y-98374954D01*
X172158717Y-98289580D01*
X172144937Y-98220304D01*
X172123763Y-98169185D01*
X172084597Y-98074628D01*
X172084590Y-98074615D01*
X171996989Y-97943512D01*
X171996986Y-97943508D01*
X171885492Y-97832014D01*
X171885488Y-97832011D01*
X171754385Y-97744410D01*
X171754372Y-97744403D01*
X171603069Y-97681733D01*
X171603660Y-97680305D01*
X171581122Y-97665530D01*
X171552202Y-97646898D01*
X171551863Y-97646349D01*
X171551562Y-97646152D01*
X171533154Y-97617185D01*
X171532270Y-97615244D01*
X171497468Y-97531222D01*
X171450249Y-97460554D01*
X175451500Y-97460554D01*
X175451500Y-97618247D01*
X175482261Y-97772890D01*
X175482264Y-97772902D01*
X175542602Y-97918573D01*
X175542609Y-97918586D01*
X175630210Y-98049689D01*
X175630213Y-98049693D01*
X175741707Y-98161187D01*
X175741711Y-98161190D01*
X175872814Y-98248791D01*
X175872827Y-98248798D01*
X176018498Y-98309136D01*
X176018503Y-98309138D01*
X176173153Y-98339900D01*
X176173156Y-98339901D01*
X176173158Y-98339901D01*
X176330844Y-98339901D01*
X176330845Y-98339900D01*
X176485497Y-98309138D01*
X176631179Y-98248795D01*
X176762289Y-98161190D01*
X176873789Y-98049690D01*
X176961394Y-97918580D01*
X177021737Y-97772898D01*
X177052500Y-97618243D01*
X177052500Y-97460559D01*
X177052500Y-97460556D01*
X177052499Y-97460554D01*
X177051630Y-97456187D01*
X177021737Y-97305904D01*
X177014575Y-97288614D01*
X176961397Y-97160228D01*
X176961390Y-97160215D01*
X176873789Y-97029112D01*
X176873786Y-97029108D01*
X176762292Y-96917614D01*
X176762288Y-96917611D01*
X176664946Y-96852569D01*
X176631184Y-96830010D01*
X176631172Y-96830003D01*
X176485501Y-96769665D01*
X176485489Y-96769662D01*
X176414564Y-96755554D01*
X200654500Y-96755554D01*
X200654500Y-96913247D01*
X200685261Y-97067890D01*
X200685264Y-97067902D01*
X200745602Y-97213573D01*
X200745609Y-97213586D01*
X200833210Y-97344689D01*
X200833213Y-97344693D01*
X200944707Y-97456187D01*
X200944711Y-97456190D01*
X201075814Y-97543791D01*
X201075827Y-97543798D01*
X201221498Y-97604136D01*
X201221503Y-97604138D01*
X201376153Y-97634900D01*
X201376156Y-97634901D01*
X201376158Y-97634901D01*
X201533844Y-97634901D01*
X201533845Y-97634900D01*
X201688497Y-97604138D01*
X201834179Y-97543795D01*
X201965289Y-97456190D01*
X202076789Y-97344690D01*
X202164394Y-97213580D01*
X202224737Y-97067898D01*
X202255500Y-96913243D01*
X202255500Y-96755559D01*
X202255500Y-96755556D01*
X202255499Y-96755554D01*
X202228668Y-96620667D01*
X202224737Y-96600904D01*
X202171072Y-96471344D01*
X202164397Y-96455228D01*
X202164390Y-96455215D01*
X202076789Y-96324112D01*
X202076786Y-96324108D01*
X201965292Y-96212614D01*
X201965288Y-96212611D01*
X201834185Y-96125010D01*
X201834172Y-96125003D01*
X201688501Y-96064665D01*
X201688489Y-96064662D01*
X201533845Y-96033901D01*
X201533842Y-96033901D01*
X201376158Y-96033901D01*
X201376155Y-96033901D01*
X201221510Y-96064662D01*
X201221498Y-96064665D01*
X201075827Y-96125003D01*
X201075814Y-96125010D01*
X200944711Y-96212611D01*
X200944707Y-96212614D01*
X200833213Y-96324108D01*
X200833210Y-96324112D01*
X200745609Y-96455215D01*
X200745602Y-96455228D01*
X200685264Y-96600899D01*
X200685261Y-96600911D01*
X200654500Y-96755554D01*
X176414564Y-96755554D01*
X176330845Y-96738901D01*
X176330842Y-96738901D01*
X176173158Y-96738901D01*
X176173155Y-96738901D01*
X176018510Y-96769662D01*
X176018498Y-96769665D01*
X175872827Y-96830003D01*
X175872814Y-96830010D01*
X175741711Y-96917611D01*
X175741707Y-96917614D01*
X175630213Y-97029108D01*
X175630210Y-97029112D01*
X175542609Y-97160215D01*
X175542602Y-97160228D01*
X175482264Y-97305899D01*
X175482261Y-97305911D01*
X175451500Y-97460554D01*
X171450249Y-97460554D01*
X171409863Y-97400112D01*
X171409860Y-97400108D01*
X171298366Y-97288614D01*
X171298362Y-97288611D01*
X171167259Y-97201010D01*
X171167246Y-97201003D01*
X171021575Y-97140665D01*
X171021563Y-97140662D01*
X170866919Y-97109901D01*
X170866916Y-97109901D01*
X170709232Y-97109901D01*
X170709229Y-97109901D01*
X170554584Y-97140662D01*
X170554572Y-97140665D01*
X170408901Y-97201003D01*
X170408888Y-97201010D01*
X170277785Y-97288611D01*
X170277781Y-97288614D01*
X170166287Y-97400108D01*
X170166284Y-97400112D01*
X170078683Y-97531215D01*
X170078676Y-97531228D01*
X170018338Y-97676899D01*
X170018335Y-97676911D01*
X169987574Y-97831554D01*
X128562500Y-97831554D01*
X128562500Y-97711158D01*
X128562500Y-97711155D01*
X128562499Y-97711153D01*
X128549718Y-97646898D01*
X128531737Y-97556503D01*
X128531735Y-97556498D01*
X128471397Y-97410827D01*
X128471390Y-97410814D01*
X128383789Y-97279711D01*
X128383786Y-97279707D01*
X128272292Y-97168213D01*
X128272288Y-97168210D01*
X128141185Y-97080609D01*
X128141172Y-97080602D01*
X127995501Y-97020264D01*
X127995489Y-97020261D01*
X127840845Y-96989500D01*
X127840842Y-96989500D01*
X127683158Y-96989500D01*
X127683155Y-96989500D01*
X127528510Y-97020261D01*
X127528498Y-97020264D01*
X127382827Y-97080602D01*
X127382814Y-97080609D01*
X127251711Y-97168210D01*
X127251707Y-97168213D01*
X127140213Y-97279707D01*
X127140210Y-97279711D01*
X127052609Y-97410814D01*
X127052602Y-97410827D01*
X126992264Y-97556498D01*
X126992261Y-97556510D01*
X126961500Y-97711153D01*
X117170500Y-97711153D01*
X117170500Y-96889990D01*
X117159999Y-96787202D01*
X117104814Y-96620665D01*
X117012712Y-96471344D01*
X116888656Y-96347288D01*
X116739335Y-96255186D01*
X116572798Y-96200001D01*
X116572796Y-96200000D01*
X116470017Y-96189500D01*
X116470010Y-96189500D01*
X114669990Y-96189500D01*
X114669982Y-96189500D01*
X114567203Y-96200000D01*
X114567202Y-96200001D01*
X114529148Y-96212611D01*
X114400667Y-96255185D01*
X114400662Y-96255187D01*
X114251342Y-96347289D01*
X114127289Y-96471342D01*
X114035187Y-96620662D01*
X114035186Y-96620665D01*
X113980001Y-96787202D01*
X113980001Y-96787203D01*
X113980000Y-96787203D01*
X113969500Y-96889982D01*
X98168100Y-96889982D01*
X98168100Y-94084671D01*
X104775000Y-94084671D01*
X104775000Y-94320776D01*
X104811934Y-94553971D01*
X104884897Y-94778526D01*
X104992087Y-94988898D01*
X105052338Y-95071828D01*
X105052340Y-95071829D01*
X105792037Y-94332132D01*
X105809075Y-94395717D01*
X105874901Y-94509731D01*
X105967993Y-94602823D01*
X106082007Y-94668649D01*
X106145590Y-94685686D01*
X105405893Y-95425382D01*
X105488828Y-95485638D01*
X105699197Y-95592826D01*
X105923752Y-95665789D01*
X105923751Y-95665789D01*
X106156948Y-95702724D01*
X106393052Y-95702724D01*
X106626247Y-95665789D01*
X106850802Y-95592826D01*
X107061163Y-95485642D01*
X107061169Y-95485638D01*
X107144104Y-95425382D01*
X107144105Y-95425382D01*
X106404408Y-94685686D01*
X106467993Y-94668649D01*
X106582007Y-94602823D01*
X106675099Y-94509731D01*
X106740925Y-94395717D01*
X106757962Y-94332133D01*
X107497658Y-95071829D01*
X107497658Y-95071828D01*
X107557914Y-94988893D01*
X107557918Y-94988887D01*
X107665100Y-94778531D01*
X107665104Y-94778521D01*
X107738065Y-94553971D01*
X107775000Y-94320776D01*
X107775000Y-94084671D01*
X107738065Y-93851476D01*
X107665102Y-93626921D01*
X107557914Y-93416552D01*
X107497658Y-93333618D01*
X107497658Y-93333617D01*
X106757962Y-94073314D01*
X106740925Y-94009731D01*
X106675099Y-93895717D01*
X106582007Y-93802625D01*
X106467993Y-93736799D01*
X106404409Y-93719761D01*
X107144105Y-92980064D01*
X107144104Y-92980062D01*
X107061174Y-92919811D01*
X106850802Y-92812621D01*
X106626247Y-92739658D01*
X106626248Y-92739658D01*
X106393052Y-92702724D01*
X106156948Y-92702724D01*
X105923752Y-92739658D01*
X105699197Y-92812621D01*
X105488830Y-92919808D01*
X105405894Y-92980064D01*
X106145591Y-93719761D01*
X106082007Y-93736799D01*
X105967993Y-93802625D01*
X105874901Y-93895717D01*
X105809075Y-94009731D01*
X105792037Y-94073315D01*
X105052340Y-93333618D01*
X104992084Y-93416554D01*
X104884897Y-93626921D01*
X104811934Y-93851476D01*
X104775000Y-94084671D01*
X98168100Y-94084671D01*
X98168100Y-91472536D01*
X114982000Y-91472536D01*
X114982000Y-93568271D01*
X114982001Y-93568277D01*
X114988408Y-93627884D01*
X115038702Y-93762729D01*
X115038706Y-93762736D01*
X115124952Y-93877945D01*
X115124955Y-93877948D01*
X115240164Y-93964194D01*
X115240171Y-93964198D01*
X115375017Y-94014492D01*
X115375016Y-94014492D01*
X115381944Y-94015236D01*
X115434627Y-94020901D01*
X117435372Y-94020900D01*
X117494983Y-94014492D01*
X117629831Y-93964197D01*
X117745046Y-93877947D01*
X117831296Y-93762732D01*
X117841690Y-93734861D01*
X117883560Y-93678928D01*
X117949023Y-93654509D01*
X118017297Y-93669359D01*
X118030746Y-93677866D01*
X118213462Y-93810618D01*
X118417242Y-93914449D01*
X118417244Y-93914450D01*
X118634751Y-93985122D01*
X118634752Y-93985122D01*
X118634755Y-93985123D01*
X118860646Y-94020901D01*
X118860647Y-94020901D01*
X119089353Y-94020901D01*
X119089354Y-94020901D01*
X119315245Y-93985123D01*
X119315248Y-93985122D01*
X119315249Y-93985122D01*
X119532755Y-93914450D01*
X119532755Y-93914449D01*
X119532758Y-93914449D01*
X119736538Y-93810618D01*
X119921566Y-93676187D01*
X120083286Y-93514467D01*
X120144683Y-93429960D01*
X120200012Y-93387297D01*
X120269625Y-93381318D01*
X120331420Y-93413924D01*
X120345314Y-93429957D01*
X120406714Y-93514467D01*
X120568434Y-93676187D01*
X120753462Y-93810618D01*
X120957242Y-93914449D01*
X120957244Y-93914450D01*
X121174751Y-93985122D01*
X121174752Y-93985122D01*
X121174755Y-93985123D01*
X121400646Y-94020901D01*
X121400647Y-94020901D01*
X121629353Y-94020901D01*
X121629354Y-94020901D01*
X121855245Y-93985123D01*
X121855248Y-93985122D01*
X121855249Y-93985122D01*
X122072755Y-93914450D01*
X122072755Y-93914449D01*
X122072758Y-93914449D01*
X122276538Y-93810618D01*
X122461566Y-93676187D01*
X122623286Y-93514467D01*
X122757717Y-93329439D01*
X122861548Y-93125659D01*
X122895369Y-93021568D01*
X122932221Y-92908150D01*
X122932221Y-92908149D01*
X122932222Y-92908146D01*
X122968000Y-92682255D01*
X122968000Y-92358547D01*
X122932222Y-92132656D01*
X122932221Y-92132652D01*
X122932221Y-92132651D01*
X122861549Y-91915145D01*
X122806548Y-91807200D01*
X122757717Y-91711363D01*
X122623286Y-91526335D01*
X122461566Y-91364615D01*
X122276538Y-91230184D01*
X122235945Y-91209501D01*
X122072755Y-91126351D01*
X121855248Y-91055679D01*
X121669812Y-91026309D01*
X121629354Y-91019901D01*
X121400646Y-91019901D01*
X121360188Y-91026309D01*
X121174753Y-91055679D01*
X121174750Y-91055679D01*
X120957244Y-91126351D01*
X120753461Y-91230184D01*
X120687550Y-91278072D01*
X120568434Y-91364615D01*
X120568432Y-91364617D01*
X120568431Y-91364617D01*
X120406715Y-91526333D01*
X120345318Y-91610839D01*
X120289987Y-91653504D01*
X120220374Y-91659483D01*
X120158579Y-91626877D01*
X120144682Y-91610839D01*
X120133773Y-91595824D01*
X120083286Y-91526335D01*
X119921566Y-91364615D01*
X119736538Y-91230184D01*
X119695945Y-91209501D01*
X119532755Y-91126351D01*
X119315248Y-91055679D01*
X119129812Y-91026309D01*
X119089354Y-91019901D01*
X118860646Y-91019901D01*
X118820188Y-91026309D01*
X118634753Y-91055679D01*
X118634750Y-91055679D01*
X118417244Y-91126351D01*
X118213461Y-91230184D01*
X118030759Y-91362926D01*
X117964952Y-91386406D01*
X117896898Y-91370581D01*
X117848203Y-91320475D01*
X117841690Y-91305939D01*
X117831296Y-91278070D01*
X117831293Y-91278065D01*
X117745047Y-91162856D01*
X117745044Y-91162853D01*
X117629835Y-91076607D01*
X117629828Y-91076603D01*
X117494982Y-91026309D01*
X117494983Y-91026309D01*
X117435383Y-91019902D01*
X117435381Y-91019901D01*
X117435373Y-91019901D01*
X117435364Y-91019901D01*
X115434629Y-91019901D01*
X115434623Y-91019902D01*
X115375016Y-91026309D01*
X115240171Y-91076603D01*
X115240164Y-91076607D01*
X115124955Y-91162853D01*
X115124952Y-91162856D01*
X115038706Y-91278065D01*
X115038702Y-91278072D01*
X114988408Y-91412918D01*
X114982001Y-91472517D01*
X114982000Y-91472536D01*
X98168100Y-91472536D01*
X98168100Y-88402707D01*
X104774500Y-88402707D01*
X104774500Y-90002725D01*
X104774501Y-90002742D01*
X104785000Y-90105520D01*
X104785001Y-90105523D01*
X104840185Y-90272055D01*
X104840186Y-90272058D01*
X104932288Y-90421380D01*
X105056344Y-90545436D01*
X105205666Y-90637538D01*
X105372203Y-90692723D01*
X105474991Y-90703224D01*
X107075008Y-90703223D01*
X107177797Y-90692723D01*
X107344334Y-90637538D01*
X107493656Y-90545436D01*
X107617712Y-90421380D01*
X107709814Y-90272058D01*
X107764999Y-90105521D01*
X107775500Y-90002733D01*
X107775499Y-88534635D01*
X124549500Y-88534635D01*
X124549500Y-90535370D01*
X124549501Y-90535376D01*
X124555908Y-90594983D01*
X124606202Y-90729828D01*
X124606206Y-90729835D01*
X124692452Y-90845044D01*
X124692455Y-90845047D01*
X124807664Y-90931293D01*
X124807669Y-90931296D01*
X124835539Y-90941690D01*
X124891473Y-90983561D01*
X124915891Y-91049024D01*
X124901040Y-91117298D01*
X124892526Y-91130756D01*
X124888137Y-91136798D01*
X124759783Y-91313461D01*
X124655950Y-91517244D01*
X124585278Y-91734750D01*
X124585278Y-91734753D01*
X124549500Y-91960646D01*
X124549500Y-92189353D01*
X124585278Y-92415246D01*
X124585278Y-92415249D01*
X124655950Y-92632755D01*
X124695309Y-92710001D01*
X124759783Y-92836538D01*
X124894214Y-93021566D01*
X125055934Y-93183286D01*
X125140864Y-93244991D01*
X125183529Y-93300321D01*
X125189508Y-93369935D01*
X125156902Y-93431730D01*
X125140864Y-93445627D01*
X125056257Y-93507097D01*
X124894597Y-93668757D01*
X124760211Y-93853723D01*
X124656417Y-94057429D01*
X124585765Y-94274871D01*
X124571491Y-94365000D01*
X125559252Y-94365000D01*
X125537482Y-94402708D01*
X125500000Y-94542591D01*
X125500000Y-94687409D01*
X125537482Y-94827292D01*
X125559252Y-94865000D01*
X124571491Y-94865000D01*
X124585765Y-94955128D01*
X124656417Y-95172570D01*
X124760211Y-95376276D01*
X124894597Y-95561242D01*
X125056257Y-95722902D01*
X125241223Y-95857288D01*
X125444929Y-95961082D01*
X125662371Y-96031734D01*
X125800000Y-96053532D01*
X125800000Y-95105747D01*
X125837708Y-95127518D01*
X125977591Y-95165000D01*
X126122409Y-95165000D01*
X126262292Y-95127518D01*
X126300000Y-95105747D01*
X126300000Y-96053531D01*
X126437628Y-96031734D01*
X126655070Y-95961082D01*
X126858776Y-95857288D01*
X127043742Y-95722902D01*
X127205402Y-95561242D01*
X127339788Y-95376276D01*
X127443582Y-95172570D01*
X127492456Y-95022154D01*
X175045100Y-95022154D01*
X175045100Y-95179847D01*
X175075861Y-95334490D01*
X175075864Y-95334502D01*
X175136202Y-95480173D01*
X175136209Y-95480186D01*
X175223810Y-95611289D01*
X175223813Y-95611293D01*
X175335307Y-95722787D01*
X175335311Y-95722790D01*
X175466414Y-95810391D01*
X175466427Y-95810398D01*
X175612098Y-95870736D01*
X175612103Y-95870738D01*
X175766753Y-95901500D01*
X175766756Y-95901501D01*
X175766758Y-95901501D01*
X175924444Y-95901501D01*
X175924445Y-95901500D01*
X176079097Y-95870738D01*
X176224779Y-95810395D01*
X176355889Y-95722790D01*
X176467389Y-95611290D01*
X176554994Y-95480180D01*
X176615337Y-95334498D01*
X176646100Y-95179843D01*
X176646100Y-95022159D01*
X176646100Y-95022156D01*
X176646099Y-95022154D01*
X176632767Y-94955129D01*
X176615337Y-94867504D01*
X176598681Y-94827292D01*
X176554997Y-94721828D01*
X176554990Y-94721815D01*
X176467389Y-94590712D01*
X176467386Y-94590708D01*
X176355892Y-94479214D01*
X176355888Y-94479211D01*
X176224785Y-94391610D01*
X176224772Y-94391603D01*
X176079101Y-94331265D01*
X176079089Y-94331262D01*
X175924445Y-94300501D01*
X175924442Y-94300501D01*
X175766758Y-94300501D01*
X175766755Y-94300501D01*
X175612110Y-94331262D01*
X175612098Y-94331265D01*
X175466427Y-94391603D01*
X175466414Y-94391610D01*
X175335311Y-94479211D01*
X175335307Y-94479214D01*
X175223813Y-94590708D01*
X175223810Y-94590712D01*
X175136209Y-94721815D01*
X175136202Y-94721828D01*
X175075864Y-94867499D01*
X175075861Y-94867511D01*
X175045100Y-95022154D01*
X127492456Y-95022154D01*
X127506885Y-94977748D01*
X127506886Y-94977746D01*
X127514232Y-94955136D01*
X127514233Y-94955129D01*
X127528509Y-94865000D01*
X126540748Y-94865000D01*
X126562518Y-94827292D01*
X126600000Y-94687409D01*
X126600000Y-94542591D01*
X126562518Y-94402708D01*
X126540748Y-94365000D01*
X127528509Y-94365000D01*
X127514234Y-94274871D01*
X127443582Y-94057429D01*
X127339788Y-93853723D01*
X127205402Y-93668757D01*
X127043742Y-93507097D01*
X126959135Y-93445626D01*
X126916470Y-93390296D01*
X126910491Y-93320682D01*
X126943097Y-93258887D01*
X126959125Y-93244999D01*
X127044066Y-93183286D01*
X127205786Y-93021566D01*
X127340217Y-92836538D01*
X127444048Y-92632758D01*
X127514722Y-92415245D01*
X127550500Y-92189354D01*
X127550500Y-91960646D01*
X127542476Y-91909983D01*
X146626823Y-91909983D01*
X146626823Y-93510001D01*
X146626824Y-93510018D01*
X146637323Y-93612796D01*
X146637324Y-93612799D01*
X146667123Y-93702724D01*
X146692509Y-93779334D01*
X146784611Y-93928656D01*
X146908667Y-94052712D01*
X147057989Y-94144814D01*
X147224526Y-94199999D01*
X147327314Y-94210500D01*
X148927331Y-94210499D01*
X149030120Y-94199999D01*
X149196657Y-94144814D01*
X149345979Y-94052712D01*
X149470035Y-93928656D01*
X149562137Y-93779334D01*
X149617322Y-93612797D01*
X149627823Y-93510009D01*
X149627822Y-92591947D01*
X151627323Y-92591947D01*
X151627323Y-92828052D01*
X151664257Y-93061247D01*
X151737220Y-93285802D01*
X151844410Y-93496174D01*
X151904661Y-93579104D01*
X151904663Y-93579105D01*
X152644360Y-92839408D01*
X152661398Y-92902993D01*
X152727224Y-93017007D01*
X152820316Y-93110099D01*
X152934330Y-93175925D01*
X152997913Y-93192962D01*
X152258216Y-93932658D01*
X152341151Y-93992914D01*
X152551520Y-94100102D01*
X152776075Y-94173065D01*
X152776074Y-94173065D01*
X153009271Y-94210000D01*
X153245375Y-94210000D01*
X153478570Y-94173065D01*
X153703125Y-94100102D01*
X153913486Y-93992918D01*
X153913492Y-93992914D01*
X153996427Y-93932658D01*
X153996428Y-93932658D01*
X153256731Y-93192962D01*
X153320316Y-93175925D01*
X153434330Y-93110099D01*
X153527422Y-93017007D01*
X153593248Y-92902993D01*
X153610285Y-92839409D01*
X154349981Y-93579105D01*
X154349981Y-93579104D01*
X154410237Y-93496169D01*
X154410241Y-93496163D01*
X154517425Y-93285802D01*
X154590388Y-93061247D01*
X154627323Y-92828052D01*
X154627323Y-92591947D01*
X154590388Y-92358752D01*
X154517425Y-92134197D01*
X154410237Y-91923828D01*
X154349981Y-91840894D01*
X154349981Y-91840893D01*
X153610285Y-92580590D01*
X153593248Y-92517007D01*
X153527422Y-92402993D01*
X153434330Y-92309901D01*
X153320316Y-92244075D01*
X153256732Y-92227037D01*
X153996428Y-91487340D01*
X153996427Y-91487338D01*
X153913497Y-91427087D01*
X153703125Y-91319897D01*
X153478570Y-91246934D01*
X153478571Y-91246934D01*
X153245375Y-91210000D01*
X153009271Y-91210000D01*
X152776075Y-91246934D01*
X152551520Y-91319897D01*
X152341153Y-91427084D01*
X152258217Y-91487340D01*
X152997914Y-92227037D01*
X152934330Y-92244075D01*
X152820316Y-92309901D01*
X152727224Y-92402993D01*
X152661398Y-92517007D01*
X152644360Y-92580591D01*
X151904663Y-91840894D01*
X151844407Y-91923830D01*
X151737220Y-92134197D01*
X151664257Y-92358752D01*
X151627323Y-92591947D01*
X149627822Y-92591947D01*
X149627822Y-91909992D01*
X149620763Y-91840893D01*
X149617322Y-91807203D01*
X149617321Y-91807200D01*
X149593313Y-91734750D01*
X149562137Y-91640666D01*
X149470035Y-91491344D01*
X149345979Y-91367288D01*
X149196657Y-91275186D01*
X149030120Y-91220001D01*
X149030118Y-91220000D01*
X148927333Y-91209500D01*
X147327321Y-91209500D01*
X147327304Y-91209501D01*
X147224526Y-91220000D01*
X147224523Y-91220001D01*
X147057991Y-91275185D01*
X147057986Y-91275187D01*
X146908665Y-91367289D01*
X146784612Y-91491342D01*
X146692510Y-91640663D01*
X146692508Y-91640668D01*
X146669083Y-91711362D01*
X146637324Y-91807203D01*
X146637324Y-91807204D01*
X146637323Y-91807204D01*
X146626823Y-91909983D01*
X127542476Y-91909983D01*
X127514722Y-91734755D01*
X127514721Y-91734751D01*
X127514721Y-91734750D01*
X127444049Y-91517244D01*
X127421269Y-91472536D01*
X127340217Y-91313462D01*
X127207472Y-91130755D01*
X127183994Y-91064953D01*
X127199819Y-90996899D01*
X127249925Y-90948204D01*
X127264455Y-90941692D01*
X127292331Y-90931296D01*
X127407546Y-90845046D01*
X127493796Y-90729831D01*
X127544091Y-90594983D01*
X127550500Y-90535373D01*
X127550500Y-90348554D01*
X174994300Y-90348554D01*
X174994300Y-90506247D01*
X175025061Y-90660890D01*
X175025064Y-90660902D01*
X175085402Y-90806573D01*
X175085409Y-90806586D01*
X175173010Y-90937689D01*
X175173013Y-90937693D01*
X175284507Y-91049187D01*
X175284511Y-91049190D01*
X175415614Y-91136791D01*
X175415627Y-91136798D01*
X175478538Y-91162856D01*
X175561303Y-91197138D01*
X175715953Y-91227900D01*
X175715956Y-91227901D01*
X175715958Y-91227901D01*
X175873644Y-91227901D01*
X175873645Y-91227900D01*
X176028297Y-91197138D01*
X176173979Y-91136795D01*
X176305089Y-91049190D01*
X176416589Y-90937690D01*
X176504194Y-90806580D01*
X176564537Y-90660898D01*
X176595300Y-90506243D01*
X176595300Y-90348559D01*
X176595300Y-90348556D01*
X176595299Y-90348554D01*
X176564538Y-90193911D01*
X176564537Y-90193904D01*
X176527928Y-90105521D01*
X176504197Y-90048228D01*
X176504190Y-90048215D01*
X176416589Y-89917112D01*
X176416586Y-89917108D01*
X176305092Y-89805614D01*
X176305088Y-89805611D01*
X176173985Y-89718010D01*
X176173972Y-89718003D01*
X176028301Y-89657665D01*
X176028289Y-89657662D01*
X175873645Y-89626901D01*
X175873642Y-89626901D01*
X175715958Y-89626901D01*
X175715955Y-89626901D01*
X175561310Y-89657662D01*
X175561298Y-89657665D01*
X175415627Y-89718003D01*
X175415614Y-89718010D01*
X175284511Y-89805611D01*
X175284507Y-89805614D01*
X175173013Y-89917108D01*
X175173010Y-89917112D01*
X175085409Y-90048215D01*
X175085402Y-90048228D01*
X175025064Y-90193899D01*
X175025061Y-90193911D01*
X174994300Y-90348554D01*
X127550500Y-90348554D01*
X127550499Y-89449901D01*
X127550499Y-88570554D01*
X200343500Y-88570554D01*
X200343500Y-88728247D01*
X200374261Y-88882890D01*
X200374264Y-88882902D01*
X200434602Y-89028573D01*
X200434609Y-89028586D01*
X200522210Y-89159689D01*
X200522213Y-89159693D01*
X200633707Y-89271187D01*
X200633711Y-89271190D01*
X200764814Y-89358791D01*
X200764827Y-89358798D01*
X200910498Y-89419136D01*
X200910503Y-89419138D01*
X201065153Y-89449900D01*
X201065156Y-89449901D01*
X201065158Y-89449901D01*
X201222844Y-89449901D01*
X201222845Y-89449900D01*
X201377497Y-89419138D01*
X201523179Y-89358795D01*
X201654289Y-89271190D01*
X201765789Y-89159690D01*
X201853394Y-89028580D01*
X201913737Y-88882898D01*
X201944500Y-88728243D01*
X201944500Y-88570559D01*
X201944500Y-88570556D01*
X201944499Y-88570554D01*
X201921693Y-88455901D01*
X201913737Y-88415904D01*
X201908277Y-88402722D01*
X201853397Y-88270228D01*
X201853390Y-88270215D01*
X201765789Y-88139112D01*
X201765786Y-88139108D01*
X201654292Y-88027614D01*
X201654288Y-88027611D01*
X201523185Y-87940010D01*
X201523172Y-87940003D01*
X201377501Y-87879665D01*
X201377489Y-87879662D01*
X201222845Y-87848901D01*
X201222842Y-87848901D01*
X201065158Y-87848901D01*
X201065155Y-87848901D01*
X200910510Y-87879662D01*
X200910498Y-87879665D01*
X200764827Y-87940003D01*
X200764814Y-87940010D01*
X200633711Y-88027611D01*
X200633707Y-88027614D01*
X200522213Y-88139108D01*
X200522210Y-88139112D01*
X200434609Y-88270215D01*
X200434602Y-88270228D01*
X200374264Y-88415899D01*
X200374261Y-88415911D01*
X200343500Y-88570554D01*
X127550499Y-88570554D01*
X127550499Y-88534629D01*
X127550498Y-88534623D01*
X127550497Y-88534616D01*
X127544091Y-88475017D01*
X127536961Y-88455901D01*
X127493797Y-88340171D01*
X127493793Y-88340164D01*
X127407547Y-88224955D01*
X127407544Y-88224952D01*
X127292335Y-88138706D01*
X127292328Y-88138702D01*
X127157482Y-88088408D01*
X127157483Y-88088408D01*
X127097883Y-88082001D01*
X127097881Y-88082000D01*
X127097873Y-88082000D01*
X127097864Y-88082000D01*
X125002129Y-88082000D01*
X125002123Y-88082001D01*
X124942516Y-88088408D01*
X124807671Y-88138702D01*
X124807664Y-88138706D01*
X124692455Y-88224952D01*
X124692452Y-88224955D01*
X124606206Y-88340164D01*
X124606202Y-88340171D01*
X124555908Y-88475017D01*
X124549501Y-88534616D01*
X124549501Y-88534623D01*
X124549500Y-88534635D01*
X107775499Y-88534635D01*
X107775499Y-88402716D01*
X107764999Y-88299927D01*
X107709814Y-88133390D01*
X107617712Y-87984068D01*
X107493656Y-87860012D01*
X107344334Y-87767910D01*
X107177797Y-87712725D01*
X107177795Y-87712724D01*
X107075010Y-87702224D01*
X105474998Y-87702224D01*
X105474981Y-87702225D01*
X105372203Y-87712724D01*
X105372200Y-87712725D01*
X105205668Y-87767909D01*
X105205663Y-87767911D01*
X105056342Y-87860013D01*
X104932289Y-87984066D01*
X104840187Y-88133387D01*
X104840185Y-88133392D01*
X104838425Y-88138704D01*
X104785001Y-88299927D01*
X104785001Y-88299928D01*
X104785000Y-88299928D01*
X104774500Y-88402707D01*
X98168100Y-88402707D01*
X98168100Y-86783374D01*
X165219500Y-86783374D01*
X165219500Y-87027427D01*
X165256851Y-87263254D01*
X165257679Y-87268477D01*
X165333096Y-87500586D01*
X165441185Y-87712724D01*
X165443896Y-87718043D01*
X165587339Y-87915477D01*
X165587343Y-87915482D01*
X165759918Y-88088057D01*
X165759923Y-88088061D01*
X165932136Y-88213180D01*
X165957361Y-88231507D01*
X166174815Y-88342305D01*
X166406924Y-88417722D01*
X166647973Y-88455901D01*
X166647974Y-88455901D01*
X166892026Y-88455901D01*
X166892027Y-88455901D01*
X167133076Y-88417722D01*
X167365185Y-88342305D01*
X167582639Y-88231507D01*
X167780083Y-88088056D01*
X167952655Y-87915484D01*
X168096106Y-87718040D01*
X168205290Y-87503754D01*
X182563500Y-87503754D01*
X182563500Y-87661447D01*
X182594261Y-87816090D01*
X182594264Y-87816102D01*
X182654602Y-87961773D01*
X182654609Y-87961786D01*
X182742210Y-88092889D01*
X182742213Y-88092893D01*
X182853707Y-88204387D01*
X182853711Y-88204390D01*
X182984814Y-88291991D01*
X182984827Y-88291998D01*
X183101112Y-88340164D01*
X183130503Y-88352338D01*
X183285153Y-88383100D01*
X183285156Y-88383101D01*
X183285158Y-88383101D01*
X183442844Y-88383101D01*
X183442845Y-88383100D01*
X183597497Y-88352338D01*
X183743179Y-88291995D01*
X183874289Y-88204390D01*
X183985789Y-88092890D01*
X184073394Y-87961780D01*
X184133737Y-87816098D01*
X184164500Y-87661443D01*
X184164500Y-87503759D01*
X184164500Y-87503756D01*
X184164499Y-87503754D01*
X184150955Y-87435664D01*
X184133737Y-87349104D01*
X184107013Y-87284586D01*
X184073397Y-87203428D01*
X184073390Y-87203415D01*
X183985789Y-87072312D01*
X183985786Y-87072308D01*
X183874292Y-86960814D01*
X183874288Y-86960811D01*
X183818552Y-86923569D01*
X183743185Y-86873210D01*
X183743172Y-86873203D01*
X183630550Y-86826554D01*
X202375500Y-86826554D01*
X202375500Y-86984247D01*
X202406261Y-87138890D01*
X202406264Y-87138902D01*
X202466602Y-87284573D01*
X202466609Y-87284586D01*
X202554210Y-87415689D01*
X202554213Y-87415693D01*
X202665707Y-87527187D01*
X202665711Y-87527190D01*
X202796814Y-87614791D01*
X202796827Y-87614798D01*
X202942498Y-87675136D01*
X202942503Y-87675138D01*
X203097158Y-87705901D01*
X203097163Y-87705901D01*
X203103218Y-87706498D01*
X203102984Y-87708872D01*
X203159905Y-87725586D01*
X203205660Y-87778390D01*
X203215604Y-87847548D01*
X203207427Y-87877351D01*
X203191636Y-87915477D01*
X203168263Y-87971903D01*
X203168261Y-87971911D01*
X203137500Y-88126554D01*
X203137500Y-88284247D01*
X203168261Y-88438890D01*
X203168264Y-88438902D01*
X203228602Y-88584573D01*
X203228609Y-88584586D01*
X203316210Y-88715689D01*
X203316213Y-88715693D01*
X203427707Y-88827187D01*
X203427711Y-88827190D01*
X203558814Y-88914791D01*
X203558827Y-88914798D01*
X203704498Y-88975136D01*
X203704503Y-88975138D01*
X203859153Y-89005900D01*
X203859156Y-89005901D01*
X203859158Y-89005901D01*
X204016844Y-89005901D01*
X204016845Y-89005900D01*
X204171497Y-88975138D01*
X204317179Y-88914795D01*
X204448289Y-88827190D01*
X204559789Y-88715690D01*
X204647394Y-88584580D01*
X204707737Y-88438898D01*
X204738500Y-88284243D01*
X204738500Y-88126559D01*
X204738500Y-88126556D01*
X204738499Y-88126554D01*
X204731803Y-88092890D01*
X204707737Y-87971904D01*
X204684367Y-87915484D01*
X204647397Y-87826228D01*
X204647390Y-87826215D01*
X204559789Y-87695112D01*
X204559786Y-87695108D01*
X204448292Y-87583614D01*
X204448288Y-87583611D01*
X204317185Y-87496010D01*
X204317172Y-87496003D01*
X204171501Y-87435665D01*
X204171489Y-87435662D01*
X204016846Y-87404901D01*
X204010782Y-87404304D01*
X204011015Y-87401929D01*
X203954095Y-87385216D01*
X203908340Y-87332412D01*
X203898396Y-87263254D01*
X203906573Y-87233448D01*
X203945737Y-87138898D01*
X203976500Y-86984243D01*
X203976500Y-86826559D01*
X203976500Y-86826556D01*
X203976499Y-86826554D01*
X203967657Y-86782101D01*
X203945737Y-86671904D01*
X203945735Y-86671899D01*
X203885397Y-86526228D01*
X203885390Y-86526215D01*
X203797789Y-86395112D01*
X203797786Y-86395108D01*
X203686292Y-86283614D01*
X203686288Y-86283611D01*
X203555185Y-86196010D01*
X203555172Y-86196003D01*
X203409501Y-86135665D01*
X203409489Y-86135662D01*
X203254845Y-86104901D01*
X203254842Y-86104901D01*
X203097158Y-86104901D01*
X203097155Y-86104901D01*
X202942510Y-86135662D01*
X202942498Y-86135665D01*
X202796827Y-86196003D01*
X202796814Y-86196010D01*
X202665711Y-86283611D01*
X202665707Y-86283614D01*
X202554213Y-86395108D01*
X202554210Y-86395112D01*
X202466609Y-86526215D01*
X202466602Y-86526228D01*
X202406264Y-86671899D01*
X202406261Y-86671911D01*
X202375500Y-86826554D01*
X183630550Y-86826554D01*
X183597501Y-86812865D01*
X183597489Y-86812862D01*
X183442845Y-86782101D01*
X183442842Y-86782101D01*
X183285158Y-86782101D01*
X183285155Y-86782101D01*
X183130510Y-86812862D01*
X183130498Y-86812865D01*
X182984827Y-86873203D01*
X182984814Y-86873210D01*
X182853711Y-86960811D01*
X182853707Y-86960814D01*
X182742213Y-87072308D01*
X182742210Y-87072312D01*
X182654609Y-87203415D01*
X182654602Y-87203428D01*
X182594264Y-87349099D01*
X182594261Y-87349111D01*
X182563500Y-87503754D01*
X168205290Y-87503754D01*
X168206904Y-87500586D01*
X168282321Y-87268477D01*
X168320500Y-87027428D01*
X168320500Y-86783374D01*
X168282321Y-86542325D01*
X168206904Y-86310216D01*
X168193829Y-86284554D01*
X176869500Y-86284554D01*
X176869500Y-86442247D01*
X176900261Y-86596890D01*
X176900264Y-86596902D01*
X176960602Y-86742573D01*
X176960609Y-86742586D01*
X177048210Y-86873689D01*
X177048213Y-86873693D01*
X177159707Y-86985187D01*
X177159711Y-86985190D01*
X177290814Y-87072791D01*
X177290827Y-87072798D01*
X177436498Y-87133136D01*
X177436503Y-87133138D01*
X177591153Y-87163900D01*
X177591156Y-87163901D01*
X177591158Y-87163901D01*
X177748844Y-87163901D01*
X177748845Y-87163900D01*
X177903497Y-87133138D01*
X178049179Y-87072795D01*
X178180289Y-86985190D01*
X178291789Y-86873690D01*
X178379394Y-86742580D01*
X178439737Y-86596898D01*
X178470500Y-86442243D01*
X178470500Y-86284559D01*
X178470500Y-86284556D01*
X178470499Y-86284554D01*
X178467512Y-86269536D01*
X178439737Y-86129904D01*
X178436292Y-86121587D01*
X178379397Y-85984228D01*
X178379390Y-85984215D01*
X178291789Y-85853112D01*
X178291786Y-85853108D01*
X178180292Y-85741614D01*
X178180288Y-85741611D01*
X178049185Y-85654010D01*
X178049172Y-85654003D01*
X177903501Y-85593665D01*
X177903489Y-85593662D01*
X177748845Y-85562901D01*
X177748842Y-85562901D01*
X177591158Y-85562901D01*
X177591155Y-85562901D01*
X177436510Y-85593662D01*
X177436498Y-85593665D01*
X177290827Y-85654003D01*
X177290814Y-85654010D01*
X177159711Y-85741611D01*
X177159707Y-85741614D01*
X177048213Y-85853108D01*
X177048210Y-85853112D01*
X176960609Y-85984215D01*
X176960602Y-85984228D01*
X176900264Y-86129899D01*
X176900261Y-86129911D01*
X176869500Y-86284554D01*
X168193829Y-86284554D01*
X168096106Y-86092762D01*
X168036044Y-86010093D01*
X167952660Y-85895324D01*
X167952656Y-85895319D01*
X167780081Y-85722744D01*
X167780076Y-85722740D01*
X167582642Y-85579297D01*
X167582641Y-85579296D01*
X167582639Y-85579295D01*
X167365185Y-85468497D01*
X167218863Y-85420954D01*
X179921900Y-85420954D01*
X179921900Y-85578647D01*
X179952661Y-85733290D01*
X179952664Y-85733302D01*
X180013002Y-85878973D01*
X180013009Y-85878986D01*
X180100610Y-86010089D01*
X180100613Y-86010093D01*
X180212107Y-86121587D01*
X180212111Y-86121590D01*
X180343214Y-86209191D01*
X180343227Y-86209198D01*
X180488898Y-86269536D01*
X180488903Y-86269538D01*
X180643553Y-86300300D01*
X180643556Y-86300301D01*
X180643558Y-86300301D01*
X180801244Y-86300301D01*
X180801245Y-86300300D01*
X180955897Y-86269538D01*
X181101579Y-86209195D01*
X181232689Y-86121590D01*
X181344189Y-86010090D01*
X181431794Y-85878980D01*
X181492137Y-85733298D01*
X181522900Y-85578643D01*
X181522900Y-85420959D01*
X181522900Y-85420956D01*
X181522899Y-85420954D01*
X181492138Y-85266311D01*
X181492137Y-85266304D01*
X181492135Y-85266299D01*
X181431797Y-85120628D01*
X181431790Y-85120615D01*
X181344189Y-84989512D01*
X181344186Y-84989508D01*
X181232692Y-84878014D01*
X181232688Y-84878011D01*
X181101585Y-84790410D01*
X181101572Y-84790403D01*
X180955901Y-84730065D01*
X180955889Y-84730062D01*
X180801245Y-84699301D01*
X180801242Y-84699301D01*
X180643558Y-84699301D01*
X180643555Y-84699301D01*
X180488910Y-84730062D01*
X180488898Y-84730065D01*
X180343227Y-84790403D01*
X180343214Y-84790410D01*
X180212111Y-84878011D01*
X180212107Y-84878014D01*
X180100613Y-84989508D01*
X180100610Y-84989512D01*
X180013009Y-85120615D01*
X180013002Y-85120628D01*
X179952664Y-85266299D01*
X179952661Y-85266311D01*
X179921900Y-85420954D01*
X167218863Y-85420954D01*
X167133076Y-85393080D01*
X167133074Y-85393079D01*
X167133072Y-85393079D01*
X166964769Y-85366422D01*
X166892027Y-85354901D01*
X166647973Y-85354901D01*
X166592093Y-85363751D01*
X166406927Y-85393079D01*
X166174812Y-85468498D01*
X165957357Y-85579297D01*
X165759923Y-85722740D01*
X165759918Y-85722744D01*
X165587343Y-85895319D01*
X165587339Y-85895324D01*
X165443896Y-86092758D01*
X165333097Y-86310213D01*
X165257678Y-86542328D01*
X165219500Y-86783374D01*
X98168100Y-86783374D01*
X98168100Y-84506554D01*
X202070700Y-84506554D01*
X202070700Y-84664247D01*
X202101461Y-84818890D01*
X202101464Y-84818902D01*
X202161802Y-84964573D01*
X202161809Y-84964586D01*
X202249410Y-85095689D01*
X202249413Y-85095693D01*
X202360907Y-85207187D01*
X202360911Y-85207190D01*
X202492014Y-85294791D01*
X202492027Y-85294798D01*
X202637131Y-85354901D01*
X202637703Y-85355138D01*
X202792353Y-85385900D01*
X202792356Y-85385901D01*
X202792358Y-85385901D01*
X202950044Y-85385901D01*
X202950045Y-85385900D01*
X203104697Y-85355138D01*
X203250379Y-85294795D01*
X203381489Y-85207190D01*
X203492989Y-85095690D01*
X203580594Y-84964580D01*
X203640937Y-84818898D01*
X203671700Y-84664243D01*
X203671700Y-84506559D01*
X203671700Y-84506556D01*
X203671699Y-84506554D01*
X203640938Y-84351911D01*
X203640937Y-84351904D01*
X203640935Y-84351899D01*
X203580597Y-84206228D01*
X203580590Y-84206215D01*
X203492989Y-84075112D01*
X203492986Y-84075108D01*
X203381492Y-83963614D01*
X203381488Y-83963611D01*
X203250385Y-83876010D01*
X203250372Y-83876003D01*
X203104701Y-83815665D01*
X203104689Y-83815662D01*
X202950045Y-83784901D01*
X202950042Y-83784901D01*
X202792358Y-83784901D01*
X202792355Y-83784901D01*
X202637710Y-83815662D01*
X202637698Y-83815665D01*
X202492027Y-83876003D01*
X202492014Y-83876010D01*
X202360911Y-83963611D01*
X202360907Y-83963614D01*
X202249413Y-84075108D01*
X202249410Y-84075112D01*
X202161809Y-84206215D01*
X202161802Y-84206228D01*
X202101464Y-84351899D01*
X202101461Y-84351911D01*
X202070700Y-84506554D01*
X98168100Y-84506554D01*
X98168100Y-78112415D01*
X103032500Y-78112415D01*
X103032500Y-78348386D01*
X103063299Y-78582315D01*
X103124370Y-78810238D01*
X103214660Y-79028220D01*
X103214665Y-79028229D01*
X103332644Y-79232572D01*
X103332645Y-79232573D01*
X103395221Y-79314124D01*
X104231458Y-78477888D01*
X104256478Y-78538291D01*
X104327612Y-78644752D01*
X104418149Y-78735289D01*
X104524610Y-78806423D01*
X104585011Y-78831442D01*
X103748775Y-79667678D01*
X103830327Y-79730255D01*
X103830328Y-79730256D01*
X104034671Y-79848235D01*
X104034680Y-79848240D01*
X104252663Y-79938530D01*
X104252661Y-79938530D01*
X104480585Y-79999601D01*
X104714514Y-80030400D01*
X104714529Y-80030401D01*
X104950471Y-80030401D01*
X104950485Y-80030400D01*
X105184414Y-79999601D01*
X105412337Y-79938530D01*
X105630319Y-79848240D01*
X105630328Y-79848235D01*
X105834681Y-79730251D01*
X105916223Y-79667680D01*
X105916223Y-79667677D01*
X105079987Y-78831442D01*
X105140390Y-78806423D01*
X105246851Y-78735289D01*
X105337388Y-78644752D01*
X105408522Y-78538291D01*
X105433541Y-78477888D01*
X106269776Y-79314124D01*
X106269779Y-79314124D01*
X106332350Y-79232582D01*
X106450334Y-79028229D01*
X106450339Y-79028220D01*
X106540629Y-78810238D01*
X106601700Y-78582315D01*
X106632499Y-78348386D01*
X106632500Y-78348372D01*
X106632500Y-78112429D01*
X106632499Y-78112415D01*
X106601700Y-77878486D01*
X106540629Y-77650563D01*
X106450339Y-77432581D01*
X106450334Y-77432572D01*
X106332355Y-77228229D01*
X106332354Y-77228228D01*
X106269777Y-77146676D01*
X105433541Y-77982912D01*
X105408522Y-77922511D01*
X105337388Y-77816050D01*
X105246851Y-77725513D01*
X105140390Y-77654379D01*
X105079988Y-77629359D01*
X105916223Y-76793122D01*
X105834672Y-76730546D01*
X105834671Y-76730545D01*
X105630328Y-76612566D01*
X105630319Y-76612561D01*
X105412336Y-76522271D01*
X105412338Y-76522271D01*
X105184414Y-76461200D01*
X104950485Y-76430401D01*
X104714514Y-76430401D01*
X104480585Y-76461200D01*
X104252662Y-76522271D01*
X104034680Y-76612561D01*
X104034671Y-76612566D01*
X103830328Y-76730545D01*
X103830318Y-76730551D01*
X103748775Y-76793121D01*
X103748775Y-76793122D01*
X104585012Y-77629359D01*
X104524610Y-77654379D01*
X104418149Y-77725513D01*
X104327612Y-77816050D01*
X104256478Y-77922511D01*
X104231458Y-77982912D01*
X103395221Y-77146676D01*
X103395220Y-77146676D01*
X103332650Y-77228219D01*
X103332644Y-77228229D01*
X103214665Y-77432572D01*
X103214660Y-77432581D01*
X103124370Y-77650563D01*
X103063299Y-77878486D01*
X103032500Y-78112415D01*
X98168100Y-78112415D01*
X98168100Y-75564273D01*
X110804500Y-75564273D01*
X110804500Y-75826528D01*
X110831123Y-76028740D01*
X110838730Y-76086517D01*
X110903696Y-76328973D01*
X110906602Y-76339819D01*
X110906605Y-76339829D01*
X111006953Y-76582091D01*
X111006958Y-76582101D01*
X111138075Y-76809204D01*
X111297718Y-77017252D01*
X111297726Y-77017261D01*
X111483140Y-77202675D01*
X111483148Y-77202682D01*
X111691196Y-77362325D01*
X111918299Y-77493442D01*
X111918309Y-77493447D01*
X112128235Y-77580401D01*
X112160581Y-77593799D01*
X112413884Y-77661671D01*
X112673880Y-77695901D01*
X112673887Y-77695901D01*
X112936113Y-77695901D01*
X112936120Y-77695901D01*
X113196116Y-77661671D01*
X113449419Y-77593799D01*
X113691697Y-77493444D01*
X113918803Y-77362325D01*
X114126851Y-77202683D01*
X114126855Y-77202678D01*
X114126860Y-77202675D01*
X114312274Y-77017261D01*
X114312277Y-77017256D01*
X114312282Y-77017252D01*
X114471924Y-76809204D01*
X114603043Y-76582098D01*
X114703398Y-76339820D01*
X114771270Y-76086517D01*
X114805500Y-75826521D01*
X114805500Y-75565498D01*
X122404500Y-75565498D01*
X122404500Y-75825303D01*
X122445140Y-76081894D01*
X122525422Y-76328977D01*
X122577101Y-76430401D01*
X122640458Y-76554745D01*
X122643368Y-76560455D01*
X122766946Y-76730546D01*
X122796069Y-76770630D01*
X122979771Y-76954332D01*
X123189949Y-77107035D01*
X123337445Y-77182188D01*
X123421423Y-77224978D01*
X123421425Y-77224978D01*
X123421428Y-77224980D01*
X123668507Y-77305261D01*
X123800706Y-77326198D01*
X123925098Y-77345901D01*
X123925103Y-77345901D01*
X124184902Y-77345901D01*
X124298298Y-77327940D01*
X124441493Y-77305261D01*
X124688572Y-77224980D01*
X124920051Y-77107035D01*
X125130229Y-76954332D01*
X125313931Y-76770630D01*
X125466634Y-76560452D01*
X125584579Y-76328973D01*
X125664860Y-76081894D01*
X125687539Y-75938699D01*
X125705500Y-75825303D01*
X125705500Y-75565499D01*
X125705499Y-75565497D01*
X125705305Y-75564273D01*
X133304500Y-75564273D01*
X133304500Y-75826528D01*
X133331123Y-76028740D01*
X133338730Y-76086517D01*
X133403696Y-76328973D01*
X133406602Y-76339819D01*
X133406605Y-76339829D01*
X133506953Y-76582091D01*
X133506958Y-76582101D01*
X133638075Y-76809204D01*
X133797718Y-77017252D01*
X133797726Y-77017261D01*
X133983140Y-77202675D01*
X133983148Y-77202682D01*
X134191196Y-77362325D01*
X134418299Y-77493442D01*
X134418309Y-77493447D01*
X134628235Y-77580401D01*
X134660581Y-77593799D01*
X134913884Y-77661671D01*
X135173880Y-77695901D01*
X135173887Y-77695901D01*
X135436113Y-77695901D01*
X135436120Y-77695901D01*
X135696116Y-77661671D01*
X135949419Y-77593799D01*
X136191697Y-77493444D01*
X136418803Y-77362325D01*
X136626851Y-77202683D01*
X136626855Y-77202678D01*
X136626860Y-77202675D01*
X136812274Y-77017261D01*
X136812277Y-77017256D01*
X136812282Y-77017252D01*
X136957706Y-76827733D01*
X139279500Y-76827733D01*
X139279500Y-77103068D01*
X139279501Y-77103085D01*
X139315438Y-77376056D01*
X139315439Y-77376061D01*
X139315440Y-77376067D01*
X139330583Y-77432581D01*
X139386704Y-77642031D01*
X139492075Y-77896418D01*
X139492080Y-77896429D01*
X139574861Y-78039808D01*
X139629751Y-78134880D01*
X139629753Y-78134883D01*
X139629754Y-78134884D01*
X139797370Y-78353327D01*
X139797376Y-78353334D01*
X139992066Y-78548024D01*
X139992073Y-78548030D01*
X140038892Y-78583955D01*
X140210521Y-78715650D01*
X140329007Y-78784058D01*
X140448971Y-78853320D01*
X140448976Y-78853322D01*
X140448979Y-78853324D01*
X140703368Y-78958696D01*
X140969334Y-79029961D01*
X141242326Y-79065901D01*
X141242333Y-79065901D01*
X141517667Y-79065901D01*
X141517674Y-79065901D01*
X141790666Y-79029961D01*
X142056632Y-78958696D01*
X142311021Y-78853324D01*
X142549479Y-78715650D01*
X142767928Y-78548029D01*
X142962628Y-78353329D01*
X143130249Y-78134880D01*
X143267923Y-77896422D01*
X143373295Y-77642033D01*
X143444560Y-77376067D01*
X143480500Y-77103075D01*
X143480500Y-76827727D01*
X143444560Y-76554735D01*
X143373295Y-76288769D01*
X143267923Y-76034380D01*
X143267921Y-76034377D01*
X143267919Y-76034372D01*
X143147919Y-75826528D01*
X143130249Y-75795922D01*
X142962628Y-75577473D01*
X142962623Y-75577467D01*
X142950540Y-75565384D01*
X154519500Y-75565384D01*
X154519500Y-78365402D01*
X154519501Y-78365419D01*
X154530000Y-78468197D01*
X154530001Y-78468200D01*
X154568359Y-78583955D01*
X154585186Y-78634735D01*
X154677288Y-78784057D01*
X154801344Y-78908113D01*
X154950666Y-79000215D01*
X155117203Y-79055400D01*
X155219991Y-79065901D01*
X158020008Y-79065900D01*
X158122797Y-79055400D01*
X158289334Y-79000215D01*
X158438656Y-78908113D01*
X158562712Y-78784057D01*
X158654814Y-78634735D01*
X158709999Y-78468198D01*
X158720500Y-78365410D01*
X158720499Y-75565393D01*
X158720385Y-75564281D01*
X158709999Y-75462604D01*
X158709998Y-75462601D01*
X158683547Y-75382777D01*
X158654814Y-75296067D01*
X158562712Y-75146745D01*
X158438656Y-75022689D01*
X158345888Y-74965470D01*
X158289336Y-74930588D01*
X158289331Y-74930586D01*
X158287862Y-74930099D01*
X158122797Y-74875402D01*
X158122795Y-74875401D01*
X158020010Y-74864901D01*
X155219998Y-74864901D01*
X155219981Y-74864902D01*
X155117203Y-74875401D01*
X155117200Y-74875402D01*
X154950668Y-74930586D01*
X154950663Y-74930588D01*
X154801342Y-75022690D01*
X154677289Y-75146743D01*
X154585187Y-75296064D01*
X154585186Y-75296067D01*
X154530001Y-75462604D01*
X154530001Y-75462605D01*
X154530000Y-75462605D01*
X154519500Y-75565384D01*
X142950540Y-75565384D01*
X142767933Y-75382777D01*
X142767926Y-75382771D01*
X142549483Y-75215155D01*
X142549482Y-75215154D01*
X142549479Y-75215152D01*
X142430995Y-75146745D01*
X142311028Y-75077481D01*
X142311017Y-75077476D01*
X142056630Y-74972105D01*
X141901676Y-74930586D01*
X141790666Y-74900841D01*
X141790660Y-74900840D01*
X141790655Y-74900839D01*
X141517684Y-74864902D01*
X141517679Y-74864901D01*
X141517674Y-74864901D01*
X141242326Y-74864901D01*
X141242320Y-74864901D01*
X141242315Y-74864902D01*
X140969344Y-74900839D01*
X140969337Y-74900840D01*
X140969334Y-74900841D01*
X140913125Y-74915901D01*
X140703369Y-74972105D01*
X140448982Y-75077476D01*
X140448971Y-75077481D01*
X140210516Y-75215155D01*
X139992073Y-75382771D01*
X139992066Y-75382777D01*
X139797376Y-75577467D01*
X139797370Y-75577474D01*
X139629754Y-75795917D01*
X139492080Y-76034372D01*
X139492075Y-76034383D01*
X139386704Y-76288770D01*
X139315441Y-76554732D01*
X139315438Y-76554745D01*
X139279501Y-76827716D01*
X139279500Y-76827733D01*
X136957706Y-76827733D01*
X136971924Y-76809204D01*
X136981209Y-76793122D01*
X136999369Y-76761668D01*
X137103041Y-76582101D01*
X137103046Y-76582091D01*
X137203394Y-76339829D01*
X137203398Y-76339820D01*
X137271270Y-76086517D01*
X137305500Y-75826521D01*
X137305500Y-75564281D01*
X137271270Y-75304285D01*
X137203398Y-75050982D01*
X137191679Y-75022689D01*
X137103046Y-74808710D01*
X137103041Y-74808700D01*
X136971924Y-74581597D01*
X136812281Y-74373549D01*
X136812274Y-74373541D01*
X136626860Y-74188127D01*
X136626851Y-74188119D01*
X136418803Y-74028476D01*
X136191700Y-73897359D01*
X136191690Y-73897354D01*
X135949428Y-73797006D01*
X135949421Y-73797004D01*
X135949419Y-73797003D01*
X135696116Y-73729131D01*
X135638339Y-73721524D01*
X135436127Y-73694901D01*
X135436120Y-73694901D01*
X135173880Y-73694901D01*
X135173872Y-73694901D01*
X134942772Y-73725327D01*
X134913884Y-73729131D01*
X134660581Y-73797003D01*
X134660571Y-73797006D01*
X134418309Y-73897354D01*
X134418299Y-73897359D01*
X134191196Y-74028476D01*
X133983148Y-74188119D01*
X133797718Y-74373549D01*
X133638075Y-74581597D01*
X133506958Y-74808700D01*
X133506953Y-74808710D01*
X133406605Y-75050972D01*
X133406602Y-75050982D01*
X133338730Y-75304285D01*
X133338121Y-75308908D01*
X133304500Y-75564273D01*
X125705305Y-75564273D01*
X125700851Y-75536154D01*
X125664860Y-75308908D01*
X125584579Y-75061829D01*
X125584577Y-75061826D01*
X125584577Y-75061824D01*
X125528058Y-74950901D01*
X125466634Y-74830350D01*
X125313931Y-74620172D01*
X125130229Y-74436470D01*
X125043615Y-74373541D01*
X124920054Y-74283769D01*
X124920053Y-74283768D01*
X124920051Y-74283767D01*
X124847764Y-74246935D01*
X124688576Y-74165823D01*
X124441493Y-74085541D01*
X124184902Y-74044901D01*
X124184897Y-74044901D01*
X123925103Y-74044901D01*
X123925098Y-74044901D01*
X123668506Y-74085541D01*
X123421423Y-74165823D01*
X123189945Y-74283769D01*
X122979774Y-74436467D01*
X122979768Y-74436472D01*
X122796071Y-74620169D01*
X122796066Y-74620175D01*
X122643368Y-74830346D01*
X122525422Y-75061824D01*
X122445140Y-75308907D01*
X122404500Y-75565498D01*
X114805500Y-75565498D01*
X114805500Y-75564281D01*
X114771270Y-75304285D01*
X114703398Y-75050982D01*
X114691679Y-75022689D01*
X114603046Y-74808710D01*
X114603041Y-74808700D01*
X114471924Y-74581597D01*
X114312281Y-74373549D01*
X114312274Y-74373541D01*
X114126860Y-74188127D01*
X114126851Y-74188119D01*
X113918803Y-74028476D01*
X113691700Y-73897359D01*
X113691690Y-73897354D01*
X113449428Y-73797006D01*
X113449421Y-73797004D01*
X113449419Y-73797003D01*
X113196116Y-73729131D01*
X113138339Y-73721524D01*
X112936127Y-73694901D01*
X112936120Y-73694901D01*
X112673880Y-73694901D01*
X112673872Y-73694901D01*
X112442772Y-73725327D01*
X112413884Y-73729131D01*
X112160581Y-73797003D01*
X112160571Y-73797006D01*
X111918309Y-73897354D01*
X111918299Y-73897359D01*
X111691196Y-74028476D01*
X111483148Y-74188119D01*
X111297718Y-74373549D01*
X111138075Y-74581597D01*
X111006958Y-74808700D01*
X111006953Y-74808710D01*
X110906605Y-75050972D01*
X110906602Y-75050982D01*
X110838730Y-75304285D01*
X110838121Y-75308908D01*
X110804500Y-75564273D01*
X98168100Y-75564273D01*
X98168100Y-72050384D01*
X103032000Y-72050384D01*
X103032000Y-74250402D01*
X103032001Y-74250419D01*
X103042500Y-74353197D01*
X103042501Y-74353200D01*
X103070095Y-74436472D01*
X103097686Y-74519735D01*
X103189788Y-74669057D01*
X103313844Y-74793113D01*
X103463166Y-74885215D01*
X103629703Y-74940400D01*
X103732491Y-74950901D01*
X105932508Y-74950900D01*
X106035297Y-74940400D01*
X106201834Y-74885215D01*
X106351156Y-74793113D01*
X106475212Y-74669057D01*
X106567314Y-74519735D01*
X106622499Y-74353198D01*
X106633000Y-74250410D01*
X106632999Y-72050393D01*
X106622499Y-71947604D01*
X106567314Y-71781067D01*
X106475212Y-71631745D01*
X106351156Y-71507689D01*
X106201834Y-71415587D01*
X106035297Y-71360402D01*
X106035295Y-71360401D01*
X105932510Y-71349901D01*
X103732498Y-71349901D01*
X103732481Y-71349902D01*
X103629703Y-71360401D01*
X103629700Y-71360402D01*
X103463168Y-71415586D01*
X103463163Y-71415588D01*
X103313842Y-71507690D01*
X103189789Y-71631743D01*
X103097687Y-71781064D01*
X103097686Y-71781067D01*
X103042501Y-71947604D01*
X103042501Y-71947605D01*
X103042500Y-71947605D01*
X103032000Y-72050384D01*
X98168100Y-72050384D01*
X98168100Y-71442422D01*
X98168101Y-71442419D01*
X98168100Y-71399238D01*
X98168416Y-71390402D01*
X98171311Y-71349901D01*
X98184748Y-71161896D01*
X98187260Y-71144415D01*
X98234994Y-70924871D01*
X98239969Y-70907920D01*
X98318447Y-70697405D01*
X98325781Y-70681338D01*
X98433407Y-70484129D01*
X98442961Y-70469255D01*
X98494398Y-70400501D01*
X98577542Y-70289367D01*
X98589103Y-70276015D01*
X98747923Y-70117084D01*
X98761263Y-70105516D01*
X98941064Y-69970804D01*
X98955912Y-69961252D01*
X99153047Y-69853486D01*
X99169116Y-69846138D01*
X99379578Y-69767511D01*
X99396529Y-69762524D01*
X99616035Y-69714636D01*
X99633523Y-69712111D01*
X99861611Y-69695647D01*
X99870435Y-69695326D01*
X99888154Y-69695313D01*
X163474714Y-69651671D01*
X163541765Y-69671310D01*
X163587556Y-69724082D01*
X163597547Y-69793234D01*
X163577900Y-69844560D01*
X163553811Y-69880612D01*
X163553802Y-69880628D01*
X163493464Y-70026299D01*
X163493461Y-70026311D01*
X163462700Y-70180954D01*
X163462700Y-70338647D01*
X163493461Y-70493290D01*
X163493464Y-70493302D01*
X163553802Y-70638973D01*
X163553809Y-70638986D01*
X163641410Y-70770089D01*
X163641413Y-70770093D01*
X163752910Y-70881590D01*
X163871861Y-70961070D01*
X163916666Y-71014682D01*
X163925373Y-71084007D01*
X163895219Y-71147034D01*
X163871862Y-71167273D01*
X163803713Y-71212809D01*
X163803707Y-71212814D01*
X163692213Y-71324308D01*
X163692210Y-71324312D01*
X163604609Y-71455415D01*
X163604602Y-71455428D01*
X163544264Y-71601099D01*
X163544261Y-71601111D01*
X163513500Y-71755754D01*
X163513500Y-71913447D01*
X163534373Y-72018383D01*
X163528146Y-72087975D01*
X163485283Y-72143152D01*
X163460209Y-72157135D01*
X163376023Y-72192005D01*
X163376014Y-72192010D01*
X163244911Y-72279611D01*
X163244907Y-72279614D01*
X163133413Y-72391108D01*
X163133410Y-72391112D01*
X163045809Y-72522215D01*
X163045802Y-72522228D01*
X162985464Y-72667899D01*
X162985461Y-72667911D01*
X162954700Y-72822554D01*
X162954700Y-72980247D01*
X162985461Y-73134890D01*
X162985464Y-73134902D01*
X163045802Y-73280573D01*
X163045809Y-73280586D01*
X163133410Y-73411689D01*
X163133413Y-73411693D01*
X163244907Y-73523187D01*
X163244911Y-73523190D01*
X163376014Y-73610791D01*
X163376027Y-73610798D01*
X163521698Y-73671136D01*
X163521703Y-73671138D01*
X163641167Y-73694901D01*
X163676353Y-73701900D01*
X163676356Y-73701901D01*
X163676358Y-73701901D01*
X163834044Y-73701901D01*
X163834045Y-73701900D01*
X163988697Y-73671138D01*
X164134379Y-73610795D01*
X164265489Y-73523190D01*
X164376989Y-73411690D01*
X164464594Y-73280580D01*
X164524937Y-73134898D01*
X164555700Y-72980243D01*
X164555700Y-72822559D01*
X164555700Y-72822556D01*
X164534826Y-72717620D01*
X164541053Y-72648028D01*
X164583916Y-72592851D01*
X164608991Y-72578867D01*
X164693172Y-72543998D01*
X164693172Y-72543997D01*
X164693179Y-72543995D01*
X164824289Y-72456390D01*
X164935789Y-72344890D01*
X165023394Y-72213780D01*
X165083737Y-72068098D01*
X165114500Y-71913443D01*
X165114500Y-71755759D01*
X165114500Y-71755756D01*
X165114499Y-71755754D01*
X165089832Y-71631745D01*
X165083737Y-71601104D01*
X165045044Y-71507689D01*
X165023397Y-71455428D01*
X165023390Y-71455415D01*
X164935789Y-71324312D01*
X164935786Y-71324308D01*
X164824292Y-71212814D01*
X164824288Y-71212811D01*
X164705338Y-71133331D01*
X164660533Y-71079719D01*
X164651826Y-71010394D01*
X164681980Y-70947366D01*
X164705339Y-70927127D01*
X164748105Y-70898550D01*
X164773489Y-70881590D01*
X164884989Y-70770090D01*
X164972594Y-70638980D01*
X165032937Y-70493298D01*
X165063700Y-70338643D01*
X165063700Y-70180959D01*
X165063700Y-70180956D01*
X165063699Y-70180954D01*
X165048692Y-70105508D01*
X165032937Y-70026304D01*
X165007750Y-69965496D01*
X164972597Y-69880628D01*
X164972589Y-69880614D01*
X164947778Y-69843482D01*
X164926899Y-69776805D01*
X164945383Y-69709425D01*
X164997361Y-69662734D01*
X165050792Y-69650590D01*
X169809755Y-69647323D01*
X169809756Y-69647324D01*
X169834438Y-69647307D01*
X169834439Y-69647308D01*
X169860356Y-69647290D01*
X169877602Y-69647278D01*
X169886451Y-69647587D01*
G37*
%TD.AperFunction*%
%TD*%
M02*
