%TF.GenerationSoftware,KiCad,Pcbnew,9.0.5*%
%TF.CreationDate,2026-08-22T20:43:22+02:00*%
%TF.ProjectId,MPPT Controller,4d505054-2043-46f6-9e74-726f6c6c6572,rev?*%
%TF.SameCoordinates,Original*%
%TF.FileFunction,Copper,L1,Top*%
%TF.FilePolarity,Positive*%
%FSLAX46Y46*%
G04 Gerber Fmt 4.6, Leading zero omitted, Abs format (unit mm)*
G04 Created by KiCad (PCBNEW 9.0.5) date 2026-08-22 20:43:22*
%MOMM*%
%LPD*%
G01*
G04 APERTURE LIST*
G04 Aperture macros list*
%AMRoundRect*
0 Rectangle with rounded corners*
0 $1 Rounding radius*
0 $2 $3 $4 $5 $6 $7 $8 $9 X,Y pos of 4 corners*
0 Add a 4 corners polygon primitive as box body*
4,1,4,$2,$3,$4,$5,$6,$7,$8,$9,$2,$3,0*
0 Add four circle primitives for the rounded corners*
1,1,$1+$1,$2,$3*
1,1,$1+$1,$4,$5*
1,1,$1+$1,$6,$7*
1,1,$1+$1,$8,$9*
0 Add four rect primitives between the rounded corners*
20,1,$1+$1,$2,$3,$4,$5,0*
20,1,$1+$1,$4,$5,$6,$7,0*
20,1,$1+$1,$6,$7,$8,$9,0*
20,1,$1+$1,$8,$9,$2,$3,0*%
G04 Aperture macros list end*
%TA.AperFunction,ComponentPad*%
%ADD10C,3.000000*%
%TD*%
%TA.AperFunction,SMDPad,CuDef*%
%ADD11RoundRect,0.250000X0.250000X0.475000X-0.250000X0.475000X-0.250000X-0.475000X0.250000X-0.475000X0*%
%TD*%
%TA.AperFunction,SMDPad,CuDef*%
%ADD12RoundRect,0.250000X0.262500X0.450000X-0.262500X0.450000X-0.262500X-0.450000X0.262500X-0.450000X0*%
%TD*%
%TA.AperFunction,SMDPad,CuDef*%
%ADD13RoundRect,0.150000X-0.512500X-0.150000X0.512500X-0.150000X0.512500X0.150000X-0.512500X0.150000X0*%
%TD*%
%TA.AperFunction,SMDPad,CuDef*%
%ADD14RoundRect,0.250000X0.450000X-0.262500X0.450000X0.262500X-0.450000X0.262500X-0.450000X-0.262500X0*%
%TD*%
%TA.AperFunction,SMDPad,CuDef*%
%ADD15RoundRect,0.218750X0.256250X-0.218750X0.256250X0.218750X-0.256250X0.218750X-0.256250X-0.218750X0*%
%TD*%
%TA.AperFunction,SMDPad,CuDef*%
%ADD16RoundRect,0.250000X-0.475000X0.250000X-0.475000X-0.250000X0.475000X-0.250000X0.475000X0.250000X0*%
%TD*%
%TA.AperFunction,SMDPad,CuDef*%
%ADD17RoundRect,0.250000X0.300000X0.300000X-0.300000X0.300000X-0.300000X-0.300000X0.300000X-0.300000X0*%
%TD*%
%TA.AperFunction,SMDPad,CuDef*%
%ADD18R,2.900000X5.400000*%
%TD*%
%TA.AperFunction,SMDPad,CuDef*%
%ADD19C,1.500000*%
%TD*%
%TA.AperFunction,SMDPad,CuDef*%
%ADD20RoundRect,0.250000X-0.450000X0.262500X-0.450000X-0.262500X0.450000X-0.262500X0.450000X0.262500X0*%
%TD*%
%TA.AperFunction,SMDPad,CuDef*%
%ADD21RoundRect,0.250000X-0.250000X-0.475000X0.250000X-0.475000X0.250000X0.475000X-0.250000X0.475000X0*%
%TD*%
%TA.AperFunction,SMDPad,CuDef*%
%ADD22RoundRect,0.250000X-0.262500X-0.450000X0.262500X-0.450000X0.262500X0.450000X-0.262500X0.450000X0*%
%TD*%
%TA.AperFunction,SMDPad,CuDef*%
%ADD23RoundRect,0.225000X-0.375000X0.225000X-0.375000X-0.225000X0.375000X-0.225000X0.375000X0.225000X0*%
%TD*%
%TA.AperFunction,SMDPad,CuDef*%
%ADD24RoundRect,0.150000X0.150000X-0.825000X0.150000X0.825000X-0.150000X0.825000X-0.150000X-0.825000X0*%
%TD*%
%TA.AperFunction,SMDPad,CuDef*%
%ADD25RoundRect,0.237500X-0.250000X-0.237500X0.250000X-0.237500X0.250000X0.237500X-0.250000X0.237500X0*%
%TD*%
%TA.AperFunction,SMDPad,CuDef*%
%ADD26RoundRect,0.150000X0.150000X-0.587500X0.150000X0.587500X-0.150000X0.587500X-0.150000X-0.587500X0*%
%TD*%
%TA.AperFunction,SMDPad,CuDef*%
%ADD27RoundRect,0.150000X-0.150000X-0.200000X0.150000X-0.200000X0.150000X0.200000X-0.150000X0.200000X0*%
%TD*%
%TA.AperFunction,SMDPad,CuDef*%
%ADD28RoundRect,0.237500X0.300000X0.237500X-0.300000X0.237500X-0.300000X-0.237500X0.300000X-0.237500X0*%
%TD*%
%TA.AperFunction,SMDPad,CuDef*%
%ADD29RoundRect,0.250000X-1.425000X0.362500X-1.425000X-0.362500X1.425000X-0.362500X1.425000X0.362500X0*%
%TD*%
%TA.AperFunction,SMDPad,CuDef*%
%ADD30RoundRect,0.075000X0.200000X-0.075000X0.200000X0.075000X-0.200000X0.075000X-0.200000X-0.075000X0*%
%TD*%
%TA.AperFunction,SMDPad,CuDef*%
%ADD31R,1.050000X1.050000*%
%TD*%
%TA.AperFunction,HeatsinkPad*%
%ADD32C,0.600000*%
%TD*%
%TA.AperFunction,HeatsinkPad*%
%ADD33R,4.200000X4.200000*%
%TD*%
%TA.AperFunction,SMDPad,CuDef*%
%ADD34R,1.500000X0.900000*%
%TD*%
%TA.AperFunction,SMDPad,CuDef*%
%ADD35R,0.900000X1.500000*%
%TD*%
%TA.AperFunction,SMDPad,CuDef*%
%ADD36R,1.200000X3.700000*%
%TD*%
%TA.AperFunction,SMDPad,CuDef*%
%ADD37RoundRect,0.135000X0.185000X-0.135000X0.185000X0.135000X-0.185000X0.135000X-0.185000X-0.135000X0*%
%TD*%
%TA.AperFunction,SMDPad,CuDef*%
%ADD38RoundRect,0.150000X0.825000X0.150000X-0.825000X0.150000X-0.825000X-0.150000X0.825000X-0.150000X0*%
%TD*%
%TA.AperFunction,ComponentPad*%
%ADD39RoundRect,0.249999X-0.850001X0.850001X-0.850001X-0.850001X0.850001X-0.850001X0.850001X0.850001X0*%
%TD*%
%TA.AperFunction,ComponentPad*%
%ADD40C,2.200000*%
%TD*%
%TA.AperFunction,ComponentPad*%
%ADD41RoundRect,0.250000X-0.750000X0.750000X-0.750000X-0.750000X0.750000X-0.750000X0.750000X0.750000X0*%
%TD*%
%TA.AperFunction,ComponentPad*%
%ADD42C,2.000000*%
%TD*%
%TA.AperFunction,SMDPad,CuDef*%
%ADD43RoundRect,0.150000X-0.150000X0.587500X-0.150000X-0.587500X0.150000X-0.587500X0.150000X0.587500X0*%
%TD*%
%TA.AperFunction,ComponentPad*%
%ADD44RoundRect,0.250000X-1.050000X1.050000X-1.050000X-1.050000X1.050000X-1.050000X1.050000X1.050000X0*%
%TD*%
%TA.AperFunction,ComponentPad*%
%ADD45C,2.600000*%
%TD*%
%TA.AperFunction,SMDPad,CuDef*%
%ADD46RoundRect,0.250000X0.475000X-0.250000X0.475000X0.250000X-0.475000X0.250000X-0.475000X-0.250000X0*%
%TD*%
%TA.AperFunction,ComponentPad*%
%ADD47R,1.700000X1.700000*%
%TD*%
%TA.AperFunction,ComponentPad*%
%ADD48C,1.700000*%
%TD*%
%TA.AperFunction,SMDPad,CuDef*%
%ADD49RoundRect,0.250000X0.362500X1.075000X-0.362500X1.075000X-0.362500X-1.075000X0.362500X-1.075000X0*%
%TD*%
%TA.AperFunction,ComponentPad*%
%ADD50R,1.905000X2.000000*%
%TD*%
%TA.AperFunction,ComponentPad*%
%ADD51O,1.905000X2.000000*%
%TD*%
%TA.AperFunction,SMDPad,CuDef*%
%ADD52R,1.700000X0.900000*%
%TD*%
%TA.AperFunction,ComponentPad*%
%ADD53RoundRect,0.250000X-0.750000X-0.750000X0.750000X-0.750000X0.750000X0.750000X-0.750000X0.750000X0*%
%TD*%
%TA.AperFunction,ComponentPad*%
%ADD54RoundRect,0.250000X1.350000X1.350000X-1.350000X1.350000X-1.350000X-1.350000X1.350000X-1.350000X0*%
%TD*%
%TA.AperFunction,ComponentPad*%
%ADD55C,3.200000*%
%TD*%
%TA.AperFunction,SMDPad,CuDef*%
%ADD56RoundRect,0.237500X-0.300000X-0.237500X0.300000X-0.237500X0.300000X0.237500X-0.300000X0.237500X0*%
%TD*%
%TA.AperFunction,SMDPad,CuDef*%
%ADD57RoundRect,0.150000X0.512500X0.150000X-0.512500X0.150000X-0.512500X-0.150000X0.512500X-0.150000X0*%
%TD*%
%TA.AperFunction,ComponentPad*%
%ADD58R,2.000000X1.905000*%
%TD*%
%TA.AperFunction,ComponentPad*%
%ADD59O,2.000000X1.905000*%
%TD*%
%TA.AperFunction,SMDPad,CuDef*%
%ADD60RoundRect,0.135000X-0.185000X0.135000X-0.185000X-0.135000X0.185000X-0.135000X0.185000X0.135000X0*%
%TD*%
%TA.AperFunction,SMDPad,CuDef*%
%ADD61RoundRect,0.154000X-1.416000X-0.616000X1.416000X-0.616000X1.416000X0.616000X-1.416000X0.616000X0*%
%TD*%
%TA.AperFunction,SMDPad,CuDef*%
%ADD62RoundRect,0.225000X-0.225000X-0.375000X0.225000X-0.375000X0.225000X0.375000X-0.225000X0.375000X0*%
%TD*%
%TA.AperFunction,SMDPad,CuDef*%
%ADD63R,0.600000X1.450000*%
%TD*%
%TA.AperFunction,SMDPad,CuDef*%
%ADD64R,0.300000X1.450000*%
%TD*%
%TA.AperFunction,HeatsinkPad*%
%ADD65O,1.000000X2.100000*%
%TD*%
%TA.AperFunction,HeatsinkPad*%
%ADD66O,1.000000X1.600000*%
%TD*%
%TA.AperFunction,ViaPad*%
%ADD67C,0.800000*%
%TD*%
%TA.AperFunction,ViaPad*%
%ADD68C,0.600000*%
%TD*%
%TA.AperFunction,Conductor*%
%ADD69C,0.250000*%
%TD*%
%TA.AperFunction,Conductor*%
%ADD70C,1.000000*%
%TD*%
%TA.AperFunction,Conductor*%
%ADD71C,1.500000*%
%TD*%
%TA.AperFunction,Conductor*%
%ADD72C,0.500000*%
%TD*%
%TA.AperFunction,Conductor*%
%ADD73C,0.200000*%
%TD*%
%TA.AperFunction,Conductor*%
%ADD74C,0.800000*%
%TD*%
%TA.AperFunction,Conductor*%
%ADD75C,2.500000*%
%TD*%
G04 APERTURE END LIST*
D10*
%TO.P,F1,1*%
%TO.N,Net-(D7-K)*%
X135520000Y-118505401D03*
%TO.P,F1,2*%
%TO.N,/VBAT_RAW*%
X113020000Y-118505401D03*
%TD*%
D11*
%TO.P,C5,1*%
%TO.N,/ADC_VOUT*%
X185330000Y-90300401D03*
%TO.P,C5,2*%
%TO.N,GND*%
X183430000Y-90300401D03*
%TD*%
D12*
%TO.P,R23,1*%
%TO.N,/SD_CTRL*%
X128547500Y-104140000D03*
%TO.P,R23,2*%
%TO.N,Net-(U3-~{SD})*%
X126722500Y-104140000D03*
%TD*%
D13*
%TO.P,U1,1,FB*%
%TO.N,Net-(U1-FB)*%
X183877500Y-120465401D03*
%TO.P,U1,2,EN*%
%TO.N,/VOUT*%
X183877500Y-121415401D03*
%TO.P,U1,3,IN*%
X183877500Y-122365401D03*
%TO.P,U1,4,GND*%
%TO.N,GND*%
X186152500Y-122365401D03*
%TO.P,U1,5,SW*%
%TO.N,Net-(U1-SW)*%
X186152500Y-121415401D03*
%TO.P,U1,6,BST*%
%TO.N,Net-(U1-BST)*%
X186152500Y-120465401D03*
%TD*%
D14*
%TO.P,R14,1*%
%TO.N,Net-(J4-CC1)*%
X169775000Y-117600401D03*
%TO.P,R14,2*%
%TO.N,GND*%
X169775000Y-115775401D03*
%TD*%
%TO.P,R17,1*%
%TO.N,/RTS*%
X166600000Y-100747901D03*
%TO.P,R17,2*%
%TO.N,Net-(Q3-B)*%
X166600000Y-98922901D03*
%TD*%
D15*
%TO.P,D4,1,K*%
%TO.N,GND*%
X202795000Y-125377901D03*
%TO.P,D4,2,A*%
%TO.N,Net-(D4-A)*%
X202795000Y-123802901D03*
%TD*%
D16*
%TO.P,C7,1*%
%TO.N,Net-(U1-BST)*%
X188190000Y-120465401D03*
%TO.P,C7,2*%
%TO.N,Net-(U1-SW)*%
X188190000Y-122365401D03*
%TD*%
D17*
%TO.P,D1,1,K*%
%TO.N,Net-(D1-K)*%
X199750000Y-115065401D03*
%TO.P,D1,2,A*%
%TO.N,Net-(D1-A)*%
X196950000Y-115065401D03*
%TD*%
D10*
%TO.P,F2,1*%
%TO.N,/VIN_RAW*%
X112805000Y-75695401D03*
%TO.P,F2,2*%
%TO.N,Net-(D2-A)*%
X135305000Y-75695401D03*
%TD*%
D16*
%TO.P,C8,1*%
%TO.N,Net-(D5-A)*%
X198990000Y-120465401D03*
%TO.P,C8,2*%
%TO.N,GND*%
X198990000Y-122365401D03*
%TD*%
%TO.P,C18,1*%
%TO.N,Net-(D2-A)*%
X138205000Y-74745401D03*
%TO.P,C18,2*%
%TO.N,GND*%
X138205000Y-76645401D03*
%TD*%
D18*
%TO.P,L1,1,1*%
%TO.N,/SW*%
X133580000Y-92075000D03*
%TO.P,L1,2,2*%
%TO.N,/VOUT*%
X143280000Y-92075000D03*
%TD*%
D16*
%TO.P,C16,1*%
%TO.N,Net-(C16-Pad1)*%
X130810000Y-97475000D03*
%TO.P,C16,2*%
%TO.N,GND*%
X130810000Y-99375000D03*
%TD*%
D19*
%TO.P,TP6,1,1*%
%TO.N,/ADC_VOUT*%
X174855000Y-92205401D03*
%TD*%
%TO.P,TP4,1,1*%
%TO.N,/VOUT*%
X144145000Y-104775000D03*
%TD*%
D14*
%TO.P,R5,1*%
%TO.N,Net-(U3-HO)*%
X118745000Y-97432500D03*
%TO.P,R5,2*%
%TO.N,/GATE_HI*%
X118745000Y-95607500D03*
%TD*%
D13*
%TO.P,U8,1,VIN*%
%TO.N,+5V*%
X190227500Y-114115401D03*
%TO.P,U8,2,GND*%
%TO.N,GND*%
X190227500Y-115065401D03*
%TO.P,U8,3,EN*%
%TO.N,+5V*%
X190227500Y-116015401D03*
%TO.P,U8,4,NC*%
%TO.N,unconnected-(U8-NC-Pad4)*%
X192502500Y-116015401D03*
%TO.P,U8,5,VOUT*%
%TO.N,Net-(D1-A)*%
X192502500Y-114115401D03*
%TD*%
D20*
%TO.P,R6,1*%
%TO.N,+3.3V*%
X205970000Y-102722901D03*
%TO.P,R6,2*%
%TO.N,/IO0*%
X205970000Y-104547901D03*
%TD*%
D21*
%TO.P,C1,1*%
%TO.N,Net-(D3-K)*%
X121375000Y-96709599D03*
%TO.P,C1,2*%
%TO.N,/SW*%
X123275000Y-96709599D03*
%TD*%
D22*
%TO.P,R10,1*%
%TO.N,GND*%
X187912500Y-125225401D03*
%TO.P,R10,2*%
%TO.N,Net-(U1-FB)*%
X189737500Y-125225401D03*
%TD*%
D23*
%TO.P,D5,1,K*%
%TO.N,Net-(D1-K)*%
X205970000Y-117860401D03*
%TO.P,D5,2,A*%
%TO.N,Net-(D5-A)*%
X205970000Y-121160401D03*
%TD*%
D24*
%TO.P,U6,1,GND*%
%TO.N,GND*%
X169775000Y-108725401D03*
%TO.P,U6,2,TXD*%
%TO.N,Net-(U6-TXD)*%
X171045000Y-108725401D03*
%TO.P,U6,3,RXD*%
%TO.N,/ESP_TX*%
X172315000Y-108725401D03*
%TO.P,U6,4,V3*%
%TO.N,+3.3V*%
X173585000Y-108725401D03*
%TO.P,U6,5,UD+*%
%TO.N,Net-(U6-UD+)*%
X174855000Y-108725401D03*
%TO.P,U6,6,UD-*%
%TO.N,Net-(U6-UD-)*%
X176125000Y-108725401D03*
%TO.P,U6,7,NC*%
%TO.N,unconnected-(U6-NC-Pad7)*%
X177395000Y-108725401D03*
%TO.P,U6,8,NC*%
%TO.N,unconnected-(U6-NC-Pad8)*%
X178665000Y-108725401D03*
%TO.P,U6,9,~{CTS}*%
%TO.N,unconnected-(U6-~{CTS}-Pad9)*%
X178665000Y-103775401D03*
%TO.P,U6,10,~{DSR}*%
%TO.N,unconnected-(U6-~{DSR}-Pad10)*%
X177395000Y-103775401D03*
%TO.P,U6,11,~{RI}*%
%TO.N,unconnected-(U6-~{RI}-Pad11)*%
X176125000Y-103775401D03*
%TO.P,U6,12,~{DCD}*%
%TO.N,unconnected-(U6-~{DCD}-Pad12)*%
X174855000Y-103775401D03*
%TO.P,U6,13,~{DTR}*%
%TO.N,/DTR*%
X173585000Y-103775401D03*
%TO.P,U6,14,~{RTS}*%
%TO.N,/RTS*%
X172315000Y-103775401D03*
%TO.P,U6,15,R232*%
%TO.N,unconnected-(U6-R232-Pad15)*%
X171045000Y-103775401D03*
%TO.P,U6,16,VCC*%
%TO.N,+3.3V*%
X169775000Y-103775401D03*
%TD*%
D16*
%TO.P,C6,1*%
%TO.N,Net-(D5-A)*%
X196445000Y-120465401D03*
%TO.P,C6,2*%
%TO.N,GND*%
X196445000Y-122365401D03*
%TD*%
D25*
%TO.P,R25,1*%
%TO.N,Net-(R25-Pad1)*%
X179657500Y-94110401D03*
%TO.P,R25,2*%
%TO.N,/ADC_IOUT*%
X181482500Y-94110401D03*
%TD*%
D20*
%TO.P,R21,1*%
%TO.N,/SW*%
X130810000Y-93702500D03*
%TO.P,R21,2*%
%TO.N,Net-(C16-Pad1)*%
X130810000Y-95527500D03*
%TD*%
D26*
%TO.P,Q2,1,E*%
%TO.N,/RTS*%
X168825000Y-100772901D03*
%TO.P,Q2,2,B*%
%TO.N,Net-(Q2-B)*%
X170725000Y-100772901D03*
%TO.P,Q2,3,C*%
%TO.N,/IO0*%
X169775000Y-98897901D03*
%TD*%
D27*
%TO.P,U7,1,I/O*%
%TO.N,+5V*%
X167300000Y-115775401D03*
%TO.P,U7,2,GND*%
%TO.N,GND*%
X165900000Y-115775401D03*
%TD*%
D28*
%TO.P,C24,1*%
%TO.N,/ADC_IOUT*%
X185242500Y-92840401D03*
%TO.P,C24,2*%
%TO.N,GND*%
X183517500Y-92840401D03*
%TD*%
D29*
%TO.P,R1,1*%
%TO.N,Net-(D2-K)*%
X161065000Y-74002901D03*
%TO.P,R1,2*%
%TO.N,/VIN*%
X161065000Y-79927901D03*
%TD*%
D22*
%TO.P,R7,1*%
%TO.N,+3.3V*%
X165867500Y-70615401D03*
%TO.P,R7,2*%
%TO.N,/SDA*%
X167692500Y-70615401D03*
%TD*%
D30*
%TO.P,U4,1,IO1*%
%TO.N,Data+*%
X173335000Y-117410401D03*
%TO.P,U4,2,IO2*%
%TO.N,Data-*%
X173335000Y-116910401D03*
%TO.P,U4,3,G*%
%TO.N,GND*%
X173335000Y-116410401D03*
%TO.P,U4,4,IO3*%
%TO.N,unconnected-(U4-IO3-Pad4)*%
X173335000Y-115910401D03*
%TO.P,U4,5,IO4*%
%TO.N,unconnected-(U4-IO4-Pad5)*%
X173335000Y-115410401D03*
%TO.P,U4,6,NC*%
%TO.N,unconnected-(U4-NC-Pad6)*%
X172565000Y-115410401D03*
%TO.P,U4,7,NC*%
%TO.N,unconnected-(U4-NC-Pad7)*%
X172565000Y-115910401D03*
%TO.P,U4,8,G*%
%TO.N,GND*%
X172565000Y-116410401D03*
%TO.P,U4,9,NC*%
%TO.N,Data-*%
X172565000Y-116910401D03*
%TO.P,U4,10,NC*%
%TO.N,Data+*%
X172565000Y-117410401D03*
%TD*%
D31*
%TO.P,U5,39,GND*%
%TO.N,GND*%
X197590000Y-91445401D03*
D32*
X197590000Y-90682901D03*
D31*
X197590000Y-89920401D03*
D32*
X197590000Y-89157901D03*
D31*
X197590000Y-88395401D03*
D32*
X196827500Y-91445401D03*
X196827500Y-89920401D03*
X196827500Y-88395401D03*
D31*
X196065000Y-91445401D03*
D32*
X196065000Y-90682901D03*
D33*
X196065000Y-89920401D03*
D31*
X196065000Y-89920401D03*
D32*
X196065000Y-89157901D03*
D31*
X196065000Y-88395401D03*
D32*
X195302500Y-91445401D03*
X195302500Y-89920401D03*
X195302500Y-88395401D03*
D31*
X194540000Y-91445401D03*
D32*
X194540000Y-90682901D03*
D31*
X194540000Y-89920401D03*
D32*
X194540000Y-89157901D03*
D31*
X194540000Y-88395401D03*
D34*
%TO.P,U5,38,GND*%
X205495000Y-82580401D03*
%TO.P,U5,37,IO23*%
%TO.N,unconnected-(U5-IO23-Pad37)*%
X205495000Y-83850401D03*
%TO.P,U5,36,IO22*%
%TO.N,/SCL*%
X205495000Y-85120401D03*
%TO.P,U5,35,TXD0/IO1*%
%TO.N,/ESP_TX*%
X205495000Y-86390401D03*
%TO.P,U5,34,RXD0/IO3*%
%TO.N,/ESP_RX*%
X205495000Y-87660401D03*
%TO.P,U5,33,IO21*%
%TO.N,/SDA*%
X205495000Y-88930401D03*
%TO.P,U5,32,NC*%
%TO.N,unconnected-(U5-NC-Pad32)*%
X205495000Y-90200401D03*
%TO.P,U5,31,IO19*%
%TO.N,unconnected-(U5-IO19-Pad31)*%
X205495000Y-91470401D03*
%TO.P,U5,30,IO18*%
%TO.N,unconnected-(U5-IO18-Pad30)*%
X205495000Y-92740401D03*
%TO.P,U5,29,IO5*%
%TO.N,unconnected-(U5-IO5-Pad29)*%
X205495000Y-94010401D03*
%TO.P,U5,28,IO17*%
%TO.N,unconnected-(U5-IO17-Pad28)*%
X205495000Y-95280401D03*
%TO.P,U5,27,IO16*%
%TO.N,unconnected-(U5-IO16-Pad27)*%
X205495000Y-96550401D03*
%TO.P,U5,26,IO4*%
%TO.N,unconnected-(U5-IO4-Pad26)*%
X205495000Y-97820401D03*
%TO.P,U5,25,IO0*%
%TO.N,/IO0*%
X205495000Y-99090401D03*
D35*
%TO.P,U5,24,IO2*%
%TO.N,unconnected-(U5-IO2-Pad24)*%
X202465000Y-100340401D03*
%TO.P,U5,23,IO15*%
%TO.N,unconnected-(U5-IO15-Pad23)*%
X201195000Y-100340401D03*
%TO.P,U5,22,SDI/SD1*%
%TO.N,unconnected-(U5-SDI{slash}SD1-Pad22)*%
X199925000Y-100340401D03*
%TO.P,U5,21,SDO/SD0*%
%TO.N,unconnected-(U5-SDO{slash}SD0-Pad21)*%
X198655000Y-100340401D03*
%TO.P,U5,20,SCK/CLK*%
%TO.N,unconnected-(U5-SCK{slash}CLK-Pad20)*%
X197385000Y-100340401D03*
%TO.P,U5,19,SCS/CMD*%
%TO.N,unconnected-(U5-SCS{slash}CMD-Pad19)*%
X196115000Y-100340401D03*
%TO.P,U5,18,SWP/SD3*%
%TO.N,unconnected-(U5-SWP{slash}SD3-Pad18)*%
X194845000Y-100340401D03*
%TO.P,U5,17,SHD/SD2*%
%TO.N,unconnected-(U5-SHD{slash}SD2-Pad17)*%
X193575000Y-100340401D03*
%TO.P,U5,16,IO13*%
%TO.N,unconnected-(U5-IO13-Pad16)*%
X192305000Y-100340401D03*
%TO.P,U5,15,GND*%
%TO.N,GND*%
X191035000Y-100340401D03*
D34*
%TO.P,U5,14,IO12*%
%TO.N,unconnected-(U5-IO12-Pad14)*%
X187995000Y-99090401D03*
%TO.P,U5,13,IO14*%
%TO.N,unconnected-(U5-IO14-Pad13)*%
X187995000Y-97820401D03*
%TO.P,U5,12,IO27*%
%TO.N,/SD_CTRL*%
X187995000Y-96550401D03*
%TO.P,U5,11,IO26*%
%TO.N,unconnected-(U5-IO26-Pad11)*%
X187995000Y-95280401D03*
%TO.P,U5,10,IO25*%
%TO.N,/PWM_CTRL*%
X187995000Y-94010401D03*
%TO.P,U5,9,IO33*%
%TO.N,unconnected-(U5-IO33-Pad9)*%
X187995000Y-92740401D03*
%TO.P,U5,8,IO32*%
%TO.N,unconnected-(U5-IO32-Pad8)*%
X187995000Y-91470401D03*
%TO.P,U5,7,IO35*%
%TO.N,/ADC_IOUT*%
X187995000Y-90200401D03*
%TO.P,U5,6,IO34*%
%TO.N,/ADC_VOUT*%
X187995000Y-88930401D03*
%TO.P,U5,5,SENSOR_VN*%
%TO.N,unconnected-(U5-SENSOR_VN-Pad5)*%
X187995000Y-87660401D03*
%TO.P,U5,4,SENSOR_VP*%
%TO.N,unconnected-(U5-SENSOR_VP-Pad4)*%
X187995000Y-86390401D03*
%TO.P,U5,3,EN*%
%TO.N,/EN*%
X187995000Y-85120401D03*
%TO.P,U5,2,VDD*%
%TO.N,+3.3V*%
X187995000Y-83850401D03*
%TO.P,U5,1,GND*%
%TO.N,GND*%
X187995000Y-82580401D03*
%TD*%
D14*
%TO.P,R20,1*%
%TO.N,Net-(U3-LO)*%
X126365000Y-99972500D03*
%TO.P,R20,2*%
%TO.N,/GATE_LO*%
X126365000Y-98147500D03*
%TD*%
D36*
%TO.P,L2,1,1*%
%TO.N,Net-(U1-SW)*%
X191235000Y-121415401D03*
%TO.P,L2,2,2*%
%TO.N,Net-(D5-A)*%
X194035000Y-121415401D03*
%TD*%
D37*
%TO.P,R18,1*%
%TO.N,Data+*%
X177395000Y-111765401D03*
%TO.P,R18,2*%
%TO.N,Net-(U6-UD+)*%
X177395000Y-110745401D03*
%TD*%
D16*
%TO.P,C14,1*%
%TO.N,+3.3V*%
X167870000Y-105300401D03*
%TO.P,C14,2*%
%TO.N,GND*%
X167870000Y-107200401D03*
%TD*%
D22*
%TO.P,R11,1*%
%TO.N,Net-(U1-FB)*%
X191722500Y-125225401D03*
%TO.P,R11,2*%
%TO.N,Net-(D5-A)*%
X193547500Y-125225401D03*
%TD*%
D38*
%TO.P,U2,1,A1*%
%TO.N,GND*%
X169255000Y-78235401D03*
%TO.P,U2,2,A0*%
X169255000Y-76965401D03*
%TO.P,U2,3,SDA*%
%TO.N,/SDA*%
X169255000Y-75695401D03*
%TO.P,U2,4,SCL*%
%TO.N,/SCL*%
X169255000Y-74425401D03*
%TO.P,U2,5,VS*%
%TO.N,+3.3V*%
X164305000Y-74425401D03*
%TO.P,U2,6,GND*%
%TO.N,GND*%
X164305000Y-75695401D03*
%TO.P,U2,7,IN-*%
%TO.N,/VIN*%
X164305000Y-76965401D03*
%TO.P,U2,8,IN+*%
%TO.N,Net-(D2-K)*%
X164305000Y-78235401D03*
%TD*%
D39*
%TO.P,D3,1,K*%
%TO.N,Net-(D3-K)*%
X115570000Y-97790000D03*
D40*
%TO.P,D3,2,A*%
%TO.N,/VOUT*%
X115570000Y-107950000D03*
%TD*%
D19*
%TO.P,TP9,1,1*%
%TO.N,Net-(U3-LO)*%
X128270000Y-101600000D03*
%TD*%
D14*
%TO.P,R16,1*%
%TO.N,/DTR*%
X176760000Y-100747901D03*
%TO.P,R16,2*%
%TO.N,Net-(Q2-B)*%
X176760000Y-98922901D03*
%TD*%
D19*
%TO.P,TP2,1,1*%
%TO.N,/SW*%
X121920000Y-86360000D03*
%TD*%
D41*
%TO.P,C4,1*%
%TO.N,/VIN*%
X106275000Y-89202724D03*
D42*
%TO.P,C4,2*%
%TO.N,GND*%
X106275000Y-94202724D03*
%TD*%
D20*
%TO.P,R2,1*%
%TO.N,+3.3V*%
X202160000Y-102677901D03*
%TO.P,R2,2*%
%TO.N,/EN*%
X202160000Y-104502901D03*
%TD*%
D43*
%TO.P,Q3,1,E*%
%TO.N,/EN*%
X174535000Y-98897901D03*
%TO.P,Q3,2,B*%
%TO.N,Net-(Q3-B)*%
X172635000Y-98897901D03*
%TO.P,Q3,3,C*%
%TO.N,/DTR*%
X173585000Y-100772901D03*
%TD*%
D24*
%TO.P,U3,1,VCC*%
%TO.N,/VOUT*%
X120650000Y-104075000D03*
%TO.P,U3,2,IN*%
%TO.N,Net-(U3-IN)*%
X121920000Y-104075000D03*
%TO.P,U3,3,~{SD}*%
%TO.N,Net-(U3-~{SD})*%
X123190000Y-104075000D03*
%TO.P,U3,4,COM*%
%TO.N,GND*%
X124460000Y-104075000D03*
%TO.P,U3,5,LO*%
%TO.N,Net-(U3-LO)*%
X124460000Y-99125000D03*
%TO.P,U3,6,VS*%
%TO.N,/SW*%
X123190000Y-99125000D03*
%TO.P,U3,7,HO*%
%TO.N,Net-(U3-HO)*%
X121920000Y-99125000D03*
%TO.P,U3,8,VB*%
%TO.N,Net-(D3-K)*%
X120650000Y-99125000D03*
%TD*%
D44*
%TO.P,J3,1,Pin_1*%
%TO.N,/VBAT_RAW*%
X104867500Y-115960401D03*
D45*
%TO.P,J3,2,Pin_2*%
%TO.N,GND*%
X104867500Y-121040401D03*
%TD*%
D16*
%TO.P,C13,1*%
%TO.N,Net-(D1-A)*%
X194540000Y-114115401D03*
%TO.P,C13,2*%
%TO.N,GND*%
X194540000Y-116015401D03*
%TD*%
D14*
%TO.P,R4,1*%
%TO.N,/ADC_VOUT*%
X179300000Y-91212901D03*
%TO.P,R4,2*%
%TO.N,GND*%
X179300000Y-89387901D03*
%TD*%
D46*
%TO.P,C11,1*%
%TO.N,+3.3V*%
X185650000Y-84580401D03*
%TO.P,C11,2*%
%TO.N,GND*%
X185650000Y-82680401D03*
%TD*%
D47*
%TO.P,J5,1,Pin_1*%
%TO.N,Net-(D1-K)*%
X202790000Y-115065401D03*
D48*
%TO.P,J5,2,Pin_2*%
%TO.N,+3.3V*%
X205330000Y-115065401D03*
%TD*%
D49*
%TO.P,R13,1*%
%TO.N,/VOUT*%
X150497500Y-115065401D03*
%TO.P,R13,2*%
%TO.N,Net-(D7-K)*%
X145872500Y-115065401D03*
%TD*%
D22*
%TO.P,R24,1*%
%TO.N,Net-(U3-IN)*%
X126722500Y-106045000D03*
%TO.P,R24,2*%
%TO.N,/PWM_CTRL*%
X128547500Y-106045000D03*
%TD*%
D12*
%TO.P,R12,1*%
%TO.N,Net-(D5-A)*%
X203072500Y-121415401D03*
%TO.P,R12,2*%
%TO.N,Net-(D4-A)*%
X201247500Y-121415401D03*
%TD*%
D50*
%TO.P,IRFZ44N1,1,G*%
%TO.N,/GATE_HI*%
X116435000Y-92520401D03*
D51*
%TO.P,IRFZ44N1,2,D*%
%TO.N,/VIN*%
X118975000Y-92520401D03*
%TO.P,IRFZ44N1,3,S*%
%TO.N,/SW*%
X121515000Y-92520401D03*
%TD*%
D19*
%TO.P,TP10,1,1*%
%TO.N,+5V*%
X183110000Y-116335401D03*
%TD*%
D22*
%TO.P,R3,1*%
%TO.N,/VBAT_RAW*%
X114887500Y-111890401D03*
%TO.P,R3,2*%
%TO.N,/ADC_VOUT*%
X116712500Y-111890401D03*
%TD*%
D46*
%TO.P,C21,1*%
%TO.N,/VOUT*%
X146050000Y-87945000D03*
%TO.P,C21,2*%
%TO.N,GND*%
X146050000Y-86045000D03*
%TD*%
D22*
%TO.P,R8,1*%
%TO.N,+3.3V*%
X165867500Y-72520401D03*
%TO.P,R8,2*%
%TO.N,/SCL*%
X167692500Y-72520401D03*
%TD*%
D52*
%TO.P,SW2,1,1*%
%TO.N,/IO0*%
X205970000Y-106335401D03*
%TO.P,SW2,2,2*%
%TO.N,GND*%
X205970000Y-109735401D03*
%TD*%
D46*
%TO.P,C10,1*%
%TO.N,+3.3V*%
X182475000Y-84580401D03*
%TO.P,C10,2*%
%TO.N,GND*%
X182475000Y-82680401D03*
%TD*%
D21*
%TO.P,C3,1*%
%TO.N,/VOUT*%
X184065000Y-124590401D03*
%TO.P,C3,2*%
%TO.N,GND*%
X185965000Y-124590401D03*
%TD*%
D53*
%TO.P,C2,1*%
%TO.N,/VOUT*%
X148127323Y-92710000D03*
D42*
%TO.P,C2,2*%
%TO.N,GND*%
X153127323Y-92710000D03*
%TD*%
D52*
%TO.P,SW1,1,1*%
%TO.N,GND*%
X202160000Y-109735401D03*
%TO.P,SW1,2,2*%
%TO.N,/EN*%
X202160000Y-106335401D03*
%TD*%
D54*
%TO.P,D2,1,K*%
%TO.N,Net-(D2-K)*%
X156620000Y-76965401D03*
D55*
%TO.P,D2,2,A*%
%TO.N,Net-(D2-A)*%
X141380000Y-76965401D03*
%TD*%
D44*
%TO.P,J1,1,Pin_1*%
%TO.N,/VIN_RAW*%
X104832500Y-73150401D03*
D45*
%TO.P,J1,2,Pin_2*%
%TO.N,GND*%
X104832500Y-78230401D03*
%TD*%
D56*
%TO.P,C23,1*%
%TO.N,+3.3V*%
X146687500Y-121415401D03*
%TO.P,C23,2*%
%TO.N,GND*%
X148412500Y-121415401D03*
%TD*%
D21*
%TO.P,C19,1*%
%TO.N,/VIN*%
X115485000Y-87760401D03*
%TO.P,C19,2*%
%TO.N,GND*%
X117385000Y-87760401D03*
%TD*%
D16*
%TO.P,C22,1*%
%TO.N,/VOUT*%
X146050000Y-97475000D03*
%TO.P,C22,2*%
%TO.N,GND*%
X146050000Y-99375000D03*
%TD*%
D57*
%TO.P,U9,1*%
%TO.N,Net-(R25-Pad1)*%
X149322500Y-119825401D03*
%TO.P,U9,2,GND*%
%TO.N,GND*%
X149322500Y-118875401D03*
%TO.P,U9,3,+*%
%TO.N,/VOUT*%
X149322500Y-117925401D03*
%TO.P,U9,4,-*%
%TO.N,Net-(D7-K)*%
X147047500Y-117925401D03*
%TO.P,U9,5,V+*%
%TO.N,+3.3V*%
X147047500Y-119825401D03*
%TD*%
D12*
%TO.P,R9,1*%
%TO.N,/PWM_CTRL*%
X185292500Y-96015401D03*
%TO.P,R9,2*%
%TO.N,GND*%
X183467500Y-96015401D03*
%TD*%
D19*
%TO.P,TP1,1,1*%
%TO.N,GND*%
X99925000Y-97285401D03*
%TD*%
D11*
%TO.P,C12,1*%
%TO.N,+5V*%
X166915000Y-117605401D03*
%TO.P,C12,2*%
%TO.N,GND*%
X165015000Y-117605401D03*
%TD*%
D46*
%TO.P,C17,1*%
%TO.N,+5V*%
X188190000Y-116015401D03*
%TO.P,C17,2*%
%TO.N,GND*%
X188190000Y-114115401D03*
%TD*%
D58*
%TO.P,IRFZ44N2,1,G*%
%TO.N,/GATE_LO*%
X126050000Y-89535000D03*
D59*
%TO.P,IRFZ44N2,2,D*%
%TO.N,/SW*%
X126050000Y-92075000D03*
%TO.P,IRFZ44N2,3,S*%
%TO.N,GND*%
X126050000Y-94615000D03*
%TD*%
D19*
%TO.P,TP11,1,1*%
%TO.N,/PWM_CTRL*%
X181840000Y-99825401D03*
%TD*%
D16*
%TO.P,C20,1*%
%TO.N,/VIN*%
X112625000Y-90620401D03*
%TO.P,C20,2*%
%TO.N,GND*%
X112625000Y-92520401D03*
%TD*%
D21*
%TO.P,C9,1*%
%TO.N,/VOUT*%
X121605000Y-106680000D03*
%TO.P,C9,2*%
%TO.N,GND*%
X123505000Y-106680000D03*
%TD*%
D60*
%TO.P,R19,1*%
%TO.N,Net-(U6-UD-)*%
X176125000Y-110745401D03*
%TO.P,R19,2*%
%TO.N,Data-*%
X176125000Y-111765401D03*
%TD*%
D61*
%TO.P,D7,1,K*%
%TO.N,Net-(D7-K)*%
X141415000Y-115180401D03*
%TO.P,D7,2,A*%
%TO.N,GND*%
X141415000Y-121830401D03*
%TD*%
D19*
%TO.P,TP5,1,1*%
%TO.N,/VIN*%
X101830000Y-82680401D03*
%TD*%
%TO.P,TP7,1,1*%
%TO.N,Net-(D1-K)*%
X205970000Y-123955401D03*
%TD*%
D12*
%TO.P,R22,1*%
%TO.N,Net-(U6-TXD)*%
X170687500Y-111330401D03*
%TO.P,R22,2*%
%TO.N,/ESP_RX*%
X168862500Y-111330401D03*
%TD*%
D47*
%TO.P,J2,1,Pin_1*%
%TO.N,GND*%
X157710000Y-125225401D03*
D48*
%TO.P,J2,2,Pin_2*%
%TO.N,/ESP_RX*%
X157710000Y-122685401D03*
%TO.P,J2,3,Pin_3*%
%TO.N,/ESP_TX*%
X157710000Y-120145401D03*
%TO.P,J2,4,Pin_4*%
%TO.N,+3.3V*%
X157710000Y-117605401D03*
%TD*%
D62*
%TO.P,D6,1,K*%
%TO.N,/VOUT*%
X122810000Y-109220000D03*
%TO.P,D6,2,A*%
%TO.N,GND*%
X126110000Y-109220000D03*
%TD*%
D14*
%TO.P,R15,1*%
%TO.N,Net-(J4-CC2)*%
X176760000Y-119227901D03*
%TO.P,R15,2*%
%TO.N,GND*%
X176760000Y-117402901D03*
%TD*%
D63*
%TO.P,J4,A1,GND*%
%TO.N,GND*%
X166525000Y-119910401D03*
%TO.P,J4,A4,VBUS*%
%TO.N,+5V*%
X167325000Y-119910401D03*
D64*
%TO.P,J4,A5,CC1*%
%TO.N,Net-(J4-CC1)*%
X168525000Y-119910401D03*
%TO.P,J4,A6,D+*%
%TO.N,Data+*%
X169525000Y-119910401D03*
%TO.P,J4,A7,D-*%
%TO.N,Data-*%
X170025000Y-119910401D03*
%TO.P,J4,A8,SBU1*%
%TO.N,unconnected-(J4-SBU1-PadA8)*%
X171025000Y-119910401D03*
D63*
%TO.P,J4,A9,VBUS*%
%TO.N,+5V*%
X172225000Y-119910401D03*
%TO.P,J4,A12,GND*%
%TO.N,GND*%
X173025000Y-119910401D03*
%TO.P,J4,B1,GND*%
X173025000Y-119910401D03*
%TO.P,J4,B4,VBUS*%
%TO.N,+5V*%
X172225000Y-119910401D03*
D64*
%TO.P,J4,B5,CC2*%
%TO.N,Net-(J4-CC2)*%
X171525000Y-119910401D03*
%TO.P,J4,B6,D+*%
%TO.N,Data+*%
X170525000Y-119910401D03*
%TO.P,J4,B7,D-*%
%TO.N,Data-*%
X169025000Y-119910401D03*
%TO.P,J4,B8,SBU2*%
%TO.N,unconnected-(J4-SBU2-PadB8)*%
X168025000Y-119910401D03*
D63*
%TO.P,J4,B9,VBUS*%
%TO.N,+5V*%
X167325000Y-119910401D03*
%TO.P,J4,B12,GND*%
%TO.N,GND*%
X166525000Y-119910401D03*
D65*
%TO.P,J4,S1,SHIELD*%
X165455000Y-120825401D03*
D66*
X165455000Y-125005401D03*
D65*
X174095000Y-120825401D03*
D66*
X174095000Y-125005401D03*
%TD*%
D16*
%TO.P,C15,1*%
%TO.N,/EN*%
X185650000Y-86130401D03*
%TO.P,C15,2*%
%TO.N,GND*%
X185650000Y-88030401D03*
%TD*%
D67*
%TO.N,GND*%
X182144800Y-92459401D03*
X156819600Y-90935401D03*
X188444000Y-112373001D03*
X178285254Y-118264547D03*
X125459000Y-104164648D03*
X207149600Y-84280601D03*
X132334000Y-100482400D03*
X179830800Y-87966201D03*
X171375200Y-116030601D03*
X180570000Y-83874404D03*
X106148000Y-82147001D03*
X154865200Y-126139801D03*
X187936000Y-102365401D03*
X124917200Y-106695200D03*
X183216253Y-88755654D03*
X127406400Y-109235200D03*
X177014000Y-123701401D03*
X203836400Y-126901801D03*
X171324400Y-114811401D03*
X118644800Y-86566601D03*
X164517200Y-114925401D03*
X200940800Y-123345801D03*
X169648000Y-79911801D03*
X113260000Y-94999401D03*
X148132800Y-86058601D03*
X150039200Y-121263001D03*
X143967200Y-100181001D03*
X110720000Y-95456601D03*
X163145600Y-123955401D03*
X141403200Y-123447401D03*
X165888800Y-108258201D03*
X106249600Y-125123801D03*
X167971600Y-109172601D03*
X199772400Y-111001401D03*
X138202800Y-78743401D03*
X195454400Y-123599801D03*
X189663200Y-123650601D03*
X184126000Y-88547801D03*
X182195600Y-95304201D03*
X196318000Y-117453001D03*
X163755200Y-115929001D03*
X203938000Y-111052201D03*
%TO.N,/VOUT*%
X154178000Y-106680000D03*
X182043200Y-123955401D03*
D68*
%TO.N,/ADC_VOUT*%
X175794800Y-90427401D03*
X160300800Y-100536601D03*
X157051000Y-103786401D03*
X118200000Y-112014000D03*
%TO.N,+3.3V*%
X198858000Y-103940201D03*
X164314000Y-71834601D03*
X164212400Y-103991001D03*
X167616000Y-104143401D03*
X180722400Y-85499801D03*
X164263200Y-70259801D03*
X206782800Y-112576201D03*
X163755200Y-72901401D03*
X157405200Y-114760601D03*
X204192000Y-102162201D03*
X154942000Y-114277401D03*
%TO.N,+5V*%
X167870000Y-114709801D03*
X186361200Y-116741801D03*
%TO.N,/EN*%
X175845600Y-95101001D03*
X183364000Y-87582601D03*
%TO.N,/ESP_RX*%
X169749600Y-113135001D03*
X203938000Y-88205401D03*
%TO.N,Net-(Q2-B)*%
X171375200Y-98453801D03*
X176252000Y-97539401D03*
%TO.N,/IO0*%
X170788074Y-97910401D03*
X201455000Y-96834401D03*
%TO.N,/SDA*%
X201144000Y-88649401D03*
X177670000Y-86363401D03*
%TO.N,/SCL*%
X177776000Y-82299401D03*
X202871200Y-84585401D03*
%TO.N,/PWM_CTRL*%
X185142000Y-99505401D03*
X131206200Y-106045000D03*
%TO.N,/SD_CTRL*%
X131267200Y-104206000D03*
X184430800Y-102060601D03*
%TO.N,/GATE_LO*%
X127762000Y-97790000D03*
%TO.N,/ESP_TX*%
X172394269Y-107188332D03*
X203176000Y-86905401D03*
%TD*%
D69*
%TO.N,Net-(D3-K)*%
X120650000Y-99125000D02*
X120650000Y-97803486D01*
X120650000Y-97434599D02*
X120650000Y-97803486D01*
X119440514Y-96594000D02*
X116766000Y-96594000D01*
X121375000Y-96709599D02*
X120650000Y-97434599D01*
X120650000Y-97803486D02*
X119440514Y-96594000D01*
X116766000Y-96594000D02*
X115570000Y-97790000D01*
D70*
%TO.N,/SW*%
X123275000Y-96351000D02*
X121515000Y-94591000D01*
D71*
X130810000Y-92085000D02*
X130800000Y-92075000D01*
X130800000Y-92075000D02*
X133580000Y-92075000D01*
D70*
X123275000Y-96709599D02*
X123275000Y-96351000D01*
D71*
X126050000Y-92075000D02*
X123500000Y-92075000D01*
D72*
X123190000Y-99125000D02*
X123190000Y-96794599D01*
D70*
X121515000Y-94591000D02*
X121515000Y-92520401D01*
D72*
X123190000Y-96794599D02*
X123275000Y-96709599D01*
D71*
X123500000Y-87940000D02*
X123500000Y-92075000D01*
X126050000Y-92075000D02*
X130800000Y-92075000D01*
X121920000Y-86360000D02*
X123500000Y-87940000D01*
X123500000Y-92075000D02*
X121960401Y-92075000D01*
X121960401Y-92075000D02*
X121515000Y-92520401D01*
X130810000Y-93702500D02*
X130810000Y-92085000D01*
%TO.N,GND*%
X174095000Y-125005401D02*
X174095000Y-120825401D01*
D70*
X165367200Y-115775401D02*
X164517200Y-114925401D01*
X187936000Y-102365401D02*
X189968000Y-100333401D01*
X165015000Y-117188801D02*
X163755200Y-115929001D01*
D71*
X146050000Y-99375000D02*
X144773201Y-99375000D01*
X165455000Y-125005401D02*
X164195600Y-125005401D01*
D69*
X148412500Y-120753901D02*
X148412500Y-121415401D01*
D72*
X182525800Y-92840401D02*
X182144800Y-92459401D01*
D70*
X165015000Y-117605401D02*
X165015000Y-117188801D01*
D71*
X130085000Y-99375000D02*
X129063000Y-98353000D01*
D72*
X202160000Y-109735401D02*
X201038400Y-109735401D01*
D71*
X155779600Y-125225401D02*
X154865200Y-126139801D01*
D72*
X205495000Y-82580401D02*
X206662913Y-82580401D01*
X189140000Y-115065401D02*
X190227500Y-115065401D01*
D71*
X177423608Y-117402901D02*
X178285254Y-118264547D01*
D69*
X149322500Y-118875401D02*
X148861966Y-118875401D01*
D71*
X129063000Y-97059000D02*
X126619000Y-94615000D01*
D70*
X164305000Y-75695401D02*
X167001636Y-75695401D01*
D72*
X198990000Y-122365401D02*
X199782500Y-122365401D01*
X196065000Y-90682901D02*
X196065000Y-89920401D01*
D71*
X177014000Y-123921801D02*
X175930400Y-125005401D01*
D72*
X194880400Y-116015401D02*
X196318000Y-117453001D01*
D71*
X104867500Y-123741701D02*
X106249600Y-125123801D01*
D72*
X179300000Y-88497001D02*
X179300000Y-89387901D01*
X183467500Y-96015401D02*
X182906800Y-96015401D01*
D71*
X131226600Y-99375000D02*
X132334000Y-100482400D01*
D70*
X189968000Y-100333401D02*
X189975000Y-100340401D01*
D72*
X197590000Y-88395401D02*
X196827500Y-88395401D01*
D71*
X138205000Y-78741201D02*
X138202800Y-78743401D01*
D72*
X194540000Y-89157901D02*
X194540000Y-88395401D01*
D71*
X129063000Y-98353000D02*
X129063000Y-97059000D01*
D70*
X168271636Y-76965401D02*
X169255000Y-76965401D01*
D71*
X165455000Y-125005401D02*
X174095000Y-125005401D01*
X123505000Y-106680000D02*
X124902000Y-106680000D01*
D69*
X148086000Y-120427401D02*
X148412500Y-120753901D01*
D72*
X167870000Y-107200401D02*
X166946600Y-107200401D01*
D70*
X169255000Y-78235401D02*
X169255000Y-79518801D01*
D72*
X196065000Y-91445401D02*
X196827500Y-91445401D01*
X185650000Y-88030401D02*
X184643400Y-88030401D01*
D71*
X127391200Y-109220000D02*
X127406400Y-109235200D01*
D72*
X206662913Y-82580401D02*
X207149600Y-83067088D01*
X194540000Y-89920401D02*
X195302500Y-89920401D01*
D70*
X125369352Y-104075000D02*
X125459000Y-104164648D01*
D73*
X171755000Y-116410401D02*
X171375200Y-116030601D01*
D71*
X104832500Y-78230401D02*
X104832500Y-80831501D01*
X117385000Y-87760401D02*
X117451000Y-87760401D01*
D72*
X185965000Y-124590401D02*
X185965000Y-122552901D01*
X187912500Y-125225401D02*
X187912500Y-124486901D01*
X180570000Y-83315401D02*
X181205000Y-82680401D01*
X183517500Y-92840401D02*
X182525800Y-92840401D01*
D71*
X103007677Y-94202724D02*
X99925000Y-97285401D01*
D72*
X194540000Y-90682901D02*
X194540000Y-91445401D01*
X196445000Y-122609201D02*
X195454400Y-123599801D01*
X196445000Y-122365401D02*
X196445000Y-122609201D01*
D73*
X172565000Y-116410401D02*
X171755000Y-116410401D01*
D72*
X169775000Y-108725401D02*
X168418800Y-108725401D01*
X207149600Y-83067088D02*
X207149600Y-84280601D01*
X187895000Y-82680401D02*
X187995000Y-82580401D01*
X180570000Y-83874404D02*
X180570000Y-83315401D01*
D71*
X112625000Y-92520401D02*
X112625000Y-94364401D01*
D72*
X166370000Y-119910401D02*
X165455000Y-120825401D01*
D70*
X165900000Y-115775401D02*
X165367200Y-115775401D01*
D72*
X188748800Y-123650601D02*
X189663200Y-123650601D01*
X197590000Y-88395401D02*
X197590000Y-86107401D01*
D71*
X138205000Y-76645401D02*
X138205000Y-78741201D01*
X157710000Y-125225401D02*
X155779600Y-125225401D01*
X176760000Y-117402901D02*
X177423608Y-117402901D01*
X177014000Y-123701401D02*
X177014000Y-123921801D01*
D72*
X194540000Y-91445401D02*
X195302500Y-91445401D01*
D73*
X173335000Y-116410401D02*
X172565000Y-116410401D01*
D71*
X144773201Y-99375000D02*
X143967200Y-100181001D01*
X141415000Y-123435601D02*
X141403200Y-123447401D01*
D70*
X124460000Y-104075000D02*
X125369352Y-104075000D01*
D71*
X106275000Y-94202724D02*
X103007677Y-94202724D01*
D72*
X187912500Y-125225401D02*
X186600000Y-125225401D01*
D69*
X148412500Y-121415401D02*
X149886800Y-121415401D01*
D72*
X183430000Y-90300401D02*
X183430000Y-88969401D01*
X202795000Y-125860401D02*
X203836400Y-126901801D01*
X184643400Y-88030401D02*
X184126000Y-88547801D01*
X197590000Y-91445401D02*
X197590000Y-90682901D01*
D71*
X146050000Y-86045000D02*
X148119199Y-86045000D01*
X175930400Y-125005401D02*
X174095000Y-125005401D01*
D72*
X205254800Y-109735401D02*
X203938000Y-111052201D01*
X185650000Y-82680401D02*
X187895000Y-82680401D01*
X197590000Y-89920401D02*
X197590000Y-89157901D01*
X188190000Y-112627001D02*
X188444000Y-112373001D01*
X170360400Y-115775401D02*
X171324400Y-114811401D01*
D70*
X169255000Y-76965401D02*
X169255000Y-78235401D01*
D72*
X202795000Y-125377901D02*
X202795000Y-125860401D01*
D71*
X153127323Y-92710000D02*
X155045001Y-92710000D01*
D72*
X201038400Y-109735401D02*
X199772400Y-111001401D01*
X188444000Y-123955401D02*
X188748800Y-123650601D01*
D71*
X117451000Y-87760401D02*
X118644800Y-86566601D01*
D72*
X205970000Y-109735401D02*
X205254800Y-109735401D01*
D70*
X189975000Y-100340401D02*
X191035000Y-100340401D01*
D71*
X148119199Y-86045000D02*
X148132800Y-86058601D01*
D70*
X167001636Y-75695401D02*
X168271636Y-76965401D01*
D72*
X173180000Y-119910401D02*
X174095000Y-120825401D01*
D71*
X106275000Y-94202724D02*
X109466123Y-94202724D01*
X130810000Y-99375000D02*
X130085000Y-99375000D01*
D72*
X181205000Y-82680401D02*
X182475000Y-82680401D01*
D71*
X130810000Y-99375000D02*
X131226600Y-99375000D01*
D72*
X201117000Y-82580401D02*
X205495000Y-82580401D01*
X187912500Y-124486901D02*
X188444000Y-123955401D01*
D71*
X126110000Y-109220000D02*
X127391200Y-109220000D01*
X165455000Y-125005401D02*
X165455000Y-120825401D01*
D72*
X169775000Y-115775401D02*
X170360400Y-115775401D01*
D71*
X155045001Y-92710000D02*
X156819600Y-90935401D01*
D69*
X149886800Y-121415401D02*
X150039200Y-121263001D01*
D72*
X168418800Y-108725401D02*
X167971600Y-109172601D01*
D71*
X141415000Y-121830401D02*
X141415000Y-123435601D01*
D72*
X199782500Y-122365401D02*
X199960400Y-122365401D01*
X166525000Y-119910401D02*
X166370000Y-119910401D01*
D71*
X112625000Y-94364401D02*
X113260000Y-94999401D01*
X104867500Y-121040401D02*
X104867500Y-123741701D01*
X109466123Y-94202724D02*
X110720000Y-95456601D01*
X126619000Y-94615000D02*
X126050000Y-94615000D01*
D69*
X148086000Y-119651367D02*
X148086000Y-120427401D01*
D72*
X179830800Y-87966201D02*
X179300000Y-88497001D01*
X194540000Y-116015401D02*
X194880400Y-116015401D01*
X196065000Y-89920401D02*
X196827500Y-89920401D01*
X196065000Y-88395401D02*
X195302500Y-88395401D01*
X182906800Y-96015401D02*
X182195600Y-95304201D01*
D71*
X104832500Y-80831501D02*
X106148000Y-82147001D01*
D72*
X188190000Y-114115401D02*
X188190000Y-112627001D01*
X166946600Y-107200401D02*
X165888800Y-108258201D01*
X183430000Y-88969401D02*
X183216253Y-88755654D01*
D71*
X164195600Y-125005401D02*
X163145600Y-123955401D01*
D72*
X173025000Y-119910401D02*
X173180000Y-119910401D01*
X186600000Y-125225401D02*
X185965000Y-124590401D01*
X188190000Y-114115401D02*
X189140000Y-115065401D01*
X196065000Y-89920401D02*
X196065000Y-89157901D01*
X199960400Y-122365401D02*
X200940800Y-123345801D01*
D71*
X124902000Y-106680000D02*
X124917200Y-106695200D01*
D72*
X185650000Y-82680401D02*
X182475000Y-82680401D01*
D69*
X148861966Y-118875401D02*
X148086000Y-119651367D01*
D72*
X197590000Y-86107401D02*
X201117000Y-82580401D01*
D70*
X169255000Y-79518801D02*
X169648000Y-79911801D01*
D72*
X185965000Y-122552901D02*
X186152500Y-122365401D01*
D71*
%TO.N,/VOUT*%
X184065000Y-124590401D02*
X182678200Y-124590401D01*
X148127323Y-92710000D02*
X148127323Y-100629323D01*
X144145000Y-104775000D02*
X145923000Y-104775000D01*
D74*
X120650000Y-104075000D02*
X120650000Y-105725000D01*
X120650000Y-104075000D02*
X119445000Y-104075000D01*
D71*
X182678200Y-124590401D02*
X182043200Y-123955401D01*
D74*
X148127323Y-108158677D02*
X148127323Y-107995323D01*
D69*
X149328000Y-116234901D02*
X150497500Y-115065401D01*
D71*
X150497500Y-110365500D02*
X150497500Y-115065401D01*
X154178000Y-106680000D02*
X148127323Y-100629323D01*
D69*
X149322500Y-117925401D02*
X149322500Y-116340901D01*
D74*
X121605000Y-108015000D02*
X122810000Y-109220000D01*
D71*
X145923000Y-104775000D02*
X148127323Y-102570677D01*
D74*
X145034000Y-111252000D02*
X148127323Y-108158677D01*
X120650000Y-105725000D02*
X121605000Y-106680000D01*
D72*
X183877500Y-121415401D02*
X183877500Y-122365401D01*
X183877500Y-122365401D02*
X183877500Y-124402901D01*
D74*
X122810000Y-109220000D02*
X122810000Y-110430000D01*
X121605000Y-106680000D02*
X121605000Y-108015000D01*
X119445000Y-104075000D02*
X115570000Y-107950000D01*
D71*
X148127323Y-100629323D02*
X148127323Y-107995323D01*
D72*
X183877500Y-124402901D02*
X184065000Y-124590401D01*
D71*
X148127323Y-102570677D02*
X148127323Y-100629323D01*
X148127323Y-107995323D02*
X150497500Y-110365500D01*
D69*
X149322500Y-116340901D02*
X149328000Y-116335401D01*
X149328000Y-116335401D02*
X149328000Y-116234901D01*
D74*
X122810000Y-110430000D02*
X123632000Y-111252000D01*
X123632000Y-111252000D02*
X145034000Y-111252000D01*
D69*
%TO.N,/ADC_VOUT*%
X176580300Y-91212901D02*
X179300000Y-91212901D01*
X175794800Y-90427401D02*
X176580300Y-91212901D01*
X186700000Y-88930401D02*
X187995000Y-88930401D01*
X175847500Y-91212901D02*
X176580300Y-91212901D01*
X116836099Y-112014000D02*
X116712500Y-111890401D01*
X179488500Y-91401401D02*
X184229000Y-91401401D01*
X118200000Y-112014000D02*
X116836099Y-112014000D01*
X157051000Y-103786401D02*
X160300800Y-100536601D01*
X174855000Y-92205401D02*
X175847500Y-91212901D01*
X184229000Y-91401401D02*
X185330000Y-90300401D01*
X185330000Y-90300401D02*
X186700000Y-88930401D01*
X179300000Y-91212901D02*
X179488500Y-91401401D01*
%TO.N,Net-(D5-A)*%
X198990000Y-120465401D02*
X199489938Y-119965463D01*
X205715000Y-121415401D02*
X205970000Y-121160401D01*
X195495000Y-121415401D02*
X196445000Y-120465401D01*
X199489938Y-119965463D02*
X201622562Y-119965463D01*
X196445000Y-120465401D02*
X198990000Y-120465401D01*
X194035000Y-121415401D02*
X195495000Y-121415401D01*
X194035000Y-121415401D02*
X194035000Y-123698401D01*
X194035000Y-123698401D02*
X193547500Y-124185901D01*
X203072500Y-121415401D02*
X205715000Y-121415401D01*
X193547500Y-124185901D02*
X193547500Y-125225401D01*
X201622562Y-119965463D02*
X203072500Y-121415401D01*
%TO.N,Net-(U1-BST)*%
X186152500Y-120465401D02*
X188190000Y-120465401D01*
%TO.N,Net-(U1-SW)*%
X190285000Y-122365401D02*
X191235000Y-121415401D01*
X187240000Y-121415401D02*
X188190000Y-122365401D01*
X188190000Y-122365401D02*
X190285000Y-122365401D01*
X186152500Y-121415401D02*
X187240000Y-121415401D01*
D72*
%TO.N,+3.3V*%
X157710000Y-115065401D02*
X157405200Y-114760601D01*
X164305000Y-74425401D02*
X164305000Y-73451201D01*
X180722400Y-85499801D02*
X180722400Y-85066922D01*
X165867500Y-72520401D02*
X164999800Y-72520401D01*
D69*
X147047500Y-120393901D02*
X146687500Y-120753901D01*
D72*
X202205000Y-102722901D02*
X202160000Y-102677901D01*
X205716000Y-113033401D02*
X206173200Y-112576201D01*
X150344000Y-122939401D02*
X148211500Y-122939401D01*
X167616000Y-104143401D02*
X167984000Y-103775401D01*
X164618800Y-70615401D02*
X164263200Y-70259801D01*
X205970000Y-102722901D02*
X204752700Y-102722901D01*
X202160000Y-102677901D02*
X200120300Y-102677901D01*
X186380000Y-83850401D02*
X185650000Y-84580401D01*
X157710000Y-117605401D02*
X157710000Y-115065401D01*
X181208921Y-84580401D02*
X182475000Y-84580401D01*
X152884000Y-116335401D02*
X152884000Y-120399401D01*
X170946001Y-105921401D02*
X172188000Y-105921401D01*
D69*
X146687500Y-120753901D02*
X146687500Y-121415401D01*
D72*
X200120300Y-102677901D02*
X198858000Y-103940201D01*
X205330000Y-115065401D02*
X205330000Y-113419401D01*
X167984000Y-103775401D02*
X169775000Y-103775401D01*
X164305000Y-73451201D02*
X163755200Y-72901401D01*
X152884000Y-120399401D02*
X150344000Y-122939401D01*
X172188000Y-105921401D02*
X173585000Y-107318401D01*
X163919000Y-105300401D02*
X165521800Y-105300401D01*
X185650000Y-84580401D02*
X182475000Y-84580401D01*
X173585000Y-107318401D02*
X173585000Y-108725401D01*
X187995000Y-83850401D02*
X186380000Y-83850401D01*
X206173200Y-112576201D02*
X206782800Y-112576201D01*
D69*
X147047500Y-119825401D02*
X147047500Y-120393901D01*
D72*
X204752700Y-102722901D02*
X204192000Y-102162201D01*
X148211500Y-122939401D02*
X146687500Y-121415401D01*
X180722400Y-85066922D02*
X181208921Y-84580401D01*
X167870000Y-105300401D02*
X165521800Y-105300401D01*
X154942000Y-114277401D02*
X163919000Y-105300401D01*
X205330000Y-113419401D02*
X205716000Y-113033401D01*
X169775000Y-104750400D02*
X170946001Y-105921401D01*
X165867500Y-70615401D02*
X164618800Y-70615401D01*
X164999800Y-72520401D02*
X164314000Y-71834601D01*
X169775000Y-103775401D02*
X169775000Y-104750400D01*
X154942000Y-114277401D02*
X152884000Y-116335401D01*
X165521800Y-105300401D02*
X164212400Y-103991001D01*
%TO.N,+5V*%
X167300000Y-115279801D02*
X167870000Y-114709801D01*
X166915000Y-118428401D02*
X167325000Y-118838401D01*
X166915000Y-117605401D02*
X166915000Y-118428401D01*
X183110000Y-116335401D02*
X183872000Y-115573401D01*
X166915000Y-116782401D02*
X167300000Y-116397401D01*
D69*
X172225000Y-120616401D02*
X171479000Y-121362401D01*
D72*
X186138000Y-115573401D02*
X186833800Y-116269201D01*
X188190000Y-116015401D02*
X187087600Y-116015401D01*
X186833800Y-116269201D02*
X186361200Y-116741801D01*
X188190000Y-116015401D02*
X190227500Y-116015401D01*
X167325000Y-118838401D02*
X167325000Y-119910401D01*
X166915000Y-117605401D02*
X166915000Y-116782401D01*
X167300000Y-115775401D02*
X167300000Y-115279801D01*
X187087600Y-116015401D02*
X186833800Y-116269201D01*
D69*
X167954074Y-121362401D02*
X167325000Y-120733327D01*
D72*
X190985900Y-116015401D02*
X190227500Y-116015401D01*
X191459950Y-115541351D02*
X190985900Y-116015401D01*
X183872000Y-115573401D02*
X186138000Y-115573401D01*
X190889999Y-114115401D02*
X191459950Y-114685352D01*
D69*
X167325000Y-120733327D02*
X167325000Y-119910401D01*
D72*
X191459950Y-114685352D02*
X191459950Y-115541351D01*
D69*
X171479000Y-121362401D02*
X167954074Y-121362401D01*
D72*
X167300000Y-116397401D02*
X167300000Y-115775401D01*
X190227500Y-114115401D02*
X190889999Y-114115401D01*
D69*
X172225000Y-119910401D02*
X172225000Y-120616401D01*
%TO.N,Net-(D1-A)*%
X194728000Y-114115401D02*
X195678000Y-115065401D01*
X194540000Y-114115401D02*
X194728000Y-114115401D01*
X192502500Y-114115401D02*
X194540000Y-114115401D01*
X195678000Y-115065401D02*
X196950000Y-115065401D01*
%TO.N,/EN*%
X185048000Y-106335401D02*
X179808000Y-101095401D01*
X176385200Y-94561401D02*
X175845600Y-95101001D01*
X178354000Y-94561401D02*
X176385200Y-94561401D01*
X179808000Y-101095401D02*
X179808000Y-96015401D01*
X202160000Y-106335401D02*
X185048000Y-106335401D01*
X187995000Y-85120401D02*
X186660000Y-85120401D01*
X183364000Y-87582601D02*
X184816200Y-86130401D01*
X202160000Y-104502901D02*
X202160000Y-106335401D01*
X184816200Y-86130401D02*
X185650000Y-86130401D01*
X175845600Y-95101001D02*
X175845600Y-96421801D01*
X174535000Y-97732401D02*
X174535000Y-98897901D01*
X186660000Y-85120401D02*
X185650000Y-86130401D01*
X175845600Y-96421801D02*
X174535000Y-97732401D01*
X179808000Y-96015401D02*
X178354000Y-94561401D01*
D70*
%TO.N,Net-(C16-Pad1)*%
X130810000Y-95527500D02*
X130810000Y-97475000D01*
D69*
%TO.N,Net-(D2-K)*%
X164305000Y-78235401D02*
X162282000Y-78235401D01*
D71*
X158132500Y-74002901D02*
X161065000Y-74002901D01*
D69*
X161065000Y-77018401D02*
X161065000Y-74002901D01*
D71*
X156620000Y-75515401D02*
X158132500Y-74002901D01*
X156620000Y-76965401D02*
X156620000Y-75515401D01*
D69*
X162282000Y-78235401D02*
X161065000Y-77018401D01*
%TO.N,Net-(D4-A)*%
X201247500Y-121415401D02*
X201247500Y-122255401D01*
X201247500Y-122255401D02*
X202795000Y-123802901D01*
%TO.N,Net-(D1-K)*%
X199750000Y-115065401D02*
X202790000Y-115065401D01*
X207223600Y-122701801D02*
X207223600Y-118351001D01*
X206733000Y-117860401D02*
X205970000Y-117860401D01*
X205585000Y-117860401D02*
X205970000Y-117860401D01*
X205970000Y-123955401D02*
X207223600Y-122701801D01*
X207223600Y-118351001D02*
X206733000Y-117860401D01*
X202790000Y-115065401D02*
X205585000Y-117860401D01*
%TO.N,/ESP_RX*%
X169241600Y-113135001D02*
X168862500Y-112755901D01*
X155424000Y-115573401D02*
X159667000Y-111330401D01*
X168862500Y-112755901D02*
X168862500Y-111330401D01*
X204483000Y-87660401D02*
X205495000Y-87660401D01*
X159667000Y-111330401D02*
X168862500Y-111330401D01*
X157710000Y-122685401D02*
X155424000Y-120399401D01*
X155424000Y-120399401D02*
X155424000Y-115573401D01*
X203938000Y-88205401D02*
X204483000Y-87660401D01*
X169749600Y-113135001D02*
X169241600Y-113135001D01*
D73*
%TO.N,Data-*%
X171963660Y-116910401D02*
X170460160Y-118413901D01*
X174220000Y-116404935D02*
X173714534Y-116910401D01*
X169873000Y-120936401D02*
X170025000Y-120784401D01*
X173714534Y-116910401D02*
X173335000Y-116910401D01*
X169025000Y-120887401D02*
X169074000Y-120936401D01*
X169394000Y-118413901D02*
X169025000Y-118782901D01*
X169074000Y-120936401D02*
X169873000Y-120936401D01*
X174220000Y-114557401D02*
X174220000Y-116404935D01*
X176125000Y-111765401D02*
X176125000Y-112652401D01*
X170025000Y-120784401D02*
X170025000Y-119910401D01*
X169025000Y-119910401D02*
X169025000Y-120887401D01*
X172565000Y-116910401D02*
X173335000Y-116910401D01*
X170460160Y-118413901D02*
X169394000Y-118413901D01*
X169025000Y-118782901D02*
X169025000Y-119910401D01*
X176125000Y-112652401D02*
X174220000Y-114557401D01*
X172565000Y-116910401D02*
X171963660Y-116910401D01*
D69*
%TO.N,Net-(J4-CC2)*%
X174982000Y-118113401D02*
X172028454Y-118113401D01*
X176096500Y-119227901D02*
X174982000Y-118113401D01*
X172028454Y-118113401D02*
X171525000Y-118616855D01*
X176760000Y-119227901D02*
X176096500Y-119227901D01*
X171525000Y-118616855D02*
X171525000Y-119910401D01*
D73*
%TO.N,Data+*%
X170724500Y-118814901D02*
X172129000Y-117410401D01*
X169525000Y-119910401D02*
X169525000Y-118933401D01*
X172565000Y-117410401D02*
X173335000Y-117410401D01*
X173781634Y-117410401D02*
X174728000Y-116464035D01*
X169643500Y-118814901D02*
X170270000Y-118814901D01*
X174728000Y-116464035D02*
X174728000Y-114811401D01*
X177395000Y-112144401D02*
X177395000Y-111765401D01*
X173335000Y-117410401D02*
X173781634Y-117410401D01*
X170525000Y-119910401D02*
X170525000Y-119014401D01*
X172129000Y-117410401D02*
X172565000Y-117410401D01*
X174728000Y-114811401D02*
X177395000Y-112144401D01*
X169525000Y-118933401D02*
X169643500Y-118814901D01*
X170525000Y-119014401D02*
X170724500Y-118814901D01*
X170270000Y-118814901D02*
X170724500Y-118814901D01*
D69*
%TO.N,Net-(J4-CC1)*%
X168525000Y-118150401D02*
X169075000Y-117600401D01*
X168525000Y-119910401D02*
X168525000Y-118150401D01*
X169075000Y-117600401D02*
X169775000Y-117600401D01*
%TO.N,/RTS*%
X171076322Y-101836401D02*
X169888500Y-101836401D01*
X172315000Y-103775401D02*
X172315000Y-103075079D01*
X166600000Y-100747901D02*
X168800000Y-100747901D01*
X172315000Y-103075079D02*
X171076322Y-101836401D01*
X168800000Y-100747901D02*
X168825000Y-100772901D01*
X169888500Y-101836401D02*
X168825000Y-100772901D01*
%TO.N,Net-(Q2-B)*%
X170725000Y-100772901D02*
X170725000Y-99104001D01*
X170725000Y-99104001D02*
X171375200Y-98453801D01*
X176760000Y-98047401D02*
X176760000Y-98922901D01*
X176252000Y-97539401D02*
X176760000Y-98047401D01*
%TO.N,/IO0*%
X206835500Y-104547901D02*
X207223600Y-104159801D01*
X207223600Y-104159801D02*
X207223600Y-99555001D01*
X169800574Y-98897901D02*
X170788074Y-97910401D01*
X201455000Y-96834401D02*
X203711000Y-99090401D01*
X203711000Y-99090401D02*
X205495000Y-99090401D01*
X207223600Y-99555001D02*
X206759000Y-99090401D01*
X205970000Y-104547901D02*
X206835500Y-104547901D01*
X169775000Y-98897901D02*
X169800574Y-98897901D01*
X206759000Y-99090401D02*
X205495000Y-99090401D01*
X205970000Y-106335401D02*
X205970000Y-104547901D01*
%TO.N,/DTR*%
X173585000Y-100772901D02*
X173585000Y-103775401D01*
X173585000Y-100772901D02*
X176735000Y-100772901D01*
X176735000Y-100772901D02*
X176760000Y-100747901D01*
%TO.N,Net-(Q3-B)*%
X167362000Y-97285401D02*
X171934000Y-97285401D01*
X172635000Y-97986401D02*
X172635000Y-98897901D01*
X166600000Y-98922901D02*
X166600000Y-98047401D01*
X166600000Y-98047401D02*
X167362000Y-97285401D01*
X171934000Y-97285401D02*
X172635000Y-97986401D01*
D75*
%TO.N,/VIN*%
X161065000Y-79927901D02*
X157677500Y-83315401D01*
X108688000Y-83315401D02*
X106400500Y-85602901D01*
D69*
X165706000Y-78628145D02*
X165336744Y-78997401D01*
D75*
X106400500Y-85602901D02*
X106400500Y-89008224D01*
D71*
X101830000Y-82680401D02*
X103478000Y-82680401D01*
D69*
X161859500Y-79927901D02*
X161065000Y-79927901D01*
X165706000Y-77842657D02*
X165706000Y-78628145D01*
X165336744Y-78997401D02*
X162790000Y-78997401D01*
X164828744Y-76965401D02*
X165706000Y-77842657D01*
D75*
X157677500Y-83315401D02*
X108688000Y-83315401D01*
D71*
X103478000Y-82680401D02*
X106400500Y-85602901D01*
D69*
X164305000Y-76965401D02*
X164828744Y-76965401D01*
X162790000Y-78997401D02*
X161859500Y-79927901D01*
%TO.N,Net-(U3-HO)*%
X118745000Y-98872322D02*
X120298678Y-100426000D01*
X121920000Y-100099999D02*
X121920000Y-99125000D01*
X118745000Y-97432500D02*
X118745000Y-98872322D01*
X120298678Y-100426000D02*
X121593999Y-100426000D01*
X121593999Y-100426000D02*
X121920000Y-100099999D01*
%TO.N,/SDA*%
X168378000Y-75695401D02*
X169255000Y-75695401D01*
X170664000Y-82299401D02*
X170664000Y-76129402D01*
X177522000Y-86363401D02*
X176252000Y-85093401D01*
X166854000Y-71453901D02*
X166854000Y-74171401D01*
X166854000Y-74171401D02*
X168378000Y-75695401D01*
X167692500Y-70615401D02*
X166854000Y-71453901D01*
X170664000Y-76129402D02*
X170229999Y-75695401D01*
X176252000Y-85093401D02*
X173458000Y-85093401D01*
X201144000Y-88649401D02*
X201425000Y-88930401D01*
X173458000Y-85093401D02*
X170664000Y-82299401D01*
X170229999Y-75695401D02*
X169255000Y-75695401D01*
X177670000Y-86363401D02*
X177522000Y-86363401D01*
X201425000Y-88930401D02*
X205495000Y-88930401D01*
%TO.N,/SCL*%
X203406200Y-85120401D02*
X205495000Y-85120401D01*
X168759000Y-72520401D02*
X169255000Y-73016401D01*
X171426000Y-75621402D02*
X171426000Y-80775401D01*
X169255000Y-74425401D02*
X170229999Y-74425401D01*
X169255000Y-73016401D02*
X169255000Y-74425401D01*
X170229999Y-74425401D02*
X171426000Y-75621402D01*
X172950000Y-82299401D02*
X177776000Y-82299401D01*
X202871200Y-84585401D02*
X203406200Y-85120401D01*
X167692500Y-72520401D02*
X168759000Y-72520401D01*
X171426000Y-80775401D02*
X172950000Y-82299401D01*
%TO.N,/PWM_CTRL*%
X181840000Y-99825401D02*
X183110000Y-99825401D01*
X185877000Y-94010401D02*
X187995000Y-94010401D01*
X131206200Y-106045000D02*
X128547500Y-106045000D01*
X185292500Y-99354901D02*
X185292500Y-98605401D01*
X185292500Y-96015401D02*
X185292500Y-94594901D01*
X185142000Y-99505401D02*
X185292500Y-99354901D01*
X185292500Y-98605401D02*
X185292500Y-96015401D01*
X183110000Y-99825401D02*
X184330000Y-98605401D01*
X185292500Y-94594901D02*
X185877000Y-94010401D01*
X184330000Y-98605401D02*
X185292500Y-98605401D01*
%TO.N,Net-(U1-FB)*%
X188467500Y-126495401D02*
X189737500Y-125225401D01*
X182790000Y-120465401D02*
X180824000Y-122431401D01*
X180824000Y-124463401D02*
X182856000Y-126495401D01*
X182856000Y-126495401D02*
X188467500Y-126495401D01*
X191722500Y-125225401D02*
X189737500Y-125225401D01*
X180824000Y-122431401D02*
X180824000Y-124463401D01*
X183877500Y-120465401D02*
X182790000Y-120465401D01*
D73*
%TO.N,Net-(U6-UD+)*%
X174855000Y-108725401D02*
X174855000Y-107750402D01*
X176760000Y-110110401D02*
X177395000Y-110745401D01*
X176760000Y-107743433D02*
X176760000Y-110110401D01*
X176465968Y-107449401D02*
X176760000Y-107743433D01*
X175156001Y-107449401D02*
X176465968Y-107449401D01*
X174855000Y-107750402D02*
X175156001Y-107449401D01*
%TO.N,Net-(U6-UD-)*%
X176125000Y-110745401D02*
X176125000Y-108725401D01*
D69*
%TO.N,Net-(U3-LO)*%
X125307500Y-99972500D02*
X124460000Y-99125000D01*
X126642500Y-99972500D02*
X128270000Y-101600000D01*
X126365000Y-99972500D02*
X125307500Y-99972500D01*
X126365000Y-99972500D02*
X126642500Y-99972500D01*
%TO.N,/ADC_IOUT*%
X183972500Y-94110401D02*
X185242500Y-92840401D01*
X181482500Y-94110401D02*
X183972500Y-94110401D01*
X186995000Y-90200401D02*
X187995000Y-90200401D01*
X186156000Y-91926901D02*
X186156000Y-91039401D01*
X186156000Y-91039401D02*
X186995000Y-90200401D01*
X186156000Y-91926901D02*
X185242500Y-92840401D01*
%TO.N,/SD_CTRL*%
X185192800Y-102060601D02*
X184430800Y-102060601D01*
X186412000Y-100841401D02*
X185192800Y-102060601D01*
X131201200Y-104140000D02*
X128547500Y-104140000D01*
X186995000Y-96550401D02*
X187995000Y-96550401D01*
X186412000Y-100841401D02*
X186412000Y-97133401D01*
X186412000Y-97133401D02*
X186995000Y-96550401D01*
D71*
%TO.N,/VBAT_RAW*%
X104867500Y-115960401D02*
X110475000Y-115960401D01*
X110475000Y-115960401D02*
X113020000Y-118505401D01*
X114887500Y-116637901D02*
X113020000Y-118505401D01*
X114887500Y-111890401D02*
X114887500Y-116637901D01*
D75*
%TO.N,/VIN_RAW*%
X110260000Y-73150401D02*
X112805000Y-75695401D01*
X104832500Y-73150401D02*
X110260000Y-73150401D01*
D72*
%TO.N,/GATE_HI*%
X117678099Y-95607500D02*
X118745000Y-95607500D01*
X116435000Y-94364401D02*
X116435000Y-92520401D01*
X116435000Y-94364401D02*
X117678099Y-95607500D01*
%TO.N,/GATE_LO*%
X127762000Y-97790000D02*
X127404500Y-98147500D01*
X127404500Y-98147500D02*
X126365000Y-98147500D01*
D69*
%TO.N,/ESP_TX*%
X160250000Y-114557401D02*
X160250000Y-117605401D01*
X160758000Y-114049401D02*
X160250000Y-114557401D01*
X203691000Y-86390401D02*
X205495000Y-86390401D01*
X170410000Y-114049401D02*
X160758000Y-114049401D01*
X160250000Y-117605401D02*
X157710000Y-120145401D01*
X172315000Y-112144401D02*
X170410000Y-114049401D01*
X172315000Y-108725401D02*
X172315000Y-112144401D01*
X172315000Y-107267601D02*
X172394269Y-107188332D01*
X172315000Y-108725401D02*
X172315000Y-107267601D01*
X203176000Y-86905401D02*
X203691000Y-86390401D01*
%TO.N,Net-(U6-TXD)*%
X171045000Y-108725401D02*
X171045000Y-110112401D01*
X171045000Y-110112401D02*
X170687500Y-110469901D01*
X170687500Y-110469901D02*
X170687500Y-111330401D01*
%TO.N,Net-(U3-~{SD})*%
X123190000Y-105049999D02*
X123566001Y-105426000D01*
X123566001Y-105426000D02*
X125436500Y-105426000D01*
X125436500Y-105426000D02*
X126722500Y-104140000D01*
X123190000Y-104075000D02*
X123190000Y-105049999D01*
%TO.N,Net-(U3-IN)*%
X121920000Y-103692678D02*
X121920000Y-104075000D01*
X126840514Y-102724000D02*
X122888678Y-102724000D01*
X126722500Y-106045000D02*
X127561000Y-105206500D01*
X127561000Y-105206500D02*
X127561000Y-103444486D01*
X127561000Y-103444486D02*
X126840514Y-102724000D01*
X122888678Y-102724000D02*
X121920000Y-103692678D01*
D71*
%TO.N,Net-(D2-A)*%
X141380000Y-76965401D02*
X139160000Y-74745401D01*
X135305000Y-75695401D02*
X136255000Y-74745401D01*
X136255000Y-74745401D02*
X138205000Y-74745401D01*
X139160000Y-74745401D02*
X138205000Y-74745401D01*
%TO.N,Net-(D7-K)*%
X137021000Y-115180401D02*
X141415000Y-115180401D01*
X145757500Y-115180401D02*
X145872500Y-115065401D01*
D69*
X147047500Y-117102901D02*
X147047500Y-117925401D01*
D71*
X141415000Y-115180401D02*
X145757500Y-115180401D01*
X135520000Y-116681401D02*
X137021000Y-115180401D01*
D69*
X145872500Y-115065401D02*
X147042000Y-116234901D01*
D71*
X135520000Y-118505401D02*
X135520000Y-116681401D01*
D69*
X147042000Y-117097401D02*
X147047500Y-117102901D01*
X147042000Y-116234901D02*
X147042000Y-117097401D01*
%TO.N,Net-(R25-Pad1)*%
X153646000Y-109477401D02*
X153646000Y-114303401D01*
X169013000Y-94110401D02*
X153646000Y-109477401D01*
X153646000Y-114303401D02*
X151868000Y-116081401D01*
X150918000Y-119825401D02*
X149322500Y-119825401D01*
X179657500Y-94110401D02*
X169013000Y-94110401D01*
X151868000Y-118875401D02*
X150918000Y-119825401D01*
X151868000Y-116081401D02*
X151868000Y-118875401D01*
%TD*%
%TA.AperFunction,Conductor*%
%TO.N,/VIN*%
G36*
X116378039Y-86027486D02*
G01*
X116423794Y-86080290D01*
X116435000Y-86131801D01*
X116435000Y-87284149D01*
X116425561Y-87331602D01*
X116374870Y-87453980D01*
X116374868Y-87453988D01*
X116334500Y-87656931D01*
X116334500Y-87863870D01*
X116374868Y-88066813D01*
X116374870Y-88066821D01*
X116425561Y-88189198D01*
X116435000Y-88236651D01*
X116435000Y-88954201D01*
X119943200Y-88954201D01*
X120010239Y-88973886D01*
X120055994Y-89026690D01*
X120067200Y-89078201D01*
X120067200Y-93859401D01*
X120047515Y-93926440D01*
X119994711Y-93972195D01*
X119943200Y-93983401D01*
X117803600Y-93983401D01*
X117794914Y-93980850D01*
X117785953Y-93982139D01*
X117761912Y-93971160D01*
X117736561Y-93963716D01*
X117730633Y-93956875D01*
X117722397Y-93953114D01*
X117708107Y-93930879D01*
X117690806Y-93910912D01*
X117688518Y-93900397D01*
X117684623Y-93894336D01*
X117679600Y-93859401D01*
X117679600Y-93627118D01*
X117683951Y-93594560D01*
X117685084Y-93590394D01*
X117685083Y-93590394D01*
X117685085Y-93590392D01*
X117688000Y-93565266D01*
X117687999Y-91475537D01*
X117685085Y-91450410D01*
X117683948Y-91446229D01*
X117679600Y-91413681D01*
X117679600Y-90275001D01*
X114428400Y-90275001D01*
X114428400Y-91251901D01*
X114408715Y-91318940D01*
X114355911Y-91364695D01*
X114304400Y-91375901D01*
X101140032Y-91375901D01*
X101072993Y-91356216D01*
X101027238Y-91303412D01*
X101016038Y-91253074D01*
X100967585Y-86132974D01*
X100986634Y-86065752D01*
X101039002Y-86019499D01*
X101091579Y-86007801D01*
X116311000Y-86007801D01*
X116378039Y-86027486D01*
G37*
%TD.AperFunction*%
%TD*%
%TA.AperFunction,Conductor*%
%TO.N,/VOUT*%
G36*
X150436924Y-86979550D02*
G01*
X150483100Y-87031986D01*
X150494722Y-87084674D01*
X150469874Y-98300909D01*
X150450041Y-98367904D01*
X150397135Y-98413542D01*
X150345507Y-98424633D01*
X146895292Y-98414430D01*
X146828311Y-98394548D01*
X146822774Y-98390749D01*
X146705408Y-98305478D01*
X146705407Y-98305477D01*
X146705405Y-98305476D01*
X146650636Y-98277569D01*
X146530029Y-98216117D01*
X146342826Y-98155290D01*
X146148422Y-98124500D01*
X146148417Y-98124500D01*
X144674784Y-98124500D01*
X144674779Y-98124500D01*
X144480374Y-98155290D01*
X144293171Y-98216117D01*
X144117797Y-98305475D01*
X144012457Y-98382009D01*
X143946650Y-98405488D01*
X143939205Y-98405689D01*
X138553633Y-98389765D01*
X138486652Y-98369883D01*
X138441054Y-98316944D01*
X138430000Y-98265766D01*
X138430000Y-87283902D01*
X138449685Y-87216863D01*
X138502489Y-87171108D01*
X138551269Y-87159932D01*
X145212387Y-87013423D01*
X145279839Y-87031628D01*
X145287981Y-87037064D01*
X145394595Y-87114524D01*
X145421283Y-87128122D01*
X145569970Y-87203882D01*
X145569972Y-87203882D01*
X145569975Y-87203884D01*
X145670317Y-87236487D01*
X145757173Y-87264709D01*
X145951578Y-87295500D01*
X145951583Y-87295500D01*
X147938752Y-87295500D01*
X147958149Y-87297026D01*
X147969702Y-87298856D01*
X148034380Y-87309101D01*
X148034384Y-87309101D01*
X148231222Y-87309101D01*
X148425627Y-87278310D01*
X148467486Y-87264709D01*
X148612826Y-87217485D01*
X148788205Y-87128125D01*
X148947446Y-87012430D01*
X148952497Y-87007379D01*
X149013818Y-86973890D01*
X149039184Y-86971059D01*
X150369730Y-86960403D01*
X150436924Y-86979550D01*
G37*
%TD.AperFunction*%
%TD*%
M02*
