%TF.GenerationSoftware,KiCad,Pcbnew,9.0.5*%
%TF.CreationDate,2026-08-22T20:43:23+02:00*%
%TF.ProjectId,MPPT Controller,4d505054-2043-46f6-9e74-726f6c6c6572,rev?*%
%TF.SameCoordinates,Original*%
%TF.FileFunction,Legend,Top*%
%TF.FilePolarity,Positive*%
%FSLAX46Y46*%
G04 Gerber Fmt 4.6, Leading zero omitted, Abs format (unit mm)*
G04 Created by KiCad (PCBNEW 9.0.5) date 2026-08-22 20:43:23*
%MOMM*%
%LPD*%
G01*
G04 APERTURE LIST*
%ADD10C,0.100000*%
%ADD11C,0.200000*%
%ADD12C,0.150000*%
%ADD13C,0.120000*%
G04 APERTURE END LIST*
D10*
X98473884Y-80496867D02*
X99235789Y-80496867D01*
D11*
X98439673Y-113991667D02*
X99201578Y-113991667D01*
X98820625Y-114372620D02*
X98820625Y-113610715D01*
D10*
X98473884Y-123596867D02*
X99235789Y-123596867D01*
D11*
X98439673Y-70891667D02*
X99201578Y-70891667D01*
X98820625Y-71272620D02*
X98820625Y-70510715D01*
D12*
X123936666Y-124436410D02*
X123603333Y-124436410D01*
X123603333Y-124960220D02*
X123603333Y-123960220D01*
X123603333Y-123960220D02*
X124079523Y-123960220D01*
X124984285Y-124960220D02*
X124412857Y-124960220D01*
X124698571Y-124960220D02*
X124698571Y-123960220D01*
X124698571Y-123960220D02*
X124603333Y-124103077D01*
X124603333Y-124103077D02*
X124508095Y-124198315D01*
X124508095Y-124198315D02*
X124412857Y-124245934D01*
X181403333Y-90864981D02*
X181355714Y-90912601D01*
X181355714Y-90912601D02*
X181212857Y-90960220D01*
X181212857Y-90960220D02*
X181117619Y-90960220D01*
X181117619Y-90960220D02*
X180974762Y-90912601D01*
X180974762Y-90912601D02*
X180879524Y-90817362D01*
X180879524Y-90817362D02*
X180831905Y-90722124D01*
X180831905Y-90722124D02*
X180784286Y-90531648D01*
X180784286Y-90531648D02*
X180784286Y-90388791D01*
X180784286Y-90388791D02*
X180831905Y-90198315D01*
X180831905Y-90198315D02*
X180879524Y-90103077D01*
X180879524Y-90103077D02*
X180974762Y-90007839D01*
X180974762Y-90007839D02*
X181117619Y-89960220D01*
X181117619Y-89960220D02*
X181212857Y-89960220D01*
X181212857Y-89960220D02*
X181355714Y-90007839D01*
X181355714Y-90007839D02*
X181403333Y-90055458D01*
X182308095Y-89960220D02*
X181831905Y-89960220D01*
X181831905Y-89960220D02*
X181784286Y-90436410D01*
X181784286Y-90436410D02*
X181831905Y-90388791D01*
X181831905Y-90388791D02*
X181927143Y-90341172D01*
X181927143Y-90341172D02*
X182165238Y-90341172D01*
X182165238Y-90341172D02*
X182260476Y-90388791D01*
X182260476Y-90388791D02*
X182308095Y-90436410D01*
X182308095Y-90436410D02*
X182355714Y-90531648D01*
X182355714Y-90531648D02*
X182355714Y-90769743D01*
X182355714Y-90769743D02*
X182308095Y-90864981D01*
X182308095Y-90864981D02*
X182260476Y-90912601D01*
X182260476Y-90912601D02*
X182165238Y-90960220D01*
X182165238Y-90960220D02*
X181927143Y-90960220D01*
X181927143Y-90960220D02*
X181831905Y-90912601D01*
X181831905Y-90912601D02*
X181784286Y-90864981D01*
X130357142Y-103654819D02*
X130023809Y-103178628D01*
X129785714Y-103654819D02*
X129785714Y-102654819D01*
X129785714Y-102654819D02*
X130166666Y-102654819D01*
X130166666Y-102654819D02*
X130261904Y-102702438D01*
X130261904Y-102702438D02*
X130309523Y-102750057D01*
X130309523Y-102750057D02*
X130357142Y-102845295D01*
X130357142Y-102845295D02*
X130357142Y-102988152D01*
X130357142Y-102988152D02*
X130309523Y-103083390D01*
X130309523Y-103083390D02*
X130261904Y-103131009D01*
X130261904Y-103131009D02*
X130166666Y-103178628D01*
X130166666Y-103178628D02*
X129785714Y-103178628D01*
X130738095Y-102750057D02*
X130785714Y-102702438D01*
X130785714Y-102702438D02*
X130880952Y-102654819D01*
X130880952Y-102654819D02*
X131119047Y-102654819D01*
X131119047Y-102654819D02*
X131214285Y-102702438D01*
X131214285Y-102702438D02*
X131261904Y-102750057D01*
X131261904Y-102750057D02*
X131309523Y-102845295D01*
X131309523Y-102845295D02*
X131309523Y-102940533D01*
X131309523Y-102940533D02*
X131261904Y-103083390D01*
X131261904Y-103083390D02*
X130690476Y-103654819D01*
X130690476Y-103654819D02*
X131309523Y-103654819D01*
X131642857Y-102654819D02*
X132261904Y-102654819D01*
X132261904Y-102654819D02*
X131928571Y-103035771D01*
X131928571Y-103035771D02*
X132071428Y-103035771D01*
X132071428Y-103035771D02*
X132166666Y-103083390D01*
X132166666Y-103083390D02*
X132214285Y-103131009D01*
X132214285Y-103131009D02*
X132261904Y-103226247D01*
X132261904Y-103226247D02*
X132261904Y-103464342D01*
X132261904Y-103464342D02*
X132214285Y-103559580D01*
X132214285Y-103559580D02*
X132166666Y-103607200D01*
X132166666Y-103607200D02*
X132071428Y-103654819D01*
X132071428Y-103654819D02*
X131785714Y-103654819D01*
X131785714Y-103654819D02*
X131690476Y-103607200D01*
X131690476Y-103607200D02*
X131642857Y-103559580D01*
X184308095Y-118160220D02*
X184308095Y-118969743D01*
X184308095Y-118969743D02*
X184355714Y-119064981D01*
X184355714Y-119064981D02*
X184403333Y-119112601D01*
X184403333Y-119112601D02*
X184498571Y-119160220D01*
X184498571Y-119160220D02*
X184689047Y-119160220D01*
X184689047Y-119160220D02*
X184784285Y-119112601D01*
X184784285Y-119112601D02*
X184831904Y-119064981D01*
X184831904Y-119064981D02*
X184879523Y-118969743D01*
X184879523Y-118969743D02*
X184879523Y-118160220D01*
X185879523Y-119160220D02*
X185308095Y-119160220D01*
X185593809Y-119160220D02*
X185593809Y-118160220D01*
X185593809Y-118160220D02*
X185498571Y-118303077D01*
X185498571Y-118303077D02*
X185403333Y-118398315D01*
X185403333Y-118398315D02*
X185308095Y-118445934D01*
X169027142Y-114660220D02*
X168693809Y-114184029D01*
X168455714Y-114660220D02*
X168455714Y-113660220D01*
X168455714Y-113660220D02*
X168836666Y-113660220D01*
X168836666Y-113660220D02*
X168931904Y-113707839D01*
X168931904Y-113707839D02*
X168979523Y-113755458D01*
X168979523Y-113755458D02*
X169027142Y-113850696D01*
X169027142Y-113850696D02*
X169027142Y-113993553D01*
X169027142Y-113993553D02*
X168979523Y-114088791D01*
X168979523Y-114088791D02*
X168931904Y-114136410D01*
X168931904Y-114136410D02*
X168836666Y-114184029D01*
X168836666Y-114184029D02*
X168455714Y-114184029D01*
X169979523Y-114660220D02*
X169408095Y-114660220D01*
X169693809Y-114660220D02*
X169693809Y-113660220D01*
X169693809Y-113660220D02*
X169598571Y-113803077D01*
X169598571Y-113803077D02*
X169503333Y-113898315D01*
X169503333Y-113898315D02*
X169408095Y-113945934D01*
X170836666Y-113993553D02*
X170836666Y-114660220D01*
X170598571Y-113612601D02*
X170360476Y-114326886D01*
X170360476Y-114326886D02*
X170979523Y-114326886D01*
X165404819Y-100478258D02*
X164928628Y-100811591D01*
X165404819Y-101049686D02*
X164404819Y-101049686D01*
X164404819Y-101049686D02*
X164404819Y-100668734D01*
X164404819Y-100668734D02*
X164452438Y-100573496D01*
X164452438Y-100573496D02*
X164500057Y-100525877D01*
X164500057Y-100525877D02*
X164595295Y-100478258D01*
X164595295Y-100478258D02*
X164738152Y-100478258D01*
X164738152Y-100478258D02*
X164833390Y-100525877D01*
X164833390Y-100525877D02*
X164881009Y-100573496D01*
X164881009Y-100573496D02*
X164928628Y-100668734D01*
X164928628Y-100668734D02*
X164928628Y-101049686D01*
X165404819Y-99525877D02*
X165404819Y-100097305D01*
X165404819Y-99811591D02*
X164404819Y-99811591D01*
X164404819Y-99811591D02*
X164547676Y-99906829D01*
X164547676Y-99906829D02*
X164642914Y-100002067D01*
X164642914Y-100002067D02*
X164690533Y-100097305D01*
X164404819Y-99192543D02*
X164404819Y-98525877D01*
X164404819Y-98525877D02*
X165404819Y-98954448D01*
X201431905Y-127860220D02*
X201431905Y-126860220D01*
X201431905Y-126860220D02*
X201670000Y-126860220D01*
X201670000Y-126860220D02*
X201812857Y-126907839D01*
X201812857Y-126907839D02*
X201908095Y-127003077D01*
X201908095Y-127003077D02*
X201955714Y-127098315D01*
X201955714Y-127098315D02*
X202003333Y-127288791D01*
X202003333Y-127288791D02*
X202003333Y-127431648D01*
X202003333Y-127431648D02*
X201955714Y-127622124D01*
X201955714Y-127622124D02*
X201908095Y-127717362D01*
X201908095Y-127717362D02*
X201812857Y-127812601D01*
X201812857Y-127812601D02*
X201670000Y-127860220D01*
X201670000Y-127860220D02*
X201431905Y-127860220D01*
X202860476Y-127193553D02*
X202860476Y-127860220D01*
X202622381Y-126812601D02*
X202384286Y-127526886D01*
X202384286Y-127526886D02*
X203003333Y-127526886D01*
X187918333Y-119469981D02*
X187870714Y-119517601D01*
X187870714Y-119517601D02*
X187727857Y-119565220D01*
X187727857Y-119565220D02*
X187632619Y-119565220D01*
X187632619Y-119565220D02*
X187489762Y-119517601D01*
X187489762Y-119517601D02*
X187394524Y-119422362D01*
X187394524Y-119422362D02*
X187346905Y-119327124D01*
X187346905Y-119327124D02*
X187299286Y-119136648D01*
X187299286Y-119136648D02*
X187299286Y-118993791D01*
X187299286Y-118993791D02*
X187346905Y-118803315D01*
X187346905Y-118803315D02*
X187394524Y-118708077D01*
X187394524Y-118708077D02*
X187489762Y-118612839D01*
X187489762Y-118612839D02*
X187632619Y-118565220D01*
X187632619Y-118565220D02*
X187727857Y-118565220D01*
X187727857Y-118565220D02*
X187870714Y-118612839D01*
X187870714Y-118612839D02*
X187918333Y-118660458D01*
X188251667Y-118565220D02*
X188918333Y-118565220D01*
X188918333Y-118565220D02*
X188489762Y-119565220D01*
X197831905Y-117560220D02*
X197831905Y-116560220D01*
X197831905Y-116560220D02*
X198070000Y-116560220D01*
X198070000Y-116560220D02*
X198212857Y-116607839D01*
X198212857Y-116607839D02*
X198308095Y-116703077D01*
X198308095Y-116703077D02*
X198355714Y-116798315D01*
X198355714Y-116798315D02*
X198403333Y-116988791D01*
X198403333Y-116988791D02*
X198403333Y-117131648D01*
X198403333Y-117131648D02*
X198355714Y-117322124D01*
X198355714Y-117322124D02*
X198308095Y-117417362D01*
X198308095Y-117417362D02*
X198212857Y-117512601D01*
X198212857Y-117512601D02*
X198070000Y-117560220D01*
X198070000Y-117560220D02*
X197831905Y-117560220D01*
X199355714Y-117560220D02*
X198784286Y-117560220D01*
X199070000Y-117560220D02*
X199070000Y-116560220D01*
X199070000Y-116560220D02*
X198974762Y-116703077D01*
X198974762Y-116703077D02*
X198879524Y-116798315D01*
X198879524Y-116798315D02*
X198784286Y-116845934D01*
X123721666Y-81736410D02*
X123388333Y-81736410D01*
X123388333Y-82260220D02*
X123388333Y-81260220D01*
X123388333Y-81260220D02*
X123864523Y-81260220D01*
X124197857Y-81355458D02*
X124245476Y-81307839D01*
X124245476Y-81307839D02*
X124340714Y-81260220D01*
X124340714Y-81260220D02*
X124578809Y-81260220D01*
X124578809Y-81260220D02*
X124674047Y-81307839D01*
X124674047Y-81307839D02*
X124721666Y-81355458D01*
X124721666Y-81355458D02*
X124769285Y-81450696D01*
X124769285Y-81450696D02*
X124769285Y-81545934D01*
X124769285Y-81545934D02*
X124721666Y-81688791D01*
X124721666Y-81688791D02*
X124150238Y-82260220D01*
X124150238Y-82260220D02*
X124769285Y-82260220D01*
X198718333Y-119469981D02*
X198670714Y-119517601D01*
X198670714Y-119517601D02*
X198527857Y-119565220D01*
X198527857Y-119565220D02*
X198432619Y-119565220D01*
X198432619Y-119565220D02*
X198289762Y-119517601D01*
X198289762Y-119517601D02*
X198194524Y-119422362D01*
X198194524Y-119422362D02*
X198146905Y-119327124D01*
X198146905Y-119327124D02*
X198099286Y-119136648D01*
X198099286Y-119136648D02*
X198099286Y-118993791D01*
X198099286Y-118993791D02*
X198146905Y-118803315D01*
X198146905Y-118803315D02*
X198194524Y-118708077D01*
X198194524Y-118708077D02*
X198289762Y-118612839D01*
X198289762Y-118612839D02*
X198432619Y-118565220D01*
X198432619Y-118565220D02*
X198527857Y-118565220D01*
X198527857Y-118565220D02*
X198670714Y-118612839D01*
X198670714Y-118612839D02*
X198718333Y-118660458D01*
X199289762Y-118993791D02*
X199194524Y-118946172D01*
X199194524Y-118946172D02*
X199146905Y-118898553D01*
X199146905Y-118898553D02*
X199099286Y-118803315D01*
X199099286Y-118803315D02*
X199099286Y-118755696D01*
X199099286Y-118755696D02*
X199146905Y-118660458D01*
X199146905Y-118660458D02*
X199194524Y-118612839D01*
X199194524Y-118612839D02*
X199289762Y-118565220D01*
X199289762Y-118565220D02*
X199480238Y-118565220D01*
X199480238Y-118565220D02*
X199575476Y-118612839D01*
X199575476Y-118612839D02*
X199623095Y-118660458D01*
X199623095Y-118660458D02*
X199670714Y-118755696D01*
X199670714Y-118755696D02*
X199670714Y-118803315D01*
X199670714Y-118803315D02*
X199623095Y-118898553D01*
X199623095Y-118898553D02*
X199575476Y-118946172D01*
X199575476Y-118946172D02*
X199480238Y-118993791D01*
X199480238Y-118993791D02*
X199289762Y-118993791D01*
X199289762Y-118993791D02*
X199194524Y-119041410D01*
X199194524Y-119041410D02*
X199146905Y-119089029D01*
X199146905Y-119089029D02*
X199099286Y-119184267D01*
X199099286Y-119184267D02*
X199099286Y-119374743D01*
X199099286Y-119374743D02*
X199146905Y-119469981D01*
X199146905Y-119469981D02*
X199194524Y-119517601D01*
X199194524Y-119517601D02*
X199289762Y-119565220D01*
X199289762Y-119565220D02*
X199480238Y-119565220D01*
X199480238Y-119565220D02*
X199575476Y-119517601D01*
X199575476Y-119517601D02*
X199623095Y-119469981D01*
X199623095Y-119469981D02*
X199670714Y-119374743D01*
X199670714Y-119374743D02*
X199670714Y-119184267D01*
X199670714Y-119184267D02*
X199623095Y-119089029D01*
X199623095Y-119089029D02*
X199575476Y-119041410D01*
X199575476Y-119041410D02*
X199480238Y-118993791D01*
X137887142Y-73629981D02*
X137839523Y-73677601D01*
X137839523Y-73677601D02*
X137696666Y-73725220D01*
X137696666Y-73725220D02*
X137601428Y-73725220D01*
X137601428Y-73725220D02*
X137458571Y-73677601D01*
X137458571Y-73677601D02*
X137363333Y-73582362D01*
X137363333Y-73582362D02*
X137315714Y-73487124D01*
X137315714Y-73487124D02*
X137268095Y-73296648D01*
X137268095Y-73296648D02*
X137268095Y-73153791D01*
X137268095Y-73153791D02*
X137315714Y-72963315D01*
X137315714Y-72963315D02*
X137363333Y-72868077D01*
X137363333Y-72868077D02*
X137458571Y-72772839D01*
X137458571Y-72772839D02*
X137601428Y-72725220D01*
X137601428Y-72725220D02*
X137696666Y-72725220D01*
X137696666Y-72725220D02*
X137839523Y-72772839D01*
X137839523Y-72772839D02*
X137887142Y-72820458D01*
X138839523Y-73725220D02*
X138268095Y-73725220D01*
X138553809Y-73725220D02*
X138553809Y-72725220D01*
X138553809Y-72725220D02*
X138458571Y-72868077D01*
X138458571Y-72868077D02*
X138363333Y-72963315D01*
X138363333Y-72963315D02*
X138268095Y-73010934D01*
X139410952Y-73153791D02*
X139315714Y-73106172D01*
X139315714Y-73106172D02*
X139268095Y-73058553D01*
X139268095Y-73058553D02*
X139220476Y-72963315D01*
X139220476Y-72963315D02*
X139220476Y-72915696D01*
X139220476Y-72915696D02*
X139268095Y-72820458D01*
X139268095Y-72820458D02*
X139315714Y-72772839D01*
X139315714Y-72772839D02*
X139410952Y-72725220D01*
X139410952Y-72725220D02*
X139601428Y-72725220D01*
X139601428Y-72725220D02*
X139696666Y-72772839D01*
X139696666Y-72772839D02*
X139744285Y-72820458D01*
X139744285Y-72820458D02*
X139791904Y-72915696D01*
X139791904Y-72915696D02*
X139791904Y-72963315D01*
X139791904Y-72963315D02*
X139744285Y-73058553D01*
X139744285Y-73058553D02*
X139696666Y-73106172D01*
X139696666Y-73106172D02*
X139601428Y-73153791D01*
X139601428Y-73153791D02*
X139410952Y-73153791D01*
X139410952Y-73153791D02*
X139315714Y-73201410D01*
X139315714Y-73201410D02*
X139268095Y-73249029D01*
X139268095Y-73249029D02*
X139220476Y-73344267D01*
X139220476Y-73344267D02*
X139220476Y-73534743D01*
X139220476Y-73534743D02*
X139268095Y-73629981D01*
X139268095Y-73629981D02*
X139315714Y-73677601D01*
X139315714Y-73677601D02*
X139410952Y-73725220D01*
X139410952Y-73725220D02*
X139601428Y-73725220D01*
X139601428Y-73725220D02*
X139696666Y-73677601D01*
X139696666Y-73677601D02*
X139744285Y-73629981D01*
X139744285Y-73629981D02*
X139791904Y-73534743D01*
X139791904Y-73534743D02*
X139791904Y-73344267D01*
X139791904Y-73344267D02*
X139744285Y-73249029D01*
X139744285Y-73249029D02*
X139696666Y-73201410D01*
X139696666Y-73201410D02*
X139601428Y-73153791D01*
X138253333Y-100260220D02*
X137777143Y-100260220D01*
X137777143Y-100260220D02*
X137777143Y-99260220D01*
X139110476Y-100260220D02*
X138539048Y-100260220D01*
X138824762Y-100260220D02*
X138824762Y-99260220D01*
X138824762Y-99260220D02*
X138729524Y-99403077D01*
X138729524Y-99403077D02*
X138634286Y-99498315D01*
X138634286Y-99498315D02*
X138539048Y-99545934D01*
X133557142Y-99859580D02*
X133509523Y-99907200D01*
X133509523Y-99907200D02*
X133366666Y-99954819D01*
X133366666Y-99954819D02*
X133271428Y-99954819D01*
X133271428Y-99954819D02*
X133128571Y-99907200D01*
X133128571Y-99907200D02*
X133033333Y-99811961D01*
X133033333Y-99811961D02*
X132985714Y-99716723D01*
X132985714Y-99716723D02*
X132938095Y-99526247D01*
X132938095Y-99526247D02*
X132938095Y-99383390D01*
X132938095Y-99383390D02*
X132985714Y-99192914D01*
X132985714Y-99192914D02*
X133033333Y-99097676D01*
X133033333Y-99097676D02*
X133128571Y-99002438D01*
X133128571Y-99002438D02*
X133271428Y-98954819D01*
X133271428Y-98954819D02*
X133366666Y-98954819D01*
X133366666Y-98954819D02*
X133509523Y-99002438D01*
X133509523Y-99002438D02*
X133557142Y-99050057D01*
X134509523Y-99954819D02*
X133938095Y-99954819D01*
X134223809Y-99954819D02*
X134223809Y-98954819D01*
X134223809Y-98954819D02*
X134128571Y-99097676D01*
X134128571Y-99097676D02*
X134033333Y-99192914D01*
X134033333Y-99192914D02*
X133938095Y-99240533D01*
X135366666Y-98954819D02*
X135176190Y-98954819D01*
X135176190Y-98954819D02*
X135080952Y-99002438D01*
X135080952Y-99002438D02*
X135033333Y-99050057D01*
X135033333Y-99050057D02*
X134938095Y-99192914D01*
X134938095Y-99192914D02*
X134890476Y-99383390D01*
X134890476Y-99383390D02*
X134890476Y-99764342D01*
X134890476Y-99764342D02*
X134938095Y-99859580D01*
X134938095Y-99859580D02*
X134985714Y-99907200D01*
X134985714Y-99907200D02*
X135080952Y-99954819D01*
X135080952Y-99954819D02*
X135271428Y-99954819D01*
X135271428Y-99954819D02*
X135366666Y-99907200D01*
X135366666Y-99907200D02*
X135414285Y-99859580D01*
X135414285Y-99859580D02*
X135461904Y-99764342D01*
X135461904Y-99764342D02*
X135461904Y-99526247D01*
X135461904Y-99526247D02*
X135414285Y-99431009D01*
X135414285Y-99431009D02*
X135366666Y-99383390D01*
X135366666Y-99383390D02*
X135271428Y-99335771D01*
X135271428Y-99335771D02*
X135080952Y-99335771D01*
X135080952Y-99335771D02*
X134985714Y-99383390D01*
X134985714Y-99383390D02*
X134938095Y-99431009D01*
X134938095Y-99431009D02*
X134890476Y-99526247D01*
X170908095Y-92160220D02*
X171479523Y-92160220D01*
X171193809Y-93160220D02*
X171193809Y-92160220D01*
X171812857Y-93160220D02*
X171812857Y-92160220D01*
X171812857Y-92160220D02*
X172193809Y-92160220D01*
X172193809Y-92160220D02*
X172289047Y-92207839D01*
X172289047Y-92207839D02*
X172336666Y-92255458D01*
X172336666Y-92255458D02*
X172384285Y-92350696D01*
X172384285Y-92350696D02*
X172384285Y-92493553D01*
X172384285Y-92493553D02*
X172336666Y-92588791D01*
X172336666Y-92588791D02*
X172289047Y-92636410D01*
X172289047Y-92636410D02*
X172193809Y-92684029D01*
X172193809Y-92684029D02*
X171812857Y-92684029D01*
X173241428Y-92160220D02*
X173050952Y-92160220D01*
X173050952Y-92160220D02*
X172955714Y-92207839D01*
X172955714Y-92207839D02*
X172908095Y-92255458D01*
X172908095Y-92255458D02*
X172812857Y-92398315D01*
X172812857Y-92398315D02*
X172765238Y-92588791D01*
X172765238Y-92588791D02*
X172765238Y-92969743D01*
X172765238Y-92969743D02*
X172812857Y-93064981D01*
X172812857Y-93064981D02*
X172860476Y-93112601D01*
X172860476Y-93112601D02*
X172955714Y-93160220D01*
X172955714Y-93160220D02*
X173146190Y-93160220D01*
X173146190Y-93160220D02*
X173241428Y-93112601D01*
X173241428Y-93112601D02*
X173289047Y-93064981D01*
X173289047Y-93064981D02*
X173336666Y-92969743D01*
X173336666Y-92969743D02*
X173336666Y-92731648D01*
X173336666Y-92731648D02*
X173289047Y-92636410D01*
X173289047Y-92636410D02*
X173241428Y-92588791D01*
X173241428Y-92588791D02*
X173146190Y-92541172D01*
X173146190Y-92541172D02*
X172955714Y-92541172D01*
X172955714Y-92541172D02*
X172860476Y-92588791D01*
X172860476Y-92588791D02*
X172812857Y-92636410D01*
X172812857Y-92636410D02*
X172765238Y-92731648D01*
X141868095Y-102259819D02*
X142439523Y-102259819D01*
X142153809Y-103259819D02*
X142153809Y-102259819D01*
X142772857Y-103259819D02*
X142772857Y-102259819D01*
X142772857Y-102259819D02*
X143153809Y-102259819D01*
X143153809Y-102259819D02*
X143249047Y-102307438D01*
X143249047Y-102307438D02*
X143296666Y-102355057D01*
X143296666Y-102355057D02*
X143344285Y-102450295D01*
X143344285Y-102450295D02*
X143344285Y-102593152D01*
X143344285Y-102593152D02*
X143296666Y-102688390D01*
X143296666Y-102688390D02*
X143249047Y-102736009D01*
X143249047Y-102736009D02*
X143153809Y-102783628D01*
X143153809Y-102783628D02*
X142772857Y-102783628D01*
X144201428Y-102593152D02*
X144201428Y-103259819D01*
X143963333Y-102212200D02*
X143725238Y-102926485D01*
X143725238Y-102926485D02*
X144344285Y-102926485D01*
X118488833Y-99420319D02*
X118155500Y-98944128D01*
X117917405Y-99420319D02*
X117917405Y-98420319D01*
X117917405Y-98420319D02*
X118298357Y-98420319D01*
X118298357Y-98420319D02*
X118393595Y-98467938D01*
X118393595Y-98467938D02*
X118441214Y-98515557D01*
X118441214Y-98515557D02*
X118488833Y-98610795D01*
X118488833Y-98610795D02*
X118488833Y-98753652D01*
X118488833Y-98753652D02*
X118441214Y-98848890D01*
X118441214Y-98848890D02*
X118393595Y-98896509D01*
X118393595Y-98896509D02*
X118298357Y-98944128D01*
X118298357Y-98944128D02*
X117917405Y-98944128D01*
X119393595Y-98420319D02*
X118917405Y-98420319D01*
X118917405Y-98420319D02*
X118869786Y-98896509D01*
X118869786Y-98896509D02*
X118917405Y-98848890D01*
X118917405Y-98848890D02*
X119012643Y-98801271D01*
X119012643Y-98801271D02*
X119250738Y-98801271D01*
X119250738Y-98801271D02*
X119345976Y-98848890D01*
X119345976Y-98848890D02*
X119393595Y-98896509D01*
X119393595Y-98896509D02*
X119441214Y-98991747D01*
X119441214Y-98991747D02*
X119441214Y-99229842D01*
X119441214Y-99229842D02*
X119393595Y-99325080D01*
X119393595Y-99325080D02*
X119345976Y-99372700D01*
X119345976Y-99372700D02*
X119250738Y-99420319D01*
X119250738Y-99420319D02*
X119012643Y-99420319D01*
X119012643Y-99420319D02*
X118917405Y-99372700D01*
X118917405Y-99372700D02*
X118869786Y-99325080D01*
X190688095Y-111950220D02*
X190688095Y-112759743D01*
X190688095Y-112759743D02*
X190735714Y-112854981D01*
X190735714Y-112854981D02*
X190783333Y-112902601D01*
X190783333Y-112902601D02*
X190878571Y-112950220D01*
X190878571Y-112950220D02*
X191069047Y-112950220D01*
X191069047Y-112950220D02*
X191164285Y-112902601D01*
X191164285Y-112902601D02*
X191211904Y-112854981D01*
X191211904Y-112854981D02*
X191259523Y-112759743D01*
X191259523Y-112759743D02*
X191259523Y-111950220D01*
X191878571Y-112378791D02*
X191783333Y-112331172D01*
X191783333Y-112331172D02*
X191735714Y-112283553D01*
X191735714Y-112283553D02*
X191688095Y-112188315D01*
X191688095Y-112188315D02*
X191688095Y-112140696D01*
X191688095Y-112140696D02*
X191735714Y-112045458D01*
X191735714Y-112045458D02*
X191783333Y-111997839D01*
X191783333Y-111997839D02*
X191878571Y-111950220D01*
X191878571Y-111950220D02*
X192069047Y-111950220D01*
X192069047Y-111950220D02*
X192164285Y-111997839D01*
X192164285Y-111997839D02*
X192211904Y-112045458D01*
X192211904Y-112045458D02*
X192259523Y-112140696D01*
X192259523Y-112140696D02*
X192259523Y-112188315D01*
X192259523Y-112188315D02*
X192211904Y-112283553D01*
X192211904Y-112283553D02*
X192164285Y-112331172D01*
X192164285Y-112331172D02*
X192069047Y-112378791D01*
X192069047Y-112378791D02*
X191878571Y-112378791D01*
X191878571Y-112378791D02*
X191783333Y-112426410D01*
X191783333Y-112426410D02*
X191735714Y-112474029D01*
X191735714Y-112474029D02*
X191688095Y-112569267D01*
X191688095Y-112569267D02*
X191688095Y-112759743D01*
X191688095Y-112759743D02*
X191735714Y-112854981D01*
X191735714Y-112854981D02*
X191783333Y-112902601D01*
X191783333Y-112902601D02*
X191878571Y-112950220D01*
X191878571Y-112950220D02*
X192069047Y-112950220D01*
X192069047Y-112950220D02*
X192164285Y-112902601D01*
X192164285Y-112902601D02*
X192211904Y-112854981D01*
X192211904Y-112854981D02*
X192259523Y-112759743D01*
X192259523Y-112759743D02*
X192259523Y-112569267D01*
X192259523Y-112569267D02*
X192211904Y-112474029D01*
X192211904Y-112474029D02*
X192164285Y-112426410D01*
X192164285Y-112426410D02*
X192069047Y-112378791D01*
X204724819Y-103802067D02*
X204248628Y-104135400D01*
X204724819Y-104373495D02*
X203724819Y-104373495D01*
X203724819Y-104373495D02*
X203724819Y-103992543D01*
X203724819Y-103992543D02*
X203772438Y-103897305D01*
X203772438Y-103897305D02*
X203820057Y-103849686D01*
X203820057Y-103849686D02*
X203915295Y-103802067D01*
X203915295Y-103802067D02*
X204058152Y-103802067D01*
X204058152Y-103802067D02*
X204153390Y-103849686D01*
X204153390Y-103849686D02*
X204201009Y-103897305D01*
X204201009Y-103897305D02*
X204248628Y-103992543D01*
X204248628Y-103992543D02*
X204248628Y-104373495D01*
X203724819Y-102944924D02*
X203724819Y-103135400D01*
X203724819Y-103135400D02*
X203772438Y-103230638D01*
X203772438Y-103230638D02*
X203820057Y-103278257D01*
X203820057Y-103278257D02*
X203962914Y-103373495D01*
X203962914Y-103373495D02*
X204153390Y-103421114D01*
X204153390Y-103421114D02*
X204534342Y-103421114D01*
X204534342Y-103421114D02*
X204629580Y-103373495D01*
X204629580Y-103373495D02*
X204677200Y-103325876D01*
X204677200Y-103325876D02*
X204724819Y-103230638D01*
X204724819Y-103230638D02*
X204724819Y-103040162D01*
X204724819Y-103040162D02*
X204677200Y-102944924D01*
X204677200Y-102944924D02*
X204629580Y-102897305D01*
X204629580Y-102897305D02*
X204534342Y-102849686D01*
X204534342Y-102849686D02*
X204296247Y-102849686D01*
X204296247Y-102849686D02*
X204201009Y-102897305D01*
X204201009Y-102897305D02*
X204153390Y-102944924D01*
X204153390Y-102944924D02*
X204105771Y-103040162D01*
X204105771Y-103040162D02*
X204105771Y-103230638D01*
X204105771Y-103230638D02*
X204153390Y-103325876D01*
X204153390Y-103325876D02*
X204201009Y-103373495D01*
X204201009Y-103373495D02*
X204296247Y-103421114D01*
X123133333Y-95259580D02*
X123085714Y-95307200D01*
X123085714Y-95307200D02*
X122942857Y-95354819D01*
X122942857Y-95354819D02*
X122847619Y-95354819D01*
X122847619Y-95354819D02*
X122704762Y-95307200D01*
X122704762Y-95307200D02*
X122609524Y-95211961D01*
X122609524Y-95211961D02*
X122561905Y-95116723D01*
X122561905Y-95116723D02*
X122514286Y-94926247D01*
X122514286Y-94926247D02*
X122514286Y-94783390D01*
X122514286Y-94783390D02*
X122561905Y-94592914D01*
X122561905Y-94592914D02*
X122609524Y-94497676D01*
X122609524Y-94497676D02*
X122704762Y-94402438D01*
X122704762Y-94402438D02*
X122847619Y-94354819D01*
X122847619Y-94354819D02*
X122942857Y-94354819D01*
X122942857Y-94354819D02*
X123085714Y-94402438D01*
X123085714Y-94402438D02*
X123133333Y-94450057D01*
X124085714Y-95354819D02*
X123514286Y-95354819D01*
X123800000Y-95354819D02*
X123800000Y-94354819D01*
X123800000Y-94354819D02*
X123704762Y-94497676D01*
X123704762Y-94497676D02*
X123609524Y-94592914D01*
X123609524Y-94592914D02*
X123514286Y-94640533D01*
X188197142Y-127440220D02*
X187863809Y-126964029D01*
X187625714Y-127440220D02*
X187625714Y-126440220D01*
X187625714Y-126440220D02*
X188006666Y-126440220D01*
X188006666Y-126440220D02*
X188101904Y-126487839D01*
X188101904Y-126487839D02*
X188149523Y-126535458D01*
X188149523Y-126535458D02*
X188197142Y-126630696D01*
X188197142Y-126630696D02*
X188197142Y-126773553D01*
X188197142Y-126773553D02*
X188149523Y-126868791D01*
X188149523Y-126868791D02*
X188101904Y-126916410D01*
X188101904Y-126916410D02*
X188006666Y-126964029D01*
X188006666Y-126964029D02*
X187625714Y-126964029D01*
X189149523Y-127440220D02*
X188578095Y-127440220D01*
X188863809Y-127440220D02*
X188863809Y-126440220D01*
X188863809Y-126440220D02*
X188768571Y-126583077D01*
X188768571Y-126583077D02*
X188673333Y-126678315D01*
X188673333Y-126678315D02*
X188578095Y-126725934D01*
X189768571Y-126440220D02*
X189863809Y-126440220D01*
X189863809Y-126440220D02*
X189959047Y-126487839D01*
X189959047Y-126487839D02*
X190006666Y-126535458D01*
X190006666Y-126535458D02*
X190054285Y-126630696D01*
X190054285Y-126630696D02*
X190101904Y-126821172D01*
X190101904Y-126821172D02*
X190101904Y-127059267D01*
X190101904Y-127059267D02*
X190054285Y-127249743D01*
X190054285Y-127249743D02*
X190006666Y-127344981D01*
X190006666Y-127344981D02*
X189959047Y-127392601D01*
X189959047Y-127392601D02*
X189863809Y-127440220D01*
X189863809Y-127440220D02*
X189768571Y-127440220D01*
X189768571Y-127440220D02*
X189673333Y-127392601D01*
X189673333Y-127392601D02*
X189625714Y-127344981D01*
X189625714Y-127344981D02*
X189578095Y-127249743D01*
X189578095Y-127249743D02*
X189530476Y-127059267D01*
X189530476Y-127059267D02*
X189530476Y-126821172D01*
X189530476Y-126821172D02*
X189578095Y-126630696D01*
X189578095Y-126630696D02*
X189625714Y-126535458D01*
X189625714Y-126535458D02*
X189673333Y-126487839D01*
X189673333Y-126487839D02*
X189768571Y-126440220D01*
X204424819Y-118943495D02*
X203424819Y-118943495D01*
X203424819Y-118943495D02*
X203424819Y-118705400D01*
X203424819Y-118705400D02*
X203472438Y-118562543D01*
X203472438Y-118562543D02*
X203567676Y-118467305D01*
X203567676Y-118467305D02*
X203662914Y-118419686D01*
X203662914Y-118419686D02*
X203853390Y-118372067D01*
X203853390Y-118372067D02*
X203996247Y-118372067D01*
X203996247Y-118372067D02*
X204186723Y-118419686D01*
X204186723Y-118419686D02*
X204281961Y-118467305D01*
X204281961Y-118467305D02*
X204377200Y-118562543D01*
X204377200Y-118562543D02*
X204424819Y-118705400D01*
X204424819Y-118705400D02*
X204424819Y-118943495D01*
X203424819Y-117467305D02*
X203424819Y-117943495D01*
X203424819Y-117943495D02*
X203901009Y-117991114D01*
X203901009Y-117991114D02*
X203853390Y-117943495D01*
X203853390Y-117943495D02*
X203805771Y-117848257D01*
X203805771Y-117848257D02*
X203805771Y-117610162D01*
X203805771Y-117610162D02*
X203853390Y-117514924D01*
X203853390Y-117514924D02*
X203901009Y-117467305D01*
X203901009Y-117467305D02*
X203996247Y-117419686D01*
X203996247Y-117419686D02*
X204234342Y-117419686D01*
X204234342Y-117419686D02*
X204329580Y-117467305D01*
X204329580Y-117467305D02*
X204377200Y-117514924D01*
X204377200Y-117514924D02*
X204424819Y-117610162D01*
X204424819Y-117610162D02*
X204424819Y-117848257D01*
X204424819Y-117848257D02*
X204377200Y-117943495D01*
X204377200Y-117943495D02*
X204329580Y-117991114D01*
X179719819Y-107012305D02*
X180529342Y-107012305D01*
X180529342Y-107012305D02*
X180624580Y-106964686D01*
X180624580Y-106964686D02*
X180672200Y-106917067D01*
X180672200Y-106917067D02*
X180719819Y-106821829D01*
X180719819Y-106821829D02*
X180719819Y-106631353D01*
X180719819Y-106631353D02*
X180672200Y-106536115D01*
X180672200Y-106536115D02*
X180624580Y-106488496D01*
X180624580Y-106488496D02*
X180529342Y-106440877D01*
X180529342Y-106440877D02*
X179719819Y-106440877D01*
X179719819Y-105536115D02*
X179719819Y-105726591D01*
X179719819Y-105726591D02*
X179767438Y-105821829D01*
X179767438Y-105821829D02*
X179815057Y-105869448D01*
X179815057Y-105869448D02*
X179957914Y-105964686D01*
X179957914Y-105964686D02*
X180148390Y-106012305D01*
X180148390Y-106012305D02*
X180529342Y-106012305D01*
X180529342Y-106012305D02*
X180624580Y-105964686D01*
X180624580Y-105964686D02*
X180672200Y-105917067D01*
X180672200Y-105917067D02*
X180719819Y-105821829D01*
X180719819Y-105821829D02*
X180719819Y-105631353D01*
X180719819Y-105631353D02*
X180672200Y-105536115D01*
X180672200Y-105536115D02*
X180624580Y-105488496D01*
X180624580Y-105488496D02*
X180529342Y-105440877D01*
X180529342Y-105440877D02*
X180291247Y-105440877D01*
X180291247Y-105440877D02*
X180196009Y-105488496D01*
X180196009Y-105488496D02*
X180148390Y-105536115D01*
X180148390Y-105536115D02*
X180100771Y-105631353D01*
X180100771Y-105631353D02*
X180100771Y-105821829D01*
X180100771Y-105821829D02*
X180148390Y-105917067D01*
X180148390Y-105917067D02*
X180196009Y-105964686D01*
X180196009Y-105964686D02*
X180291247Y-106012305D01*
X196218333Y-119469981D02*
X196170714Y-119517601D01*
X196170714Y-119517601D02*
X196027857Y-119565220D01*
X196027857Y-119565220D02*
X195932619Y-119565220D01*
X195932619Y-119565220D02*
X195789762Y-119517601D01*
X195789762Y-119517601D02*
X195694524Y-119422362D01*
X195694524Y-119422362D02*
X195646905Y-119327124D01*
X195646905Y-119327124D02*
X195599286Y-119136648D01*
X195599286Y-119136648D02*
X195599286Y-118993791D01*
X195599286Y-118993791D02*
X195646905Y-118803315D01*
X195646905Y-118803315D02*
X195694524Y-118708077D01*
X195694524Y-118708077D02*
X195789762Y-118612839D01*
X195789762Y-118612839D02*
X195932619Y-118565220D01*
X195932619Y-118565220D02*
X196027857Y-118565220D01*
X196027857Y-118565220D02*
X196170714Y-118612839D01*
X196170714Y-118612839D02*
X196218333Y-118660458D01*
X197075476Y-118565220D02*
X196885000Y-118565220D01*
X196885000Y-118565220D02*
X196789762Y-118612839D01*
X196789762Y-118612839D02*
X196742143Y-118660458D01*
X196742143Y-118660458D02*
X196646905Y-118803315D01*
X196646905Y-118803315D02*
X196599286Y-118993791D01*
X196599286Y-118993791D02*
X196599286Y-119374743D01*
X196599286Y-119374743D02*
X196646905Y-119469981D01*
X196646905Y-119469981D02*
X196694524Y-119517601D01*
X196694524Y-119517601D02*
X196789762Y-119565220D01*
X196789762Y-119565220D02*
X196980238Y-119565220D01*
X196980238Y-119565220D02*
X197075476Y-119517601D01*
X197075476Y-119517601D02*
X197123095Y-119469981D01*
X197123095Y-119469981D02*
X197170714Y-119374743D01*
X197170714Y-119374743D02*
X197170714Y-119136648D01*
X197170714Y-119136648D02*
X197123095Y-119041410D01*
X197123095Y-119041410D02*
X197075476Y-118993791D01*
X197075476Y-118993791D02*
X196980238Y-118946172D01*
X196980238Y-118946172D02*
X196789762Y-118946172D01*
X196789762Y-118946172D02*
X196694524Y-118993791D01*
X196694524Y-118993791D02*
X196646905Y-119041410D01*
X196646905Y-119041410D02*
X196599286Y-119136648D01*
X179927142Y-96225220D02*
X179593809Y-95749029D01*
X179355714Y-96225220D02*
X179355714Y-95225220D01*
X179355714Y-95225220D02*
X179736666Y-95225220D01*
X179736666Y-95225220D02*
X179831904Y-95272839D01*
X179831904Y-95272839D02*
X179879523Y-95320458D01*
X179879523Y-95320458D02*
X179927142Y-95415696D01*
X179927142Y-95415696D02*
X179927142Y-95558553D01*
X179927142Y-95558553D02*
X179879523Y-95653791D01*
X179879523Y-95653791D02*
X179831904Y-95701410D01*
X179831904Y-95701410D02*
X179736666Y-95749029D01*
X179736666Y-95749029D02*
X179355714Y-95749029D01*
X180308095Y-95320458D02*
X180355714Y-95272839D01*
X180355714Y-95272839D02*
X180450952Y-95225220D01*
X180450952Y-95225220D02*
X180689047Y-95225220D01*
X180689047Y-95225220D02*
X180784285Y-95272839D01*
X180784285Y-95272839D02*
X180831904Y-95320458D01*
X180831904Y-95320458D02*
X180879523Y-95415696D01*
X180879523Y-95415696D02*
X180879523Y-95510934D01*
X180879523Y-95510934D02*
X180831904Y-95653791D01*
X180831904Y-95653791D02*
X180260476Y-96225220D01*
X180260476Y-96225220D02*
X180879523Y-96225220D01*
X181784285Y-95225220D02*
X181308095Y-95225220D01*
X181308095Y-95225220D02*
X181260476Y-95701410D01*
X181260476Y-95701410D02*
X181308095Y-95653791D01*
X181308095Y-95653791D02*
X181403333Y-95606172D01*
X181403333Y-95606172D02*
X181641428Y-95606172D01*
X181641428Y-95606172D02*
X181736666Y-95653791D01*
X181736666Y-95653791D02*
X181784285Y-95701410D01*
X181784285Y-95701410D02*
X181831904Y-95796648D01*
X181831904Y-95796648D02*
X181831904Y-96034743D01*
X181831904Y-96034743D02*
X181784285Y-96129981D01*
X181784285Y-96129981D02*
X181736666Y-96177601D01*
X181736666Y-96177601D02*
X181641428Y-96225220D01*
X181641428Y-96225220D02*
X181403333Y-96225220D01*
X181403333Y-96225220D02*
X181308095Y-96177601D01*
X181308095Y-96177601D02*
X181260476Y-96129981D01*
X131254819Y-91842857D02*
X130778628Y-92176190D01*
X131254819Y-92414285D02*
X130254819Y-92414285D01*
X130254819Y-92414285D02*
X130254819Y-92033333D01*
X130254819Y-92033333D02*
X130302438Y-91938095D01*
X130302438Y-91938095D02*
X130350057Y-91890476D01*
X130350057Y-91890476D02*
X130445295Y-91842857D01*
X130445295Y-91842857D02*
X130588152Y-91842857D01*
X130588152Y-91842857D02*
X130683390Y-91890476D01*
X130683390Y-91890476D02*
X130731009Y-91938095D01*
X130731009Y-91938095D02*
X130778628Y-92033333D01*
X130778628Y-92033333D02*
X130778628Y-92414285D01*
X130350057Y-91461904D02*
X130302438Y-91414285D01*
X130302438Y-91414285D02*
X130254819Y-91319047D01*
X130254819Y-91319047D02*
X130254819Y-91080952D01*
X130254819Y-91080952D02*
X130302438Y-90985714D01*
X130302438Y-90985714D02*
X130350057Y-90938095D01*
X130350057Y-90938095D02*
X130445295Y-90890476D01*
X130445295Y-90890476D02*
X130540533Y-90890476D01*
X130540533Y-90890476D02*
X130683390Y-90938095D01*
X130683390Y-90938095D02*
X131254819Y-91509523D01*
X131254819Y-91509523D02*
X131254819Y-90890476D01*
X131254819Y-89938095D02*
X131254819Y-90509523D01*
X131254819Y-90223809D02*
X130254819Y-90223809D01*
X130254819Y-90223809D02*
X130397676Y-90319047D01*
X130397676Y-90319047D02*
X130492914Y-90414285D01*
X130492914Y-90414285D02*
X130540533Y-90509523D01*
X169569761Y-97760458D02*
X169474523Y-97712839D01*
X169474523Y-97712839D02*
X169379285Y-97617601D01*
X169379285Y-97617601D02*
X169236428Y-97474743D01*
X169236428Y-97474743D02*
X169141190Y-97427124D01*
X169141190Y-97427124D02*
X169045952Y-97427124D01*
X169093571Y-97665220D02*
X168998333Y-97617601D01*
X168998333Y-97617601D02*
X168903095Y-97522362D01*
X168903095Y-97522362D02*
X168855476Y-97331886D01*
X168855476Y-97331886D02*
X168855476Y-96998553D01*
X168855476Y-96998553D02*
X168903095Y-96808077D01*
X168903095Y-96808077D02*
X168998333Y-96712839D01*
X168998333Y-96712839D02*
X169093571Y-96665220D01*
X169093571Y-96665220D02*
X169284047Y-96665220D01*
X169284047Y-96665220D02*
X169379285Y-96712839D01*
X169379285Y-96712839D02*
X169474523Y-96808077D01*
X169474523Y-96808077D02*
X169522142Y-96998553D01*
X169522142Y-96998553D02*
X169522142Y-97331886D01*
X169522142Y-97331886D02*
X169474523Y-97522362D01*
X169474523Y-97522362D02*
X169379285Y-97617601D01*
X169379285Y-97617601D02*
X169284047Y-97665220D01*
X169284047Y-97665220D02*
X169093571Y-97665220D01*
X169903095Y-96760458D02*
X169950714Y-96712839D01*
X169950714Y-96712839D02*
X170045952Y-96665220D01*
X170045952Y-96665220D02*
X170284047Y-96665220D01*
X170284047Y-96665220D02*
X170379285Y-96712839D01*
X170379285Y-96712839D02*
X170426904Y-96760458D01*
X170426904Y-96760458D02*
X170474523Y-96855696D01*
X170474523Y-96855696D02*
X170474523Y-96950934D01*
X170474523Y-96950934D02*
X170426904Y-97093791D01*
X170426904Y-97093791D02*
X169855476Y-97665220D01*
X169855476Y-97665220D02*
X170474523Y-97665220D01*
X165808095Y-113560220D02*
X165808095Y-114369743D01*
X165808095Y-114369743D02*
X165855714Y-114464981D01*
X165855714Y-114464981D02*
X165903333Y-114512601D01*
X165903333Y-114512601D02*
X165998571Y-114560220D01*
X165998571Y-114560220D02*
X166189047Y-114560220D01*
X166189047Y-114560220D02*
X166284285Y-114512601D01*
X166284285Y-114512601D02*
X166331904Y-114464981D01*
X166331904Y-114464981D02*
X166379523Y-114369743D01*
X166379523Y-114369743D02*
X166379523Y-113560220D01*
X166760476Y-113560220D02*
X167427142Y-113560220D01*
X167427142Y-113560220D02*
X166998571Y-114560220D01*
X180627142Y-92964981D02*
X180579523Y-93012601D01*
X180579523Y-93012601D02*
X180436666Y-93060220D01*
X180436666Y-93060220D02*
X180341428Y-93060220D01*
X180341428Y-93060220D02*
X180198571Y-93012601D01*
X180198571Y-93012601D02*
X180103333Y-92917362D01*
X180103333Y-92917362D02*
X180055714Y-92822124D01*
X180055714Y-92822124D02*
X180008095Y-92631648D01*
X180008095Y-92631648D02*
X180008095Y-92488791D01*
X180008095Y-92488791D02*
X180055714Y-92298315D01*
X180055714Y-92298315D02*
X180103333Y-92203077D01*
X180103333Y-92203077D02*
X180198571Y-92107839D01*
X180198571Y-92107839D02*
X180341428Y-92060220D01*
X180341428Y-92060220D02*
X180436666Y-92060220D01*
X180436666Y-92060220D02*
X180579523Y-92107839D01*
X180579523Y-92107839D02*
X180627142Y-92155458D01*
X181008095Y-92155458D02*
X181055714Y-92107839D01*
X181055714Y-92107839D02*
X181150952Y-92060220D01*
X181150952Y-92060220D02*
X181389047Y-92060220D01*
X181389047Y-92060220D02*
X181484285Y-92107839D01*
X181484285Y-92107839D02*
X181531904Y-92155458D01*
X181531904Y-92155458D02*
X181579523Y-92250696D01*
X181579523Y-92250696D02*
X181579523Y-92345934D01*
X181579523Y-92345934D02*
X181531904Y-92488791D01*
X181531904Y-92488791D02*
X180960476Y-93060220D01*
X180960476Y-93060220D02*
X181579523Y-93060220D01*
X182436666Y-92393553D02*
X182436666Y-93060220D01*
X182198571Y-92012601D02*
X181960476Y-92726886D01*
X181960476Y-92726886D02*
X182579523Y-92726886D01*
X160733333Y-82015220D02*
X160400000Y-81539029D01*
X160161905Y-82015220D02*
X160161905Y-81015220D01*
X160161905Y-81015220D02*
X160542857Y-81015220D01*
X160542857Y-81015220D02*
X160638095Y-81062839D01*
X160638095Y-81062839D02*
X160685714Y-81110458D01*
X160685714Y-81110458D02*
X160733333Y-81205696D01*
X160733333Y-81205696D02*
X160733333Y-81348553D01*
X160733333Y-81348553D02*
X160685714Y-81443791D01*
X160685714Y-81443791D02*
X160638095Y-81491410D01*
X160638095Y-81491410D02*
X160542857Y-81539029D01*
X160542857Y-81539029D02*
X160161905Y-81539029D01*
X161685714Y-82015220D02*
X161114286Y-82015220D01*
X161400000Y-82015220D02*
X161400000Y-81015220D01*
X161400000Y-81015220D02*
X161304762Y-81158077D01*
X161304762Y-81158077D02*
X161209524Y-81253315D01*
X161209524Y-81253315D02*
X161114286Y-81300934D01*
X169603333Y-71960220D02*
X169270000Y-71484029D01*
X169031905Y-71960220D02*
X169031905Y-70960220D01*
X169031905Y-70960220D02*
X169412857Y-70960220D01*
X169412857Y-70960220D02*
X169508095Y-71007839D01*
X169508095Y-71007839D02*
X169555714Y-71055458D01*
X169555714Y-71055458D02*
X169603333Y-71150696D01*
X169603333Y-71150696D02*
X169603333Y-71293553D01*
X169603333Y-71293553D02*
X169555714Y-71388791D01*
X169555714Y-71388791D02*
X169508095Y-71436410D01*
X169508095Y-71436410D02*
X169412857Y-71484029D01*
X169412857Y-71484029D02*
X169031905Y-71484029D01*
X169936667Y-70960220D02*
X170603333Y-70960220D01*
X170603333Y-70960220D02*
X170174762Y-71960220D01*
X172108095Y-113460220D02*
X172108095Y-114269743D01*
X172108095Y-114269743D02*
X172155714Y-114364981D01*
X172155714Y-114364981D02*
X172203333Y-114412601D01*
X172203333Y-114412601D02*
X172298571Y-114460220D01*
X172298571Y-114460220D02*
X172489047Y-114460220D01*
X172489047Y-114460220D02*
X172584285Y-114412601D01*
X172584285Y-114412601D02*
X172631904Y-114364981D01*
X172631904Y-114364981D02*
X172679523Y-114269743D01*
X172679523Y-114269743D02*
X172679523Y-113460220D01*
X173584285Y-113793553D02*
X173584285Y-114460220D01*
X173346190Y-113412601D02*
X173108095Y-114126886D01*
X173108095Y-114126886D02*
X173727142Y-114126886D01*
X195703095Y-101905220D02*
X195703095Y-102714743D01*
X195703095Y-102714743D02*
X195750714Y-102809981D01*
X195750714Y-102809981D02*
X195798333Y-102857601D01*
X195798333Y-102857601D02*
X195893571Y-102905220D01*
X195893571Y-102905220D02*
X196084047Y-102905220D01*
X196084047Y-102905220D02*
X196179285Y-102857601D01*
X196179285Y-102857601D02*
X196226904Y-102809981D01*
X196226904Y-102809981D02*
X196274523Y-102714743D01*
X196274523Y-102714743D02*
X196274523Y-101905220D01*
X197226904Y-101905220D02*
X196750714Y-101905220D01*
X196750714Y-101905220D02*
X196703095Y-102381410D01*
X196703095Y-102381410D02*
X196750714Y-102333791D01*
X196750714Y-102333791D02*
X196845952Y-102286172D01*
X196845952Y-102286172D02*
X197084047Y-102286172D01*
X197084047Y-102286172D02*
X197179285Y-102333791D01*
X197179285Y-102333791D02*
X197226904Y-102381410D01*
X197226904Y-102381410D02*
X197274523Y-102476648D01*
X197274523Y-102476648D02*
X197274523Y-102714743D01*
X197274523Y-102714743D02*
X197226904Y-102809981D01*
X197226904Y-102809981D02*
X197179285Y-102857601D01*
X197179285Y-102857601D02*
X197084047Y-102905220D01*
X197084047Y-102905220D02*
X196845952Y-102905220D01*
X196845952Y-102905220D02*
X196750714Y-102857601D01*
X196750714Y-102857601D02*
X196703095Y-102809981D01*
X129154819Y-99542857D02*
X128678628Y-99876190D01*
X129154819Y-100114285D02*
X128154819Y-100114285D01*
X128154819Y-100114285D02*
X128154819Y-99733333D01*
X128154819Y-99733333D02*
X128202438Y-99638095D01*
X128202438Y-99638095D02*
X128250057Y-99590476D01*
X128250057Y-99590476D02*
X128345295Y-99542857D01*
X128345295Y-99542857D02*
X128488152Y-99542857D01*
X128488152Y-99542857D02*
X128583390Y-99590476D01*
X128583390Y-99590476D02*
X128631009Y-99638095D01*
X128631009Y-99638095D02*
X128678628Y-99733333D01*
X128678628Y-99733333D02*
X128678628Y-100114285D01*
X128250057Y-99161904D02*
X128202438Y-99114285D01*
X128202438Y-99114285D02*
X128154819Y-99019047D01*
X128154819Y-99019047D02*
X128154819Y-98780952D01*
X128154819Y-98780952D02*
X128202438Y-98685714D01*
X128202438Y-98685714D02*
X128250057Y-98638095D01*
X128250057Y-98638095D02*
X128345295Y-98590476D01*
X128345295Y-98590476D02*
X128440533Y-98590476D01*
X128440533Y-98590476D02*
X128583390Y-98638095D01*
X128583390Y-98638095D02*
X129154819Y-99209523D01*
X129154819Y-99209523D02*
X129154819Y-98590476D01*
X128154819Y-97971428D02*
X128154819Y-97876190D01*
X128154819Y-97876190D02*
X128202438Y-97780952D01*
X128202438Y-97780952D02*
X128250057Y-97733333D01*
X128250057Y-97733333D02*
X128345295Y-97685714D01*
X128345295Y-97685714D02*
X128535771Y-97638095D01*
X128535771Y-97638095D02*
X128773866Y-97638095D01*
X128773866Y-97638095D02*
X128964342Y-97685714D01*
X128964342Y-97685714D02*
X129059580Y-97733333D01*
X129059580Y-97733333D02*
X129107200Y-97780952D01*
X129107200Y-97780952D02*
X129154819Y-97876190D01*
X129154819Y-97876190D02*
X129154819Y-97971428D01*
X129154819Y-97971428D02*
X129107200Y-98066666D01*
X129107200Y-98066666D02*
X129059580Y-98114285D01*
X129059580Y-98114285D02*
X128964342Y-98161904D01*
X128964342Y-98161904D02*
X128773866Y-98209523D01*
X128773866Y-98209523D02*
X128535771Y-98209523D01*
X128535771Y-98209523D02*
X128345295Y-98161904D01*
X128345295Y-98161904D02*
X128250057Y-98114285D01*
X128250057Y-98114285D02*
X128202438Y-98066666D01*
X128202438Y-98066666D02*
X128154819Y-97971428D01*
X192468333Y-118870220D02*
X191992143Y-118870220D01*
X191992143Y-118870220D02*
X191992143Y-117870220D01*
X192754048Y-117965458D02*
X192801667Y-117917839D01*
X192801667Y-117917839D02*
X192896905Y-117870220D01*
X192896905Y-117870220D02*
X193135000Y-117870220D01*
X193135000Y-117870220D02*
X193230238Y-117917839D01*
X193230238Y-117917839D02*
X193277857Y-117965458D01*
X193277857Y-117965458D02*
X193325476Y-118060696D01*
X193325476Y-118060696D02*
X193325476Y-118155934D01*
X193325476Y-118155934D02*
X193277857Y-118298791D01*
X193277857Y-118298791D02*
X192706429Y-118870220D01*
X192706429Y-118870220D02*
X193325476Y-118870220D01*
X175024819Y-112148258D02*
X174548628Y-112481591D01*
X175024819Y-112719686D02*
X174024819Y-112719686D01*
X174024819Y-112719686D02*
X174024819Y-112338734D01*
X174024819Y-112338734D02*
X174072438Y-112243496D01*
X174072438Y-112243496D02*
X174120057Y-112195877D01*
X174120057Y-112195877D02*
X174215295Y-112148258D01*
X174215295Y-112148258D02*
X174358152Y-112148258D01*
X174358152Y-112148258D02*
X174453390Y-112195877D01*
X174453390Y-112195877D02*
X174501009Y-112243496D01*
X174501009Y-112243496D02*
X174548628Y-112338734D01*
X174548628Y-112338734D02*
X174548628Y-112719686D01*
X175024819Y-111195877D02*
X175024819Y-111767305D01*
X175024819Y-111481591D02*
X174024819Y-111481591D01*
X174024819Y-111481591D02*
X174167676Y-111576829D01*
X174167676Y-111576829D02*
X174262914Y-111672067D01*
X174262914Y-111672067D02*
X174310533Y-111767305D01*
X174453390Y-110624448D02*
X174405771Y-110719686D01*
X174405771Y-110719686D02*
X174358152Y-110767305D01*
X174358152Y-110767305D02*
X174262914Y-110814924D01*
X174262914Y-110814924D02*
X174215295Y-110814924D01*
X174215295Y-110814924D02*
X174120057Y-110767305D01*
X174120057Y-110767305D02*
X174072438Y-110719686D01*
X174072438Y-110719686D02*
X174024819Y-110624448D01*
X174024819Y-110624448D02*
X174024819Y-110433972D01*
X174024819Y-110433972D02*
X174072438Y-110338734D01*
X174072438Y-110338734D02*
X174120057Y-110291115D01*
X174120057Y-110291115D02*
X174215295Y-110243496D01*
X174215295Y-110243496D02*
X174262914Y-110243496D01*
X174262914Y-110243496D02*
X174358152Y-110291115D01*
X174358152Y-110291115D02*
X174405771Y-110338734D01*
X174405771Y-110338734D02*
X174453390Y-110433972D01*
X174453390Y-110433972D02*
X174453390Y-110624448D01*
X174453390Y-110624448D02*
X174501009Y-110719686D01*
X174501009Y-110719686D02*
X174548628Y-110767305D01*
X174548628Y-110767305D02*
X174643866Y-110814924D01*
X174643866Y-110814924D02*
X174834342Y-110814924D01*
X174834342Y-110814924D02*
X174929580Y-110767305D01*
X174929580Y-110767305D02*
X174977200Y-110719686D01*
X174977200Y-110719686D02*
X175024819Y-110624448D01*
X175024819Y-110624448D02*
X175024819Y-110433972D01*
X175024819Y-110433972D02*
X174977200Y-110338734D01*
X174977200Y-110338734D02*
X174929580Y-110291115D01*
X174929580Y-110291115D02*
X174834342Y-110243496D01*
X174834342Y-110243496D02*
X174643866Y-110243496D01*
X174643866Y-110243496D02*
X174548628Y-110291115D01*
X174548628Y-110291115D02*
X174501009Y-110338734D01*
X174501009Y-110338734D02*
X174453390Y-110433972D01*
X166524580Y-106893258D02*
X166572200Y-106940877D01*
X166572200Y-106940877D02*
X166619819Y-107083734D01*
X166619819Y-107083734D02*
X166619819Y-107178972D01*
X166619819Y-107178972D02*
X166572200Y-107321829D01*
X166572200Y-107321829D02*
X166476961Y-107417067D01*
X166476961Y-107417067D02*
X166381723Y-107464686D01*
X166381723Y-107464686D02*
X166191247Y-107512305D01*
X166191247Y-107512305D02*
X166048390Y-107512305D01*
X166048390Y-107512305D02*
X165857914Y-107464686D01*
X165857914Y-107464686D02*
X165762676Y-107417067D01*
X165762676Y-107417067D02*
X165667438Y-107321829D01*
X165667438Y-107321829D02*
X165619819Y-107178972D01*
X165619819Y-107178972D02*
X165619819Y-107083734D01*
X165619819Y-107083734D02*
X165667438Y-106940877D01*
X165667438Y-106940877D02*
X165715057Y-106893258D01*
X166619819Y-105940877D02*
X166619819Y-106512305D01*
X166619819Y-106226591D02*
X165619819Y-106226591D01*
X165619819Y-106226591D02*
X165762676Y-106321829D01*
X165762676Y-106321829D02*
X165857914Y-106417067D01*
X165857914Y-106417067D02*
X165905533Y-106512305D01*
X165953152Y-105083734D02*
X166619819Y-105083734D01*
X165572200Y-105321829D02*
X166286485Y-105559924D01*
X166286485Y-105559924D02*
X166286485Y-104940877D01*
X192097142Y-127440220D02*
X191763809Y-126964029D01*
X191525714Y-127440220D02*
X191525714Y-126440220D01*
X191525714Y-126440220D02*
X191906666Y-126440220D01*
X191906666Y-126440220D02*
X192001904Y-126487839D01*
X192001904Y-126487839D02*
X192049523Y-126535458D01*
X192049523Y-126535458D02*
X192097142Y-126630696D01*
X192097142Y-126630696D02*
X192097142Y-126773553D01*
X192097142Y-126773553D02*
X192049523Y-126868791D01*
X192049523Y-126868791D02*
X192001904Y-126916410D01*
X192001904Y-126916410D02*
X191906666Y-126964029D01*
X191906666Y-126964029D02*
X191525714Y-126964029D01*
X193049523Y-127440220D02*
X192478095Y-127440220D01*
X192763809Y-127440220D02*
X192763809Y-126440220D01*
X192763809Y-126440220D02*
X192668571Y-126583077D01*
X192668571Y-126583077D02*
X192573333Y-126678315D01*
X192573333Y-126678315D02*
X192478095Y-126725934D01*
X194001904Y-127440220D02*
X193430476Y-127440220D01*
X193716190Y-127440220D02*
X193716190Y-126440220D01*
X193716190Y-126440220D02*
X193620952Y-126583077D01*
X193620952Y-126583077D02*
X193525714Y-126678315D01*
X193525714Y-126678315D02*
X193430476Y-126725934D01*
X166108095Y-79660220D02*
X166108095Y-80469743D01*
X166108095Y-80469743D02*
X166155714Y-80564981D01*
X166155714Y-80564981D02*
X166203333Y-80612601D01*
X166203333Y-80612601D02*
X166298571Y-80660220D01*
X166298571Y-80660220D02*
X166489047Y-80660220D01*
X166489047Y-80660220D02*
X166584285Y-80612601D01*
X166584285Y-80612601D02*
X166631904Y-80564981D01*
X166631904Y-80564981D02*
X166679523Y-80469743D01*
X166679523Y-80469743D02*
X166679523Y-79660220D01*
X167108095Y-79755458D02*
X167155714Y-79707839D01*
X167155714Y-79707839D02*
X167250952Y-79660220D01*
X167250952Y-79660220D02*
X167489047Y-79660220D01*
X167489047Y-79660220D02*
X167584285Y-79707839D01*
X167584285Y-79707839D02*
X167631904Y-79755458D01*
X167631904Y-79755458D02*
X167679523Y-79850696D01*
X167679523Y-79850696D02*
X167679523Y-79945934D01*
X167679523Y-79945934D02*
X167631904Y-80088791D01*
X167631904Y-80088791D02*
X167060476Y-80660220D01*
X167060476Y-80660220D02*
X167679523Y-80660220D01*
X112001905Y-103584819D02*
X112001905Y-102584819D01*
X112001905Y-102584819D02*
X112240000Y-102584819D01*
X112240000Y-102584819D02*
X112382857Y-102632438D01*
X112382857Y-102632438D02*
X112478095Y-102727676D01*
X112478095Y-102727676D02*
X112525714Y-102822914D01*
X112525714Y-102822914D02*
X112573333Y-103013390D01*
X112573333Y-103013390D02*
X112573333Y-103156247D01*
X112573333Y-103156247D02*
X112525714Y-103346723D01*
X112525714Y-103346723D02*
X112478095Y-103441961D01*
X112478095Y-103441961D02*
X112382857Y-103537200D01*
X112382857Y-103537200D02*
X112240000Y-103584819D01*
X112240000Y-103584819D02*
X112001905Y-103584819D01*
X112906667Y-102584819D02*
X113525714Y-102584819D01*
X113525714Y-102584819D02*
X113192381Y-102965771D01*
X113192381Y-102965771D02*
X113335238Y-102965771D01*
X113335238Y-102965771D02*
X113430476Y-103013390D01*
X113430476Y-103013390D02*
X113478095Y-103061009D01*
X113478095Y-103061009D02*
X113525714Y-103156247D01*
X113525714Y-103156247D02*
X113525714Y-103394342D01*
X113525714Y-103394342D02*
X113478095Y-103489580D01*
X113478095Y-103489580D02*
X113430476Y-103537200D01*
X113430476Y-103537200D02*
X113335238Y-103584819D01*
X113335238Y-103584819D02*
X113049524Y-103584819D01*
X113049524Y-103584819D02*
X112954286Y-103537200D01*
X112954286Y-103537200D02*
X112906667Y-103489580D01*
X113694819Y-99191904D02*
X112694819Y-99191904D01*
X113694819Y-98620476D02*
X113123390Y-99049047D01*
X112694819Y-98620476D02*
X113266247Y-99191904D01*
X129838095Y-101154819D02*
X130409523Y-101154819D01*
X130123809Y-102154819D02*
X130123809Y-101154819D01*
X130742857Y-102154819D02*
X130742857Y-101154819D01*
X130742857Y-101154819D02*
X131123809Y-101154819D01*
X131123809Y-101154819D02*
X131219047Y-101202438D01*
X131219047Y-101202438D02*
X131266666Y-101250057D01*
X131266666Y-101250057D02*
X131314285Y-101345295D01*
X131314285Y-101345295D02*
X131314285Y-101488152D01*
X131314285Y-101488152D02*
X131266666Y-101583390D01*
X131266666Y-101583390D02*
X131219047Y-101631009D01*
X131219047Y-101631009D02*
X131123809Y-101678628D01*
X131123809Y-101678628D02*
X130742857Y-101678628D01*
X131790476Y-102154819D02*
X131980952Y-102154819D01*
X131980952Y-102154819D02*
X132076190Y-102107200D01*
X132076190Y-102107200D02*
X132123809Y-102059580D01*
X132123809Y-102059580D02*
X132219047Y-101916723D01*
X132219047Y-101916723D02*
X132266666Y-101726247D01*
X132266666Y-101726247D02*
X132266666Y-101345295D01*
X132266666Y-101345295D02*
X132219047Y-101250057D01*
X132219047Y-101250057D02*
X132171428Y-101202438D01*
X132171428Y-101202438D02*
X132076190Y-101154819D01*
X132076190Y-101154819D02*
X131885714Y-101154819D01*
X131885714Y-101154819D02*
X131790476Y-101202438D01*
X131790476Y-101202438D02*
X131742857Y-101250057D01*
X131742857Y-101250057D02*
X131695238Y-101345295D01*
X131695238Y-101345295D02*
X131695238Y-101583390D01*
X131695238Y-101583390D02*
X131742857Y-101678628D01*
X131742857Y-101678628D02*
X131790476Y-101726247D01*
X131790476Y-101726247D02*
X131885714Y-101773866D01*
X131885714Y-101773866D02*
X132076190Y-101773866D01*
X132076190Y-101773866D02*
X132171428Y-101726247D01*
X132171428Y-101726247D02*
X132219047Y-101678628D01*
X132219047Y-101678628D02*
X132266666Y-101583390D01*
X179019819Y-100478258D02*
X178543628Y-100811591D01*
X179019819Y-101049686D02*
X178019819Y-101049686D01*
X178019819Y-101049686D02*
X178019819Y-100668734D01*
X178019819Y-100668734D02*
X178067438Y-100573496D01*
X178067438Y-100573496D02*
X178115057Y-100525877D01*
X178115057Y-100525877D02*
X178210295Y-100478258D01*
X178210295Y-100478258D02*
X178353152Y-100478258D01*
X178353152Y-100478258D02*
X178448390Y-100525877D01*
X178448390Y-100525877D02*
X178496009Y-100573496D01*
X178496009Y-100573496D02*
X178543628Y-100668734D01*
X178543628Y-100668734D02*
X178543628Y-101049686D01*
X179019819Y-99525877D02*
X179019819Y-100097305D01*
X179019819Y-99811591D02*
X178019819Y-99811591D01*
X178019819Y-99811591D02*
X178162676Y-99906829D01*
X178162676Y-99906829D02*
X178257914Y-100002067D01*
X178257914Y-100002067D02*
X178305533Y-100097305D01*
X178019819Y-98668734D02*
X178019819Y-98859210D01*
X178019819Y-98859210D02*
X178067438Y-98954448D01*
X178067438Y-98954448D02*
X178115057Y-99002067D01*
X178115057Y-99002067D02*
X178257914Y-99097305D01*
X178257914Y-99097305D02*
X178448390Y-99144924D01*
X178448390Y-99144924D02*
X178829342Y-99144924D01*
X178829342Y-99144924D02*
X178924580Y-99097305D01*
X178924580Y-99097305D02*
X178972200Y-99049686D01*
X178972200Y-99049686D02*
X179019819Y-98954448D01*
X179019819Y-98954448D02*
X179019819Y-98763972D01*
X179019819Y-98763972D02*
X178972200Y-98668734D01*
X178972200Y-98668734D02*
X178924580Y-98621115D01*
X178924580Y-98621115D02*
X178829342Y-98573496D01*
X178829342Y-98573496D02*
X178591247Y-98573496D01*
X178591247Y-98573496D02*
X178496009Y-98621115D01*
X178496009Y-98621115D02*
X178448390Y-98668734D01*
X178448390Y-98668734D02*
X178400771Y-98763972D01*
X178400771Y-98763972D02*
X178400771Y-98954448D01*
X178400771Y-98954448D02*
X178448390Y-99049686D01*
X178448390Y-99049686D02*
X178496009Y-99097305D01*
X178496009Y-99097305D02*
X178591247Y-99144924D01*
X118038095Y-84754819D02*
X118609523Y-84754819D01*
X118323809Y-85754819D02*
X118323809Y-84754819D01*
X118942857Y-85754819D02*
X118942857Y-84754819D01*
X118942857Y-84754819D02*
X119323809Y-84754819D01*
X119323809Y-84754819D02*
X119419047Y-84802438D01*
X119419047Y-84802438D02*
X119466666Y-84850057D01*
X119466666Y-84850057D02*
X119514285Y-84945295D01*
X119514285Y-84945295D02*
X119514285Y-85088152D01*
X119514285Y-85088152D02*
X119466666Y-85183390D01*
X119466666Y-85183390D02*
X119419047Y-85231009D01*
X119419047Y-85231009D02*
X119323809Y-85278628D01*
X119323809Y-85278628D02*
X118942857Y-85278628D01*
X119895238Y-84850057D02*
X119942857Y-84802438D01*
X119942857Y-84802438D02*
X120038095Y-84754819D01*
X120038095Y-84754819D02*
X120276190Y-84754819D01*
X120276190Y-84754819D02*
X120371428Y-84802438D01*
X120371428Y-84802438D02*
X120419047Y-84850057D01*
X120419047Y-84850057D02*
X120466666Y-84945295D01*
X120466666Y-84945295D02*
X120466666Y-85040533D01*
X120466666Y-85040533D02*
X120419047Y-85183390D01*
X120419047Y-85183390D02*
X119847619Y-85754819D01*
X119847619Y-85754819D02*
X120466666Y-85754819D01*
X99477833Y-92259481D02*
X99430214Y-92307101D01*
X99430214Y-92307101D02*
X99287357Y-92354720D01*
X99287357Y-92354720D02*
X99192119Y-92354720D01*
X99192119Y-92354720D02*
X99049262Y-92307101D01*
X99049262Y-92307101D02*
X98954024Y-92211862D01*
X98954024Y-92211862D02*
X98906405Y-92116624D01*
X98906405Y-92116624D02*
X98858786Y-91926148D01*
X98858786Y-91926148D02*
X98858786Y-91783291D01*
X98858786Y-91783291D02*
X98906405Y-91592815D01*
X98906405Y-91592815D02*
X98954024Y-91497577D01*
X98954024Y-91497577D02*
X99049262Y-91402339D01*
X99049262Y-91402339D02*
X99192119Y-91354720D01*
X99192119Y-91354720D02*
X99287357Y-91354720D01*
X99287357Y-91354720D02*
X99430214Y-91402339D01*
X99430214Y-91402339D02*
X99477833Y-91449958D01*
X100334976Y-91688053D02*
X100334976Y-92354720D01*
X100096881Y-91307101D02*
X99858786Y-92021386D01*
X99858786Y-92021386D02*
X100477833Y-92021386D01*
X200889819Y-103777067D02*
X200413628Y-104110400D01*
X200889819Y-104348495D02*
X199889819Y-104348495D01*
X199889819Y-104348495D02*
X199889819Y-103967543D01*
X199889819Y-103967543D02*
X199937438Y-103872305D01*
X199937438Y-103872305D02*
X199985057Y-103824686D01*
X199985057Y-103824686D02*
X200080295Y-103777067D01*
X200080295Y-103777067D02*
X200223152Y-103777067D01*
X200223152Y-103777067D02*
X200318390Y-103824686D01*
X200318390Y-103824686D02*
X200366009Y-103872305D01*
X200366009Y-103872305D02*
X200413628Y-103967543D01*
X200413628Y-103967543D02*
X200413628Y-104348495D01*
X199985057Y-103396114D02*
X199937438Y-103348495D01*
X199937438Y-103348495D02*
X199889819Y-103253257D01*
X199889819Y-103253257D02*
X199889819Y-103015162D01*
X199889819Y-103015162D02*
X199937438Y-102919924D01*
X199937438Y-102919924D02*
X199985057Y-102872305D01*
X199985057Y-102872305D02*
X200080295Y-102824686D01*
X200080295Y-102824686D02*
X200175533Y-102824686D01*
X200175533Y-102824686D02*
X200318390Y-102872305D01*
X200318390Y-102872305D02*
X200889819Y-103443733D01*
X200889819Y-103443733D02*
X200889819Y-102824686D01*
X173369761Y-97760458D02*
X173274523Y-97712839D01*
X173274523Y-97712839D02*
X173179285Y-97617601D01*
X173179285Y-97617601D02*
X173036428Y-97474743D01*
X173036428Y-97474743D02*
X172941190Y-97427124D01*
X172941190Y-97427124D02*
X172845952Y-97427124D01*
X172893571Y-97665220D02*
X172798333Y-97617601D01*
X172798333Y-97617601D02*
X172703095Y-97522362D01*
X172703095Y-97522362D02*
X172655476Y-97331886D01*
X172655476Y-97331886D02*
X172655476Y-96998553D01*
X172655476Y-96998553D02*
X172703095Y-96808077D01*
X172703095Y-96808077D02*
X172798333Y-96712839D01*
X172798333Y-96712839D02*
X172893571Y-96665220D01*
X172893571Y-96665220D02*
X173084047Y-96665220D01*
X173084047Y-96665220D02*
X173179285Y-96712839D01*
X173179285Y-96712839D02*
X173274523Y-96808077D01*
X173274523Y-96808077D02*
X173322142Y-96998553D01*
X173322142Y-96998553D02*
X173322142Y-97331886D01*
X173322142Y-97331886D02*
X173274523Y-97522362D01*
X173274523Y-97522362D02*
X173179285Y-97617601D01*
X173179285Y-97617601D02*
X173084047Y-97665220D01*
X173084047Y-97665220D02*
X172893571Y-97665220D01*
X173655476Y-96665220D02*
X174274523Y-96665220D01*
X174274523Y-96665220D02*
X173941190Y-97046172D01*
X173941190Y-97046172D02*
X174084047Y-97046172D01*
X174084047Y-97046172D02*
X174179285Y-97093791D01*
X174179285Y-97093791D02*
X174226904Y-97141410D01*
X174226904Y-97141410D02*
X174274523Y-97236648D01*
X174274523Y-97236648D02*
X174274523Y-97474743D01*
X174274523Y-97474743D02*
X174226904Y-97569981D01*
X174226904Y-97569981D02*
X174179285Y-97617601D01*
X174179285Y-97617601D02*
X174084047Y-97665220D01*
X174084047Y-97665220D02*
X173798333Y-97665220D01*
X173798333Y-97665220D02*
X173703095Y-97617601D01*
X173703095Y-97617601D02*
X173655476Y-97569981D01*
X117708095Y-102179418D02*
X117708095Y-102988941D01*
X117708095Y-102988941D02*
X117755714Y-103084179D01*
X117755714Y-103084179D02*
X117803333Y-103131799D01*
X117803333Y-103131799D02*
X117898571Y-103179418D01*
X117898571Y-103179418D02*
X118089047Y-103179418D01*
X118089047Y-103179418D02*
X118184285Y-103131799D01*
X118184285Y-103131799D02*
X118231904Y-103084179D01*
X118231904Y-103084179D02*
X118279523Y-102988941D01*
X118279523Y-102988941D02*
X118279523Y-102179418D01*
X118660476Y-102179418D02*
X119279523Y-102179418D01*
X119279523Y-102179418D02*
X118946190Y-102560370D01*
X118946190Y-102560370D02*
X119089047Y-102560370D01*
X119089047Y-102560370D02*
X119184285Y-102607989D01*
X119184285Y-102607989D02*
X119231904Y-102655608D01*
X119231904Y-102655608D02*
X119279523Y-102750846D01*
X119279523Y-102750846D02*
X119279523Y-102988941D01*
X119279523Y-102988941D02*
X119231904Y-103084179D01*
X119231904Y-103084179D02*
X119184285Y-103131799D01*
X119184285Y-103131799D02*
X119089047Y-103179418D01*
X119089047Y-103179418D02*
X118803333Y-103179418D01*
X118803333Y-103179418D02*
X118708095Y-103131799D01*
X118708095Y-103131799D02*
X118660476Y-103084179D01*
X98424819Y-119338734D02*
X99139104Y-119338734D01*
X99139104Y-119338734D02*
X99281961Y-119386353D01*
X99281961Y-119386353D02*
X99377200Y-119481591D01*
X99377200Y-119481591D02*
X99424819Y-119624448D01*
X99424819Y-119624448D02*
X99424819Y-119719686D01*
X98424819Y-118957781D02*
X98424819Y-118338734D01*
X98424819Y-118338734D02*
X98805771Y-118672067D01*
X98805771Y-118672067D02*
X98805771Y-118529210D01*
X98805771Y-118529210D02*
X98853390Y-118433972D01*
X98853390Y-118433972D02*
X98901009Y-118386353D01*
X98901009Y-118386353D02*
X98996247Y-118338734D01*
X98996247Y-118338734D02*
X99234342Y-118338734D01*
X99234342Y-118338734D02*
X99329580Y-118386353D01*
X99329580Y-118386353D02*
X99377200Y-118433972D01*
X99377200Y-118433972D02*
X99424819Y-118529210D01*
X99424819Y-118529210D02*
X99424819Y-118814924D01*
X99424819Y-118814924D02*
X99377200Y-118910162D01*
X99377200Y-118910162D02*
X99329580Y-118957781D01*
X193697142Y-113144981D02*
X193649523Y-113192601D01*
X193649523Y-113192601D02*
X193506666Y-113240220D01*
X193506666Y-113240220D02*
X193411428Y-113240220D01*
X193411428Y-113240220D02*
X193268571Y-113192601D01*
X193268571Y-113192601D02*
X193173333Y-113097362D01*
X193173333Y-113097362D02*
X193125714Y-113002124D01*
X193125714Y-113002124D02*
X193078095Y-112811648D01*
X193078095Y-112811648D02*
X193078095Y-112668791D01*
X193078095Y-112668791D02*
X193125714Y-112478315D01*
X193125714Y-112478315D02*
X193173333Y-112383077D01*
X193173333Y-112383077D02*
X193268571Y-112287839D01*
X193268571Y-112287839D02*
X193411428Y-112240220D01*
X193411428Y-112240220D02*
X193506666Y-112240220D01*
X193506666Y-112240220D02*
X193649523Y-112287839D01*
X193649523Y-112287839D02*
X193697142Y-112335458D01*
X194649523Y-113240220D02*
X194078095Y-113240220D01*
X194363809Y-113240220D02*
X194363809Y-112240220D01*
X194363809Y-112240220D02*
X194268571Y-112383077D01*
X194268571Y-112383077D02*
X194173333Y-112478315D01*
X194173333Y-112478315D02*
X194078095Y-112525934D01*
X194982857Y-112240220D02*
X195601904Y-112240220D01*
X195601904Y-112240220D02*
X195268571Y-112621172D01*
X195268571Y-112621172D02*
X195411428Y-112621172D01*
X195411428Y-112621172D02*
X195506666Y-112668791D01*
X195506666Y-112668791D02*
X195554285Y-112716410D01*
X195554285Y-112716410D02*
X195601904Y-112811648D01*
X195601904Y-112811648D02*
X195601904Y-113049743D01*
X195601904Y-113049743D02*
X195554285Y-113144981D01*
X195554285Y-113144981D02*
X195506666Y-113192601D01*
X195506666Y-113192601D02*
X195411428Y-113240220D01*
X195411428Y-113240220D02*
X195125714Y-113240220D01*
X195125714Y-113240220D02*
X195030476Y-113192601D01*
X195030476Y-113192601D02*
X194982857Y-113144981D01*
X177724819Y-89672067D02*
X177248628Y-90005400D01*
X177724819Y-90243495D02*
X176724819Y-90243495D01*
X176724819Y-90243495D02*
X176724819Y-89862543D01*
X176724819Y-89862543D02*
X176772438Y-89767305D01*
X176772438Y-89767305D02*
X176820057Y-89719686D01*
X176820057Y-89719686D02*
X176915295Y-89672067D01*
X176915295Y-89672067D02*
X177058152Y-89672067D01*
X177058152Y-89672067D02*
X177153390Y-89719686D01*
X177153390Y-89719686D02*
X177201009Y-89767305D01*
X177201009Y-89767305D02*
X177248628Y-89862543D01*
X177248628Y-89862543D02*
X177248628Y-90243495D01*
X177058152Y-88814924D02*
X177724819Y-88814924D01*
X176677200Y-89053019D02*
X177391485Y-89291114D01*
X177391485Y-89291114D02*
X177391485Y-88672067D01*
X182427142Y-86564981D02*
X182379523Y-86612601D01*
X182379523Y-86612601D02*
X182236666Y-86660220D01*
X182236666Y-86660220D02*
X182141428Y-86660220D01*
X182141428Y-86660220D02*
X181998571Y-86612601D01*
X181998571Y-86612601D02*
X181903333Y-86517362D01*
X181903333Y-86517362D02*
X181855714Y-86422124D01*
X181855714Y-86422124D02*
X181808095Y-86231648D01*
X181808095Y-86231648D02*
X181808095Y-86088791D01*
X181808095Y-86088791D02*
X181855714Y-85898315D01*
X181855714Y-85898315D02*
X181903333Y-85803077D01*
X181903333Y-85803077D02*
X181998571Y-85707839D01*
X181998571Y-85707839D02*
X182141428Y-85660220D01*
X182141428Y-85660220D02*
X182236666Y-85660220D01*
X182236666Y-85660220D02*
X182379523Y-85707839D01*
X182379523Y-85707839D02*
X182427142Y-85755458D01*
X183379523Y-86660220D02*
X182808095Y-86660220D01*
X183093809Y-86660220D02*
X183093809Y-85660220D01*
X183093809Y-85660220D02*
X182998571Y-85803077D01*
X182998571Y-85803077D02*
X182903333Y-85898315D01*
X182903333Y-85898315D02*
X182808095Y-85945934D01*
X184331904Y-86660220D02*
X183760476Y-86660220D01*
X184046190Y-86660220D02*
X184046190Y-85660220D01*
X184046190Y-85660220D02*
X183950952Y-85803077D01*
X183950952Y-85803077D02*
X183855714Y-85898315D01*
X183855714Y-85898315D02*
X183760476Y-85945934D01*
X204016666Y-112150220D02*
X204016666Y-112864505D01*
X204016666Y-112864505D02*
X203969047Y-113007362D01*
X203969047Y-113007362D02*
X203873809Y-113102601D01*
X203873809Y-113102601D02*
X203730952Y-113150220D01*
X203730952Y-113150220D02*
X203635714Y-113150220D01*
X204969047Y-112150220D02*
X204492857Y-112150220D01*
X204492857Y-112150220D02*
X204445238Y-112626410D01*
X204445238Y-112626410D02*
X204492857Y-112578791D01*
X204492857Y-112578791D02*
X204588095Y-112531172D01*
X204588095Y-112531172D02*
X204826190Y-112531172D01*
X204826190Y-112531172D02*
X204921428Y-112578791D01*
X204921428Y-112578791D02*
X204969047Y-112626410D01*
X204969047Y-112626410D02*
X205016666Y-112721648D01*
X205016666Y-112721648D02*
X205016666Y-112959743D01*
X205016666Y-112959743D02*
X204969047Y-113054981D01*
X204969047Y-113054981D02*
X204921428Y-113102601D01*
X204921428Y-113102601D02*
X204826190Y-113150220D01*
X204826190Y-113150220D02*
X204588095Y-113150220D01*
X204588095Y-113150220D02*
X204492857Y-113102601D01*
X204492857Y-113102601D02*
X204445238Y-113054981D01*
X147542142Y-113220220D02*
X147208809Y-112744029D01*
X146970714Y-113220220D02*
X146970714Y-112220220D01*
X146970714Y-112220220D02*
X147351666Y-112220220D01*
X147351666Y-112220220D02*
X147446904Y-112267839D01*
X147446904Y-112267839D02*
X147494523Y-112315458D01*
X147494523Y-112315458D02*
X147542142Y-112410696D01*
X147542142Y-112410696D02*
X147542142Y-112553553D01*
X147542142Y-112553553D02*
X147494523Y-112648791D01*
X147494523Y-112648791D02*
X147446904Y-112696410D01*
X147446904Y-112696410D02*
X147351666Y-112744029D01*
X147351666Y-112744029D02*
X146970714Y-112744029D01*
X148494523Y-113220220D02*
X147923095Y-113220220D01*
X148208809Y-113220220D02*
X148208809Y-112220220D01*
X148208809Y-112220220D02*
X148113571Y-112363077D01*
X148113571Y-112363077D02*
X148018333Y-112458315D01*
X148018333Y-112458315D02*
X147923095Y-112505934D01*
X148827857Y-112220220D02*
X149446904Y-112220220D01*
X149446904Y-112220220D02*
X149113571Y-112601172D01*
X149113571Y-112601172D02*
X149256428Y-112601172D01*
X149256428Y-112601172D02*
X149351666Y-112648791D01*
X149351666Y-112648791D02*
X149399285Y-112696410D01*
X149399285Y-112696410D02*
X149446904Y-112791648D01*
X149446904Y-112791648D02*
X149446904Y-113029743D01*
X149446904Y-113029743D02*
X149399285Y-113124981D01*
X149399285Y-113124981D02*
X149351666Y-113172601D01*
X149351666Y-113172601D02*
X149256428Y-113220220D01*
X149256428Y-113220220D02*
X148970714Y-113220220D01*
X148970714Y-113220220D02*
X148875476Y-113172601D01*
X148875476Y-113172601D02*
X148827857Y-113124981D01*
X128297142Y-108284819D02*
X127963809Y-107808628D01*
X127725714Y-108284819D02*
X127725714Y-107284819D01*
X127725714Y-107284819D02*
X128106666Y-107284819D01*
X128106666Y-107284819D02*
X128201904Y-107332438D01*
X128201904Y-107332438D02*
X128249523Y-107380057D01*
X128249523Y-107380057D02*
X128297142Y-107475295D01*
X128297142Y-107475295D02*
X128297142Y-107618152D01*
X128297142Y-107618152D02*
X128249523Y-107713390D01*
X128249523Y-107713390D02*
X128201904Y-107761009D01*
X128201904Y-107761009D02*
X128106666Y-107808628D01*
X128106666Y-107808628D02*
X127725714Y-107808628D01*
X128678095Y-107380057D02*
X128725714Y-107332438D01*
X128725714Y-107332438D02*
X128820952Y-107284819D01*
X128820952Y-107284819D02*
X129059047Y-107284819D01*
X129059047Y-107284819D02*
X129154285Y-107332438D01*
X129154285Y-107332438D02*
X129201904Y-107380057D01*
X129201904Y-107380057D02*
X129249523Y-107475295D01*
X129249523Y-107475295D02*
X129249523Y-107570533D01*
X129249523Y-107570533D02*
X129201904Y-107713390D01*
X129201904Y-107713390D02*
X128630476Y-108284819D01*
X128630476Y-108284819D02*
X129249523Y-108284819D01*
X130106666Y-107618152D02*
X130106666Y-108284819D01*
X129868571Y-107237200D02*
X129630476Y-107951485D01*
X129630476Y-107951485D02*
X130249523Y-107951485D01*
X201027142Y-120060220D02*
X200693809Y-119584029D01*
X200455714Y-120060220D02*
X200455714Y-119060220D01*
X200455714Y-119060220D02*
X200836666Y-119060220D01*
X200836666Y-119060220D02*
X200931904Y-119107839D01*
X200931904Y-119107839D02*
X200979523Y-119155458D01*
X200979523Y-119155458D02*
X201027142Y-119250696D01*
X201027142Y-119250696D02*
X201027142Y-119393553D01*
X201027142Y-119393553D02*
X200979523Y-119488791D01*
X200979523Y-119488791D02*
X200931904Y-119536410D01*
X200931904Y-119536410D02*
X200836666Y-119584029D01*
X200836666Y-119584029D02*
X200455714Y-119584029D01*
X201979523Y-120060220D02*
X201408095Y-120060220D01*
X201693809Y-120060220D02*
X201693809Y-119060220D01*
X201693809Y-119060220D02*
X201598571Y-119203077D01*
X201598571Y-119203077D02*
X201503333Y-119298315D01*
X201503333Y-119298315D02*
X201408095Y-119345934D01*
X202360476Y-119155458D02*
X202408095Y-119107839D01*
X202408095Y-119107839D02*
X202503333Y-119060220D01*
X202503333Y-119060220D02*
X202741428Y-119060220D01*
X202741428Y-119060220D02*
X202836666Y-119107839D01*
X202836666Y-119107839D02*
X202884285Y-119155458D01*
X202884285Y-119155458D02*
X202931904Y-119250696D01*
X202931904Y-119250696D02*
X202931904Y-119345934D01*
X202931904Y-119345934D02*
X202884285Y-119488791D01*
X202884285Y-119488791D02*
X202312857Y-120060220D01*
X202312857Y-120060220D02*
X202931904Y-120060220D01*
X181231905Y-113760220D02*
X181803333Y-113760220D01*
X181517619Y-114760220D02*
X181517619Y-113760220D01*
X182136667Y-114760220D02*
X182136667Y-113760220D01*
X182136667Y-113760220D02*
X182517619Y-113760220D01*
X182517619Y-113760220D02*
X182612857Y-113807839D01*
X182612857Y-113807839D02*
X182660476Y-113855458D01*
X182660476Y-113855458D02*
X182708095Y-113950696D01*
X182708095Y-113950696D02*
X182708095Y-114093553D01*
X182708095Y-114093553D02*
X182660476Y-114188791D01*
X182660476Y-114188791D02*
X182612857Y-114236410D01*
X182612857Y-114236410D02*
X182517619Y-114284029D01*
X182517619Y-114284029D02*
X182136667Y-114284029D01*
X183660476Y-114760220D02*
X183089048Y-114760220D01*
X183374762Y-114760220D02*
X183374762Y-113760220D01*
X183374762Y-113760220D02*
X183279524Y-113903077D01*
X183279524Y-113903077D02*
X183184286Y-113998315D01*
X183184286Y-113998315D02*
X183089048Y-114045934D01*
X184279524Y-113760220D02*
X184374762Y-113760220D01*
X184374762Y-113760220D02*
X184470000Y-113807839D01*
X184470000Y-113807839D02*
X184517619Y-113855458D01*
X184517619Y-113855458D02*
X184565238Y-113950696D01*
X184565238Y-113950696D02*
X184612857Y-114141172D01*
X184612857Y-114141172D02*
X184612857Y-114379267D01*
X184612857Y-114379267D02*
X184565238Y-114569743D01*
X184565238Y-114569743D02*
X184517619Y-114664981D01*
X184517619Y-114664981D02*
X184470000Y-114712601D01*
X184470000Y-114712601D02*
X184374762Y-114760220D01*
X184374762Y-114760220D02*
X184279524Y-114760220D01*
X184279524Y-114760220D02*
X184184286Y-114712601D01*
X184184286Y-114712601D02*
X184136667Y-114664981D01*
X184136667Y-114664981D02*
X184089048Y-114569743D01*
X184089048Y-114569743D02*
X184041429Y-114379267D01*
X184041429Y-114379267D02*
X184041429Y-114141172D01*
X184041429Y-114141172D02*
X184089048Y-113950696D01*
X184089048Y-113950696D02*
X184136667Y-113855458D01*
X184136667Y-113855458D02*
X184184286Y-113807839D01*
X184184286Y-113807839D02*
X184279524Y-113760220D01*
X115633333Y-110695220D02*
X115300000Y-110219029D01*
X115061905Y-110695220D02*
X115061905Y-109695220D01*
X115061905Y-109695220D02*
X115442857Y-109695220D01*
X115442857Y-109695220D02*
X115538095Y-109742839D01*
X115538095Y-109742839D02*
X115585714Y-109790458D01*
X115585714Y-109790458D02*
X115633333Y-109885696D01*
X115633333Y-109885696D02*
X115633333Y-110028553D01*
X115633333Y-110028553D02*
X115585714Y-110123791D01*
X115585714Y-110123791D02*
X115538095Y-110171410D01*
X115538095Y-110171410D02*
X115442857Y-110219029D01*
X115442857Y-110219029D02*
X115061905Y-110219029D01*
X115966667Y-109695220D02*
X116585714Y-109695220D01*
X116585714Y-109695220D02*
X116252381Y-110076172D01*
X116252381Y-110076172D02*
X116395238Y-110076172D01*
X116395238Y-110076172D02*
X116490476Y-110123791D01*
X116490476Y-110123791D02*
X116538095Y-110171410D01*
X116538095Y-110171410D02*
X116585714Y-110266648D01*
X116585714Y-110266648D02*
X116585714Y-110504743D01*
X116585714Y-110504743D02*
X116538095Y-110599981D01*
X116538095Y-110599981D02*
X116490476Y-110647601D01*
X116490476Y-110647601D02*
X116395238Y-110695220D01*
X116395238Y-110695220D02*
X116109524Y-110695220D01*
X116109524Y-110695220D02*
X116014286Y-110647601D01*
X116014286Y-110647601D02*
X115966667Y-110599981D01*
X147877142Y-86464981D02*
X147829523Y-86512601D01*
X147829523Y-86512601D02*
X147686666Y-86560220D01*
X147686666Y-86560220D02*
X147591428Y-86560220D01*
X147591428Y-86560220D02*
X147448571Y-86512601D01*
X147448571Y-86512601D02*
X147353333Y-86417362D01*
X147353333Y-86417362D02*
X147305714Y-86322124D01*
X147305714Y-86322124D02*
X147258095Y-86131648D01*
X147258095Y-86131648D02*
X147258095Y-85988791D01*
X147258095Y-85988791D02*
X147305714Y-85798315D01*
X147305714Y-85798315D02*
X147353333Y-85703077D01*
X147353333Y-85703077D02*
X147448571Y-85607839D01*
X147448571Y-85607839D02*
X147591428Y-85560220D01*
X147591428Y-85560220D02*
X147686666Y-85560220D01*
X147686666Y-85560220D02*
X147829523Y-85607839D01*
X147829523Y-85607839D02*
X147877142Y-85655458D01*
X148258095Y-85655458D02*
X148305714Y-85607839D01*
X148305714Y-85607839D02*
X148400952Y-85560220D01*
X148400952Y-85560220D02*
X148639047Y-85560220D01*
X148639047Y-85560220D02*
X148734285Y-85607839D01*
X148734285Y-85607839D02*
X148781904Y-85655458D01*
X148781904Y-85655458D02*
X148829523Y-85750696D01*
X148829523Y-85750696D02*
X148829523Y-85845934D01*
X148829523Y-85845934D02*
X148781904Y-85988791D01*
X148781904Y-85988791D02*
X148210476Y-86560220D01*
X148210476Y-86560220D02*
X148829523Y-86560220D01*
X149781904Y-86560220D02*
X149210476Y-86560220D01*
X149496190Y-86560220D02*
X149496190Y-85560220D01*
X149496190Y-85560220D02*
X149400952Y-85703077D01*
X149400952Y-85703077D02*
X149305714Y-85798315D01*
X149305714Y-85798315D02*
X149210476Y-85845934D01*
X163503333Y-71960220D02*
X163170000Y-71484029D01*
X162931905Y-71960220D02*
X162931905Y-70960220D01*
X162931905Y-70960220D02*
X163312857Y-70960220D01*
X163312857Y-70960220D02*
X163408095Y-71007839D01*
X163408095Y-71007839D02*
X163455714Y-71055458D01*
X163455714Y-71055458D02*
X163503333Y-71150696D01*
X163503333Y-71150696D02*
X163503333Y-71293553D01*
X163503333Y-71293553D02*
X163455714Y-71388791D01*
X163455714Y-71388791D02*
X163408095Y-71436410D01*
X163408095Y-71436410D02*
X163312857Y-71484029D01*
X163312857Y-71484029D02*
X162931905Y-71484029D01*
X164074762Y-71388791D02*
X163979524Y-71341172D01*
X163979524Y-71341172D02*
X163931905Y-71293553D01*
X163931905Y-71293553D02*
X163884286Y-71198315D01*
X163884286Y-71198315D02*
X163884286Y-71150696D01*
X163884286Y-71150696D02*
X163931905Y-71055458D01*
X163931905Y-71055458D02*
X163979524Y-71007839D01*
X163979524Y-71007839D02*
X164074762Y-70960220D01*
X164074762Y-70960220D02*
X164265238Y-70960220D01*
X164265238Y-70960220D02*
X164360476Y-71007839D01*
X164360476Y-71007839D02*
X164408095Y-71055458D01*
X164408095Y-71055458D02*
X164455714Y-71150696D01*
X164455714Y-71150696D02*
X164455714Y-71198315D01*
X164455714Y-71198315D02*
X164408095Y-71293553D01*
X164408095Y-71293553D02*
X164360476Y-71341172D01*
X164360476Y-71341172D02*
X164265238Y-71388791D01*
X164265238Y-71388791D02*
X164074762Y-71388791D01*
X164074762Y-71388791D02*
X163979524Y-71436410D01*
X163979524Y-71436410D02*
X163931905Y-71484029D01*
X163931905Y-71484029D02*
X163884286Y-71579267D01*
X163884286Y-71579267D02*
X163884286Y-71769743D01*
X163884286Y-71769743D02*
X163931905Y-71864981D01*
X163931905Y-71864981D02*
X163979524Y-71912601D01*
X163979524Y-71912601D02*
X164074762Y-71960220D01*
X164074762Y-71960220D02*
X164265238Y-71960220D01*
X164265238Y-71960220D02*
X164360476Y-71912601D01*
X164360476Y-71912601D02*
X164408095Y-71864981D01*
X164408095Y-71864981D02*
X164455714Y-71769743D01*
X164455714Y-71769743D02*
X164455714Y-71579267D01*
X164455714Y-71579267D02*
X164408095Y-71484029D01*
X164408095Y-71484029D02*
X164360476Y-71436410D01*
X164360476Y-71436410D02*
X164265238Y-71388791D01*
X204636667Y-111612601D02*
X204779524Y-111660220D01*
X204779524Y-111660220D02*
X205017619Y-111660220D01*
X205017619Y-111660220D02*
X205112857Y-111612601D01*
X205112857Y-111612601D02*
X205160476Y-111564981D01*
X205160476Y-111564981D02*
X205208095Y-111469743D01*
X205208095Y-111469743D02*
X205208095Y-111374505D01*
X205208095Y-111374505D02*
X205160476Y-111279267D01*
X205160476Y-111279267D02*
X205112857Y-111231648D01*
X205112857Y-111231648D02*
X205017619Y-111184029D01*
X205017619Y-111184029D02*
X204827143Y-111136410D01*
X204827143Y-111136410D02*
X204731905Y-111088791D01*
X204731905Y-111088791D02*
X204684286Y-111041172D01*
X204684286Y-111041172D02*
X204636667Y-110945934D01*
X204636667Y-110945934D02*
X204636667Y-110850696D01*
X204636667Y-110850696D02*
X204684286Y-110755458D01*
X204684286Y-110755458D02*
X204731905Y-110707839D01*
X204731905Y-110707839D02*
X204827143Y-110660220D01*
X204827143Y-110660220D02*
X205065238Y-110660220D01*
X205065238Y-110660220D02*
X205208095Y-110707839D01*
X205541429Y-110660220D02*
X205779524Y-111660220D01*
X205779524Y-111660220D02*
X205970000Y-110945934D01*
X205970000Y-110945934D02*
X206160476Y-111660220D01*
X206160476Y-111660220D02*
X206398572Y-110660220D01*
X206731905Y-110755458D02*
X206779524Y-110707839D01*
X206779524Y-110707839D02*
X206874762Y-110660220D01*
X206874762Y-110660220D02*
X207112857Y-110660220D01*
X207112857Y-110660220D02*
X207208095Y-110707839D01*
X207208095Y-110707839D02*
X207255714Y-110755458D01*
X207255714Y-110755458D02*
X207303333Y-110850696D01*
X207303333Y-110850696D02*
X207303333Y-110945934D01*
X207303333Y-110945934D02*
X207255714Y-111088791D01*
X207255714Y-111088791D02*
X206684286Y-111660220D01*
X206684286Y-111660220D02*
X207303333Y-111660220D01*
X181194580Y-84393258D02*
X181242200Y-84440877D01*
X181242200Y-84440877D02*
X181289819Y-84583734D01*
X181289819Y-84583734D02*
X181289819Y-84678972D01*
X181289819Y-84678972D02*
X181242200Y-84821829D01*
X181242200Y-84821829D02*
X181146961Y-84917067D01*
X181146961Y-84917067D02*
X181051723Y-84964686D01*
X181051723Y-84964686D02*
X180861247Y-85012305D01*
X180861247Y-85012305D02*
X180718390Y-85012305D01*
X180718390Y-85012305D02*
X180527914Y-84964686D01*
X180527914Y-84964686D02*
X180432676Y-84917067D01*
X180432676Y-84917067D02*
X180337438Y-84821829D01*
X180337438Y-84821829D02*
X180289819Y-84678972D01*
X180289819Y-84678972D02*
X180289819Y-84583734D01*
X180289819Y-84583734D02*
X180337438Y-84440877D01*
X180337438Y-84440877D02*
X180385057Y-84393258D01*
X181289819Y-83440877D02*
X181289819Y-84012305D01*
X181289819Y-83726591D02*
X180289819Y-83726591D01*
X180289819Y-83726591D02*
X180432676Y-83821829D01*
X180432676Y-83821829D02*
X180527914Y-83917067D01*
X180527914Y-83917067D02*
X180575533Y-84012305D01*
X180289819Y-82821829D02*
X180289819Y-82726591D01*
X180289819Y-82726591D02*
X180337438Y-82631353D01*
X180337438Y-82631353D02*
X180385057Y-82583734D01*
X180385057Y-82583734D02*
X180480295Y-82536115D01*
X180480295Y-82536115D02*
X180670771Y-82488496D01*
X180670771Y-82488496D02*
X180908866Y-82488496D01*
X180908866Y-82488496D02*
X181099342Y-82536115D01*
X181099342Y-82536115D02*
X181194580Y-82583734D01*
X181194580Y-82583734D02*
X181242200Y-82631353D01*
X181242200Y-82631353D02*
X181289819Y-82726591D01*
X181289819Y-82726591D02*
X181289819Y-82821829D01*
X181289819Y-82821829D02*
X181242200Y-82917067D01*
X181242200Y-82917067D02*
X181194580Y-82964686D01*
X181194580Y-82964686D02*
X181099342Y-83012305D01*
X181099342Y-83012305D02*
X180908866Y-83059924D01*
X180908866Y-83059924D02*
X180670771Y-83059924D01*
X180670771Y-83059924D02*
X180480295Y-83012305D01*
X180480295Y-83012305D02*
X180385057Y-82964686D01*
X180385057Y-82964686D02*
X180337438Y-82917067D01*
X180337438Y-82917067D02*
X180289819Y-82821829D01*
X183044580Y-124777067D02*
X183092200Y-124824686D01*
X183092200Y-124824686D02*
X183139819Y-124967543D01*
X183139819Y-124967543D02*
X183139819Y-125062781D01*
X183139819Y-125062781D02*
X183092200Y-125205638D01*
X183092200Y-125205638D02*
X182996961Y-125300876D01*
X182996961Y-125300876D02*
X182901723Y-125348495D01*
X182901723Y-125348495D02*
X182711247Y-125396114D01*
X182711247Y-125396114D02*
X182568390Y-125396114D01*
X182568390Y-125396114D02*
X182377914Y-125348495D01*
X182377914Y-125348495D02*
X182282676Y-125300876D01*
X182282676Y-125300876D02*
X182187438Y-125205638D01*
X182187438Y-125205638D02*
X182139819Y-125062781D01*
X182139819Y-125062781D02*
X182139819Y-124967543D01*
X182139819Y-124967543D02*
X182187438Y-124824686D01*
X182187438Y-124824686D02*
X182235057Y-124777067D01*
X182139819Y-124443733D02*
X182139819Y-123824686D01*
X182139819Y-123824686D02*
X182520771Y-124158019D01*
X182520771Y-124158019D02*
X182520771Y-124015162D01*
X182520771Y-124015162D02*
X182568390Y-123919924D01*
X182568390Y-123919924D02*
X182616009Y-123872305D01*
X182616009Y-123872305D02*
X182711247Y-123824686D01*
X182711247Y-123824686D02*
X182949342Y-123824686D01*
X182949342Y-123824686D02*
X183044580Y-123872305D01*
X183044580Y-123872305D02*
X183092200Y-123919924D01*
X183092200Y-123919924D02*
X183139819Y-124015162D01*
X183139819Y-124015162D02*
X183139819Y-124300876D01*
X183139819Y-124300876D02*
X183092200Y-124396114D01*
X183092200Y-124396114D02*
X183044580Y-124443733D01*
X156863333Y-93354580D02*
X156815714Y-93402200D01*
X156815714Y-93402200D02*
X156672857Y-93449819D01*
X156672857Y-93449819D02*
X156577619Y-93449819D01*
X156577619Y-93449819D02*
X156434762Y-93402200D01*
X156434762Y-93402200D02*
X156339524Y-93306961D01*
X156339524Y-93306961D02*
X156291905Y-93211723D01*
X156291905Y-93211723D02*
X156244286Y-93021247D01*
X156244286Y-93021247D02*
X156244286Y-92878390D01*
X156244286Y-92878390D02*
X156291905Y-92687914D01*
X156291905Y-92687914D02*
X156339524Y-92592676D01*
X156339524Y-92592676D02*
X156434762Y-92497438D01*
X156434762Y-92497438D02*
X156577619Y-92449819D01*
X156577619Y-92449819D02*
X156672857Y-92449819D01*
X156672857Y-92449819D02*
X156815714Y-92497438D01*
X156815714Y-92497438D02*
X156863333Y-92545057D01*
X157244286Y-92545057D02*
X157291905Y-92497438D01*
X157291905Y-92497438D02*
X157387143Y-92449819D01*
X157387143Y-92449819D02*
X157625238Y-92449819D01*
X157625238Y-92449819D02*
X157720476Y-92497438D01*
X157720476Y-92497438D02*
X157768095Y-92545057D01*
X157768095Y-92545057D02*
X157815714Y-92640295D01*
X157815714Y-92640295D02*
X157815714Y-92735533D01*
X157815714Y-92735533D02*
X157768095Y-92878390D01*
X157768095Y-92878390D02*
X157196667Y-93449819D01*
X157196667Y-93449819D02*
X157815714Y-93449819D01*
X200801667Y-111517601D02*
X200944524Y-111565220D01*
X200944524Y-111565220D02*
X201182619Y-111565220D01*
X201182619Y-111565220D02*
X201277857Y-111517601D01*
X201277857Y-111517601D02*
X201325476Y-111469981D01*
X201325476Y-111469981D02*
X201373095Y-111374743D01*
X201373095Y-111374743D02*
X201373095Y-111279505D01*
X201373095Y-111279505D02*
X201325476Y-111184267D01*
X201325476Y-111184267D02*
X201277857Y-111136648D01*
X201277857Y-111136648D02*
X201182619Y-111089029D01*
X201182619Y-111089029D02*
X200992143Y-111041410D01*
X200992143Y-111041410D02*
X200896905Y-110993791D01*
X200896905Y-110993791D02*
X200849286Y-110946172D01*
X200849286Y-110946172D02*
X200801667Y-110850934D01*
X200801667Y-110850934D02*
X200801667Y-110755696D01*
X200801667Y-110755696D02*
X200849286Y-110660458D01*
X200849286Y-110660458D02*
X200896905Y-110612839D01*
X200896905Y-110612839D02*
X200992143Y-110565220D01*
X200992143Y-110565220D02*
X201230238Y-110565220D01*
X201230238Y-110565220D02*
X201373095Y-110612839D01*
X201706429Y-110565220D02*
X201944524Y-111565220D01*
X201944524Y-111565220D02*
X202135000Y-110850934D01*
X202135000Y-110850934D02*
X202325476Y-111565220D01*
X202325476Y-111565220D02*
X202563572Y-110565220D01*
X203468333Y-111565220D02*
X202896905Y-111565220D01*
X203182619Y-111565220D02*
X203182619Y-110565220D01*
X203182619Y-110565220D02*
X203087381Y-110708077D01*
X203087381Y-110708077D02*
X202992143Y-110803315D01*
X202992143Y-110803315D02*
X202896905Y-110850934D01*
X148261905Y-81140220D02*
X148261905Y-80140220D01*
X148261905Y-80140220D02*
X148500000Y-80140220D01*
X148500000Y-80140220D02*
X148642857Y-80187839D01*
X148642857Y-80187839D02*
X148738095Y-80283077D01*
X148738095Y-80283077D02*
X148785714Y-80378315D01*
X148785714Y-80378315D02*
X148833333Y-80568791D01*
X148833333Y-80568791D02*
X148833333Y-80711648D01*
X148833333Y-80711648D02*
X148785714Y-80902124D01*
X148785714Y-80902124D02*
X148738095Y-80997362D01*
X148738095Y-80997362D02*
X148642857Y-81092601D01*
X148642857Y-81092601D02*
X148500000Y-81140220D01*
X148500000Y-81140220D02*
X148261905Y-81140220D01*
X149214286Y-80235458D02*
X149261905Y-80187839D01*
X149261905Y-80187839D02*
X149357143Y-80140220D01*
X149357143Y-80140220D02*
X149595238Y-80140220D01*
X149595238Y-80140220D02*
X149690476Y-80187839D01*
X149690476Y-80187839D02*
X149738095Y-80235458D01*
X149738095Y-80235458D02*
X149785714Y-80330696D01*
X149785714Y-80330696D02*
X149785714Y-80425934D01*
X149785714Y-80425934D02*
X149738095Y-80568791D01*
X149738095Y-80568791D02*
X149166667Y-81140220D01*
X149166667Y-81140220D02*
X149785714Y-81140220D01*
X98324819Y-76028734D02*
X99039104Y-76028734D01*
X99039104Y-76028734D02*
X99181961Y-76076353D01*
X99181961Y-76076353D02*
X99277200Y-76171591D01*
X99277200Y-76171591D02*
X99324819Y-76314448D01*
X99324819Y-76314448D02*
X99324819Y-76409686D01*
X99324819Y-75028734D02*
X99324819Y-75600162D01*
X99324819Y-75314448D02*
X98324819Y-75314448D01*
X98324819Y-75314448D02*
X98467676Y-75409686D01*
X98467676Y-75409686D02*
X98562914Y-75504924D01*
X98562914Y-75504924D02*
X98610533Y-75600162D01*
X146907142Y-123354981D02*
X146859523Y-123402601D01*
X146859523Y-123402601D02*
X146716666Y-123450220D01*
X146716666Y-123450220D02*
X146621428Y-123450220D01*
X146621428Y-123450220D02*
X146478571Y-123402601D01*
X146478571Y-123402601D02*
X146383333Y-123307362D01*
X146383333Y-123307362D02*
X146335714Y-123212124D01*
X146335714Y-123212124D02*
X146288095Y-123021648D01*
X146288095Y-123021648D02*
X146288095Y-122878791D01*
X146288095Y-122878791D02*
X146335714Y-122688315D01*
X146335714Y-122688315D02*
X146383333Y-122593077D01*
X146383333Y-122593077D02*
X146478571Y-122497839D01*
X146478571Y-122497839D02*
X146621428Y-122450220D01*
X146621428Y-122450220D02*
X146716666Y-122450220D01*
X146716666Y-122450220D02*
X146859523Y-122497839D01*
X146859523Y-122497839D02*
X146907142Y-122545458D01*
X147288095Y-122545458D02*
X147335714Y-122497839D01*
X147335714Y-122497839D02*
X147430952Y-122450220D01*
X147430952Y-122450220D02*
X147669047Y-122450220D01*
X147669047Y-122450220D02*
X147764285Y-122497839D01*
X147764285Y-122497839D02*
X147811904Y-122545458D01*
X147811904Y-122545458D02*
X147859523Y-122640696D01*
X147859523Y-122640696D02*
X147859523Y-122735934D01*
X147859523Y-122735934D02*
X147811904Y-122878791D01*
X147811904Y-122878791D02*
X147240476Y-123450220D01*
X147240476Y-123450220D02*
X147859523Y-123450220D01*
X148192857Y-122450220D02*
X148811904Y-122450220D01*
X148811904Y-122450220D02*
X148478571Y-122831172D01*
X148478571Y-122831172D02*
X148621428Y-122831172D01*
X148621428Y-122831172D02*
X148716666Y-122878791D01*
X148716666Y-122878791D02*
X148764285Y-122926410D01*
X148764285Y-122926410D02*
X148811904Y-123021648D01*
X148811904Y-123021648D02*
X148811904Y-123259743D01*
X148811904Y-123259743D02*
X148764285Y-123354981D01*
X148764285Y-123354981D02*
X148716666Y-123402601D01*
X148716666Y-123402601D02*
X148621428Y-123450220D01*
X148621428Y-123450220D02*
X148335714Y-123450220D01*
X148335714Y-123450220D02*
X148240476Y-123402601D01*
X148240476Y-123402601D02*
X148192857Y-123354981D01*
X115777142Y-86464981D02*
X115729523Y-86512601D01*
X115729523Y-86512601D02*
X115586666Y-86560220D01*
X115586666Y-86560220D02*
X115491428Y-86560220D01*
X115491428Y-86560220D02*
X115348571Y-86512601D01*
X115348571Y-86512601D02*
X115253333Y-86417362D01*
X115253333Y-86417362D02*
X115205714Y-86322124D01*
X115205714Y-86322124D02*
X115158095Y-86131648D01*
X115158095Y-86131648D02*
X115158095Y-85988791D01*
X115158095Y-85988791D02*
X115205714Y-85798315D01*
X115205714Y-85798315D02*
X115253333Y-85703077D01*
X115253333Y-85703077D02*
X115348571Y-85607839D01*
X115348571Y-85607839D02*
X115491428Y-85560220D01*
X115491428Y-85560220D02*
X115586666Y-85560220D01*
X115586666Y-85560220D02*
X115729523Y-85607839D01*
X115729523Y-85607839D02*
X115777142Y-85655458D01*
X116729523Y-86560220D02*
X116158095Y-86560220D01*
X116443809Y-86560220D02*
X116443809Y-85560220D01*
X116443809Y-85560220D02*
X116348571Y-85703077D01*
X116348571Y-85703077D02*
X116253333Y-85798315D01*
X116253333Y-85798315D02*
X116158095Y-85845934D01*
X117205714Y-86560220D02*
X117396190Y-86560220D01*
X117396190Y-86560220D02*
X117491428Y-86512601D01*
X117491428Y-86512601D02*
X117539047Y-86464981D01*
X117539047Y-86464981D02*
X117634285Y-86322124D01*
X117634285Y-86322124D02*
X117681904Y-86131648D01*
X117681904Y-86131648D02*
X117681904Y-85750696D01*
X117681904Y-85750696D02*
X117634285Y-85655458D01*
X117634285Y-85655458D02*
X117586666Y-85607839D01*
X117586666Y-85607839D02*
X117491428Y-85560220D01*
X117491428Y-85560220D02*
X117300952Y-85560220D01*
X117300952Y-85560220D02*
X117205714Y-85607839D01*
X117205714Y-85607839D02*
X117158095Y-85655458D01*
X117158095Y-85655458D02*
X117110476Y-85750696D01*
X117110476Y-85750696D02*
X117110476Y-85988791D01*
X117110476Y-85988791D02*
X117158095Y-86084029D01*
X117158095Y-86084029D02*
X117205714Y-86131648D01*
X117205714Y-86131648D02*
X117300952Y-86179267D01*
X117300952Y-86179267D02*
X117491428Y-86179267D01*
X117491428Y-86179267D02*
X117586666Y-86131648D01*
X117586666Y-86131648D02*
X117634285Y-86084029D01*
X117634285Y-86084029D02*
X117681904Y-85988791D01*
X145257142Y-101459580D02*
X145209523Y-101507200D01*
X145209523Y-101507200D02*
X145066666Y-101554819D01*
X145066666Y-101554819D02*
X144971428Y-101554819D01*
X144971428Y-101554819D02*
X144828571Y-101507200D01*
X144828571Y-101507200D02*
X144733333Y-101411961D01*
X144733333Y-101411961D02*
X144685714Y-101316723D01*
X144685714Y-101316723D02*
X144638095Y-101126247D01*
X144638095Y-101126247D02*
X144638095Y-100983390D01*
X144638095Y-100983390D02*
X144685714Y-100792914D01*
X144685714Y-100792914D02*
X144733333Y-100697676D01*
X144733333Y-100697676D02*
X144828571Y-100602438D01*
X144828571Y-100602438D02*
X144971428Y-100554819D01*
X144971428Y-100554819D02*
X145066666Y-100554819D01*
X145066666Y-100554819D02*
X145209523Y-100602438D01*
X145209523Y-100602438D02*
X145257142Y-100650057D01*
X145638095Y-100650057D02*
X145685714Y-100602438D01*
X145685714Y-100602438D02*
X145780952Y-100554819D01*
X145780952Y-100554819D02*
X146019047Y-100554819D01*
X146019047Y-100554819D02*
X146114285Y-100602438D01*
X146114285Y-100602438D02*
X146161904Y-100650057D01*
X146161904Y-100650057D02*
X146209523Y-100745295D01*
X146209523Y-100745295D02*
X146209523Y-100840533D01*
X146209523Y-100840533D02*
X146161904Y-100983390D01*
X146161904Y-100983390D02*
X145590476Y-101554819D01*
X145590476Y-101554819D02*
X146209523Y-101554819D01*
X146590476Y-100650057D02*
X146638095Y-100602438D01*
X146638095Y-100602438D02*
X146733333Y-100554819D01*
X146733333Y-100554819D02*
X146971428Y-100554819D01*
X146971428Y-100554819D02*
X147066666Y-100602438D01*
X147066666Y-100602438D02*
X147114285Y-100650057D01*
X147114285Y-100650057D02*
X147161904Y-100745295D01*
X147161904Y-100745295D02*
X147161904Y-100840533D01*
X147161904Y-100840533D02*
X147114285Y-100983390D01*
X147114285Y-100983390D02*
X146542857Y-101554819D01*
X146542857Y-101554819D02*
X147161904Y-101554819D01*
X150458095Y-118395220D02*
X150458095Y-119204743D01*
X150458095Y-119204743D02*
X150505714Y-119299981D01*
X150505714Y-119299981D02*
X150553333Y-119347601D01*
X150553333Y-119347601D02*
X150648571Y-119395220D01*
X150648571Y-119395220D02*
X150839047Y-119395220D01*
X150839047Y-119395220D02*
X150934285Y-119347601D01*
X150934285Y-119347601D02*
X150981904Y-119299981D01*
X150981904Y-119299981D02*
X151029523Y-119204743D01*
X151029523Y-119204743D02*
X151029523Y-118395220D01*
X151553333Y-119395220D02*
X151743809Y-119395220D01*
X151743809Y-119395220D02*
X151839047Y-119347601D01*
X151839047Y-119347601D02*
X151886666Y-119299981D01*
X151886666Y-119299981D02*
X151981904Y-119157124D01*
X151981904Y-119157124D02*
X152029523Y-118966648D01*
X152029523Y-118966648D02*
X152029523Y-118585696D01*
X152029523Y-118585696D02*
X151981904Y-118490458D01*
X151981904Y-118490458D02*
X151934285Y-118442839D01*
X151934285Y-118442839D02*
X151839047Y-118395220D01*
X151839047Y-118395220D02*
X151648571Y-118395220D01*
X151648571Y-118395220D02*
X151553333Y-118442839D01*
X151553333Y-118442839D02*
X151505714Y-118490458D01*
X151505714Y-118490458D02*
X151458095Y-118585696D01*
X151458095Y-118585696D02*
X151458095Y-118823791D01*
X151458095Y-118823791D02*
X151505714Y-118919029D01*
X151505714Y-118919029D02*
X151553333Y-118966648D01*
X151553333Y-118966648D02*
X151648571Y-119014267D01*
X151648571Y-119014267D02*
X151839047Y-119014267D01*
X151839047Y-119014267D02*
X151934285Y-118966648D01*
X151934285Y-118966648D02*
X151981904Y-118919029D01*
X151981904Y-118919029D02*
X152029523Y-118823791D01*
X184403333Y-98260220D02*
X184070000Y-97784029D01*
X183831905Y-98260220D02*
X183831905Y-97260220D01*
X183831905Y-97260220D02*
X184212857Y-97260220D01*
X184212857Y-97260220D02*
X184308095Y-97307839D01*
X184308095Y-97307839D02*
X184355714Y-97355458D01*
X184355714Y-97355458D02*
X184403333Y-97450696D01*
X184403333Y-97450696D02*
X184403333Y-97593553D01*
X184403333Y-97593553D02*
X184355714Y-97688791D01*
X184355714Y-97688791D02*
X184308095Y-97736410D01*
X184308095Y-97736410D02*
X184212857Y-97784029D01*
X184212857Y-97784029D02*
X183831905Y-97784029D01*
X184879524Y-98260220D02*
X185070000Y-98260220D01*
X185070000Y-98260220D02*
X185165238Y-98212601D01*
X185165238Y-98212601D02*
X185212857Y-98164981D01*
X185212857Y-98164981D02*
X185308095Y-98022124D01*
X185308095Y-98022124D02*
X185355714Y-97831648D01*
X185355714Y-97831648D02*
X185355714Y-97450696D01*
X185355714Y-97450696D02*
X185308095Y-97355458D01*
X185308095Y-97355458D02*
X185260476Y-97307839D01*
X185260476Y-97307839D02*
X185165238Y-97260220D01*
X185165238Y-97260220D02*
X184974762Y-97260220D01*
X184974762Y-97260220D02*
X184879524Y-97307839D01*
X184879524Y-97307839D02*
X184831905Y-97355458D01*
X184831905Y-97355458D02*
X184784286Y-97450696D01*
X184784286Y-97450696D02*
X184784286Y-97688791D01*
X184784286Y-97688791D02*
X184831905Y-97784029D01*
X184831905Y-97784029D02*
X184879524Y-97831648D01*
X184879524Y-97831648D02*
X184974762Y-97879267D01*
X184974762Y-97879267D02*
X185165238Y-97879267D01*
X185165238Y-97879267D02*
X185260476Y-97831648D01*
X185260476Y-97831648D02*
X185308095Y-97784029D01*
X185308095Y-97784029D02*
X185355714Y-97688791D01*
X98708095Y-94760220D02*
X99279523Y-94760220D01*
X98993809Y-95760220D02*
X98993809Y-94760220D01*
X99612857Y-95760220D02*
X99612857Y-94760220D01*
X99612857Y-94760220D02*
X99993809Y-94760220D01*
X99993809Y-94760220D02*
X100089047Y-94807839D01*
X100089047Y-94807839D02*
X100136666Y-94855458D01*
X100136666Y-94855458D02*
X100184285Y-94950696D01*
X100184285Y-94950696D02*
X100184285Y-95093553D01*
X100184285Y-95093553D02*
X100136666Y-95188791D01*
X100136666Y-95188791D02*
X100089047Y-95236410D01*
X100089047Y-95236410D02*
X99993809Y-95284029D01*
X99993809Y-95284029D02*
X99612857Y-95284029D01*
X101136666Y-95760220D02*
X100565238Y-95760220D01*
X100850952Y-95760220D02*
X100850952Y-94760220D01*
X100850952Y-94760220D02*
X100755714Y-94903077D01*
X100755714Y-94903077D02*
X100660476Y-94998315D01*
X100660476Y-94998315D02*
X100565238Y-95045934D01*
X163939580Y-118018258D02*
X163987200Y-118065877D01*
X163987200Y-118065877D02*
X164034819Y-118208734D01*
X164034819Y-118208734D02*
X164034819Y-118303972D01*
X164034819Y-118303972D02*
X163987200Y-118446829D01*
X163987200Y-118446829D02*
X163891961Y-118542067D01*
X163891961Y-118542067D02*
X163796723Y-118589686D01*
X163796723Y-118589686D02*
X163606247Y-118637305D01*
X163606247Y-118637305D02*
X163463390Y-118637305D01*
X163463390Y-118637305D02*
X163272914Y-118589686D01*
X163272914Y-118589686D02*
X163177676Y-118542067D01*
X163177676Y-118542067D02*
X163082438Y-118446829D01*
X163082438Y-118446829D02*
X163034819Y-118303972D01*
X163034819Y-118303972D02*
X163034819Y-118208734D01*
X163034819Y-118208734D02*
X163082438Y-118065877D01*
X163082438Y-118065877D02*
X163130057Y-118018258D01*
X164034819Y-117065877D02*
X164034819Y-117637305D01*
X164034819Y-117351591D02*
X163034819Y-117351591D01*
X163034819Y-117351591D02*
X163177676Y-117446829D01*
X163177676Y-117446829D02*
X163272914Y-117542067D01*
X163272914Y-117542067D02*
X163320533Y-117637305D01*
X163130057Y-116684924D02*
X163082438Y-116637305D01*
X163082438Y-116637305D02*
X163034819Y-116542067D01*
X163034819Y-116542067D02*
X163034819Y-116303972D01*
X163034819Y-116303972D02*
X163082438Y-116208734D01*
X163082438Y-116208734D02*
X163130057Y-116161115D01*
X163130057Y-116161115D02*
X163225295Y-116113496D01*
X163225295Y-116113496D02*
X163320533Y-116113496D01*
X163320533Y-116113496D02*
X163463390Y-116161115D01*
X163463390Y-116161115D02*
X164034819Y-116732543D01*
X164034819Y-116732543D02*
X164034819Y-116113496D01*
X186869580Y-115708258D02*
X186917200Y-115755877D01*
X186917200Y-115755877D02*
X186964819Y-115898734D01*
X186964819Y-115898734D02*
X186964819Y-115993972D01*
X186964819Y-115993972D02*
X186917200Y-116136829D01*
X186917200Y-116136829D02*
X186821961Y-116232067D01*
X186821961Y-116232067D02*
X186726723Y-116279686D01*
X186726723Y-116279686D02*
X186536247Y-116327305D01*
X186536247Y-116327305D02*
X186393390Y-116327305D01*
X186393390Y-116327305D02*
X186202914Y-116279686D01*
X186202914Y-116279686D02*
X186107676Y-116232067D01*
X186107676Y-116232067D02*
X186012438Y-116136829D01*
X186012438Y-116136829D02*
X185964819Y-115993972D01*
X185964819Y-115993972D02*
X185964819Y-115898734D01*
X185964819Y-115898734D02*
X186012438Y-115755877D01*
X186012438Y-115755877D02*
X186060057Y-115708258D01*
X186964819Y-114755877D02*
X186964819Y-115327305D01*
X186964819Y-115041591D02*
X185964819Y-115041591D01*
X185964819Y-115041591D02*
X186107676Y-115136829D01*
X186107676Y-115136829D02*
X186202914Y-115232067D01*
X186202914Y-115232067D02*
X186250533Y-115327305D01*
X185964819Y-114422543D02*
X185964819Y-113755877D01*
X185964819Y-113755877D02*
X186964819Y-114184448D01*
X124042857Y-86254819D02*
X124042857Y-85254819D01*
X125090475Y-86254819D02*
X124757142Y-85778628D01*
X124519047Y-86254819D02*
X124519047Y-85254819D01*
X124519047Y-85254819D02*
X124899999Y-85254819D01*
X124899999Y-85254819D02*
X124995237Y-85302438D01*
X124995237Y-85302438D02*
X125042856Y-85350057D01*
X125042856Y-85350057D02*
X125090475Y-85445295D01*
X125090475Y-85445295D02*
X125090475Y-85588152D01*
X125090475Y-85588152D02*
X125042856Y-85683390D01*
X125042856Y-85683390D02*
X124995237Y-85731009D01*
X124995237Y-85731009D02*
X124899999Y-85778628D01*
X124899999Y-85778628D02*
X124519047Y-85778628D01*
X125852380Y-85731009D02*
X125519047Y-85731009D01*
X125519047Y-86254819D02*
X125519047Y-85254819D01*
X125519047Y-85254819D02*
X125995237Y-85254819D01*
X126280952Y-85254819D02*
X126947618Y-85254819D01*
X126947618Y-85254819D02*
X126280952Y-86254819D01*
X126280952Y-86254819D02*
X126947618Y-86254819D01*
X127757142Y-85588152D02*
X127757142Y-86254819D01*
X127519047Y-85207200D02*
X127280952Y-85921485D01*
X127280952Y-85921485D02*
X127899999Y-85921485D01*
X128709523Y-85588152D02*
X128709523Y-86254819D01*
X128471428Y-85207200D02*
X128233333Y-85921485D01*
X128233333Y-85921485D02*
X128852380Y-85921485D01*
X129233333Y-86254819D02*
X129233333Y-85254819D01*
X129233333Y-85254819D02*
X129804761Y-86254819D01*
X129804761Y-86254819D02*
X129804761Y-85254819D01*
X130233333Y-85350057D02*
X130280952Y-85302438D01*
X130280952Y-85302438D02*
X130376190Y-85254819D01*
X130376190Y-85254819D02*
X130614285Y-85254819D01*
X130614285Y-85254819D02*
X130709523Y-85302438D01*
X130709523Y-85302438D02*
X130757142Y-85350057D01*
X130757142Y-85350057D02*
X130804761Y-85445295D01*
X130804761Y-85445295D02*
X130804761Y-85540533D01*
X130804761Y-85540533D02*
X130757142Y-85683390D01*
X130757142Y-85683390D02*
X130185714Y-86254819D01*
X130185714Y-86254819D02*
X130804761Y-86254819D01*
X179731905Y-97325220D02*
X180303333Y-97325220D01*
X180017619Y-98325220D02*
X180017619Y-97325220D01*
X180636667Y-98325220D02*
X180636667Y-97325220D01*
X180636667Y-97325220D02*
X181017619Y-97325220D01*
X181017619Y-97325220D02*
X181112857Y-97372839D01*
X181112857Y-97372839D02*
X181160476Y-97420458D01*
X181160476Y-97420458D02*
X181208095Y-97515696D01*
X181208095Y-97515696D02*
X181208095Y-97658553D01*
X181208095Y-97658553D02*
X181160476Y-97753791D01*
X181160476Y-97753791D02*
X181112857Y-97801410D01*
X181112857Y-97801410D02*
X181017619Y-97849029D01*
X181017619Y-97849029D02*
X180636667Y-97849029D01*
X182160476Y-98325220D02*
X181589048Y-98325220D01*
X181874762Y-98325220D02*
X181874762Y-97325220D01*
X181874762Y-97325220D02*
X181779524Y-97468077D01*
X181779524Y-97468077D02*
X181684286Y-97563315D01*
X181684286Y-97563315D02*
X181589048Y-97610934D01*
X183112857Y-98325220D02*
X182541429Y-98325220D01*
X182827143Y-98325220D02*
X182827143Y-97325220D01*
X182827143Y-97325220D02*
X182731905Y-97468077D01*
X182731905Y-97468077D02*
X182636667Y-97563315D01*
X182636667Y-97563315D02*
X182541429Y-97610934D01*
X111601642Y-88859481D02*
X111554023Y-88907101D01*
X111554023Y-88907101D02*
X111411166Y-88954720D01*
X111411166Y-88954720D02*
X111315928Y-88954720D01*
X111315928Y-88954720D02*
X111173071Y-88907101D01*
X111173071Y-88907101D02*
X111077833Y-88811862D01*
X111077833Y-88811862D02*
X111030214Y-88716624D01*
X111030214Y-88716624D02*
X110982595Y-88526148D01*
X110982595Y-88526148D02*
X110982595Y-88383291D01*
X110982595Y-88383291D02*
X111030214Y-88192815D01*
X111030214Y-88192815D02*
X111077833Y-88097577D01*
X111077833Y-88097577D02*
X111173071Y-88002339D01*
X111173071Y-88002339D02*
X111315928Y-87954720D01*
X111315928Y-87954720D02*
X111411166Y-87954720D01*
X111411166Y-87954720D02*
X111554023Y-88002339D01*
X111554023Y-88002339D02*
X111601642Y-88049958D01*
X111982595Y-88049958D02*
X112030214Y-88002339D01*
X112030214Y-88002339D02*
X112125452Y-87954720D01*
X112125452Y-87954720D02*
X112363547Y-87954720D01*
X112363547Y-87954720D02*
X112458785Y-88002339D01*
X112458785Y-88002339D02*
X112506404Y-88049958D01*
X112506404Y-88049958D02*
X112554023Y-88145196D01*
X112554023Y-88145196D02*
X112554023Y-88240434D01*
X112554023Y-88240434D02*
X112506404Y-88383291D01*
X112506404Y-88383291D02*
X111934976Y-88954720D01*
X111934976Y-88954720D02*
X112554023Y-88954720D01*
X113173071Y-87954720D02*
X113268309Y-87954720D01*
X113268309Y-87954720D02*
X113363547Y-88002339D01*
X113363547Y-88002339D02*
X113411166Y-88049958D01*
X113411166Y-88049958D02*
X113458785Y-88145196D01*
X113458785Y-88145196D02*
X113506404Y-88335672D01*
X113506404Y-88335672D02*
X113506404Y-88573767D01*
X113506404Y-88573767D02*
X113458785Y-88764243D01*
X113458785Y-88764243D02*
X113411166Y-88859481D01*
X113411166Y-88859481D02*
X113363547Y-88907101D01*
X113363547Y-88907101D02*
X113268309Y-88954720D01*
X113268309Y-88954720D02*
X113173071Y-88954720D01*
X113173071Y-88954720D02*
X113077833Y-88907101D01*
X113077833Y-88907101D02*
X113030214Y-88859481D01*
X113030214Y-88859481D02*
X112982595Y-88764243D01*
X112982595Y-88764243D02*
X112934976Y-88573767D01*
X112934976Y-88573767D02*
X112934976Y-88335672D01*
X112934976Y-88335672D02*
X112982595Y-88145196D01*
X112982595Y-88145196D02*
X113030214Y-88049958D01*
X113030214Y-88049958D02*
X113077833Y-88002339D01*
X113077833Y-88002339D02*
X113173071Y-87954720D01*
X119473333Y-107039580D02*
X119425714Y-107087200D01*
X119425714Y-107087200D02*
X119282857Y-107134819D01*
X119282857Y-107134819D02*
X119187619Y-107134819D01*
X119187619Y-107134819D02*
X119044762Y-107087200D01*
X119044762Y-107087200D02*
X118949524Y-106991961D01*
X118949524Y-106991961D02*
X118901905Y-106896723D01*
X118901905Y-106896723D02*
X118854286Y-106706247D01*
X118854286Y-106706247D02*
X118854286Y-106563390D01*
X118854286Y-106563390D02*
X118901905Y-106372914D01*
X118901905Y-106372914D02*
X118949524Y-106277676D01*
X118949524Y-106277676D02*
X119044762Y-106182438D01*
X119044762Y-106182438D02*
X119187619Y-106134819D01*
X119187619Y-106134819D02*
X119282857Y-106134819D01*
X119282857Y-106134819D02*
X119425714Y-106182438D01*
X119425714Y-106182438D02*
X119473333Y-106230057D01*
X119949524Y-107134819D02*
X120140000Y-107134819D01*
X120140000Y-107134819D02*
X120235238Y-107087200D01*
X120235238Y-107087200D02*
X120282857Y-107039580D01*
X120282857Y-107039580D02*
X120378095Y-106896723D01*
X120378095Y-106896723D02*
X120425714Y-106706247D01*
X120425714Y-106706247D02*
X120425714Y-106325295D01*
X120425714Y-106325295D02*
X120378095Y-106230057D01*
X120378095Y-106230057D02*
X120330476Y-106182438D01*
X120330476Y-106182438D02*
X120235238Y-106134819D01*
X120235238Y-106134819D02*
X120044762Y-106134819D01*
X120044762Y-106134819D02*
X119949524Y-106182438D01*
X119949524Y-106182438D02*
X119901905Y-106230057D01*
X119901905Y-106230057D02*
X119854286Y-106325295D01*
X119854286Y-106325295D02*
X119854286Y-106563390D01*
X119854286Y-106563390D02*
X119901905Y-106658628D01*
X119901905Y-106658628D02*
X119949524Y-106706247D01*
X119949524Y-106706247D02*
X120044762Y-106753866D01*
X120044762Y-106753866D02*
X120235238Y-106753866D01*
X120235238Y-106753866D02*
X120330476Y-106706247D01*
X120330476Y-106706247D02*
X120378095Y-106658628D01*
X120378095Y-106658628D02*
X120425714Y-106563390D01*
X179524819Y-112148258D02*
X179048628Y-112481591D01*
X179524819Y-112719686D02*
X178524819Y-112719686D01*
X178524819Y-112719686D02*
X178524819Y-112338734D01*
X178524819Y-112338734D02*
X178572438Y-112243496D01*
X178572438Y-112243496D02*
X178620057Y-112195877D01*
X178620057Y-112195877D02*
X178715295Y-112148258D01*
X178715295Y-112148258D02*
X178858152Y-112148258D01*
X178858152Y-112148258D02*
X178953390Y-112195877D01*
X178953390Y-112195877D02*
X179001009Y-112243496D01*
X179001009Y-112243496D02*
X179048628Y-112338734D01*
X179048628Y-112338734D02*
X179048628Y-112719686D01*
X179524819Y-111195877D02*
X179524819Y-111767305D01*
X179524819Y-111481591D02*
X178524819Y-111481591D01*
X178524819Y-111481591D02*
X178667676Y-111576829D01*
X178667676Y-111576829D02*
X178762914Y-111672067D01*
X178762914Y-111672067D02*
X178810533Y-111767305D01*
X179524819Y-110719686D02*
X179524819Y-110529210D01*
X179524819Y-110529210D02*
X179477200Y-110433972D01*
X179477200Y-110433972D02*
X179429580Y-110386353D01*
X179429580Y-110386353D02*
X179286723Y-110291115D01*
X179286723Y-110291115D02*
X179096247Y-110243496D01*
X179096247Y-110243496D02*
X178715295Y-110243496D01*
X178715295Y-110243496D02*
X178620057Y-110291115D01*
X178620057Y-110291115D02*
X178572438Y-110338734D01*
X178572438Y-110338734D02*
X178524819Y-110433972D01*
X178524819Y-110433972D02*
X178524819Y-110624448D01*
X178524819Y-110624448D02*
X178572438Y-110719686D01*
X178572438Y-110719686D02*
X178620057Y-110767305D01*
X178620057Y-110767305D02*
X178715295Y-110814924D01*
X178715295Y-110814924D02*
X178953390Y-110814924D01*
X178953390Y-110814924D02*
X179048628Y-110767305D01*
X179048628Y-110767305D02*
X179096247Y-110719686D01*
X179096247Y-110719686D02*
X179143866Y-110624448D01*
X179143866Y-110624448D02*
X179143866Y-110433972D01*
X179143866Y-110433972D02*
X179096247Y-110338734D01*
X179096247Y-110338734D02*
X179048628Y-110291115D01*
X179048628Y-110291115D02*
X178953390Y-110243496D01*
X140931905Y-113560220D02*
X140931905Y-112560220D01*
X140931905Y-112560220D02*
X141170000Y-112560220D01*
X141170000Y-112560220D02*
X141312857Y-112607839D01*
X141312857Y-112607839D02*
X141408095Y-112703077D01*
X141408095Y-112703077D02*
X141455714Y-112798315D01*
X141455714Y-112798315D02*
X141503333Y-112988791D01*
X141503333Y-112988791D02*
X141503333Y-113131648D01*
X141503333Y-113131648D02*
X141455714Y-113322124D01*
X141455714Y-113322124D02*
X141408095Y-113417362D01*
X141408095Y-113417362D02*
X141312857Y-113512601D01*
X141312857Y-113512601D02*
X141170000Y-113560220D01*
X141170000Y-113560220D02*
X140931905Y-113560220D01*
X141836667Y-112560220D02*
X142503333Y-112560220D01*
X142503333Y-112560220D02*
X142074762Y-113560220D01*
X98608095Y-83925220D02*
X99179523Y-83925220D01*
X98893809Y-84925220D02*
X98893809Y-83925220D01*
X99512857Y-84925220D02*
X99512857Y-83925220D01*
X99512857Y-83925220D02*
X99893809Y-83925220D01*
X99893809Y-83925220D02*
X99989047Y-83972839D01*
X99989047Y-83972839D02*
X100036666Y-84020458D01*
X100036666Y-84020458D02*
X100084285Y-84115696D01*
X100084285Y-84115696D02*
X100084285Y-84258553D01*
X100084285Y-84258553D02*
X100036666Y-84353791D01*
X100036666Y-84353791D02*
X99989047Y-84401410D01*
X99989047Y-84401410D02*
X99893809Y-84449029D01*
X99893809Y-84449029D02*
X99512857Y-84449029D01*
X100989047Y-83925220D02*
X100512857Y-83925220D01*
X100512857Y-83925220D02*
X100465238Y-84401410D01*
X100465238Y-84401410D02*
X100512857Y-84353791D01*
X100512857Y-84353791D02*
X100608095Y-84306172D01*
X100608095Y-84306172D02*
X100846190Y-84306172D01*
X100846190Y-84306172D02*
X100941428Y-84353791D01*
X100941428Y-84353791D02*
X100989047Y-84401410D01*
X100989047Y-84401410D02*
X101036666Y-84496648D01*
X101036666Y-84496648D02*
X101036666Y-84734743D01*
X101036666Y-84734743D02*
X100989047Y-84829981D01*
X100989047Y-84829981D02*
X100941428Y-84877601D01*
X100941428Y-84877601D02*
X100846190Y-84925220D01*
X100846190Y-84925220D02*
X100608095Y-84925220D01*
X100608095Y-84925220D02*
X100512857Y-84877601D01*
X100512857Y-84877601D02*
X100465238Y-84829981D01*
X204708095Y-125560220D02*
X205279523Y-125560220D01*
X204993809Y-126560220D02*
X204993809Y-125560220D01*
X205612857Y-126560220D02*
X205612857Y-125560220D01*
X205612857Y-125560220D02*
X205993809Y-125560220D01*
X205993809Y-125560220D02*
X206089047Y-125607839D01*
X206089047Y-125607839D02*
X206136666Y-125655458D01*
X206136666Y-125655458D02*
X206184285Y-125750696D01*
X206184285Y-125750696D02*
X206184285Y-125893553D01*
X206184285Y-125893553D02*
X206136666Y-125988791D01*
X206136666Y-125988791D02*
X206089047Y-126036410D01*
X206089047Y-126036410D02*
X205993809Y-126084029D01*
X205993809Y-126084029D02*
X205612857Y-126084029D01*
X206517619Y-125560220D02*
X207184285Y-125560220D01*
X207184285Y-125560220D02*
X206755714Y-126560220D01*
X167524819Y-111948258D02*
X167048628Y-112281591D01*
X167524819Y-112519686D02*
X166524819Y-112519686D01*
X166524819Y-112519686D02*
X166524819Y-112138734D01*
X166524819Y-112138734D02*
X166572438Y-112043496D01*
X166572438Y-112043496D02*
X166620057Y-111995877D01*
X166620057Y-111995877D02*
X166715295Y-111948258D01*
X166715295Y-111948258D02*
X166858152Y-111948258D01*
X166858152Y-111948258D02*
X166953390Y-111995877D01*
X166953390Y-111995877D02*
X167001009Y-112043496D01*
X167001009Y-112043496D02*
X167048628Y-112138734D01*
X167048628Y-112138734D02*
X167048628Y-112519686D01*
X166620057Y-111567305D02*
X166572438Y-111519686D01*
X166572438Y-111519686D02*
X166524819Y-111424448D01*
X166524819Y-111424448D02*
X166524819Y-111186353D01*
X166524819Y-111186353D02*
X166572438Y-111091115D01*
X166572438Y-111091115D02*
X166620057Y-111043496D01*
X166620057Y-111043496D02*
X166715295Y-110995877D01*
X166715295Y-110995877D02*
X166810533Y-110995877D01*
X166810533Y-110995877D02*
X166953390Y-111043496D01*
X166953390Y-111043496D02*
X167524819Y-111614924D01*
X167524819Y-111614924D02*
X167524819Y-110995877D01*
X166620057Y-110614924D02*
X166572438Y-110567305D01*
X166572438Y-110567305D02*
X166524819Y-110472067D01*
X166524819Y-110472067D02*
X166524819Y-110233972D01*
X166524819Y-110233972D02*
X166572438Y-110138734D01*
X166572438Y-110138734D02*
X166620057Y-110091115D01*
X166620057Y-110091115D02*
X166715295Y-110043496D01*
X166715295Y-110043496D02*
X166810533Y-110043496D01*
X166810533Y-110043496D02*
X166953390Y-110091115D01*
X166953390Y-110091115D02*
X167524819Y-110662543D01*
X167524819Y-110662543D02*
X167524819Y-110043496D01*
X154336666Y-122560220D02*
X154336666Y-123274505D01*
X154336666Y-123274505D02*
X154289047Y-123417362D01*
X154289047Y-123417362D02*
X154193809Y-123512601D01*
X154193809Y-123512601D02*
X154050952Y-123560220D01*
X154050952Y-123560220D02*
X153955714Y-123560220D01*
X154765238Y-122655458D02*
X154812857Y-122607839D01*
X154812857Y-122607839D02*
X154908095Y-122560220D01*
X154908095Y-122560220D02*
X155146190Y-122560220D01*
X155146190Y-122560220D02*
X155241428Y-122607839D01*
X155241428Y-122607839D02*
X155289047Y-122655458D01*
X155289047Y-122655458D02*
X155336666Y-122750696D01*
X155336666Y-122750696D02*
X155336666Y-122845934D01*
X155336666Y-122845934D02*
X155289047Y-122988791D01*
X155289047Y-122988791D02*
X154717619Y-123560220D01*
X154717619Y-123560220D02*
X155336666Y-123560220D01*
X119901905Y-110484819D02*
X119901905Y-109484819D01*
X119901905Y-109484819D02*
X120140000Y-109484819D01*
X120140000Y-109484819D02*
X120282857Y-109532438D01*
X120282857Y-109532438D02*
X120378095Y-109627676D01*
X120378095Y-109627676D02*
X120425714Y-109722914D01*
X120425714Y-109722914D02*
X120473333Y-109913390D01*
X120473333Y-109913390D02*
X120473333Y-110056247D01*
X120473333Y-110056247D02*
X120425714Y-110246723D01*
X120425714Y-110246723D02*
X120378095Y-110341961D01*
X120378095Y-110341961D02*
X120282857Y-110437200D01*
X120282857Y-110437200D02*
X120140000Y-110484819D01*
X120140000Y-110484819D02*
X119901905Y-110484819D01*
X121330476Y-109484819D02*
X121140000Y-109484819D01*
X121140000Y-109484819D02*
X121044762Y-109532438D01*
X121044762Y-109532438D02*
X120997143Y-109580057D01*
X120997143Y-109580057D02*
X120901905Y-109722914D01*
X120901905Y-109722914D02*
X120854286Y-109913390D01*
X120854286Y-109913390D02*
X120854286Y-110294342D01*
X120854286Y-110294342D02*
X120901905Y-110389580D01*
X120901905Y-110389580D02*
X120949524Y-110437200D01*
X120949524Y-110437200D02*
X121044762Y-110484819D01*
X121044762Y-110484819D02*
X121235238Y-110484819D01*
X121235238Y-110484819D02*
X121330476Y-110437200D01*
X121330476Y-110437200D02*
X121378095Y-110389580D01*
X121378095Y-110389580D02*
X121425714Y-110294342D01*
X121425714Y-110294342D02*
X121425714Y-110056247D01*
X121425714Y-110056247D02*
X121378095Y-109961009D01*
X121378095Y-109961009D02*
X121330476Y-109913390D01*
X121330476Y-109913390D02*
X121235238Y-109865771D01*
X121235238Y-109865771D02*
X121044762Y-109865771D01*
X121044762Y-109865771D02*
X120949524Y-109913390D01*
X120949524Y-109913390D02*
X120901905Y-109961009D01*
X120901905Y-109961009D02*
X120854286Y-110056247D01*
X176317142Y-116410220D02*
X175983809Y-115934029D01*
X175745714Y-116410220D02*
X175745714Y-115410220D01*
X175745714Y-115410220D02*
X176126666Y-115410220D01*
X176126666Y-115410220D02*
X176221904Y-115457839D01*
X176221904Y-115457839D02*
X176269523Y-115505458D01*
X176269523Y-115505458D02*
X176317142Y-115600696D01*
X176317142Y-115600696D02*
X176317142Y-115743553D01*
X176317142Y-115743553D02*
X176269523Y-115838791D01*
X176269523Y-115838791D02*
X176221904Y-115886410D01*
X176221904Y-115886410D02*
X176126666Y-115934029D01*
X176126666Y-115934029D02*
X175745714Y-115934029D01*
X177269523Y-116410220D02*
X176698095Y-116410220D01*
X176983809Y-116410220D02*
X176983809Y-115410220D01*
X176983809Y-115410220D02*
X176888571Y-115553077D01*
X176888571Y-115553077D02*
X176793333Y-115648315D01*
X176793333Y-115648315D02*
X176698095Y-115695934D01*
X178174285Y-115410220D02*
X177698095Y-115410220D01*
X177698095Y-115410220D02*
X177650476Y-115886410D01*
X177650476Y-115886410D02*
X177698095Y-115838791D01*
X177698095Y-115838791D02*
X177793333Y-115791172D01*
X177793333Y-115791172D02*
X178031428Y-115791172D01*
X178031428Y-115791172D02*
X178126666Y-115838791D01*
X178126666Y-115838791D02*
X178174285Y-115886410D01*
X178174285Y-115886410D02*
X178221904Y-115981648D01*
X178221904Y-115981648D02*
X178221904Y-116219743D01*
X178221904Y-116219743D02*
X178174285Y-116314981D01*
X178174285Y-116314981D02*
X178126666Y-116362601D01*
X178126666Y-116362601D02*
X178031428Y-116410220D01*
X178031428Y-116410220D02*
X177793333Y-116410220D01*
X177793333Y-116410220D02*
X177698095Y-116362601D01*
X177698095Y-116362601D02*
X177650476Y-116314981D01*
X176036666Y-121660220D02*
X176036666Y-122374505D01*
X176036666Y-122374505D02*
X175989047Y-122517362D01*
X175989047Y-122517362D02*
X175893809Y-122612601D01*
X175893809Y-122612601D02*
X175750952Y-122660220D01*
X175750952Y-122660220D02*
X175655714Y-122660220D01*
X176941428Y-121993553D02*
X176941428Y-122660220D01*
X176703333Y-121612601D02*
X176465238Y-122326886D01*
X176465238Y-122326886D02*
X177084285Y-122326886D01*
X182327142Y-88264981D02*
X182279523Y-88312601D01*
X182279523Y-88312601D02*
X182136666Y-88360220D01*
X182136666Y-88360220D02*
X182041428Y-88360220D01*
X182041428Y-88360220D02*
X181898571Y-88312601D01*
X181898571Y-88312601D02*
X181803333Y-88217362D01*
X181803333Y-88217362D02*
X181755714Y-88122124D01*
X181755714Y-88122124D02*
X181708095Y-87931648D01*
X181708095Y-87931648D02*
X181708095Y-87788791D01*
X181708095Y-87788791D02*
X181755714Y-87598315D01*
X181755714Y-87598315D02*
X181803333Y-87503077D01*
X181803333Y-87503077D02*
X181898571Y-87407839D01*
X181898571Y-87407839D02*
X182041428Y-87360220D01*
X182041428Y-87360220D02*
X182136666Y-87360220D01*
X182136666Y-87360220D02*
X182279523Y-87407839D01*
X182279523Y-87407839D02*
X182327142Y-87455458D01*
X183279523Y-88360220D02*
X182708095Y-88360220D01*
X182993809Y-88360220D02*
X182993809Y-87360220D01*
X182993809Y-87360220D02*
X182898571Y-87503077D01*
X182898571Y-87503077D02*
X182803333Y-87598315D01*
X182803333Y-87598315D02*
X182708095Y-87645934D01*
X184184285Y-87360220D02*
X183708095Y-87360220D01*
X183708095Y-87360220D02*
X183660476Y-87836410D01*
X183660476Y-87836410D02*
X183708095Y-87788791D01*
X183708095Y-87788791D02*
X183803333Y-87741172D01*
X183803333Y-87741172D02*
X184041428Y-87741172D01*
X184041428Y-87741172D02*
X184136666Y-87788791D01*
X184136666Y-87788791D02*
X184184285Y-87836410D01*
X184184285Y-87836410D02*
X184231904Y-87931648D01*
X184231904Y-87931648D02*
X184231904Y-88169743D01*
X184231904Y-88169743D02*
X184184285Y-88264981D01*
X184184285Y-88264981D02*
X184136666Y-88312601D01*
X184136666Y-88312601D02*
X184041428Y-88360220D01*
X184041428Y-88360220D02*
X183803333Y-88360220D01*
X183803333Y-88360220D02*
X183708095Y-88312601D01*
X183708095Y-88312601D02*
X183660476Y-88264981D01*
D13*
%TO.C,F1*%
X112910000Y-113595401D02*
X112910000Y-116755401D01*
X112910000Y-120255401D02*
X112910000Y-123415401D01*
X135630000Y-113595401D02*
X112910000Y-113595401D01*
X135630000Y-113595401D02*
X135630000Y-116755401D01*
X135630000Y-120255401D02*
X135630000Y-123415401D01*
X135630000Y-123415401D02*
X112910000Y-123415401D01*
%TO.C,C5*%
X184641252Y-89565401D02*
X184118748Y-89565401D01*
X184641252Y-91035401D02*
X184118748Y-91035401D01*
%TO.C,R23*%
X127862064Y-103405000D02*
X127407936Y-103405000D01*
X127862064Y-104875000D02*
X127407936Y-104875000D01*
%TO.C,U1*%
X184105000Y-119855401D02*
X185925000Y-119855401D01*
X184105000Y-119905401D02*
X184105000Y-119855401D01*
X184105000Y-122975401D02*
X184105000Y-122925401D01*
X185925000Y-119855401D02*
X185925000Y-119905401D01*
X185925000Y-122925401D02*
X185925000Y-122975401D01*
X185925000Y-122975401D02*
X184105000Y-122975401D01*
X183565000Y-119905401D02*
X183325000Y-119575401D01*
X183805000Y-119575401D01*
X183565000Y-119905401D01*
G36*
X183565000Y-119905401D02*
G01*
X183325000Y-119575401D01*
X183805000Y-119575401D01*
X183565000Y-119905401D01*
G37*
%TO.C,R14*%
X169040000Y-116914965D02*
X169040000Y-116460837D01*
X170510000Y-116914965D02*
X170510000Y-116460837D01*
%TO.C,R17*%
X165865000Y-100062465D02*
X165865000Y-99608337D01*
X167335000Y-100062465D02*
X167335000Y-99608337D01*
%TO.C,D4*%
X202060000Y-123790401D02*
X202060000Y-126075401D01*
X202060000Y-126075401D02*
X203530000Y-126075401D01*
X203530000Y-126075401D02*
X203530000Y-123790401D01*
%TO.C,C7*%
X187455000Y-121154149D02*
X187455000Y-121676653D01*
X188925000Y-121154149D02*
X188925000Y-121676653D01*
%TO.C,D1*%
X200560000Y-114065401D02*
X196700000Y-114065401D01*
X200560000Y-116065401D02*
X196700000Y-116065401D01*
X200560000Y-116065401D02*
X200560000Y-114065401D01*
%TO.C,F2*%
X112695000Y-70785401D02*
X135415000Y-70785401D01*
X112695000Y-73945401D02*
X112695000Y-70785401D01*
X112695000Y-80605401D02*
X112695000Y-77445401D01*
X112695000Y-80605401D02*
X135415000Y-80605401D01*
X135415000Y-73945401D02*
X135415000Y-70785401D01*
X135415000Y-80605401D02*
X135415000Y-77445401D01*
%TO.C,C8*%
X198255000Y-121154149D02*
X198255000Y-121676653D01*
X199725000Y-121154149D02*
X199725000Y-121676653D01*
%TO.C,C18*%
X137470000Y-75434149D02*
X137470000Y-75956653D01*
X138940000Y-75434149D02*
X138940000Y-75956653D01*
%TO.C,L1*%
X132030000Y-86325000D02*
X132030000Y-89075000D01*
X132030000Y-95075000D02*
X132030000Y-97825000D01*
X132680000Y-85675000D02*
X144180000Y-85675000D01*
X144180000Y-98475000D02*
X132680000Y-98475000D01*
X144830000Y-86325000D02*
X144830000Y-89075000D01*
X144830000Y-95075000D02*
X144830000Y-97825000D01*
X132030000Y-86325000D02*
G75*
G02*
X132680000Y-85675000I650001J-1D01*
G01*
X132680000Y-98475000D02*
G75*
G02*
X132030000Y-97825000I1J650001D01*
G01*
X144180000Y-85675000D02*
G75*
G02*
X144830000Y-86325000I0J-650000D01*
G01*
X144830000Y-97825000D02*
G75*
G02*
X144180000Y-98475000I-650000J0D01*
G01*
%TO.C,C16*%
X130075000Y-98163748D02*
X130075000Y-98686252D01*
X131545000Y-98163748D02*
X131545000Y-98686252D01*
%TO.C,TP6*%
X175805000Y-92205401D02*
G75*
G02*
X173905000Y-92205401I-950000J0D01*
G01*
X173905000Y-92205401D02*
G75*
G02*
X175805000Y-92205401I950000J0D01*
G01*
%TO.C,TP4*%
X145095000Y-104775000D02*
G75*
G02*
X143195000Y-104775000I-950000J0D01*
G01*
X143195000Y-104775000D02*
G75*
G02*
X145095000Y-104775000I950000J0D01*
G01*
%TO.C,R5*%
X118010000Y-96747064D02*
X118010000Y-96292936D01*
X119480000Y-96747064D02*
X119480000Y-96292936D01*
%TO.C,U8*%
X190455000Y-113505401D02*
X192275000Y-113505401D01*
X190455000Y-113555401D02*
X190455000Y-113505401D01*
X190455000Y-116625401D02*
X190455000Y-116575401D01*
X192275000Y-113505401D02*
X192275000Y-113555401D01*
X192275000Y-114675401D02*
X192275000Y-115455401D01*
X192275000Y-116575401D02*
X192275000Y-116625401D01*
X192275000Y-116625401D02*
X190455000Y-116625401D01*
X189915000Y-113555401D02*
X189675000Y-113225401D01*
X190155000Y-113225401D01*
X189915000Y-113555401D01*
G36*
X189915000Y-113555401D02*
G01*
X189675000Y-113225401D01*
X190155000Y-113225401D01*
X189915000Y-113555401D01*
G37*
%TO.C,R6*%
X205235000Y-103408337D02*
X205235000Y-103862465D01*
X206705000Y-103408337D02*
X206705000Y-103862465D01*
%TO.C,C1*%
X122063748Y-95974599D02*
X122586252Y-95974599D01*
X122063748Y-97444599D02*
X122586252Y-97444599D01*
%TO.C,R10*%
X188597936Y-124490401D02*
X189052064Y-124490401D01*
X188597936Y-125960401D02*
X189052064Y-125960401D01*
%TO.C,D5*%
X204970000Y-117150401D02*
X204970000Y-121160401D01*
X206970000Y-117150401D02*
X204970000Y-117150401D01*
X206970000Y-117150401D02*
X206970000Y-121160401D01*
%TO.C,U6*%
X169160000Y-104190401D02*
X169215000Y-104190401D01*
X169160000Y-108310401D02*
X169160000Y-104190401D01*
X169215000Y-108310401D02*
X169160000Y-108310401D01*
X179225000Y-104190401D02*
X179280000Y-104190401D01*
X179280000Y-104190401D02*
X179280000Y-108310401D01*
X179280000Y-108310401D02*
X179225000Y-108310401D01*
X169210000Y-108850401D02*
X168880000Y-109090401D01*
X168880000Y-108610401D01*
X169210000Y-108850401D01*
G36*
X169210000Y-108850401D02*
G01*
X168880000Y-109090401D01*
X168880000Y-108610401D01*
X169210000Y-108850401D01*
G37*
%TO.C,C6*%
X195710000Y-121154149D02*
X195710000Y-121676653D01*
X197180000Y-121154149D02*
X197180000Y-121676653D01*
%TO.C,R25*%
X180315276Y-93587901D02*
X180824724Y-93587901D01*
X180315276Y-94632901D02*
X180824724Y-94632901D01*
%TO.C,R21*%
X130075000Y-94387936D02*
X130075000Y-94842064D01*
X131545000Y-94387936D02*
X131545000Y-94842064D01*
%TO.C,Q2*%
X168215000Y-99075401D02*
X169215000Y-99075401D01*
X168215000Y-100595401D02*
X168215000Y-99075401D01*
X168265000Y-100595401D02*
X168215000Y-100595401D01*
X170165000Y-100595401D02*
X169385000Y-100595401D01*
X170335000Y-99075401D02*
X171335000Y-99075401D01*
X171335000Y-99075401D02*
X171335000Y-100595401D01*
X171335000Y-100595401D02*
X171285000Y-100595401D01*
X169725000Y-101375401D02*
X169395000Y-101135401D01*
X169725000Y-100895401D01*
X169725000Y-101375401D01*
G36*
X169725000Y-101375401D02*
G01*
X169395000Y-101135401D01*
X169725000Y-100895401D01*
X169725000Y-101375401D01*
G37*
%TO.C,U7*%
X165900000Y-115175401D02*
X167860000Y-115175401D01*
X165900000Y-116375401D02*
X167860000Y-116375401D01*
X167860000Y-116375401D02*
X167860000Y-115175401D01*
%TO.C,C24*%
X184526267Y-92330401D02*
X184233733Y-92330401D01*
X184526267Y-93350401D02*
X184233733Y-93350401D01*
%TO.C,R1*%
X159355000Y-74788337D02*
X159355000Y-79142465D01*
X162775000Y-74788337D02*
X162775000Y-79142465D01*
%TO.C,R7*%
X166552936Y-69880401D02*
X167007064Y-69880401D01*
X166552936Y-71350401D02*
X167007064Y-71350401D01*
%TO.C,U4*%
X172450000Y-115000401D02*
X173450000Y-115000401D01*
X172450000Y-117820401D02*
X173240000Y-117820401D01*
X173570000Y-118100401D02*
X173570000Y-117820401D01*
X173850000Y-117820401D01*
X173570000Y-118100401D01*
G36*
X173570000Y-118100401D02*
G01*
X173570000Y-117820401D01*
X173850000Y-117820401D01*
X173570000Y-118100401D01*
G37*
%TO.C,U5*%
X187620000Y-81855401D02*
X187120000Y-81855401D01*
X187620000Y-81355401D01*
X187620000Y-81855401D01*
G36*
X187620000Y-81855401D02*
G01*
X187120000Y-81855401D01*
X187620000Y-81355401D01*
X187620000Y-81855401D01*
G37*
X205865000Y-100710401D02*
X204865000Y-100710401D01*
X205865000Y-99930401D02*
X205865000Y-100710401D01*
X205865000Y-74970401D02*
X205865000Y-81385401D01*
X187625000Y-100710401D02*
X188625000Y-100710401D01*
X187625000Y-99930401D02*
X187625000Y-100710401D01*
X187625000Y-74970401D02*
X205865000Y-74970401D01*
X187625000Y-74970401D02*
X187625000Y-81130401D01*
%TO.C,R20*%
X125630000Y-99287064D02*
X125630000Y-98832936D01*
X127100000Y-99287064D02*
X127100000Y-98832936D01*
%TO.C,L2*%
X190635000Y-119315401D02*
X194635000Y-119315401D01*
X190635000Y-123515401D02*
X194635000Y-123515401D01*
%TO.C,R18*%
X177015000Y-111409042D02*
X177015000Y-111101760D01*
X177775000Y-111409042D02*
X177775000Y-111101760D01*
%TO.C,C14*%
X167135000Y-105989149D02*
X167135000Y-106511653D01*
X168605000Y-105989149D02*
X168605000Y-106511653D01*
%TO.C,R11*%
X192407936Y-124490401D02*
X192862064Y-124490401D01*
X192407936Y-125960401D02*
X192862064Y-125960401D01*
%TO.C,U2*%
X164720000Y-73770401D02*
X168840000Y-73770401D01*
X164720000Y-73865401D02*
X164720000Y-73770401D01*
X164720000Y-78890401D02*
X164720000Y-78795401D01*
X168840000Y-73770401D02*
X168840000Y-73865401D01*
X168840000Y-78795401D02*
X168840000Y-78890401D01*
X168840000Y-78890401D02*
X164720000Y-78890401D01*
X169620000Y-79130401D02*
X169140000Y-79130401D01*
X169380000Y-78800401D01*
X169620000Y-79130401D01*
G36*
X169620000Y-79130401D02*
G01*
X169140000Y-79130401D01*
X169380000Y-78800401D01*
X169620000Y-79130401D01*
G37*
%TO.C,D3*%
X115570000Y-99130000D02*
X115570000Y-100150000D01*
X115570000Y-106610000D02*
X115570000Y-105590000D01*
X117040000Y-100930000D02*
X114100000Y-100930000D01*
X117040000Y-101050000D02*
X114100000Y-101050000D01*
X117040000Y-101170000D02*
X114100000Y-101170000D01*
X117040000Y-100150000D02*
X114100000Y-100150000D01*
X114100000Y-105590000D01*
X117040000Y-105590000D01*
X117040000Y-100150000D01*
%TO.C,TP9*%
X129220000Y-101600000D02*
G75*
G02*
X127320000Y-101600000I-950000J0D01*
G01*
X127320000Y-101600000D02*
G75*
G02*
X129220000Y-101600000I950000J0D01*
G01*
%TO.C,R16*%
X176025000Y-100062465D02*
X176025000Y-99608337D01*
X177495000Y-100062465D02*
X177495000Y-99608337D01*
%TO.C,TP2*%
X122870000Y-86360000D02*
G75*
G02*
X120970000Y-86360000I-950000J0D01*
G01*
X120970000Y-86360000D02*
G75*
G02*
X122870000Y-86360000I950000J0D01*
G01*
%TO.C,C4*%
X105035000Y-92982724D02*
X101358000Y-92982724D01*
X105035000Y-93022724D02*
X101368000Y-93022724D01*
X105035000Y-93062724D02*
X101379000Y-93062724D01*
X105035000Y-93102724D02*
X101390000Y-93102724D01*
X105035000Y-93142724D02*
X101402000Y-93142724D01*
X105035000Y-93182724D02*
X101414000Y-93182724D01*
X105035000Y-93222724D02*
X101426000Y-93222724D01*
X105035000Y-93262724D02*
X101438000Y-93262724D01*
X105035000Y-93302724D02*
X101451000Y-93302724D01*
X105035000Y-93342724D02*
X101465000Y-93342724D01*
X105035000Y-93382724D02*
X101478000Y-93382724D01*
X105035000Y-93422724D02*
X101493000Y-93422724D01*
X105035000Y-93462724D02*
X101507000Y-93462724D01*
X105035000Y-93502724D02*
X101522000Y-93502724D01*
X105035000Y-93542724D02*
X101537000Y-93542724D01*
X105035000Y-93582724D02*
X101553000Y-93582724D01*
X105035000Y-93622724D02*
X101569000Y-93622724D01*
X105035000Y-93662724D02*
X101585000Y-93662724D01*
X105035000Y-93702724D02*
X101602000Y-93702724D01*
X105035000Y-93742724D02*
X101619000Y-93742724D01*
X105035000Y-93782724D02*
X101637000Y-93782724D01*
X105035000Y-93822724D02*
X101655000Y-93822724D01*
X105035000Y-93862724D02*
X101673000Y-93862724D01*
X105035000Y-93902724D02*
X101692000Y-93902724D01*
X105035000Y-93942724D02*
X101711000Y-93942724D01*
X105035000Y-93982724D02*
X101731000Y-93982724D01*
X105035000Y-94022724D02*
X101751000Y-94022724D01*
X105035000Y-94062724D02*
X101771000Y-94062724D01*
X105035000Y-94102724D02*
X101792000Y-94102724D01*
X105035000Y-94142724D02*
X101814000Y-94142724D01*
X105035000Y-94182724D02*
X101836000Y-94182724D01*
X105035000Y-94222724D02*
X101858000Y-94222724D01*
X105035000Y-94262724D02*
X101881000Y-94262724D01*
X105035000Y-94302724D02*
X101904000Y-94302724D01*
X105035000Y-94342724D02*
X101928000Y-94342724D01*
X105035000Y-94382724D02*
X101952000Y-94382724D01*
X105035000Y-94422724D02*
X101977000Y-94422724D01*
X105035000Y-94462724D02*
X102003000Y-94462724D01*
X105035000Y-94502724D02*
X102028000Y-94502724D01*
X105035000Y-94542724D02*
X102055000Y-94542724D01*
X105035000Y-94582724D02*
X102082000Y-94582724D01*
X105035000Y-94622724D02*
X102109000Y-94622724D01*
X105035000Y-94662724D02*
X102137000Y-94662724D01*
X105035000Y-94702724D02*
X102166000Y-94702724D01*
X105035000Y-94742724D02*
X102195000Y-94742724D01*
X105035000Y-94782724D02*
X102225000Y-94782724D01*
X105035000Y-94822724D02*
X102255000Y-94822724D01*
X105035000Y-94862724D02*
X102287000Y-94862724D01*
X105035000Y-94902724D02*
X102318000Y-94902724D01*
X105035000Y-94942724D02*
X102351000Y-94942724D01*
X105035000Y-94982724D02*
X102384000Y-94982724D01*
X105035000Y-95022724D02*
X102417000Y-95022724D01*
X105035000Y-95062724D02*
X102452000Y-95062724D01*
X105035000Y-95102724D02*
X102487000Y-95102724D01*
X105035000Y-95142724D02*
X102523000Y-95142724D01*
X105035000Y-95182724D02*
X102559000Y-95182724D01*
X105035000Y-95222724D02*
X102597000Y-95222724D01*
X105035000Y-95262724D02*
X102635000Y-95262724D01*
X105035000Y-95302724D02*
X102674000Y-95302724D01*
X105035000Y-95342724D02*
X102714000Y-95342724D01*
X105035000Y-95382724D02*
X102755000Y-95382724D01*
X105035000Y-95422724D02*
X102797000Y-95422724D01*
X106874000Y-96782724D02*
X105676000Y-96782724D01*
X107137000Y-96742724D02*
X105413000Y-96742724D01*
X107337000Y-96702724D02*
X105213000Y-96702724D01*
X107505000Y-96662724D02*
X105045000Y-96662724D01*
X107652000Y-96622724D02*
X104898000Y-96622724D01*
X107784000Y-96582724D02*
X104766000Y-96582724D01*
X107905000Y-96542724D02*
X104645000Y-96542724D01*
X108017000Y-96502724D02*
X104533000Y-96502724D01*
X108121000Y-96462724D02*
X104429000Y-96462724D01*
X108219000Y-96422724D02*
X104331000Y-96422724D01*
X108312000Y-96382724D02*
X104238000Y-96382724D01*
X108399000Y-96342724D02*
X104151000Y-96342724D01*
X108483000Y-96302724D02*
X104067000Y-96302724D01*
X108563000Y-96262724D02*
X103987000Y-96262724D01*
X108640000Y-96222724D02*
X103910000Y-96222724D01*
X108714000Y-96182724D02*
X103836000Y-96182724D01*
X108785000Y-96142724D02*
X103765000Y-96142724D01*
X108853000Y-96102724D02*
X103697000Y-96102724D01*
X108919000Y-96062724D02*
X103631000Y-96062724D01*
X108983000Y-96022724D02*
X103567000Y-96022724D01*
X109045000Y-95982724D02*
X103505000Y-95982724D01*
X109105000Y-95942724D02*
X103445000Y-95942724D01*
X109150000Y-86223078D02*
X109150000Y-87223078D01*
X109163000Y-95902724D02*
X103387000Y-95902724D01*
X109220000Y-95862724D02*
X103330000Y-95862724D01*
X109275000Y-95822724D02*
X103275000Y-95822724D01*
X109328000Y-95782724D02*
X103222000Y-95782724D01*
X109380000Y-95742724D02*
X103170000Y-95742724D01*
X109431000Y-95702724D02*
X103119000Y-95702724D01*
X109480000Y-95662724D02*
X103070000Y-95662724D01*
X109529000Y-95622724D02*
X103021000Y-95622724D01*
X109576000Y-95582724D02*
X102974000Y-95582724D01*
X109622000Y-95542724D02*
X102928000Y-95542724D01*
X109650000Y-86723078D02*
X108650000Y-86723078D01*
X109666000Y-95502724D02*
X102884000Y-95502724D01*
X109710000Y-95462724D02*
X102840000Y-95462724D01*
X109753000Y-95422724D02*
X107515000Y-95422724D01*
X109795000Y-95382724D02*
X107515000Y-95382724D01*
X109836000Y-95342724D02*
X107515000Y-95342724D01*
X109876000Y-95302724D02*
X107515000Y-95302724D01*
X109915000Y-95262724D02*
X107515000Y-95262724D01*
X109953000Y-95222724D02*
X107515000Y-95222724D01*
X109991000Y-95182724D02*
X107515000Y-95182724D01*
X110027000Y-95142724D02*
X107515000Y-95142724D01*
X110063000Y-95102724D02*
X107515000Y-95102724D01*
X110098000Y-95062724D02*
X107515000Y-95062724D01*
X110133000Y-95022724D02*
X107515000Y-95022724D01*
X110166000Y-94982724D02*
X107515000Y-94982724D01*
X110199000Y-94942724D02*
X107515000Y-94942724D01*
X110232000Y-94902724D02*
X107515000Y-94902724D01*
X110263000Y-94862724D02*
X107515000Y-94862724D01*
X110295000Y-94822724D02*
X107515000Y-94822724D01*
X110325000Y-94782724D02*
X107515000Y-94782724D01*
X110355000Y-94742724D02*
X107515000Y-94742724D01*
X110384000Y-94702724D02*
X107515000Y-94702724D01*
X110413000Y-94662724D02*
X107515000Y-94662724D01*
X110441000Y-94622724D02*
X107515000Y-94622724D01*
X110468000Y-94582724D02*
X107515000Y-94582724D01*
X110495000Y-94542724D02*
X107515000Y-94542724D01*
X110522000Y-94502724D02*
X107515000Y-94502724D01*
X110547000Y-94462724D02*
X107515000Y-94462724D01*
X110573000Y-94422724D02*
X107515000Y-94422724D01*
X110598000Y-94382724D02*
X107515000Y-94382724D01*
X110622000Y-94342724D02*
X107515000Y-94342724D01*
X110646000Y-94302724D02*
X107515000Y-94302724D01*
X110669000Y-94262724D02*
X107515000Y-94262724D01*
X110692000Y-94222724D02*
X107515000Y-94222724D01*
X110714000Y-94182724D02*
X107515000Y-94182724D01*
X110736000Y-94142724D02*
X107515000Y-94142724D01*
X110758000Y-94102724D02*
X107515000Y-94102724D01*
X110779000Y-94062724D02*
X107515000Y-94062724D01*
X110799000Y-94022724D02*
X107515000Y-94022724D01*
X110819000Y-93982724D02*
X107515000Y-93982724D01*
X110839000Y-93942724D02*
X107515000Y-93942724D01*
X110858000Y-93902724D02*
X107515000Y-93902724D01*
X110877000Y-93862724D02*
X107515000Y-93862724D01*
X110895000Y-93822724D02*
X107515000Y-93822724D01*
X110913000Y-93782724D02*
X107515000Y-93782724D01*
X110931000Y-93742724D02*
X107515000Y-93742724D01*
X110948000Y-93702724D02*
X107515000Y-93702724D01*
X110965000Y-93662724D02*
X107515000Y-93662724D01*
X110981000Y-93622724D02*
X107515000Y-93622724D01*
X110997000Y-93582724D02*
X107515000Y-93582724D01*
X111013000Y-93542724D02*
X107515000Y-93542724D01*
X111028000Y-93502724D02*
X107515000Y-93502724D01*
X111043000Y-93462724D02*
X107515000Y-93462724D01*
X111057000Y-93422724D02*
X107515000Y-93422724D01*
X111072000Y-93382724D02*
X107515000Y-93382724D01*
X111085000Y-93342724D02*
X107515000Y-93342724D01*
X111099000Y-93302724D02*
X107515000Y-93302724D01*
X111112000Y-93262724D02*
X107515000Y-93262724D01*
X111124000Y-93222724D02*
X107515000Y-93222724D01*
X111136000Y-93182724D02*
X107515000Y-93182724D01*
X111148000Y-93142724D02*
X107515000Y-93142724D01*
X111160000Y-93102724D02*
X107515000Y-93102724D01*
X111171000Y-93062724D02*
X107515000Y-93062724D01*
X111182000Y-93022724D02*
X107515000Y-93022724D01*
X111192000Y-92982724D02*
X107515000Y-92982724D01*
X111203000Y-92942724D02*
X101347000Y-92942724D01*
X111212000Y-92902724D02*
X101338000Y-92902724D01*
X111222000Y-92862724D02*
X101328000Y-92862724D01*
X111231000Y-92822724D02*
X101319000Y-92822724D01*
X111240000Y-92782724D02*
X101310000Y-92782724D01*
X111248000Y-92742724D02*
X101302000Y-92742724D01*
X111256000Y-92702724D02*
X101294000Y-92702724D01*
X111264000Y-92662724D02*
X101286000Y-92662724D01*
X111272000Y-92622724D02*
X101278000Y-92622724D01*
X111279000Y-92582724D02*
X101271000Y-92582724D01*
X111286000Y-92542724D02*
X101264000Y-92542724D01*
X111292000Y-92502724D02*
X101258000Y-92502724D01*
X111298000Y-92462724D02*
X101252000Y-92462724D01*
X111304000Y-92422724D02*
X101246000Y-92422724D01*
X111310000Y-92382724D02*
X101240000Y-92382724D01*
X111315000Y-92342724D02*
X101235000Y-92342724D01*
X111320000Y-92302724D02*
X101230000Y-92302724D01*
X111324000Y-92262724D02*
X101226000Y-92262724D01*
X111329000Y-92222724D02*
X101221000Y-92222724D01*
X111332000Y-92182724D02*
X101218000Y-92182724D01*
X111336000Y-92142724D02*
X101214000Y-92142724D01*
X111339000Y-92102724D02*
X101211000Y-92102724D01*
X111342000Y-92062724D02*
X101208000Y-92062724D01*
X111345000Y-92022724D02*
X101205000Y-92022724D01*
X111347000Y-91982724D02*
X101203000Y-91982724D01*
X111349000Y-91942724D02*
X101201000Y-91942724D01*
X111351000Y-91902724D02*
X101199000Y-91902724D01*
X111352000Y-91862724D02*
X101198000Y-91862724D01*
X111354000Y-91782724D02*
X101196000Y-91782724D01*
X111354000Y-91822724D02*
X101196000Y-91822724D01*
X111355000Y-91702724D02*
X101195000Y-91702724D01*
X111355000Y-91742724D02*
X101195000Y-91742724D01*
X111395000Y-91702724D02*
G75*
G02*
X101155000Y-91702724I-5120000J0D01*
G01*
X101155000Y-91702724D02*
G75*
G02*
X111395000Y-91702724I5120000J0D01*
G01*
%TO.C,R2*%
X201425000Y-103363337D02*
X201425000Y-103817465D01*
X202895000Y-103363337D02*
X202895000Y-103817465D01*
%TO.C,Q3*%
X172025000Y-99075401D02*
X172075000Y-99075401D01*
X172025000Y-100595401D02*
X172025000Y-99075401D01*
X173025000Y-100595401D02*
X172025000Y-100595401D01*
X173195000Y-99075401D02*
X173975000Y-99075401D01*
X175095000Y-99075401D02*
X175145000Y-99075401D01*
X175145000Y-99075401D02*
X175145000Y-100595401D01*
X175145000Y-100595401D02*
X174145000Y-100595401D01*
X173965000Y-98535401D02*
X173635000Y-98775401D01*
X173635000Y-98295401D01*
X173965000Y-98535401D01*
G36*
X173965000Y-98535401D02*
G01*
X173635000Y-98775401D01*
X173635000Y-98295401D01*
X173965000Y-98535401D01*
G37*
%TO.C,U3*%
X119995000Y-99540000D02*
X120090000Y-99540000D01*
X119995000Y-103660000D02*
X119995000Y-99540000D01*
X120090000Y-103660000D02*
X119995000Y-103660000D01*
X125020000Y-99540000D02*
X125115000Y-99540000D01*
X125115000Y-99540000D02*
X125115000Y-103660000D01*
X125115000Y-103660000D02*
X125020000Y-103660000D01*
X120085000Y-104200000D02*
X119755000Y-104440000D01*
X119755000Y-103960000D01*
X120085000Y-104200000D01*
G36*
X120085000Y-104200000D02*
G01*
X119755000Y-104440000D01*
X119755000Y-103960000D01*
X120085000Y-104200000D01*
G37*
%TO.C,J3*%
X100147500Y-113300401D02*
X110187500Y-113300401D01*
X100147500Y-115660401D02*
X100147500Y-113300401D01*
X100147500Y-123700401D02*
X100147500Y-116260401D01*
X100767500Y-113300401D02*
X100767500Y-123700401D01*
X102267500Y-113300401D02*
X102267500Y-123700401D01*
X107167500Y-113300401D02*
X107167500Y-123700401D01*
X110187500Y-113300401D02*
X110187500Y-123700401D01*
X110187500Y-123700401D02*
X100147500Y-123700401D01*
X100147500Y-115960401D02*
X99537500Y-116400401D01*
X99537500Y-115520401D01*
X100147500Y-115960401D01*
G36*
X100147500Y-115960401D02*
G01*
X99537500Y-116400401D01*
X99537500Y-115520401D01*
X100147500Y-115960401D01*
G37*
%TO.C,C13*%
X193805000Y-114804149D02*
X193805000Y-115326653D01*
X195275000Y-114804149D02*
X195275000Y-115326653D01*
%TO.C,R4*%
X178565000Y-90527465D02*
X178565000Y-90073337D01*
X180035000Y-90527465D02*
X180035000Y-90073337D01*
%TO.C,C11*%
X184915000Y-83891653D02*
X184915000Y-83369149D01*
X186385000Y-83891653D02*
X186385000Y-83369149D01*
%TO.C,J5*%
X201410000Y-116445401D02*
X201410000Y-115065401D01*
X202790000Y-116445401D02*
X201410000Y-116445401D01*
X204060000Y-113685401D02*
X206710000Y-113685401D01*
X204060000Y-116445401D02*
X204060000Y-113685401D01*
X204060000Y-116445401D02*
X206710000Y-116445401D01*
X206710000Y-116445401D02*
X206710000Y-113685401D01*
%TO.C,R13*%
X149712064Y-113705401D02*
X146657936Y-113705401D01*
X149712064Y-116425401D02*
X146657936Y-116425401D01*
%TO.C,R24*%
X127407936Y-105310000D02*
X127862064Y-105310000D01*
X127407936Y-106780000D02*
X127862064Y-106780000D01*
%TO.C,R12*%
X202387064Y-120680401D02*
X201932936Y-120680401D01*
X202387064Y-122150401D02*
X201932936Y-122150401D01*
%TO.C,IRFZ44N1*%
X113865000Y-89260401D02*
X124085000Y-89260401D01*
X113865000Y-90640401D02*
X124085000Y-90640401D01*
X113865000Y-93880401D02*
X113865000Y-89260401D01*
X117125000Y-89260401D02*
X117125000Y-90640401D01*
X120825000Y-89260401D02*
X120825000Y-90640401D01*
X124085000Y-89260401D02*
X124085000Y-93880401D01*
X124085000Y-93880401D02*
X113865000Y-93880401D01*
%TO.C,TP10*%
X184060000Y-116335401D02*
G75*
G02*
X182160000Y-116335401I-950000J0D01*
G01*
X182160000Y-116335401D02*
G75*
G02*
X184060000Y-116335401I950000J0D01*
G01*
%TO.C,R3*%
X115572936Y-111155401D02*
X116027064Y-111155401D01*
X115572936Y-112625401D02*
X116027064Y-112625401D01*
%TO.C,C21*%
X145315000Y-87256252D02*
X145315000Y-86733748D01*
X146785000Y-87256252D02*
X146785000Y-86733748D01*
%TO.C,R8*%
X166552936Y-71785401D02*
X167007064Y-71785401D01*
X166552936Y-73255401D02*
X167007064Y-73255401D01*
%TO.C,SW2*%
X204570000Y-106385401D02*
X204570000Y-109685401D01*
X204570000Y-109685401D02*
X204870000Y-109685401D01*
X204870000Y-106385401D02*
X204570000Y-106385401D01*
X207070000Y-106385401D02*
X207370000Y-106385401D01*
X207370000Y-106385401D02*
X207370000Y-109685401D01*
X207370000Y-109685401D02*
X207070000Y-109685401D01*
%TO.C,C10*%
X181740000Y-83891653D02*
X181740000Y-83369149D01*
X183210000Y-83891653D02*
X183210000Y-83369149D01*
%TO.C,C3*%
X184753748Y-123855401D02*
X185276252Y-123855401D01*
X184753748Y-125325401D02*
X185276252Y-125325401D01*
%TO.C,C2*%
X145147677Y-89835000D02*
X146147677Y-89835000D01*
X145647677Y-89335000D02*
X145647677Y-90335000D01*
X150627323Y-87630000D02*
X150627323Y-97790000D01*
X150667323Y-87630000D02*
X150667323Y-97790000D01*
X150707323Y-87631000D02*
X150707323Y-97789000D01*
X150747323Y-87631000D02*
X150747323Y-97789000D01*
X150787323Y-87633000D02*
X150787323Y-97787000D01*
X150827323Y-87634000D02*
X150827323Y-97786000D01*
X150867323Y-87636000D02*
X150867323Y-97784000D01*
X150907323Y-87638000D02*
X150907323Y-97782000D01*
X150947323Y-87640000D02*
X150947323Y-97780000D01*
X150987323Y-87643000D02*
X150987323Y-97777000D01*
X151027323Y-87646000D02*
X151027323Y-97774000D01*
X151067323Y-87649000D02*
X151067323Y-97771000D01*
X151107323Y-87653000D02*
X151107323Y-97767000D01*
X151147323Y-87656000D02*
X151147323Y-97764000D01*
X151187323Y-87661000D02*
X151187323Y-97759000D01*
X151227323Y-87665000D02*
X151227323Y-97755000D01*
X151267323Y-87670000D02*
X151267323Y-97750000D01*
X151307323Y-87675000D02*
X151307323Y-97745000D01*
X151347323Y-87681000D02*
X151347323Y-97739000D01*
X151387323Y-87687000D02*
X151387323Y-97733000D01*
X151427323Y-87693000D02*
X151427323Y-97727000D01*
X151467323Y-87699000D02*
X151467323Y-97721000D01*
X151507323Y-87706000D02*
X151507323Y-97714000D01*
X151547323Y-87713000D02*
X151547323Y-97707000D01*
X151587323Y-87721000D02*
X151587323Y-97699000D01*
X151627323Y-87729000D02*
X151627323Y-97691000D01*
X151667323Y-87737000D02*
X151667323Y-97683000D01*
X151707323Y-87745000D02*
X151707323Y-97675000D01*
X151747323Y-87754000D02*
X151747323Y-97666000D01*
X151787323Y-87763000D02*
X151787323Y-97657000D01*
X151827323Y-87773000D02*
X151827323Y-97647000D01*
X151867323Y-87782000D02*
X151867323Y-97638000D01*
X151907323Y-87793000D02*
X151907323Y-91470000D01*
X151907323Y-93950000D02*
X151907323Y-97627000D01*
X151947323Y-87803000D02*
X151947323Y-91470000D01*
X151947323Y-93950000D02*
X151947323Y-97617000D01*
X151987323Y-87814000D02*
X151987323Y-91470000D01*
X151987323Y-93950000D02*
X151987323Y-97606000D01*
X152027323Y-87825000D02*
X152027323Y-91470000D01*
X152027323Y-93950000D02*
X152027323Y-97595000D01*
X152067323Y-87837000D02*
X152067323Y-91470000D01*
X152067323Y-93950000D02*
X152067323Y-97583000D01*
X152107323Y-87849000D02*
X152107323Y-91470000D01*
X152107323Y-93950000D02*
X152107323Y-97571000D01*
X152147323Y-87861000D02*
X152147323Y-91470000D01*
X152147323Y-93950000D02*
X152147323Y-97559000D01*
X152187323Y-87873000D02*
X152187323Y-91470000D01*
X152187323Y-93950000D02*
X152187323Y-97547000D01*
X152227323Y-87886000D02*
X152227323Y-91470000D01*
X152227323Y-93950000D02*
X152227323Y-97534000D01*
X152267323Y-87900000D02*
X152267323Y-91470000D01*
X152267323Y-93950000D02*
X152267323Y-97520000D01*
X152307323Y-87913000D02*
X152307323Y-91470000D01*
X152307323Y-93950000D02*
X152307323Y-97507000D01*
X152347323Y-87928000D02*
X152347323Y-91470000D01*
X152347323Y-93950000D02*
X152347323Y-97492000D01*
X152387323Y-87942000D02*
X152387323Y-91470000D01*
X152387323Y-93950000D02*
X152387323Y-97478000D01*
X152427323Y-87957000D02*
X152427323Y-91470000D01*
X152427323Y-93950000D02*
X152427323Y-97463000D01*
X152467323Y-87972000D02*
X152467323Y-91470000D01*
X152467323Y-93950000D02*
X152467323Y-97448000D01*
X152507323Y-87988000D02*
X152507323Y-91470000D01*
X152507323Y-93950000D02*
X152507323Y-97432000D01*
X152547323Y-88004000D02*
X152547323Y-91470000D01*
X152547323Y-93950000D02*
X152547323Y-97416000D01*
X152587323Y-88020000D02*
X152587323Y-91470000D01*
X152587323Y-93950000D02*
X152587323Y-97400000D01*
X152627323Y-88037000D02*
X152627323Y-91470000D01*
X152627323Y-93950000D02*
X152627323Y-97383000D01*
X152667323Y-88054000D02*
X152667323Y-91470000D01*
X152667323Y-93950000D02*
X152667323Y-97366000D01*
X152707323Y-88072000D02*
X152707323Y-91470000D01*
X152707323Y-93950000D02*
X152707323Y-97348000D01*
X152747323Y-88090000D02*
X152747323Y-91470000D01*
X152747323Y-93950000D02*
X152747323Y-97330000D01*
X152787323Y-88108000D02*
X152787323Y-91470000D01*
X152787323Y-93950000D02*
X152787323Y-97312000D01*
X152827323Y-88127000D02*
X152827323Y-91470000D01*
X152827323Y-93950000D02*
X152827323Y-97293000D01*
X152867323Y-88146000D02*
X152867323Y-91470000D01*
X152867323Y-93950000D02*
X152867323Y-97274000D01*
X152907323Y-88166000D02*
X152907323Y-91470000D01*
X152907323Y-93950000D02*
X152907323Y-97254000D01*
X152947323Y-88186000D02*
X152947323Y-91470000D01*
X152947323Y-93950000D02*
X152947323Y-97234000D01*
X152987323Y-88206000D02*
X152987323Y-91470000D01*
X152987323Y-93950000D02*
X152987323Y-97214000D01*
X153027323Y-88227000D02*
X153027323Y-91470000D01*
X153027323Y-93950000D02*
X153027323Y-97193000D01*
X153067323Y-88249000D02*
X153067323Y-91470000D01*
X153067323Y-93950000D02*
X153067323Y-97171000D01*
X153107323Y-88271000D02*
X153107323Y-91470000D01*
X153107323Y-93950000D02*
X153107323Y-97149000D01*
X153147323Y-88293000D02*
X153147323Y-91470000D01*
X153147323Y-93950000D02*
X153147323Y-97127000D01*
X153187323Y-88316000D02*
X153187323Y-91470000D01*
X153187323Y-93950000D02*
X153187323Y-97104000D01*
X153227323Y-88339000D02*
X153227323Y-91470000D01*
X153227323Y-93950000D02*
X153227323Y-97081000D01*
X153267323Y-88363000D02*
X153267323Y-91470000D01*
X153267323Y-93950000D02*
X153267323Y-97057000D01*
X153307323Y-88387000D02*
X153307323Y-91470000D01*
X153307323Y-93950000D02*
X153307323Y-97033000D01*
X153347323Y-88412000D02*
X153347323Y-91470000D01*
X153347323Y-93950000D02*
X153347323Y-97008000D01*
X153387323Y-88438000D02*
X153387323Y-91470000D01*
X153387323Y-93950000D02*
X153387323Y-96982000D01*
X153427323Y-88463000D02*
X153427323Y-91470000D01*
X153427323Y-93950000D02*
X153427323Y-96957000D01*
X153467323Y-88490000D02*
X153467323Y-91470000D01*
X153467323Y-93950000D02*
X153467323Y-96930000D01*
X153507323Y-88517000D02*
X153507323Y-91470000D01*
X153507323Y-93950000D02*
X153507323Y-96903000D01*
X153547323Y-88544000D02*
X153547323Y-91470000D01*
X153547323Y-93950000D02*
X153547323Y-96876000D01*
X153587323Y-88572000D02*
X153587323Y-91470000D01*
X153587323Y-93950000D02*
X153587323Y-96848000D01*
X153627323Y-88601000D02*
X153627323Y-91470000D01*
X153627323Y-93950000D02*
X153627323Y-96819000D01*
X153667323Y-88630000D02*
X153667323Y-91470000D01*
X153667323Y-93950000D02*
X153667323Y-96790000D01*
X153707323Y-88660000D02*
X153707323Y-91470000D01*
X153707323Y-93950000D02*
X153707323Y-96760000D01*
X153747323Y-88690000D02*
X153747323Y-91470000D01*
X153747323Y-93950000D02*
X153747323Y-96730000D01*
X153787323Y-88722000D02*
X153787323Y-91470000D01*
X153787323Y-93950000D02*
X153787323Y-96698000D01*
X153827323Y-88753000D02*
X153827323Y-91470000D01*
X153827323Y-93950000D02*
X153827323Y-96667000D01*
X153867323Y-88786000D02*
X153867323Y-91470000D01*
X153867323Y-93950000D02*
X153867323Y-96634000D01*
X153907323Y-88819000D02*
X153907323Y-91470000D01*
X153907323Y-93950000D02*
X153907323Y-96601000D01*
X153947323Y-88852000D02*
X153947323Y-91470000D01*
X153947323Y-93950000D02*
X153947323Y-96568000D01*
X153987323Y-88887000D02*
X153987323Y-91470000D01*
X153987323Y-93950000D02*
X153987323Y-96533000D01*
X154027323Y-88922000D02*
X154027323Y-91470000D01*
X154027323Y-93950000D02*
X154027323Y-96498000D01*
X154067323Y-88958000D02*
X154067323Y-91470000D01*
X154067323Y-93950000D02*
X154067323Y-96462000D01*
X154107323Y-88994000D02*
X154107323Y-91470000D01*
X154107323Y-93950000D02*
X154107323Y-96426000D01*
X154147323Y-89032000D02*
X154147323Y-91470000D01*
X154147323Y-93950000D02*
X154147323Y-96388000D01*
X154187323Y-89070000D02*
X154187323Y-91470000D01*
X154187323Y-93950000D02*
X154187323Y-96350000D01*
X154227323Y-89109000D02*
X154227323Y-91470000D01*
X154227323Y-93950000D02*
X154227323Y-96311000D01*
X154267323Y-89149000D02*
X154267323Y-91470000D01*
X154267323Y-93950000D02*
X154267323Y-96271000D01*
X154307323Y-89190000D02*
X154307323Y-91470000D01*
X154307323Y-93950000D02*
X154307323Y-96230000D01*
X154347323Y-89232000D02*
X154347323Y-91470000D01*
X154347323Y-93950000D02*
X154347323Y-96188000D01*
X154387323Y-89275000D02*
X154387323Y-96145000D01*
X154427323Y-89319000D02*
X154427323Y-96101000D01*
X154467323Y-89363000D02*
X154467323Y-96057000D01*
X154507323Y-89409000D02*
X154507323Y-96011000D01*
X154547323Y-89456000D02*
X154547323Y-95964000D01*
X154587323Y-89505000D02*
X154587323Y-95915000D01*
X154627323Y-89554000D02*
X154627323Y-95866000D01*
X154667323Y-89605000D02*
X154667323Y-95815000D01*
X154707323Y-89657000D02*
X154707323Y-95763000D01*
X154747323Y-89710000D02*
X154747323Y-95710000D01*
X154787323Y-89765000D02*
X154787323Y-95655000D01*
X154827323Y-89822000D02*
X154827323Y-95598000D01*
X154867323Y-89880000D02*
X154867323Y-95540000D01*
X154907323Y-89940000D02*
X154907323Y-95480000D01*
X154947323Y-90002000D02*
X154947323Y-95418000D01*
X154987323Y-90066000D02*
X154987323Y-95354000D01*
X155027323Y-90132000D02*
X155027323Y-95288000D01*
X155067323Y-90200000D02*
X155067323Y-95220000D01*
X155107323Y-90271000D02*
X155107323Y-95149000D01*
X155147323Y-90345000D02*
X155147323Y-95075000D01*
X155187323Y-90422000D02*
X155187323Y-94998000D01*
X155227323Y-90502000D02*
X155227323Y-94918000D01*
X155267323Y-90586000D02*
X155267323Y-94834000D01*
X155307323Y-90673000D02*
X155307323Y-94747000D01*
X155347323Y-90766000D02*
X155347323Y-94654000D01*
X155387323Y-90864000D02*
X155387323Y-94556000D01*
X155427323Y-90968000D02*
X155427323Y-94452000D01*
X155467323Y-91080000D02*
X155467323Y-94340000D01*
X155507323Y-91201000D02*
X155507323Y-94219000D01*
X155547323Y-91333000D02*
X155547323Y-94087000D01*
X155587323Y-91480000D02*
X155587323Y-93940000D01*
X155627323Y-91648000D02*
X155627323Y-93772000D01*
X155667323Y-91848000D02*
X155667323Y-93572000D01*
X155707323Y-92111000D02*
X155707323Y-93309000D01*
X155747323Y-92710000D02*
G75*
G02*
X145507323Y-92710000I-5120000J0D01*
G01*
X145507323Y-92710000D02*
G75*
G02*
X155747323Y-92710000I5120000J0D01*
G01*
%TO.C,SW1*%
X200760000Y-106385401D02*
X201060000Y-106385401D01*
X200760000Y-109685401D02*
X200760000Y-106385401D01*
X201060000Y-109685401D02*
X200760000Y-109685401D01*
X203260000Y-109685401D02*
X203560000Y-109685401D01*
X203560000Y-106385401D02*
X203260000Y-106385401D01*
X203560000Y-109685401D02*
X203560000Y-106385401D01*
%TO.C,D2*%
X143220000Y-76965401D02*
X144130000Y-76965401D01*
X152205000Y-79685401D02*
X152205000Y-74245401D01*
X152325000Y-79685401D02*
X152325000Y-74245401D01*
X152445000Y-79685401D02*
X152445000Y-74245401D01*
X154780000Y-76965401D02*
X153870000Y-76965401D01*
X153870000Y-79685401D02*
X144130000Y-79685401D01*
X144130000Y-74245401D01*
X153870000Y-74245401D01*
X153870000Y-79685401D01*
%TO.C,J1*%
X100112500Y-70490401D02*
X110152500Y-70490401D01*
X100112500Y-72850401D02*
X100112500Y-70490401D01*
X100112500Y-80890401D02*
X100112500Y-73450401D01*
X100732500Y-70490401D02*
X100732500Y-80890401D01*
X102232500Y-70490401D02*
X102232500Y-80890401D01*
X107132500Y-70490401D02*
X107132500Y-80890401D01*
X110152500Y-70490401D02*
X110152500Y-80890401D01*
X110152500Y-80890401D02*
X100112500Y-80890401D01*
X100112500Y-73150401D02*
X99502500Y-73590401D01*
X99502500Y-72710401D01*
X100112500Y-73150401D01*
G36*
X100112500Y-73150401D02*
G01*
X99502500Y-73590401D01*
X99502500Y-72710401D01*
X100112500Y-73150401D01*
G37*
%TO.C,C23*%
X147403733Y-120905401D02*
X147696267Y-120905401D01*
X147403733Y-121925401D02*
X147696267Y-121925401D01*
%TO.C,C19*%
X116173748Y-87025401D02*
X116696252Y-87025401D01*
X116173748Y-88495401D02*
X116696252Y-88495401D01*
%TO.C,C22*%
X145315000Y-98163748D02*
X145315000Y-98686252D01*
X146785000Y-98163748D02*
X146785000Y-98686252D01*
%TO.C,U9*%
X147275000Y-117315401D02*
X149095000Y-117315401D01*
X147275000Y-117365401D02*
X147275000Y-117315401D01*
X147275000Y-119265401D02*
X147275000Y-118485401D01*
X147275000Y-120435401D02*
X147275000Y-120385401D01*
X149095000Y-117315401D02*
X149095000Y-117365401D01*
X149095000Y-120385401D02*
X149095000Y-120435401D01*
X149095000Y-120435401D02*
X147275000Y-120435401D01*
X149875000Y-120715401D02*
X149395000Y-120715401D01*
X149635000Y-120385401D01*
X149875000Y-120715401D01*
G36*
X149875000Y-120715401D02*
G01*
X149395000Y-120715401D01*
X149635000Y-120385401D01*
X149875000Y-120715401D01*
G37*
%TO.C,R9*%
X184607064Y-95280401D02*
X184152936Y-95280401D01*
X184607064Y-96750401D02*
X184152936Y-96750401D01*
%TO.C,TP1*%
X100875000Y-97285401D02*
G75*
G02*
X98975000Y-97285401I-950000J0D01*
G01*
X98975000Y-97285401D02*
G75*
G02*
X100875000Y-97285401I950000J0D01*
G01*
%TO.C,C12*%
X166226252Y-116870401D02*
X165703748Y-116870401D01*
X166226252Y-118340401D02*
X165703748Y-118340401D01*
%TO.C,C17*%
X187455000Y-115326653D02*
X187455000Y-114804149D01*
X188925000Y-115326653D02*
X188925000Y-114804149D01*
%TO.C,IRFZ44N2*%
X124690000Y-86965000D02*
X129310000Y-86965000D01*
X124690000Y-97185000D02*
X124690000Y-86965000D01*
X127930000Y-86965000D02*
X127930000Y-97185000D01*
X129310000Y-86965000D02*
X129310000Y-97185000D01*
X129310000Y-90225000D02*
X127930000Y-90225000D01*
X129310000Y-93925000D02*
X127930000Y-93925000D01*
X129310000Y-97185000D02*
X124690000Y-97185000D01*
%TO.C,TP11*%
X182790000Y-99825401D02*
G75*
G02*
X180890000Y-99825401I-950000J0D01*
G01*
X180890000Y-99825401D02*
G75*
G02*
X182790000Y-99825401I950000J0D01*
G01*
%TO.C,C20*%
X111890000Y-91309149D02*
X111890000Y-91831653D01*
X113360000Y-91309149D02*
X113360000Y-91831653D01*
%TO.C,C9*%
X122293748Y-105945000D02*
X122816252Y-105945000D01*
X122293748Y-107415000D02*
X122816252Y-107415000D01*
%TO.C,R19*%
X175745000Y-111101760D02*
X175745000Y-111409042D01*
X176505000Y-111101760D02*
X176505000Y-111409042D01*
%TO.C,D7*%
X138315000Y-114145401D02*
X138315000Y-122205401D01*
X138315000Y-114145401D02*
X144515000Y-114145401D01*
X144515000Y-114145401D02*
X144515000Y-122205401D01*
%TO.C,TP5*%
X102780000Y-82680401D02*
G75*
G02*
X100880000Y-82680401I-950000J0D01*
G01*
X100880000Y-82680401D02*
G75*
G02*
X102780000Y-82680401I950000J0D01*
G01*
%TO.C,TP7*%
X206920000Y-123955401D02*
G75*
G02*
X205020000Y-123955401I-950000J0D01*
G01*
X205020000Y-123955401D02*
G75*
G02*
X206920000Y-123955401I950000J0D01*
G01*
%TO.C,R22*%
X170002064Y-110595401D02*
X169547936Y-110595401D01*
X170002064Y-112065401D02*
X169547936Y-112065401D01*
%TO.C,J2*%
X156330000Y-123955401D02*
X156330000Y-116225401D01*
X159090000Y-116225401D02*
X156330000Y-116225401D01*
X159090000Y-123955401D02*
X156330000Y-123955401D01*
X159090000Y-123955401D02*
X159090000Y-116225401D01*
X159090000Y-125225401D02*
X159090000Y-126605401D01*
X159090000Y-126605401D02*
X157710000Y-126605401D01*
%TO.C,D6*%
X122100000Y-108220000D02*
X122100000Y-110220000D01*
X122100000Y-108220000D02*
X126110000Y-108220000D01*
X122100000Y-110220000D02*
X126110000Y-110220000D01*
%TO.C,R15*%
X176025000Y-118542465D02*
X176025000Y-118088337D01*
X177495000Y-118542465D02*
X177495000Y-118088337D01*
%TO.C,J4*%
X165075000Y-122055401D02*
X165075000Y-124055401D01*
X165075000Y-125955401D02*
X165075000Y-127855401D01*
X165075000Y-127855401D02*
X174475000Y-127855401D01*
X174475000Y-122055401D02*
X174475000Y-124055401D01*
X174475000Y-125955401D02*
X174475000Y-127855401D01*
%TO.C,C15*%
X184915000Y-86819149D02*
X184915000Y-87341653D01*
X186385000Y-86819149D02*
X186385000Y-87341653D01*
%TD*%
M02*
