%TF.GenerationSoftware,KiCad,Pcbnew,9.0.5*%
%TF.CreationDate,2026-08-22T20:43:25+02:00*%
%TF.ProjectId,MPPT Controller,4d505054-2043-46f6-9e74-726f6c6c6572,rev?*%
%TF.SameCoordinates,Original*%
%TF.FileFunction,Plated,1,4,PTH,Mixed*%
%TF.FilePolarity,Positive*%
%FSLAX46Y46*%
G04 Gerber Fmt 4.6, Leading zero omitted, Abs format (unit mm)*
G04 Created by KiCad (PCBNEW 9.0.5) date 2026-08-22 20:43:25*
%MOMM*%
%LPD*%
G01*
G04 APERTURE LIST*
%TA.AperFunction,ComponentDrill*%
%ADD10C,0.200000*%
%TD*%
%TA.AperFunction,ViaDrill*%
%ADD11C,0.300000*%
%TD*%
%TA.AperFunction,ViaDrill*%
%ADD12C,0.400000*%
%TD*%
G04 aperture for slot hole*
%TA.AperFunction,ComponentDrill*%
%ADD13C,0.600000*%
%TD*%
%TA.AperFunction,ComponentDrill*%
%ADD14C,1.000000*%
%TD*%
%TA.AperFunction,ComponentDrill*%
%ADD15C,1.100000*%
%TD*%
%TA.AperFunction,ComponentDrill*%
%ADD16C,1.300000*%
%TD*%
%TA.AperFunction,ComponentDrill*%
%ADD17C,1.600000*%
%TD*%
G04 APERTURE END LIST*
D10*
%TO.C,U5*%
X194540000Y-89157901D03*
X194540000Y-90682901D03*
X195302500Y-88395401D03*
X195302500Y-89920401D03*
X195302500Y-91445401D03*
X196065000Y-89157901D03*
X196065000Y-90682901D03*
X196827500Y-88395401D03*
X196827500Y-89920401D03*
X196827500Y-91445401D03*
X197590000Y-89157901D03*
X197590000Y-90682901D03*
%TD*%
D11*
X118200000Y-112014000D03*
X127762000Y-97790000D03*
X131206200Y-106045000D03*
X131267200Y-104206000D03*
X154942000Y-114277401D03*
X157051000Y-103786401D03*
X157405200Y-114760601D03*
X160300800Y-100536601D03*
X163755200Y-72901401D03*
X164212400Y-103991001D03*
X164263200Y-70259801D03*
X164314000Y-71834601D03*
X167616000Y-104143401D03*
X167870000Y-114709801D03*
X169749600Y-113135001D03*
X170788074Y-97910401D03*
X171375200Y-98453801D03*
X172394269Y-107188332D03*
X175794800Y-90427401D03*
X175845600Y-95101001D03*
X176252000Y-97539401D03*
X177670000Y-86363401D03*
X177776000Y-82299401D03*
X180722400Y-85499801D03*
X183364000Y-87582601D03*
X184430800Y-102060601D03*
X185142000Y-99505401D03*
X186361200Y-116741801D03*
X198858000Y-103940201D03*
X201144000Y-88649401D03*
X201455000Y-96834401D03*
X202871200Y-84585401D03*
X203176000Y-86905401D03*
X203938000Y-88205401D03*
X204192000Y-102162201D03*
X206782800Y-112576201D03*
D12*
X106148000Y-82147001D03*
X106249600Y-125123801D03*
X110720000Y-95456601D03*
X113260000Y-94999401D03*
X118644800Y-86566601D03*
X124917200Y-106695200D03*
X125459000Y-104164648D03*
X127406400Y-109235200D03*
X132334000Y-100482400D03*
X138202800Y-78743401D03*
X141403200Y-123447401D03*
X143967200Y-100181001D03*
X148132800Y-86058601D03*
X150039200Y-121263001D03*
X154178000Y-106680000D03*
X154865200Y-126139801D03*
X156819600Y-90935401D03*
X163145600Y-123955401D03*
X163755200Y-115929001D03*
X164517200Y-114925401D03*
X165888800Y-108258201D03*
X167971600Y-109172601D03*
X169648000Y-79911801D03*
X171324400Y-114811401D03*
X171375200Y-116030601D03*
X177014000Y-123701401D03*
X178285254Y-118264547D03*
X179830800Y-87966201D03*
X180570000Y-83874404D03*
X182043200Y-123955401D03*
X182144800Y-92459401D03*
X182195600Y-95304201D03*
X183216253Y-88755654D03*
X184126000Y-88547801D03*
X187936000Y-102365401D03*
X188444000Y-112373001D03*
X189663200Y-123650601D03*
X195454400Y-123599801D03*
X196318000Y-117453001D03*
X199772400Y-111001401D03*
X200940800Y-123345801D03*
X203836400Y-126901801D03*
X203938000Y-111052201D03*
X207149600Y-84280601D03*
D13*
%TO.C,J4*%
X165455000Y-121375401D02*
X165455000Y-120275401D01*
X165455000Y-125305401D02*
X165455000Y-124705401D01*
X174095000Y-121375401D02*
X174095000Y-120275401D01*
X174095000Y-125305401D02*
X174095000Y-124705401D01*
D14*
%TO.C,C4*%
X106275000Y-89202724D03*
X106275000Y-94202724D03*
%TO.C,C2*%
X148127323Y-92710000D03*
X153127323Y-92710000D03*
%TO.C,J2*%
X157710000Y-117605401D03*
X157710000Y-120145401D03*
X157710000Y-122685401D03*
X157710000Y-125225401D03*
%TO.C,J5*%
X202790000Y-115065401D03*
X205330000Y-115065401D03*
D15*
%TO.C,D3*%
X115570000Y-97790000D03*
X115570000Y-107950000D03*
%TO.C,IRFZ44N1*%
X116435000Y-92520401D03*
X118975000Y-92520401D03*
X121515000Y-92520401D03*
%TO.C,IRFZ44N2*%
X126050000Y-89535000D03*
X126050000Y-92075000D03*
X126050000Y-94615000D03*
D16*
%TO.C,J1*%
X104832500Y-73150401D03*
X104832500Y-78230401D03*
%TO.C,J3*%
X104867500Y-115960401D03*
X104867500Y-121040401D03*
%TO.C,F2*%
X112805000Y-75695401D03*
%TO.C,F1*%
X113020000Y-118505401D03*
%TO.C,F2*%
X135305000Y-75695401D03*
%TO.C,F1*%
X135520000Y-118505401D03*
D17*
%TO.C,D2*%
X141380000Y-76965401D03*
X156620000Y-76965401D03*
M02*
