%TF.GenerationSoftware,KiCad,Pcbnew,9.0.5*%
%TF.CreationDate,2026-08-22T20:43:22+02:00*%
%TF.ProjectId,MPPT Controller,4d505054-2043-46f6-9e74-726f6c6c6572,rev?*%
%TF.SameCoordinates,Original*%
%TF.FileFunction,Copper,L3,Inr*%
%TF.FilePolarity,Positive*%
%FSLAX46Y46*%
G04 Gerber Fmt 4.6, Leading zero omitted, Abs format (unit mm)*
G04 Created by KiCad (PCBNEW 9.0.5) date 2026-08-22 20:43:22*
%MOMM*%
%LPD*%
G01*
G04 APERTURE LIST*
G04 Aperture macros list*
%AMRoundRect*
0 Rectangle with rounded corners*
0 $1 Rounding radius*
0 $2 $3 $4 $5 $6 $7 $8 $9 X,Y pos of 4 corners*
0 Add a 4 corners polygon primitive as box body*
4,1,4,$2,$3,$4,$5,$6,$7,$8,$9,$2,$3,0*
0 Add four circle primitives for the rounded corners*
1,1,$1+$1,$2,$3*
1,1,$1+$1,$4,$5*
1,1,$1+$1,$6,$7*
1,1,$1+$1,$8,$9*
0 Add four rect primitives between the rounded corners*
20,1,$1+$1,$2,$3,$4,$5,0*
20,1,$1+$1,$4,$5,$6,$7,0*
20,1,$1+$1,$6,$7,$8,$9,0*
20,1,$1+$1,$8,$9,$2,$3,0*%
G04 Aperture macros list end*
%TA.AperFunction,ComponentPad*%
%ADD10C,3.000000*%
%TD*%
%TA.AperFunction,HeatsinkPad*%
%ADD11C,0.600000*%
%TD*%
%TA.AperFunction,ComponentPad*%
%ADD12RoundRect,0.249999X-0.850001X0.850001X-0.850001X-0.850001X0.850001X-0.850001X0.850001X0.850001X0*%
%TD*%
%TA.AperFunction,ComponentPad*%
%ADD13C,2.200000*%
%TD*%
%TA.AperFunction,ComponentPad*%
%ADD14RoundRect,0.250000X-0.750000X0.750000X-0.750000X-0.750000X0.750000X-0.750000X0.750000X0.750000X0*%
%TD*%
%TA.AperFunction,ComponentPad*%
%ADD15C,2.000000*%
%TD*%
%TA.AperFunction,ComponentPad*%
%ADD16RoundRect,0.250000X-1.050000X1.050000X-1.050000X-1.050000X1.050000X-1.050000X1.050000X1.050000X0*%
%TD*%
%TA.AperFunction,ComponentPad*%
%ADD17C,2.600000*%
%TD*%
%TA.AperFunction,ComponentPad*%
%ADD18R,1.700000X1.700000*%
%TD*%
%TA.AperFunction,ComponentPad*%
%ADD19C,1.700000*%
%TD*%
%TA.AperFunction,ComponentPad*%
%ADD20R,1.905000X2.000000*%
%TD*%
%TA.AperFunction,ComponentPad*%
%ADD21O,1.905000X2.000000*%
%TD*%
%TA.AperFunction,ComponentPad*%
%ADD22RoundRect,0.250000X-0.750000X-0.750000X0.750000X-0.750000X0.750000X0.750000X-0.750000X0.750000X0*%
%TD*%
%TA.AperFunction,ComponentPad*%
%ADD23RoundRect,0.250000X1.350000X1.350000X-1.350000X1.350000X-1.350000X-1.350000X1.350000X-1.350000X0*%
%TD*%
%TA.AperFunction,ComponentPad*%
%ADD24C,3.200000*%
%TD*%
%TA.AperFunction,ComponentPad*%
%ADD25R,2.000000X1.905000*%
%TD*%
%TA.AperFunction,ComponentPad*%
%ADD26O,2.000000X1.905000*%
%TD*%
%TA.AperFunction,HeatsinkPad*%
%ADD27O,1.000000X2.100000*%
%TD*%
%TA.AperFunction,HeatsinkPad*%
%ADD28O,1.000000X1.600000*%
%TD*%
%TA.AperFunction,ViaPad*%
%ADD29C,0.800000*%
%TD*%
%TA.AperFunction,ViaPad*%
%ADD30C,0.600000*%
%TD*%
G04 APERTURE END LIST*
D10*
%TO.N,Net-(D7-K)*%
%TO.C,F1*%
X135520000Y-118505401D03*
%TO.N,/VBAT_RAW*%
X113020000Y-118505401D03*
%TD*%
%TO.N,/VIN_RAW*%
%TO.C,F2*%
X112805000Y-75695401D03*
%TO.N,Net-(D2-A)*%
X135305000Y-75695401D03*
%TD*%
D11*
%TO.N,GND*%
%TO.C,U5*%
X197590000Y-90682901D03*
X197590000Y-89157901D03*
X196827500Y-91445401D03*
X196827500Y-89920401D03*
X196827500Y-88395401D03*
X196065000Y-90682901D03*
X196065000Y-89157901D03*
X195302500Y-91445401D03*
X195302500Y-89920401D03*
X195302500Y-88395401D03*
X194540000Y-90682901D03*
X194540000Y-89157901D03*
%TD*%
D12*
%TO.N,Net-(D3-K)*%
%TO.C,D3*%
X115570000Y-97790000D03*
D13*
%TO.N,/VOUT*%
X115570000Y-107950000D03*
%TD*%
D14*
%TO.N,/VIN*%
%TO.C,C4*%
X106275000Y-89202724D03*
D15*
%TO.N,GND*%
X106275000Y-94202724D03*
%TD*%
D16*
%TO.N,/VBAT_RAW*%
%TO.C,J3*%
X104867500Y-115960401D03*
D17*
%TO.N,GND*%
X104867500Y-121040401D03*
%TD*%
D18*
%TO.N,Net-(D1-K)*%
%TO.C,J5*%
X202790000Y-115065401D03*
D19*
%TO.N,+3.3V*%
X205330000Y-115065401D03*
%TD*%
D20*
%TO.N,/GATE_HI*%
%TO.C,IRFZ44N1*%
X116435000Y-92520401D03*
D21*
%TO.N,/VIN*%
X118975000Y-92520401D03*
%TO.N,/SW*%
X121515000Y-92520401D03*
%TD*%
D22*
%TO.N,/VOUT*%
%TO.C,C2*%
X148127323Y-92710000D03*
D15*
%TO.N,GND*%
X153127323Y-92710000D03*
%TD*%
D23*
%TO.N,Net-(D2-K)*%
%TO.C,D2*%
X156620000Y-76965401D03*
D24*
%TO.N,Net-(D2-A)*%
X141380000Y-76965401D03*
%TD*%
D16*
%TO.N,/VIN_RAW*%
%TO.C,J1*%
X104832500Y-73150401D03*
D17*
%TO.N,GND*%
X104832500Y-78230401D03*
%TD*%
D25*
%TO.N,/GATE_LO*%
%TO.C,IRFZ44N2*%
X126050000Y-89535000D03*
D26*
%TO.N,/SW*%
X126050000Y-92075000D03*
%TO.N,GND*%
X126050000Y-94615000D03*
%TD*%
D18*
%TO.N,GND*%
%TO.C,J2*%
X157710000Y-125225401D03*
D19*
%TO.N,/ESP_RX*%
X157710000Y-122685401D03*
%TO.N,/ESP_TX*%
X157710000Y-120145401D03*
%TO.N,+3.3V*%
X157710000Y-117605401D03*
%TD*%
D27*
%TO.N,GND*%
%TO.C,J4*%
X165455000Y-120825401D03*
D28*
X165455000Y-125005401D03*
D27*
X174095000Y-120825401D03*
D28*
X174095000Y-125005401D03*
%TD*%
D29*
%TO.N,GND*%
X182144800Y-92459401D03*
X156819600Y-90935401D03*
X188444000Y-112373001D03*
X178285254Y-118264547D03*
X125459000Y-104164648D03*
X207149600Y-84280601D03*
X132334000Y-100482400D03*
X179830800Y-87966201D03*
X171375200Y-116030601D03*
X180570000Y-83874404D03*
X106148000Y-82147001D03*
X154865200Y-126139801D03*
X187936000Y-102365401D03*
X124917200Y-106695200D03*
X183216253Y-88755654D03*
X127406400Y-109235200D03*
X177014000Y-123701401D03*
X203836400Y-126901801D03*
X171324400Y-114811401D03*
X118644800Y-86566601D03*
X164517200Y-114925401D03*
X200940800Y-123345801D03*
X169648000Y-79911801D03*
X113260000Y-94999401D03*
X148132800Y-86058601D03*
X150039200Y-121263001D03*
X143967200Y-100181001D03*
X110720000Y-95456601D03*
X163145600Y-123955401D03*
X141403200Y-123447401D03*
X165888800Y-108258201D03*
X106249600Y-125123801D03*
X167971600Y-109172601D03*
X199772400Y-111001401D03*
X138202800Y-78743401D03*
X195454400Y-123599801D03*
X189663200Y-123650601D03*
X184126000Y-88547801D03*
X182195600Y-95304201D03*
X196318000Y-117453001D03*
X163755200Y-115929001D03*
X203938000Y-111052201D03*
%TO.N,/VOUT*%
X154178000Y-106680000D03*
X182043200Y-123955401D03*
D30*
%TO.N,/ADC_VOUT*%
X175794800Y-90427401D03*
X160300800Y-100536601D03*
X157051000Y-103786401D03*
X118200000Y-112014000D03*
%TO.N,+3.3V*%
X198858000Y-103940201D03*
X164314000Y-71834601D03*
X164212400Y-103991001D03*
X167616000Y-104143401D03*
X180722400Y-85499801D03*
X164263200Y-70259801D03*
X206782800Y-112576201D03*
X163755200Y-72901401D03*
X157405200Y-114760601D03*
X204192000Y-102162201D03*
X154942000Y-114277401D03*
%TO.N,+5V*%
X167870000Y-114709801D03*
X186361200Y-116741801D03*
%TO.N,/EN*%
X175845600Y-95101001D03*
X183364000Y-87582601D03*
%TO.N,/ESP_RX*%
X169749600Y-113135001D03*
X203938000Y-88205401D03*
%TO.N,Net-(Q2-B)*%
X171375200Y-98453801D03*
X176252000Y-97539401D03*
%TO.N,/IO0*%
X170788074Y-97910401D03*
X201455000Y-96834401D03*
%TO.N,/SDA*%
X201144000Y-88649401D03*
X177670000Y-86363401D03*
%TO.N,/SCL*%
X177776000Y-82299401D03*
X202871200Y-84585401D03*
%TO.N,/PWM_CTRL*%
X185142000Y-99505401D03*
X131206200Y-106045000D03*
%TO.N,/SD_CTRL*%
X131267200Y-104206000D03*
X184430800Y-102060601D03*
%TO.N,/GATE_LO*%
X127762000Y-97790000D03*
%TO.N,/ESP_TX*%
X172394269Y-107188332D03*
X203176000Y-86905401D03*
%TD*%
%TA.AperFunction,Conductor*%
%TO.N,+3.3V*%
G36*
X169886451Y-69647587D02*
G01*
X170115175Y-69663796D01*
X170132677Y-69666301D01*
X170352432Y-69713969D01*
X170369394Y-69718939D01*
X170580123Y-69797409D01*
X170596217Y-69804749D01*
X170793613Y-69912415D01*
X170808506Y-69921977D01*
X170988555Y-70056644D01*
X171001937Y-70068230D01*
X171160984Y-70227167D01*
X171172579Y-70240540D01*
X171307373Y-70420496D01*
X171316945Y-70435383D01*
X171424748Y-70632701D01*
X171432105Y-70648800D01*
X171510717Y-70859461D01*
X171515703Y-70876434D01*
X171527613Y-70931155D01*
X171563520Y-71096134D01*
X171566040Y-71113652D01*
X171582384Y-71342012D01*
X171582700Y-71350864D01*
X171582700Y-79333638D01*
X171582699Y-79333641D01*
X171582699Y-79385001D01*
X171582699Y-79524156D01*
X171616245Y-79800436D01*
X171665555Y-80000492D01*
X171682850Y-80070663D01*
X171722219Y-80174468D01*
X171781539Y-80330882D01*
X171781541Y-80330886D01*
X171781542Y-80330888D01*
X171781542Y-80330889D01*
X171910874Y-80577309D01*
X172068970Y-80806351D01*
X172068972Y-80806353D01*
X172068974Y-80806356D01*
X172253527Y-81014674D01*
X172461845Y-81199227D01*
X172690889Y-81357324D01*
X172937319Y-81486661D01*
X173139790Y-81563448D01*
X173197537Y-81585349D01*
X173197539Y-81585349D01*
X173197543Y-81585351D01*
X173467765Y-81651955D01*
X173681422Y-81677897D01*
X173744042Y-81685501D01*
X173744045Y-81685501D01*
X173843638Y-81685501D01*
X176991453Y-81685501D01*
X177058492Y-81705186D01*
X177104247Y-81757990D01*
X177114191Y-81827148D01*
X177094555Y-81878391D01*
X177066612Y-81920210D01*
X177066602Y-81920228D01*
X177006264Y-82065899D01*
X177006261Y-82065911D01*
X176975500Y-82220554D01*
X176975500Y-82378247D01*
X177006261Y-82532890D01*
X177006264Y-82532902D01*
X177066602Y-82678573D01*
X177066609Y-82678586D01*
X177154210Y-82809689D01*
X177154213Y-82809693D01*
X177265707Y-82921187D01*
X177265711Y-82921190D01*
X177396814Y-83008791D01*
X177396827Y-83008798D01*
X177542498Y-83069136D01*
X177542503Y-83069138D01*
X177697153Y-83099900D01*
X177697156Y-83099901D01*
X177697158Y-83099901D01*
X177854844Y-83099901D01*
X177854845Y-83099900D01*
X178009497Y-83069138D01*
X178155179Y-83008795D01*
X178286289Y-82921190D01*
X178397789Y-82809690D01*
X178485394Y-82678580D01*
X178545737Y-82532898D01*
X178576500Y-82378243D01*
X178576500Y-82220559D01*
X178576500Y-82220556D01*
X178576499Y-82220554D01*
X178553887Y-82106878D01*
X178545737Y-82065904D01*
X178498159Y-81951039D01*
X178485397Y-81920228D01*
X178485387Y-81920210D01*
X178457445Y-81878391D01*
X178436567Y-81811714D01*
X178455052Y-81744334D01*
X178507031Y-81697644D01*
X178560547Y-81685501D01*
X205802005Y-81685501D01*
X205845172Y-81685501D01*
X205854018Y-81685817D01*
X206082620Y-81702166D01*
X206100129Y-81704684D01*
X206319744Y-81752459D01*
X206336703Y-81757438D01*
X206547294Y-81835984D01*
X206563377Y-81843328D01*
X206736640Y-81937938D01*
X206760632Y-81951039D01*
X206775516Y-81960604D01*
X206955439Y-82095293D01*
X206968801Y-82106871D01*
X207127731Y-82265800D01*
X207139311Y-82279165D01*
X207273994Y-82459081D01*
X207283559Y-82473964D01*
X207391267Y-82671216D01*
X207398617Y-82687309D01*
X207477160Y-82897890D01*
X207482144Y-82914866D01*
X207529915Y-83134469D01*
X207532433Y-83151981D01*
X207541629Y-83280561D01*
X207526777Y-83348834D01*
X207477372Y-83398239D01*
X207409099Y-83413091D01*
X207393754Y-83411024D01*
X207238294Y-83380101D01*
X207238291Y-83380101D01*
X207060909Y-83380101D01*
X207060906Y-83380101D01*
X206886941Y-83414704D01*
X206886932Y-83414707D01*
X206723059Y-83482584D01*
X206723046Y-83482591D01*
X206575565Y-83581136D01*
X206575561Y-83581139D01*
X206450138Y-83706562D01*
X206450135Y-83706566D01*
X206351590Y-83854047D01*
X206351583Y-83854060D01*
X206283706Y-84017933D01*
X206283703Y-84017942D01*
X206249100Y-84191905D01*
X206249100Y-84369296D01*
X206283703Y-84543259D01*
X206283706Y-84543268D01*
X206351583Y-84707141D01*
X206351590Y-84707154D01*
X206450135Y-84854635D01*
X206450138Y-84854639D01*
X206575561Y-84980062D01*
X206575565Y-84980065D01*
X206723046Y-85078610D01*
X206723059Y-85078617D01*
X206845963Y-85129524D01*
X206886934Y-85146495D01*
X206886936Y-85146495D01*
X206886941Y-85146497D01*
X207060904Y-85181100D01*
X207060907Y-85181101D01*
X207060909Y-85181101D01*
X207238293Y-85181101D01*
X207369604Y-85154981D01*
X207400908Y-85148754D01*
X207470500Y-85154981D01*
X207525677Y-85197844D01*
X207548922Y-85263733D01*
X207549100Y-85270371D01*
X207549100Y-119259401D01*
X207529415Y-119326440D01*
X207476611Y-119372195D01*
X207425100Y-119383401D01*
X204395200Y-119383401D01*
X204365026Y-125961061D01*
X204345034Y-126028009D01*
X204292020Y-126073521D01*
X204222817Y-126083148D01*
X204193578Y-126075055D01*
X204099066Y-126035907D01*
X204099059Y-126035905D01*
X204099058Y-126035905D01*
X204099058Y-126035904D01*
X203925094Y-126001301D01*
X203925091Y-126001301D01*
X203747709Y-126001301D01*
X203747706Y-126001301D01*
X203573741Y-126035904D01*
X203573732Y-126035907D01*
X203409859Y-126103784D01*
X203409846Y-126103791D01*
X203262365Y-126202336D01*
X203262361Y-126202339D01*
X203136938Y-126327762D01*
X203136935Y-126327766D01*
X203038390Y-126475247D01*
X203038383Y-126475260D01*
X202970506Y-126639133D01*
X202970503Y-126639142D01*
X202935900Y-126813105D01*
X202935900Y-126990496D01*
X202970503Y-127164459D01*
X202970506Y-127164468D01*
X203038383Y-127328341D01*
X203038390Y-127328354D01*
X203136935Y-127475835D01*
X203136938Y-127475839D01*
X203262361Y-127601262D01*
X203262365Y-127601265D01*
X203409846Y-127699810D01*
X203409859Y-127699817D01*
X203469844Y-127724663D01*
X203573734Y-127767695D01*
X203573736Y-127767695D01*
X203573741Y-127767697D01*
X203747704Y-127802300D01*
X203747707Y-127802301D01*
X203747709Y-127802301D01*
X203925093Y-127802301D01*
X203925094Y-127802300D01*
X203983082Y-127790765D01*
X204099058Y-127767697D01*
X204099061Y-127767695D01*
X204099066Y-127767695D01*
X204184923Y-127732131D01*
X204254392Y-127724663D01*
X204316871Y-127755938D01*
X204352523Y-127816027D01*
X204356374Y-127847262D01*
X204355432Y-128052670D01*
X204335440Y-128119618D01*
X204282427Y-128165130D01*
X204231433Y-128176101D01*
X200373066Y-128176101D01*
X200306027Y-128156416D01*
X200260272Y-128103612D01*
X200249070Y-128051079D01*
X200280742Y-124218741D01*
X200300979Y-124151873D01*
X200354159Y-124106556D01*
X200423398Y-124097184D01*
X200473628Y-124116670D01*
X200514246Y-124143810D01*
X200514259Y-124143817D01*
X200586733Y-124173836D01*
X200678134Y-124211695D01*
X200678136Y-124211695D01*
X200678141Y-124211697D01*
X200852104Y-124246300D01*
X200852107Y-124246301D01*
X200852109Y-124246301D01*
X201029493Y-124246301D01*
X201029494Y-124246300D01*
X201103966Y-124231487D01*
X201203458Y-124211697D01*
X201203461Y-124211695D01*
X201203466Y-124211695D01*
X201367347Y-124143814D01*
X201514835Y-124045265D01*
X201640264Y-123919836D01*
X201738813Y-123772348D01*
X201806694Y-123608467D01*
X201841300Y-123434492D01*
X201841300Y-123257110D01*
X201841300Y-123257107D01*
X201841299Y-123257105D01*
X201806696Y-123083142D01*
X201806693Y-123083133D01*
X201738816Y-122919260D01*
X201738809Y-122919247D01*
X201640264Y-122771766D01*
X201640261Y-122771762D01*
X201514838Y-122646339D01*
X201514834Y-122646336D01*
X201367353Y-122547791D01*
X201367340Y-122547784D01*
X201203467Y-122479907D01*
X201203458Y-122479904D01*
X201029494Y-122445301D01*
X201029491Y-122445301D01*
X200852109Y-122445301D01*
X200852106Y-122445301D01*
X200678141Y-122479904D01*
X200678132Y-122479907D01*
X200514259Y-122547784D01*
X200514248Y-122547790D01*
X200488154Y-122565226D01*
X200421476Y-122586103D01*
X200354096Y-122567618D01*
X200307406Y-122515638D01*
X200295268Y-122461101D01*
X200331200Y-118113401D01*
X198624840Y-118113401D01*
X198557801Y-118093716D01*
X198512046Y-118040912D01*
X198500850Y-117990970D01*
X198480912Y-116415900D01*
X198452452Y-114167536D01*
X201439500Y-114167536D01*
X201439500Y-115963271D01*
X201439501Y-115963277D01*
X201445908Y-116022884D01*
X201496202Y-116157729D01*
X201496206Y-116157736D01*
X201582452Y-116272945D01*
X201582455Y-116272948D01*
X201697664Y-116359194D01*
X201697671Y-116359198D01*
X201832517Y-116409492D01*
X201832516Y-116409492D01*
X201839444Y-116410236D01*
X201892127Y-116415901D01*
X203687872Y-116415900D01*
X203747483Y-116409492D01*
X203882331Y-116359197D01*
X203997546Y-116272947D01*
X204083796Y-116157732D01*
X204134091Y-116022884D01*
X204140500Y-115963274D01*
X204140499Y-115939380D01*
X204143330Y-115926364D01*
X204153940Y-115906926D01*
X204160179Y-115885676D01*
X204176803Y-115865044D01*
X204176808Y-115865037D01*
X204176811Y-115865035D01*
X204176818Y-115865027D01*
X204847037Y-115194809D01*
X204864075Y-115258394D01*
X204929901Y-115372408D01*
X205022993Y-115465500D01*
X205137007Y-115531326D01*
X205200590Y-115548363D01*
X204568282Y-116180670D01*
X204568282Y-116180671D01*
X204622449Y-116220025D01*
X204811782Y-116316496D01*
X205013870Y-116382158D01*
X205223754Y-116415401D01*
X205436246Y-116415401D01*
X205646127Y-116382158D01*
X205646130Y-116382158D01*
X205848217Y-116316496D01*
X206037554Y-116220023D01*
X206091716Y-116180671D01*
X206091717Y-116180671D01*
X205459408Y-115548363D01*
X205522993Y-115531326D01*
X205637007Y-115465500D01*
X205730099Y-115372408D01*
X205795925Y-115258394D01*
X205812962Y-115194810D01*
X206445270Y-115827118D01*
X206445270Y-115827117D01*
X206484622Y-115772955D01*
X206581095Y-115583618D01*
X206646757Y-115381531D01*
X206646757Y-115381528D01*
X206680000Y-115171647D01*
X206680000Y-114959154D01*
X206646757Y-114749273D01*
X206646757Y-114749270D01*
X206581095Y-114547183D01*
X206484624Y-114357850D01*
X206445270Y-114303683D01*
X206445269Y-114303683D01*
X205812962Y-114935991D01*
X205795925Y-114872408D01*
X205730099Y-114758394D01*
X205637007Y-114665302D01*
X205522993Y-114599476D01*
X205459409Y-114582438D01*
X206091716Y-113950129D01*
X206037550Y-113910776D01*
X205848217Y-113814305D01*
X205646129Y-113748643D01*
X205436246Y-113715401D01*
X205223754Y-113715401D01*
X205013872Y-113748643D01*
X205013869Y-113748643D01*
X204811782Y-113814305D01*
X204622439Y-113910781D01*
X204568282Y-113950128D01*
X204568282Y-113950129D01*
X205200591Y-114582438D01*
X205137007Y-114599476D01*
X205022993Y-114665302D01*
X204929901Y-114758394D01*
X204864075Y-114872408D01*
X204847037Y-114935992D01*
X204176818Y-114265773D01*
X204143333Y-114204450D01*
X204143330Y-114204437D01*
X204140499Y-114191416D01*
X204140499Y-114167529D01*
X204134091Y-114107918D01*
X204093992Y-114000407D01*
X204083798Y-113973074D01*
X204083793Y-113973065D01*
X203997547Y-113857856D01*
X203997544Y-113857853D01*
X203882335Y-113771607D01*
X203882328Y-113771603D01*
X203747482Y-113721309D01*
X203747483Y-113721309D01*
X203687883Y-113714902D01*
X203687881Y-113714901D01*
X203687873Y-113714901D01*
X203687864Y-113714901D01*
X201892129Y-113714901D01*
X201892123Y-113714902D01*
X201832516Y-113721309D01*
X201697671Y-113771603D01*
X201697664Y-113771607D01*
X201582455Y-113857853D01*
X201582452Y-113857856D01*
X201496206Y-113973065D01*
X201496202Y-113973072D01*
X201445908Y-114107918D01*
X201439501Y-114167517D01*
X201439500Y-114167536D01*
X198452452Y-114167536D01*
X198411252Y-110912705D01*
X198871900Y-110912705D01*
X198871900Y-111090096D01*
X198906503Y-111264059D01*
X198906506Y-111264068D01*
X198974383Y-111427941D01*
X198974390Y-111427954D01*
X199072935Y-111575435D01*
X199072938Y-111575439D01*
X199198361Y-111700862D01*
X199198365Y-111700865D01*
X199345846Y-111799410D01*
X199345859Y-111799417D01*
X199468487Y-111850210D01*
X199509734Y-111867295D01*
X199509736Y-111867295D01*
X199509741Y-111867297D01*
X199683704Y-111901900D01*
X199683707Y-111901901D01*
X199683709Y-111901901D01*
X199861093Y-111901901D01*
X199861094Y-111901900D01*
X199919082Y-111890365D01*
X200035058Y-111867297D01*
X200035061Y-111867295D01*
X200035066Y-111867295D01*
X200198947Y-111799414D01*
X200346435Y-111700865D01*
X200471864Y-111575436D01*
X200570413Y-111427948D01*
X200638294Y-111264067D01*
X200672900Y-111090092D01*
X200672900Y-110963505D01*
X203037500Y-110963505D01*
X203037500Y-111140896D01*
X203072103Y-111314859D01*
X203072106Y-111314868D01*
X203139983Y-111478741D01*
X203139990Y-111478754D01*
X203238535Y-111626235D01*
X203238538Y-111626239D01*
X203363961Y-111751662D01*
X203363965Y-111751665D01*
X203511446Y-111850210D01*
X203511459Y-111850217D01*
X203552695Y-111867297D01*
X203675334Y-111918095D01*
X203675336Y-111918095D01*
X203675341Y-111918097D01*
X203849304Y-111952700D01*
X203849307Y-111952701D01*
X203849309Y-111952701D01*
X204026693Y-111952701D01*
X204026694Y-111952700D01*
X204084682Y-111941165D01*
X204200658Y-111918097D01*
X204200661Y-111918095D01*
X204200666Y-111918095D01*
X204364547Y-111850214D01*
X204512035Y-111751665D01*
X204637464Y-111626236D01*
X204736013Y-111478748D01*
X204803894Y-111314867D01*
X204814001Y-111264059D01*
X204838499Y-111140896D01*
X204838500Y-111140894D01*
X204838500Y-110963507D01*
X204838499Y-110963505D01*
X204803896Y-110789542D01*
X204803893Y-110789533D01*
X204736016Y-110625660D01*
X204736009Y-110625647D01*
X204637464Y-110478166D01*
X204637461Y-110478162D01*
X204512038Y-110352739D01*
X204512034Y-110352736D01*
X204364553Y-110254191D01*
X204364540Y-110254184D01*
X204200667Y-110186307D01*
X204200658Y-110186304D01*
X204026694Y-110151701D01*
X204026691Y-110151701D01*
X203849309Y-110151701D01*
X203849306Y-110151701D01*
X203675341Y-110186304D01*
X203675332Y-110186307D01*
X203511459Y-110254184D01*
X203511446Y-110254191D01*
X203363965Y-110352736D01*
X203363961Y-110352739D01*
X203238538Y-110478162D01*
X203238535Y-110478166D01*
X203139990Y-110625647D01*
X203139983Y-110625660D01*
X203072106Y-110789533D01*
X203072103Y-110789542D01*
X203037500Y-110963505D01*
X200672900Y-110963505D01*
X200672900Y-110912710D01*
X200672900Y-110912707D01*
X200672899Y-110912705D01*
X200638296Y-110738742D01*
X200638293Y-110738733D01*
X200570416Y-110574860D01*
X200570409Y-110574847D01*
X200471864Y-110427366D01*
X200471861Y-110427362D01*
X200346438Y-110301939D01*
X200346434Y-110301936D01*
X200198953Y-110203391D01*
X200198940Y-110203384D01*
X200035067Y-110135507D01*
X200035058Y-110135504D01*
X199861094Y-110100901D01*
X199861091Y-110100901D01*
X199683709Y-110100901D01*
X199683706Y-110100901D01*
X199509741Y-110135504D01*
X199509732Y-110135507D01*
X199345859Y-110203384D01*
X199345846Y-110203391D01*
X199198365Y-110301936D01*
X199198361Y-110301939D01*
X199072938Y-110427362D01*
X199072935Y-110427366D01*
X198974390Y-110574847D01*
X198974383Y-110574860D01*
X198906506Y-110738733D01*
X198906503Y-110738742D01*
X198871900Y-110912705D01*
X198411252Y-110912705D01*
X198400800Y-110087001D01*
X198400799Y-110087001D01*
X198400799Y-110087000D01*
X182064237Y-110137422D01*
X181997137Y-110117945D01*
X181951219Y-110065282D01*
X181939866Y-110015178D01*
X181826320Y-101981754D01*
X183630300Y-101981754D01*
X183630300Y-102139447D01*
X183661061Y-102294090D01*
X183661064Y-102294102D01*
X183721402Y-102439773D01*
X183721409Y-102439786D01*
X183809010Y-102570889D01*
X183809013Y-102570893D01*
X183920507Y-102682387D01*
X183920511Y-102682390D01*
X184051614Y-102769991D01*
X184051627Y-102769998D01*
X184197298Y-102830336D01*
X184197303Y-102830338D01*
X184351953Y-102861100D01*
X184351956Y-102861101D01*
X184351958Y-102861101D01*
X184509644Y-102861101D01*
X184509645Y-102861100D01*
X184664297Y-102830338D01*
X184809979Y-102769995D01*
X184941089Y-102682390D01*
X185052589Y-102570890D01*
X185140194Y-102439780D01*
X185200537Y-102294098D01*
X185203997Y-102276705D01*
X187035500Y-102276705D01*
X187035500Y-102454096D01*
X187070103Y-102628059D01*
X187070106Y-102628068D01*
X187137983Y-102791941D01*
X187137990Y-102791954D01*
X187236535Y-102939435D01*
X187236538Y-102939439D01*
X187361961Y-103064862D01*
X187361965Y-103064865D01*
X187509446Y-103163410D01*
X187509459Y-103163417D01*
X187632363Y-103214324D01*
X187673334Y-103231295D01*
X187673336Y-103231295D01*
X187673341Y-103231297D01*
X187847304Y-103265900D01*
X187847307Y-103265901D01*
X187847309Y-103265901D01*
X188024693Y-103265901D01*
X188024694Y-103265900D01*
X188082682Y-103254365D01*
X188198658Y-103231297D01*
X188198661Y-103231295D01*
X188198666Y-103231295D01*
X188362547Y-103163414D01*
X188510035Y-103064865D01*
X188635464Y-102939436D01*
X188734013Y-102791948D01*
X188801894Y-102628067D01*
X188813268Y-102570889D01*
X188836499Y-102454096D01*
X188836500Y-102454094D01*
X188836500Y-102276707D01*
X188836499Y-102276705D01*
X188801896Y-102102742D01*
X188801893Y-102102733D01*
X188734016Y-101938860D01*
X188734009Y-101938847D01*
X188635464Y-101791366D01*
X188635461Y-101791362D01*
X188510038Y-101665939D01*
X188510034Y-101665936D01*
X188362553Y-101567391D01*
X188362540Y-101567384D01*
X188198667Y-101499507D01*
X188198658Y-101499504D01*
X188024694Y-101464901D01*
X188024691Y-101464901D01*
X187847309Y-101464901D01*
X187847306Y-101464901D01*
X187673341Y-101499504D01*
X187673332Y-101499507D01*
X187509459Y-101567384D01*
X187509446Y-101567391D01*
X187361965Y-101665936D01*
X187361961Y-101665939D01*
X187236538Y-101791362D01*
X187236535Y-101791366D01*
X187137990Y-101938847D01*
X187137983Y-101938860D01*
X187070106Y-102102733D01*
X187070103Y-102102742D01*
X187035500Y-102276705D01*
X185203997Y-102276705D01*
X185231300Y-102139443D01*
X185231300Y-101981759D01*
X185231300Y-101981756D01*
X185231299Y-101981754D01*
X185222767Y-101938860D01*
X185200537Y-101827104D01*
X185185732Y-101791362D01*
X185140197Y-101681428D01*
X185140190Y-101681415D01*
X185052589Y-101550312D01*
X185052586Y-101550308D01*
X184941092Y-101438814D01*
X184941088Y-101438811D01*
X184809985Y-101351210D01*
X184809972Y-101351203D01*
X184664301Y-101290865D01*
X184664289Y-101290862D01*
X184509645Y-101260101D01*
X184509642Y-101260101D01*
X184351958Y-101260101D01*
X184351955Y-101260101D01*
X184197310Y-101290862D01*
X184197298Y-101290865D01*
X184051627Y-101351203D01*
X184051614Y-101351210D01*
X183920511Y-101438811D01*
X183920507Y-101438814D01*
X183809013Y-101550308D01*
X183809010Y-101550312D01*
X183721409Y-101681415D01*
X183721402Y-101681428D01*
X183661064Y-101827099D01*
X183661061Y-101827111D01*
X183630300Y-101981754D01*
X181826320Y-101981754D01*
X181790204Y-99426554D01*
X184341500Y-99426554D01*
X184341500Y-99584247D01*
X184372261Y-99738890D01*
X184372264Y-99738902D01*
X184432602Y-99884573D01*
X184432609Y-99884586D01*
X184520210Y-100015689D01*
X184520213Y-100015693D01*
X184631707Y-100127187D01*
X184631711Y-100127190D01*
X184762814Y-100214791D01*
X184762827Y-100214798D01*
X184908498Y-100275136D01*
X184908503Y-100275138D01*
X185049097Y-100303104D01*
X185063153Y-100305900D01*
X185063156Y-100305901D01*
X185063158Y-100305901D01*
X185220844Y-100305901D01*
X185220845Y-100305900D01*
X185375497Y-100275138D01*
X185521179Y-100214795D01*
X185652289Y-100127190D01*
X185763789Y-100015690D01*
X185851394Y-99884580D01*
X185911737Y-99738898D01*
X185942500Y-99584243D01*
X185942500Y-99426559D01*
X185942500Y-99426556D01*
X185942499Y-99426554D01*
X185911738Y-99271911D01*
X185911737Y-99271904D01*
X185904446Y-99254301D01*
X185851397Y-99126228D01*
X185851390Y-99126215D01*
X185763789Y-98995112D01*
X185763786Y-98995108D01*
X185652292Y-98883614D01*
X185652288Y-98883611D01*
X185521185Y-98796010D01*
X185521172Y-98796003D01*
X185375501Y-98735665D01*
X185375489Y-98735662D01*
X185220845Y-98704901D01*
X185220842Y-98704901D01*
X185063158Y-98704901D01*
X185063155Y-98704901D01*
X184908510Y-98735662D01*
X184908498Y-98735665D01*
X184762827Y-98796003D01*
X184762814Y-98796010D01*
X184631711Y-98883611D01*
X184631707Y-98883614D01*
X184520213Y-98995108D01*
X184520210Y-98995112D01*
X184432609Y-99126215D01*
X184432602Y-99126228D01*
X184372264Y-99271899D01*
X184372261Y-99271911D01*
X184341500Y-99426554D01*
X181790204Y-99426554D01*
X181752451Y-96755554D01*
X200654500Y-96755554D01*
X200654500Y-96913247D01*
X200685261Y-97067890D01*
X200685264Y-97067902D01*
X200745602Y-97213573D01*
X200745609Y-97213586D01*
X200833210Y-97344689D01*
X200833213Y-97344693D01*
X200944707Y-97456187D01*
X200944711Y-97456190D01*
X201075814Y-97543791D01*
X201075827Y-97543798D01*
X201221498Y-97604136D01*
X201221503Y-97604138D01*
X201376153Y-97634900D01*
X201376156Y-97634901D01*
X201376158Y-97634901D01*
X201533844Y-97634901D01*
X201533845Y-97634900D01*
X201688497Y-97604138D01*
X201834179Y-97543795D01*
X201965289Y-97456190D01*
X202076789Y-97344690D01*
X202164394Y-97213580D01*
X202224737Y-97067898D01*
X202255500Y-96913243D01*
X202255500Y-96755559D01*
X202255500Y-96755556D01*
X202255499Y-96755554D01*
X202224738Y-96600911D01*
X202224737Y-96600904D01*
X202224735Y-96600899D01*
X202164397Y-96455228D01*
X202164390Y-96455215D01*
X202076789Y-96324112D01*
X202076786Y-96324108D01*
X201965292Y-96212614D01*
X201965288Y-96212611D01*
X201834185Y-96125010D01*
X201834172Y-96125003D01*
X201688501Y-96064665D01*
X201688489Y-96064662D01*
X201533845Y-96033901D01*
X201533842Y-96033901D01*
X201376158Y-96033901D01*
X201376155Y-96033901D01*
X201221510Y-96064662D01*
X201221498Y-96064665D01*
X201075827Y-96125003D01*
X201075814Y-96125010D01*
X200944711Y-96212611D01*
X200944707Y-96212614D01*
X200833213Y-96324108D01*
X200833210Y-96324112D01*
X200745609Y-96455215D01*
X200745602Y-96455228D01*
X200685264Y-96600899D01*
X200685261Y-96600911D01*
X200654500Y-96755554D01*
X181752451Y-96755554D01*
X181745728Y-96279872D01*
X181764463Y-96212566D01*
X181816615Y-96166070D01*
X181885626Y-96155150D01*
X181917165Y-96163563D01*
X181932934Y-96170095D01*
X181932936Y-96170095D01*
X181932941Y-96170097D01*
X182106904Y-96204700D01*
X182106907Y-96204701D01*
X182106909Y-96204701D01*
X182284293Y-96204701D01*
X182284294Y-96204700D01*
X182342282Y-96193165D01*
X182458258Y-96170097D01*
X182458261Y-96170095D01*
X182458266Y-96170095D01*
X182622147Y-96102214D01*
X182769635Y-96003665D01*
X182895064Y-95878236D01*
X182993613Y-95730748D01*
X183061494Y-95566867D01*
X183096100Y-95392892D01*
X183096100Y-95215510D01*
X183096100Y-95215507D01*
X183096099Y-95215505D01*
X183061496Y-95041542D01*
X183061493Y-95041533D01*
X182993616Y-94877660D01*
X182993609Y-94877647D01*
X182895064Y-94730166D01*
X182895061Y-94730162D01*
X182769638Y-94604739D01*
X182769634Y-94604736D01*
X182622153Y-94506191D01*
X182622140Y-94506184D01*
X182458267Y-94438307D01*
X182458258Y-94438304D01*
X182284294Y-94403701D01*
X182284291Y-94403701D01*
X182106909Y-94403701D01*
X182106906Y-94403701D01*
X181932941Y-94438304D01*
X181932932Y-94438307D01*
X181769059Y-94506184D01*
X181769046Y-94506191D01*
X181621565Y-94604736D01*
X181621561Y-94604739D01*
X181496138Y-94730162D01*
X181496135Y-94730166D01*
X181397590Y-94877647D01*
X181397583Y-94877660D01*
X181329706Y-95041533D01*
X181329703Y-95041542D01*
X181295100Y-95215505D01*
X181295100Y-95392896D01*
X181329703Y-95566859D01*
X181329706Y-95566868D01*
X181337299Y-95585199D01*
X181344766Y-95654669D01*
X181313490Y-95717147D01*
X181253400Y-95752798D01*
X181221596Y-95756644D01*
X176629347Y-95714384D01*
X176562491Y-95694083D01*
X176517224Y-95640860D01*
X176507918Y-95571613D01*
X176527387Y-95521497D01*
X176554989Y-95480188D01*
X176554990Y-95480185D01*
X176554994Y-95480180D01*
X176615337Y-95334498D01*
X176646100Y-95179843D01*
X176646100Y-95022159D01*
X176646100Y-95022156D01*
X176646099Y-95022154D01*
X176617356Y-94877654D01*
X176615337Y-94867504D01*
X176615335Y-94867499D01*
X176554997Y-94721828D01*
X176554990Y-94721815D01*
X176467389Y-94590712D01*
X176467386Y-94590708D01*
X176355892Y-94479214D01*
X176355888Y-94479211D01*
X176224785Y-94391610D01*
X176224772Y-94391603D01*
X176079101Y-94331265D01*
X176079089Y-94331262D01*
X175924445Y-94300501D01*
X175924442Y-94300501D01*
X175766758Y-94300501D01*
X175766755Y-94300501D01*
X175612110Y-94331262D01*
X175612098Y-94331265D01*
X175466427Y-94391603D01*
X175466414Y-94391610D01*
X175335311Y-94479211D01*
X175335307Y-94479214D01*
X175223813Y-94590708D01*
X175223810Y-94590712D01*
X175136209Y-94721815D01*
X175136202Y-94721828D01*
X175075864Y-94867499D01*
X175075861Y-94867511D01*
X175045100Y-95022154D01*
X175045100Y-95179847D01*
X175075861Y-95334490D01*
X175075864Y-95334502D01*
X175136202Y-95480173D01*
X175136212Y-95480191D01*
X175154101Y-95506964D01*
X175174979Y-95573641D01*
X175156494Y-95641021D01*
X175104515Y-95687711D01*
X175049858Y-95699849D01*
X165177600Y-95609001D01*
X165177600Y-102111401D01*
X170236668Y-102111401D01*
X170303707Y-102131086D01*
X170349462Y-102183890D01*
X170360658Y-102233923D01*
X170410000Y-106378601D01*
X171772559Y-106378601D01*
X171839598Y-106398286D01*
X171885353Y-106451090D01*
X171895297Y-106520248D01*
X171866272Y-106583804D01*
X171860240Y-106590282D01*
X171772482Y-106678039D01*
X171772479Y-106678043D01*
X171684878Y-106809146D01*
X171684871Y-106809159D01*
X171624533Y-106954830D01*
X171624530Y-106954842D01*
X171593769Y-107109485D01*
X171593769Y-107267178D01*
X171624530Y-107421821D01*
X171624533Y-107421833D01*
X171684871Y-107567504D01*
X171684878Y-107567517D01*
X171772479Y-107698620D01*
X171772482Y-107698624D01*
X171883976Y-107810118D01*
X171883980Y-107810121D01*
X172015083Y-107897722D01*
X172015096Y-107897729D01*
X172160767Y-107958067D01*
X172160772Y-107958069D01*
X172315422Y-107988831D01*
X172315425Y-107988832D01*
X172315427Y-107988832D01*
X172473113Y-107988832D01*
X172473114Y-107988831D01*
X172627766Y-107958069D01*
X172773448Y-107897726D01*
X172904558Y-107810121D01*
X173016058Y-107698621D01*
X173103663Y-107567511D01*
X173107297Y-107558739D01*
X173164004Y-107421833D01*
X173164006Y-107421829D01*
X173194769Y-107267174D01*
X173194769Y-107109490D01*
X173194769Y-107109487D01*
X173194768Y-107109485D01*
X173164007Y-106954842D01*
X173164006Y-106954835D01*
X173164004Y-106954830D01*
X173103666Y-106809159D01*
X173103659Y-106809146D01*
X173016058Y-106678043D01*
X173016055Y-106678039D01*
X172928298Y-106590282D01*
X172894813Y-106528959D01*
X172899797Y-106459267D01*
X172941669Y-106403334D01*
X173007133Y-106378917D01*
X173015979Y-106378601D01*
X174096000Y-106378601D01*
X174163039Y-106398286D01*
X174208794Y-106451090D01*
X174220000Y-106502601D01*
X174220000Y-110012173D01*
X174200315Y-110079212D01*
X174147511Y-110124967D01*
X174094383Y-110136162D01*
X168650283Y-110065151D01*
X168583506Y-110044594D01*
X168538443Y-109991198D01*
X168529403Y-109921916D01*
X168559254Y-109858744D01*
X168564202Y-109853497D01*
X168671064Y-109746636D01*
X168769613Y-109599148D01*
X168837494Y-109435267D01*
X168872100Y-109261292D01*
X168872100Y-109083910D01*
X168872100Y-109083907D01*
X168872099Y-109083905D01*
X168837496Y-108909942D01*
X168837493Y-108909933D01*
X168769616Y-108746060D01*
X168769609Y-108746047D01*
X168671064Y-108598566D01*
X168671061Y-108598562D01*
X168545638Y-108473139D01*
X168545634Y-108473136D01*
X168398153Y-108374591D01*
X168398140Y-108374584D01*
X168234267Y-108306707D01*
X168234258Y-108306704D01*
X168060294Y-108272101D01*
X168060291Y-108272101D01*
X167882909Y-108272101D01*
X167882906Y-108272101D01*
X167708941Y-108306704D01*
X167708932Y-108306707D01*
X167545059Y-108374584D01*
X167545046Y-108374591D01*
X167397565Y-108473136D01*
X167397561Y-108473139D01*
X167272138Y-108598562D01*
X167272135Y-108598566D01*
X167173590Y-108746047D01*
X167173583Y-108746060D01*
X167105706Y-108909933D01*
X167105703Y-108909942D01*
X167071100Y-109083905D01*
X167071100Y-109261296D01*
X167105703Y-109435259D01*
X167105706Y-109435268D01*
X167173583Y-109599141D01*
X167173590Y-109599154D01*
X167272135Y-109746635D01*
X167272138Y-109746639D01*
X167360998Y-109835499D01*
X167394483Y-109896822D01*
X167389499Y-109966514D01*
X167347627Y-110022447D01*
X167282163Y-110046864D01*
X167271700Y-110047169D01*
X160355488Y-109956959D01*
X160288711Y-109936402D01*
X160243648Y-109883006D01*
X160233105Y-109833280D01*
X160228941Y-108169505D01*
X164988300Y-108169505D01*
X164988300Y-108346896D01*
X165022903Y-108520859D01*
X165022906Y-108520868D01*
X165090783Y-108684741D01*
X165090790Y-108684754D01*
X165189335Y-108832235D01*
X165189338Y-108832239D01*
X165314761Y-108957662D01*
X165314765Y-108957665D01*
X165462246Y-109056210D01*
X165462259Y-109056217D01*
X165585163Y-109107124D01*
X165626134Y-109124095D01*
X165626136Y-109124095D01*
X165626141Y-109124097D01*
X165800104Y-109158700D01*
X165800107Y-109158701D01*
X165800109Y-109158701D01*
X165977493Y-109158701D01*
X165977494Y-109158700D01*
X166035482Y-109147165D01*
X166151458Y-109124097D01*
X166151461Y-109124095D01*
X166151466Y-109124095D01*
X166315347Y-109056214D01*
X166462835Y-108957665D01*
X166588264Y-108832236D01*
X166686813Y-108684748D01*
X166754694Y-108520867D01*
X166764189Y-108473136D01*
X166789299Y-108346896D01*
X166789300Y-108346894D01*
X166789300Y-108169507D01*
X166789299Y-108169505D01*
X166754696Y-107995542D01*
X166754693Y-107995533D01*
X166751917Y-107988832D01*
X166714179Y-107897722D01*
X166686816Y-107831660D01*
X166686809Y-107831647D01*
X166588264Y-107684166D01*
X166588261Y-107684162D01*
X166462838Y-107558739D01*
X166462834Y-107558736D01*
X166315353Y-107460191D01*
X166315340Y-107460184D01*
X166151467Y-107392307D01*
X166151458Y-107392304D01*
X165977494Y-107357701D01*
X165977491Y-107357701D01*
X165800109Y-107357701D01*
X165800106Y-107357701D01*
X165626141Y-107392304D01*
X165626132Y-107392307D01*
X165462259Y-107460184D01*
X165462246Y-107460191D01*
X165314765Y-107558736D01*
X165314761Y-107558739D01*
X165189338Y-107684162D01*
X165189335Y-107684166D01*
X165090790Y-107831647D01*
X165090783Y-107831660D01*
X165022906Y-107995533D01*
X165022903Y-107995542D01*
X164988300Y-108169505D01*
X160228941Y-108169505D01*
X160212151Y-101461409D01*
X160231668Y-101394323D01*
X160284357Y-101348436D01*
X160336151Y-101337101D01*
X160379644Y-101337101D01*
X160379645Y-101337100D01*
X160534297Y-101306338D01*
X160679979Y-101245995D01*
X160811089Y-101158390D01*
X160922589Y-101046890D01*
X161010194Y-100915780D01*
X161070537Y-100770098D01*
X161101300Y-100615443D01*
X161101300Y-100457759D01*
X161101300Y-100457756D01*
X161101299Y-100457754D01*
X161070538Y-100303111D01*
X161070537Y-100303104D01*
X161058953Y-100275138D01*
X161010197Y-100157428D01*
X161010190Y-100157415D01*
X160922589Y-100026312D01*
X160922586Y-100026308D01*
X160811092Y-99914814D01*
X160811088Y-99914811D01*
X160679985Y-99827210D01*
X160679972Y-99827203D01*
X160534301Y-99766865D01*
X160534289Y-99766862D01*
X160379645Y-99736101D01*
X160379642Y-99736101D01*
X160331523Y-99736101D01*
X160264484Y-99716416D01*
X160218729Y-99663612D01*
X160207523Y-99612413D01*
X160189397Y-92370705D01*
X181244300Y-92370705D01*
X181244300Y-92548096D01*
X181278903Y-92722059D01*
X181278906Y-92722068D01*
X181346783Y-92885941D01*
X181346790Y-92885954D01*
X181445335Y-93033435D01*
X181445338Y-93033439D01*
X181570761Y-93158862D01*
X181570765Y-93158865D01*
X181718246Y-93257410D01*
X181718259Y-93257417D01*
X181841163Y-93308324D01*
X181882134Y-93325295D01*
X181882136Y-93325295D01*
X181882141Y-93325297D01*
X182056104Y-93359900D01*
X182056107Y-93359901D01*
X182056109Y-93359901D01*
X182233493Y-93359901D01*
X182233494Y-93359900D01*
X182291482Y-93348365D01*
X182407458Y-93325297D01*
X182407461Y-93325295D01*
X182407466Y-93325295D01*
X182571347Y-93257414D01*
X182718835Y-93158865D01*
X182844264Y-93033436D01*
X182942813Y-92885948D01*
X183010694Y-92722067D01*
X183045300Y-92548092D01*
X183045300Y-92370710D01*
X183045300Y-92370707D01*
X183045299Y-92370705D01*
X183010696Y-92196742D01*
X183010693Y-92196733D01*
X182942816Y-92032860D01*
X182942809Y-92032847D01*
X182844264Y-91885366D01*
X182844261Y-91885362D01*
X182718838Y-91759939D01*
X182718834Y-91759936D01*
X182571353Y-91661391D01*
X182571340Y-91661384D01*
X182407467Y-91593507D01*
X182407458Y-91593504D01*
X182233494Y-91558901D01*
X182233491Y-91558901D01*
X182056109Y-91558901D01*
X182056106Y-91558901D01*
X181882141Y-91593504D01*
X181882132Y-91593507D01*
X181718259Y-91661384D01*
X181718246Y-91661391D01*
X181570765Y-91759936D01*
X181570761Y-91759939D01*
X181445338Y-91885362D01*
X181445335Y-91885366D01*
X181346790Y-92032847D01*
X181346783Y-92032860D01*
X181278906Y-92196733D01*
X181278903Y-92196742D01*
X181244300Y-92370705D01*
X160189397Y-92370705D01*
X160184336Y-90348554D01*
X174994300Y-90348554D01*
X174994300Y-90506247D01*
X175025061Y-90660890D01*
X175025064Y-90660902D01*
X175085402Y-90806573D01*
X175085409Y-90806586D01*
X175173010Y-90937689D01*
X175173013Y-90937693D01*
X175284507Y-91049187D01*
X175284511Y-91049190D01*
X175415614Y-91136791D01*
X175415627Y-91136798D01*
X175551779Y-91193193D01*
X175561303Y-91197138D01*
X175715953Y-91227900D01*
X175715956Y-91227901D01*
X175715958Y-91227901D01*
X175873644Y-91227901D01*
X175873645Y-91227900D01*
X176028297Y-91197138D01*
X176173979Y-91136795D01*
X176305089Y-91049190D01*
X176416589Y-90937690D01*
X176504194Y-90806580D01*
X176564537Y-90660898D01*
X176595300Y-90506243D01*
X176595300Y-90348559D01*
X176595300Y-90348556D01*
X176595299Y-90348554D01*
X176564538Y-90193911D01*
X176564537Y-90193904D01*
X176509534Y-90061113D01*
X176504197Y-90048228D01*
X176504190Y-90048215D01*
X176416589Y-89917112D01*
X176416586Y-89917108D01*
X176305092Y-89805614D01*
X176305088Y-89805611D01*
X176173985Y-89718010D01*
X176173972Y-89718003D01*
X176028301Y-89657665D01*
X176028289Y-89657662D01*
X175873645Y-89626901D01*
X175873642Y-89626901D01*
X175715958Y-89626901D01*
X175715955Y-89626901D01*
X175561310Y-89657662D01*
X175561298Y-89657665D01*
X175415627Y-89718003D01*
X175415614Y-89718010D01*
X175284511Y-89805611D01*
X175284507Y-89805614D01*
X175173013Y-89917108D01*
X175173010Y-89917112D01*
X175085409Y-90048215D01*
X175085402Y-90048228D01*
X175025064Y-90193899D01*
X175025061Y-90193911D01*
X174994300Y-90348554D01*
X160184336Y-90348554D01*
X160175413Y-86783374D01*
X165219500Y-86783374D01*
X165219500Y-87027427D01*
X165257403Y-87266739D01*
X165257679Y-87268477D01*
X165333096Y-87500586D01*
X165438013Y-87706498D01*
X165443896Y-87718043D01*
X165587339Y-87915477D01*
X165587343Y-87915482D01*
X165759918Y-88088057D01*
X165759923Y-88088061D01*
X165837512Y-88144432D01*
X165957361Y-88231507D01*
X166174815Y-88342305D01*
X166406924Y-88417722D01*
X166647973Y-88455901D01*
X166647974Y-88455901D01*
X166892026Y-88455901D01*
X166892027Y-88455901D01*
X167133076Y-88417722D01*
X167365185Y-88342305D01*
X167582639Y-88231507D01*
X167780083Y-88088056D01*
X167952655Y-87915484D01*
X167952657Y-87915480D01*
X167952660Y-87915478D01*
X167980249Y-87877505D01*
X178930300Y-87877505D01*
X178930300Y-88054896D01*
X178964903Y-88228859D01*
X178964906Y-88228868D01*
X179032783Y-88392741D01*
X179032790Y-88392754D01*
X179131335Y-88540235D01*
X179131338Y-88540239D01*
X179256761Y-88665662D01*
X179256765Y-88665665D01*
X179404246Y-88764210D01*
X179404259Y-88764217D01*
X179515919Y-88810467D01*
X179568134Y-88832095D01*
X179568136Y-88832095D01*
X179568141Y-88832097D01*
X179742104Y-88866700D01*
X179742107Y-88866701D01*
X179742109Y-88866701D01*
X179919493Y-88866701D01*
X179919494Y-88866700D01*
X179977482Y-88855165D01*
X180093458Y-88832097D01*
X180093461Y-88832095D01*
X180093466Y-88832095D01*
X180257347Y-88764214D01*
X180402900Y-88666958D01*
X182315753Y-88666958D01*
X182315753Y-88844349D01*
X182350356Y-89018312D01*
X182350359Y-89018321D01*
X182418236Y-89182194D01*
X182418243Y-89182207D01*
X182516788Y-89329688D01*
X182516791Y-89329692D01*
X182642214Y-89455115D01*
X182642218Y-89455118D01*
X182789699Y-89553663D01*
X182789712Y-89553670D01*
X182912616Y-89604577D01*
X182953587Y-89621548D01*
X182953589Y-89621548D01*
X182953594Y-89621550D01*
X183127557Y-89656153D01*
X183127560Y-89656154D01*
X183127562Y-89656154D01*
X183304946Y-89656154D01*
X183304947Y-89656153D01*
X183362935Y-89644618D01*
X183478911Y-89621550D01*
X183478914Y-89621548D01*
X183478919Y-89621548D01*
X183642800Y-89553667D01*
X183790288Y-89455118D01*
X183790295Y-89455110D01*
X183794992Y-89451257D01*
X183795776Y-89452212D01*
X183851398Y-89421833D01*
X183901963Y-89421379D01*
X184037306Y-89448301D01*
X184037309Y-89448301D01*
X184214693Y-89448301D01*
X184214694Y-89448300D01*
X184272682Y-89436765D01*
X184388658Y-89413697D01*
X184388661Y-89413695D01*
X184388666Y-89413695D01*
X184552547Y-89345814D01*
X184700035Y-89247265D01*
X184825464Y-89121836D01*
X184854049Y-89079054D01*
X193739500Y-89079054D01*
X193739500Y-89236747D01*
X193770261Y-89391390D01*
X193770264Y-89391402D01*
X193830602Y-89537073D01*
X193830609Y-89537086D01*
X193918210Y-89668189D01*
X193918213Y-89668193D01*
X194029707Y-89779687D01*
X194029711Y-89779690D01*
X194085996Y-89817299D01*
X194130801Y-89870911D01*
X194139508Y-89940236D01*
X194109353Y-90003264D01*
X194085996Y-90023503D01*
X194029711Y-90061111D01*
X194029707Y-90061114D01*
X193918213Y-90172608D01*
X193918210Y-90172612D01*
X193830609Y-90303715D01*
X193830602Y-90303728D01*
X193770264Y-90449399D01*
X193770261Y-90449411D01*
X193739500Y-90604054D01*
X193739500Y-90761747D01*
X193770261Y-90916390D01*
X193770264Y-90916402D01*
X193830602Y-91062073D01*
X193830609Y-91062086D01*
X193918210Y-91193189D01*
X193918213Y-91193193D01*
X194029707Y-91304687D01*
X194029711Y-91304690D01*
X194160814Y-91392291D01*
X194160827Y-91392298D01*
X194306498Y-91452636D01*
X194306503Y-91452638D01*
X194387155Y-91468680D01*
X194413961Y-91474013D01*
X194475872Y-91506398D01*
X194510446Y-91567113D01*
X194511387Y-91571438D01*
X194532761Y-91678892D01*
X194532764Y-91678902D01*
X194593102Y-91824573D01*
X194593109Y-91824586D01*
X194680710Y-91955689D01*
X194680713Y-91955693D01*
X194792207Y-92067187D01*
X194792211Y-92067190D01*
X194923314Y-92154791D01*
X194923327Y-92154798D01*
X195068998Y-92215136D01*
X195069003Y-92215138D01*
X195223653Y-92245900D01*
X195223656Y-92245901D01*
X195223658Y-92245901D01*
X195381344Y-92245901D01*
X195381345Y-92245900D01*
X195535997Y-92215138D01*
X195681679Y-92154795D01*
X195812789Y-92067190D01*
X195924289Y-91955690D01*
X195961898Y-91899404D01*
X196015509Y-91854599D01*
X196084834Y-91845892D01*
X196147862Y-91876046D01*
X196168103Y-91899405D01*
X196205712Y-91955692D01*
X196317207Y-92067187D01*
X196317211Y-92067190D01*
X196448314Y-92154791D01*
X196448327Y-92154798D01*
X196593998Y-92215136D01*
X196594003Y-92215138D01*
X196748653Y-92245900D01*
X196748656Y-92245901D01*
X196748658Y-92245901D01*
X196906344Y-92245901D01*
X196906345Y-92245900D01*
X197060997Y-92215138D01*
X197206679Y-92154795D01*
X197337789Y-92067190D01*
X197449289Y-91955690D01*
X197536894Y-91824580D01*
X197597237Y-91678898D01*
X197618612Y-91571438D01*
X197650996Y-91509528D01*
X197711712Y-91474954D01*
X197716038Y-91474013D01*
X197823497Y-91452638D01*
X197969179Y-91392295D01*
X198100289Y-91304690D01*
X198211789Y-91193190D01*
X198299394Y-91062080D01*
X198359737Y-90916398D01*
X198390500Y-90761743D01*
X198390500Y-90604059D01*
X198390500Y-90604056D01*
X198390499Y-90604054D01*
X198359738Y-90449411D01*
X198359737Y-90449404D01*
X198317964Y-90348554D01*
X198299397Y-90303728D01*
X198299390Y-90303715D01*
X198211789Y-90172612D01*
X198211786Y-90172608D01*
X198100291Y-90061113D01*
X198077015Y-90045560D01*
X198044003Y-90023502D01*
X197999198Y-89969892D01*
X197990491Y-89900567D01*
X198020645Y-89837539D01*
X198044003Y-89817299D01*
X198100289Y-89779690D01*
X198211789Y-89668190D01*
X198299394Y-89537080D01*
X198359737Y-89391398D01*
X198390500Y-89236743D01*
X198390500Y-89079059D01*
X198390500Y-89079056D01*
X198390499Y-89079054D01*
X198378418Y-89018320D01*
X198359737Y-88924404D01*
X198355755Y-88914791D01*
X198299397Y-88778728D01*
X198299390Y-88778715D01*
X198211788Y-88647610D01*
X198134732Y-88570554D01*
X200343500Y-88570554D01*
X200343500Y-88728247D01*
X200374261Y-88882890D01*
X200374264Y-88882902D01*
X200434602Y-89028573D01*
X200434609Y-89028586D01*
X200522210Y-89159689D01*
X200522213Y-89159693D01*
X200633707Y-89271187D01*
X200633711Y-89271190D01*
X200764814Y-89358791D01*
X200764827Y-89358798D01*
X200874999Y-89404432D01*
X200910503Y-89419138D01*
X201057109Y-89448300D01*
X201065153Y-89449900D01*
X201065156Y-89449901D01*
X201065158Y-89449901D01*
X201222844Y-89449901D01*
X201222845Y-89449900D01*
X201377497Y-89419138D01*
X201523179Y-89358795D01*
X201654289Y-89271190D01*
X201765789Y-89159690D01*
X201853394Y-89028580D01*
X201913737Y-88882898D01*
X201944500Y-88728243D01*
X201944500Y-88570559D01*
X201944500Y-88570556D01*
X201944499Y-88570554D01*
X201929070Y-88492988D01*
X201913737Y-88415904D01*
X201893393Y-88366788D01*
X201853397Y-88270228D01*
X201853390Y-88270215D01*
X201765789Y-88139112D01*
X201765786Y-88139108D01*
X201654292Y-88027614D01*
X201654288Y-88027611D01*
X201523185Y-87940010D01*
X201523172Y-87940003D01*
X201377501Y-87879665D01*
X201377489Y-87879662D01*
X201222845Y-87848901D01*
X201222842Y-87848901D01*
X201065158Y-87848901D01*
X201065155Y-87848901D01*
X200910510Y-87879662D01*
X200910498Y-87879665D01*
X200764827Y-87940003D01*
X200764814Y-87940010D01*
X200633711Y-88027611D01*
X200633707Y-88027614D01*
X200522213Y-88139108D01*
X200522210Y-88139112D01*
X200434609Y-88270215D01*
X200434602Y-88270228D01*
X200374264Y-88415899D01*
X200374261Y-88415911D01*
X200343500Y-88570554D01*
X198134732Y-88570554D01*
X198100292Y-88536114D01*
X198100288Y-88536111D01*
X197969185Y-88448510D01*
X197969172Y-88448503D01*
X197823501Y-88388165D01*
X197823491Y-88388162D01*
X197716037Y-88366788D01*
X197654126Y-88334403D01*
X197619552Y-88273687D01*
X197618612Y-88269362D01*
X197610555Y-88228859D01*
X197597237Y-88161904D01*
X197582597Y-88126559D01*
X197536897Y-88016228D01*
X197536890Y-88016215D01*
X197449289Y-87885112D01*
X197449286Y-87885108D01*
X197337792Y-87773614D01*
X197337788Y-87773611D01*
X197206685Y-87686010D01*
X197206672Y-87686003D01*
X197061001Y-87625665D01*
X197060989Y-87625662D01*
X196906345Y-87594901D01*
X196906342Y-87594901D01*
X196748658Y-87594901D01*
X196748655Y-87594901D01*
X196594010Y-87625662D01*
X196593998Y-87625665D01*
X196448327Y-87686003D01*
X196448314Y-87686010D01*
X196317211Y-87773611D01*
X196317207Y-87773614D01*
X196205713Y-87885108D01*
X196205710Y-87885112D01*
X196168102Y-87941397D01*
X196114490Y-87986202D01*
X196045165Y-87994909D01*
X195982137Y-87964754D01*
X195961898Y-87941397D01*
X195924289Y-87885112D01*
X195924286Y-87885108D01*
X195812792Y-87773614D01*
X195812788Y-87773611D01*
X195681685Y-87686010D01*
X195681672Y-87686003D01*
X195536001Y-87625665D01*
X195535989Y-87625662D01*
X195381345Y-87594901D01*
X195381342Y-87594901D01*
X195223658Y-87594901D01*
X195223655Y-87594901D01*
X195069010Y-87625662D01*
X195068998Y-87625665D01*
X194923327Y-87686003D01*
X194923314Y-87686010D01*
X194792211Y-87773611D01*
X194792207Y-87773614D01*
X194680713Y-87885108D01*
X194680710Y-87885112D01*
X194593109Y-88016215D01*
X194593102Y-88016228D01*
X194532764Y-88161899D01*
X194532761Y-88161909D01*
X194511387Y-88269363D01*
X194479002Y-88331274D01*
X194418286Y-88365848D01*
X194413962Y-88366788D01*
X194306508Y-88388162D01*
X194306498Y-88388165D01*
X194160827Y-88448503D01*
X194160814Y-88448510D01*
X194029711Y-88536111D01*
X194029707Y-88536114D01*
X193918213Y-88647608D01*
X193918210Y-88647612D01*
X193830609Y-88778715D01*
X193830602Y-88778728D01*
X193770264Y-88924399D01*
X193770261Y-88924411D01*
X193739500Y-89079054D01*
X184854049Y-89079054D01*
X184862552Y-89066328D01*
X184904150Y-89004076D01*
X184924009Y-88974354D01*
X184924009Y-88974353D01*
X184924013Y-88974348D01*
X184991894Y-88810467D01*
X184998208Y-88778728D01*
X185026499Y-88636496D01*
X185026500Y-88636494D01*
X185026500Y-88459107D01*
X185026499Y-88459105D01*
X184991896Y-88285142D01*
X184991893Y-88285133D01*
X184991524Y-88284243D01*
X184949017Y-88181619D01*
X184924016Y-88121260D01*
X184924009Y-88121247D01*
X184825464Y-87973766D01*
X184825461Y-87973762D01*
X184700038Y-87848339D01*
X184700034Y-87848336D01*
X184552553Y-87749791D01*
X184552540Y-87749784D01*
X184388667Y-87681907D01*
X184388659Y-87681905D01*
X184264308Y-87657170D01*
X184202398Y-87624785D01*
X184167823Y-87564069D01*
X184164500Y-87535553D01*
X184164500Y-87503756D01*
X184164499Y-87503754D01*
X184150955Y-87435664D01*
X184133737Y-87349104D01*
X184107013Y-87284586D01*
X184073397Y-87203428D01*
X184073390Y-87203415D01*
X183985789Y-87072312D01*
X183985786Y-87072308D01*
X183874292Y-86960814D01*
X183874288Y-86960811D01*
X183818552Y-86923569D01*
X183743185Y-86873210D01*
X183743172Y-86873203D01*
X183630550Y-86826554D01*
X202375500Y-86826554D01*
X202375500Y-86984247D01*
X202406261Y-87138890D01*
X202406264Y-87138902D01*
X202466602Y-87284573D01*
X202466609Y-87284586D01*
X202554210Y-87415689D01*
X202554213Y-87415693D01*
X202665707Y-87527187D01*
X202665711Y-87527190D01*
X202796814Y-87614791D01*
X202796827Y-87614798D01*
X202942498Y-87675136D01*
X202942503Y-87675138D01*
X203097158Y-87705901D01*
X203097163Y-87705901D01*
X203103218Y-87706498D01*
X203102984Y-87708872D01*
X203159905Y-87725586D01*
X203205660Y-87778390D01*
X203215604Y-87847548D01*
X203207427Y-87877351D01*
X203204215Y-87885108D01*
X203168263Y-87971903D01*
X203168261Y-87971911D01*
X203137500Y-88126554D01*
X203137500Y-88284247D01*
X203168261Y-88438890D01*
X203168264Y-88438902D01*
X203228602Y-88584573D01*
X203228609Y-88584586D01*
X203316210Y-88715689D01*
X203316213Y-88715693D01*
X203427707Y-88827187D01*
X203427711Y-88827190D01*
X203558814Y-88914791D01*
X203558827Y-88914798D01*
X203702579Y-88974341D01*
X203704503Y-88975138D01*
X203849983Y-89004076D01*
X203859153Y-89005900D01*
X203859156Y-89005901D01*
X203859158Y-89005901D01*
X204016844Y-89005901D01*
X204016845Y-89005900D01*
X204171497Y-88975138D01*
X204317179Y-88914795D01*
X204448289Y-88827190D01*
X204559789Y-88715690D01*
X204647394Y-88584580D01*
X204707737Y-88438898D01*
X204738500Y-88284243D01*
X204738500Y-88126559D01*
X204738500Y-88126556D01*
X204738499Y-88126554D01*
X204728280Y-88075179D01*
X204707737Y-87971904D01*
X204703544Y-87961780D01*
X204647397Y-87826228D01*
X204647390Y-87826215D01*
X204559789Y-87695112D01*
X204559786Y-87695108D01*
X204448292Y-87583614D01*
X204448288Y-87583611D01*
X204317185Y-87496010D01*
X204317172Y-87496003D01*
X204171501Y-87435665D01*
X204171489Y-87435662D01*
X204016846Y-87404901D01*
X204010782Y-87404304D01*
X204011015Y-87401929D01*
X203954095Y-87385216D01*
X203908340Y-87332412D01*
X203898396Y-87263254D01*
X203906573Y-87233448D01*
X203945737Y-87138898D01*
X203976500Y-86984243D01*
X203976500Y-86826559D01*
X203976500Y-86826556D01*
X203976499Y-86826554D01*
X203967657Y-86782101D01*
X203945737Y-86671904D01*
X203945735Y-86671899D01*
X203885397Y-86526228D01*
X203885390Y-86526215D01*
X203797789Y-86395112D01*
X203797786Y-86395108D01*
X203686292Y-86283614D01*
X203686288Y-86283611D01*
X203555185Y-86196010D01*
X203555172Y-86196003D01*
X203409501Y-86135665D01*
X203409489Y-86135662D01*
X203254845Y-86104901D01*
X203254842Y-86104901D01*
X203097158Y-86104901D01*
X203097155Y-86104901D01*
X202942510Y-86135662D01*
X202942498Y-86135665D01*
X202796827Y-86196003D01*
X202796814Y-86196010D01*
X202665711Y-86283611D01*
X202665707Y-86283614D01*
X202554213Y-86395108D01*
X202554210Y-86395112D01*
X202466609Y-86526215D01*
X202466602Y-86526228D01*
X202406264Y-86671899D01*
X202406261Y-86671911D01*
X202375500Y-86826554D01*
X183630550Y-86826554D01*
X183597501Y-86812865D01*
X183597489Y-86812862D01*
X183442845Y-86782101D01*
X183442842Y-86782101D01*
X183285158Y-86782101D01*
X183285155Y-86782101D01*
X183130510Y-86812862D01*
X183130498Y-86812865D01*
X182984827Y-86873203D01*
X182984814Y-86873210D01*
X182853711Y-86960811D01*
X182853707Y-86960814D01*
X182742213Y-87072308D01*
X182742210Y-87072312D01*
X182654609Y-87203415D01*
X182654602Y-87203428D01*
X182594264Y-87349099D01*
X182594261Y-87349111D01*
X182563500Y-87503754D01*
X182563500Y-87661447D01*
X182594261Y-87816090D01*
X182594264Y-87816102D01*
X182646922Y-87943231D01*
X182654391Y-88012700D01*
X182623115Y-88075179D01*
X182620043Y-88078364D01*
X182516788Y-88181619D01*
X182418243Y-88329100D01*
X182418236Y-88329113D01*
X182350359Y-88492986D01*
X182350356Y-88492995D01*
X182315753Y-88666958D01*
X180402900Y-88666958D01*
X180404835Y-88665665D01*
X180434008Y-88636492D01*
X180497311Y-88573190D01*
X180530261Y-88540239D01*
X180530264Y-88540236D01*
X180628813Y-88392748D01*
X180696694Y-88228867D01*
X180706093Y-88181619D01*
X180731299Y-88054896D01*
X180731300Y-88054894D01*
X180731300Y-87877507D01*
X180731299Y-87877505D01*
X180696696Y-87703542D01*
X180696693Y-87703533D01*
X180692471Y-87693341D01*
X180664075Y-87624785D01*
X180628816Y-87539660D01*
X180628809Y-87539647D01*
X180530264Y-87392166D01*
X180530261Y-87392162D01*
X180404838Y-87266739D01*
X180404834Y-87266736D01*
X180257353Y-87168191D01*
X180257340Y-87168184D01*
X180093467Y-87100307D01*
X180093458Y-87100304D01*
X179919494Y-87065701D01*
X179919491Y-87065701D01*
X179742109Y-87065701D01*
X179742106Y-87065701D01*
X179568141Y-87100304D01*
X179568132Y-87100307D01*
X179404259Y-87168184D01*
X179404246Y-87168191D01*
X179256765Y-87266736D01*
X179256761Y-87266739D01*
X179131338Y-87392162D01*
X179131335Y-87392166D01*
X179032790Y-87539647D01*
X179032783Y-87539660D01*
X178964906Y-87703533D01*
X178964903Y-87703542D01*
X178930300Y-87877505D01*
X167980249Y-87877505D01*
X168037625Y-87798533D01*
X168056759Y-87772195D01*
X168096106Y-87718040D01*
X168206904Y-87500586D01*
X168282321Y-87268477D01*
X168320500Y-87027428D01*
X168320500Y-86783374D01*
X168282321Y-86542325D01*
X168206904Y-86310216D01*
X168193829Y-86284554D01*
X176869500Y-86284554D01*
X176869500Y-86442247D01*
X176900261Y-86596890D01*
X176900264Y-86596902D01*
X176960602Y-86742573D01*
X176960609Y-86742586D01*
X177048210Y-86873689D01*
X177048213Y-86873693D01*
X177159707Y-86985187D01*
X177159711Y-86985190D01*
X177290814Y-87072791D01*
X177290827Y-87072798D01*
X177357241Y-87100307D01*
X177436503Y-87133138D01*
X177591153Y-87163900D01*
X177591156Y-87163901D01*
X177591158Y-87163901D01*
X177748844Y-87163901D01*
X177748845Y-87163900D01*
X177903497Y-87133138D01*
X178049179Y-87072795D01*
X178180289Y-86985190D01*
X178291789Y-86873690D01*
X178379394Y-86742580D01*
X178439737Y-86596898D01*
X178470500Y-86442243D01*
X178470500Y-86284559D01*
X178470500Y-86284556D01*
X178470499Y-86284554D01*
X178440883Y-86135665D01*
X178439737Y-86129904D01*
X178439735Y-86129899D01*
X178379397Y-85984228D01*
X178379390Y-85984215D01*
X178291789Y-85853112D01*
X178291786Y-85853108D01*
X178180292Y-85741614D01*
X178180288Y-85741611D01*
X178049185Y-85654010D01*
X178049172Y-85654003D01*
X177903501Y-85593665D01*
X177903489Y-85593662D01*
X177748845Y-85562901D01*
X177748842Y-85562901D01*
X177591158Y-85562901D01*
X177591155Y-85562901D01*
X177436510Y-85593662D01*
X177436498Y-85593665D01*
X177290827Y-85654003D01*
X177290814Y-85654010D01*
X177159711Y-85741611D01*
X177159707Y-85741614D01*
X177048213Y-85853108D01*
X177048210Y-85853112D01*
X176960609Y-85984215D01*
X176960602Y-85984228D01*
X176900264Y-86129899D01*
X176900261Y-86129911D01*
X176869500Y-86284554D01*
X168193829Y-86284554D01*
X168096106Y-86092762D01*
X168017252Y-85984228D01*
X167952660Y-85895324D01*
X167952656Y-85895319D01*
X167780081Y-85722744D01*
X167780076Y-85722740D01*
X167582642Y-85579297D01*
X167582641Y-85579296D01*
X167582639Y-85579295D01*
X167365185Y-85468497D01*
X167133076Y-85393080D01*
X167133074Y-85393079D01*
X167133072Y-85393079D01*
X166964769Y-85366422D01*
X166892027Y-85354901D01*
X166647973Y-85354901D01*
X166592093Y-85363751D01*
X166406927Y-85393079D01*
X166174812Y-85468498D01*
X165957357Y-85579297D01*
X165759923Y-85722740D01*
X165759918Y-85722744D01*
X165587343Y-85895319D01*
X165587339Y-85895324D01*
X165443896Y-86092758D01*
X165333097Y-86310213D01*
X165257678Y-86542328D01*
X165219500Y-86783374D01*
X160175413Y-86783374D01*
X160167911Y-83785708D01*
X179669500Y-83785708D01*
X179669500Y-83963099D01*
X179704103Y-84137062D01*
X179704106Y-84137071D01*
X179771983Y-84300944D01*
X179771990Y-84300957D01*
X179870535Y-84448438D01*
X179870538Y-84448442D01*
X179995961Y-84573865D01*
X179995965Y-84573868D01*
X180143446Y-84672413D01*
X180143459Y-84672420D01*
X180227285Y-84707141D01*
X180307334Y-84740298D01*
X180307336Y-84740298D01*
X180307341Y-84740300D01*
X180481304Y-84774903D01*
X180481307Y-84774904D01*
X180481309Y-84774904D01*
X180658693Y-84774904D01*
X180658694Y-84774903D01*
X180716682Y-84763368D01*
X180832658Y-84740300D01*
X180832661Y-84740298D01*
X180832666Y-84740298D01*
X180996547Y-84672417D01*
X181144035Y-84573868D01*
X181211349Y-84506554D01*
X202070700Y-84506554D01*
X202070700Y-84664247D01*
X202101461Y-84818890D01*
X202101464Y-84818902D01*
X202161802Y-84964573D01*
X202161809Y-84964586D01*
X202249410Y-85095689D01*
X202249413Y-85095693D01*
X202360907Y-85207187D01*
X202360911Y-85207190D01*
X202492014Y-85294791D01*
X202492027Y-85294798D01*
X202637131Y-85354901D01*
X202637703Y-85355138D01*
X202792353Y-85385900D01*
X202792356Y-85385901D01*
X202792358Y-85385901D01*
X202950044Y-85385901D01*
X202950045Y-85385900D01*
X203104697Y-85355138D01*
X203250379Y-85294795D01*
X203381489Y-85207190D01*
X203492989Y-85095690D01*
X203580594Y-84964580D01*
X203640937Y-84818898D01*
X203671700Y-84664243D01*
X203671700Y-84506559D01*
X203671700Y-84506556D01*
X203671699Y-84506554D01*
X203656785Y-84431576D01*
X203640937Y-84351904D01*
X203619829Y-84300944D01*
X203580597Y-84206228D01*
X203580590Y-84206215D01*
X203492989Y-84075112D01*
X203492986Y-84075108D01*
X203381492Y-83963614D01*
X203381488Y-83963611D01*
X203250385Y-83876010D01*
X203250372Y-83876003D01*
X203104701Y-83815665D01*
X203104689Y-83815662D01*
X202950045Y-83784901D01*
X202950042Y-83784901D01*
X202792358Y-83784901D01*
X202792355Y-83784901D01*
X202637710Y-83815662D01*
X202637698Y-83815665D01*
X202492027Y-83876003D01*
X202492014Y-83876010D01*
X202360911Y-83963611D01*
X202360907Y-83963614D01*
X202249413Y-84075108D01*
X202249410Y-84075112D01*
X202161809Y-84206215D01*
X202161802Y-84206228D01*
X202101464Y-84351899D01*
X202101461Y-84351911D01*
X202070700Y-84506554D01*
X181211349Y-84506554D01*
X181269464Y-84448439D01*
X181333963Y-84351911D01*
X181368009Y-84300957D01*
X181368009Y-84300956D01*
X181368013Y-84300951D01*
X181435894Y-84137070D01*
X181470500Y-83963095D01*
X181470500Y-83785713D01*
X181470500Y-83785710D01*
X181470499Y-83785708D01*
X181435896Y-83611745D01*
X181435893Y-83611736D01*
X181368016Y-83447863D01*
X181368009Y-83447850D01*
X181269464Y-83300369D01*
X181269461Y-83300365D01*
X181144038Y-83174942D01*
X181144034Y-83174939D01*
X180996553Y-83076394D01*
X180996540Y-83076387D01*
X180832667Y-83008510D01*
X180832658Y-83008507D01*
X180658694Y-82973904D01*
X180658691Y-82973904D01*
X180481309Y-82973904D01*
X180481306Y-82973904D01*
X180307341Y-83008507D01*
X180307332Y-83008510D01*
X180143459Y-83076387D01*
X180143446Y-83076394D01*
X179995965Y-83174939D01*
X179995961Y-83174942D01*
X179870538Y-83300365D01*
X179870535Y-83300369D01*
X179771990Y-83447850D01*
X179771983Y-83447863D01*
X179704106Y-83611736D01*
X179704103Y-83611745D01*
X179669500Y-83785708D01*
X160167911Y-83785708D01*
X160167831Y-83753890D01*
X160187349Y-83686802D01*
X160240038Y-83640916D01*
X160291422Y-83629582D01*
X162994649Y-83620709D01*
X163016475Y-80084822D01*
X163018091Y-79823105D01*
X168747500Y-79823105D01*
X168747500Y-80000496D01*
X168782103Y-80174459D01*
X168782106Y-80174468D01*
X168849983Y-80338341D01*
X168849990Y-80338354D01*
X168948535Y-80485835D01*
X168948538Y-80485839D01*
X169073961Y-80611262D01*
X169073965Y-80611265D01*
X169221446Y-80709810D01*
X169221459Y-80709817D01*
X169344363Y-80760724D01*
X169385334Y-80777695D01*
X169385336Y-80777695D01*
X169385341Y-80777697D01*
X169559304Y-80812300D01*
X169559307Y-80812301D01*
X169559309Y-80812301D01*
X169736693Y-80812301D01*
X169736694Y-80812300D01*
X169794682Y-80800765D01*
X169910658Y-80777697D01*
X169910661Y-80777695D01*
X169910666Y-80777695D01*
X170074547Y-80709814D01*
X170222035Y-80611265D01*
X170347464Y-80485836D01*
X170446013Y-80338348D01*
X170449106Y-80330882D01*
X170460315Y-80303820D01*
X170513894Y-80174467D01*
X170548500Y-80000492D01*
X170548500Y-79823110D01*
X170548500Y-79823107D01*
X170548499Y-79823105D01*
X170513896Y-79649142D01*
X170513893Y-79649133D01*
X170504669Y-79626865D01*
X170496923Y-79608164D01*
X170446016Y-79485260D01*
X170446009Y-79485247D01*
X170347464Y-79337766D01*
X170347461Y-79337762D01*
X170222038Y-79212339D01*
X170222034Y-79212336D01*
X170074553Y-79113791D01*
X170074540Y-79113784D01*
X169910667Y-79045907D01*
X169910658Y-79045904D01*
X169736694Y-79011301D01*
X169736691Y-79011301D01*
X169559309Y-79011301D01*
X169559306Y-79011301D01*
X169385341Y-79045904D01*
X169385332Y-79045907D01*
X169221459Y-79113784D01*
X169221446Y-79113791D01*
X169073965Y-79212336D01*
X169073961Y-79212339D01*
X168948538Y-79337762D01*
X168948535Y-79337766D01*
X168849990Y-79485247D01*
X168849983Y-79485260D01*
X168782106Y-79649133D01*
X168782103Y-79649142D01*
X168747500Y-79823105D01*
X163018091Y-79823105D01*
X163018133Y-79816253D01*
X163028533Y-78131357D01*
X163080114Y-69775089D01*
X163100212Y-69708175D01*
X163153298Y-69662747D01*
X163204023Y-69651857D01*
X169809755Y-69647323D01*
X169809756Y-69647324D01*
X169834438Y-69647307D01*
X169834439Y-69647308D01*
X169860356Y-69647290D01*
X169877602Y-69647278D01*
X169886451Y-69647587D01*
G37*
%TD.AperFunction*%
%TD*%
%TA.AperFunction,Conductor*%
%TO.N,+5V*%
G36*
X168892139Y-112948286D02*
G01*
X168937894Y-113001090D01*
X168949100Y-113052601D01*
X168949100Y-113213847D01*
X168979861Y-113368490D01*
X168979864Y-113368502D01*
X169040202Y-113514173D01*
X169040209Y-113514186D01*
X169127810Y-113645289D01*
X169127813Y-113645293D01*
X169239307Y-113756787D01*
X169239311Y-113756790D01*
X169370414Y-113844391D01*
X169370427Y-113844398D01*
X169516098Y-113904736D01*
X169516103Y-113904738D01*
X169670753Y-113935500D01*
X169670756Y-113935501D01*
X169670758Y-113935501D01*
X169828444Y-113935501D01*
X169828445Y-113935500D01*
X169983097Y-113904738D01*
X170128779Y-113844395D01*
X170259889Y-113756790D01*
X170371389Y-113645290D01*
X170458994Y-113514180D01*
X170519337Y-113368498D01*
X170550100Y-113213843D01*
X170550100Y-113056159D01*
X170550100Y-113052601D01*
X170569785Y-112985562D01*
X170622589Y-112939807D01*
X170674100Y-112928601D01*
X187674738Y-112928601D01*
X187741777Y-112948286D01*
X187762419Y-112964920D01*
X187869961Y-113072462D01*
X187869965Y-113072465D01*
X188017446Y-113171010D01*
X188017459Y-113171017D01*
X188120852Y-113213843D01*
X188181334Y-113238895D01*
X188181336Y-113238895D01*
X188181341Y-113238897D01*
X188355304Y-113273500D01*
X188355307Y-113273501D01*
X188355309Y-113273501D01*
X188532693Y-113273501D01*
X188532694Y-113273500D01*
X188590682Y-113261965D01*
X188706658Y-113238897D01*
X188706661Y-113238895D01*
X188706666Y-113238895D01*
X188870547Y-113171014D01*
X189018035Y-113072465D01*
X189038765Y-113051735D01*
X189125581Y-112964920D01*
X189186904Y-112931435D01*
X189213262Y-112928601D01*
X191215600Y-112928601D01*
X191282639Y-112948286D01*
X191328394Y-113001090D01*
X191339600Y-113052601D01*
X191339600Y-117278201D01*
X191319915Y-117345240D01*
X191267111Y-117390995D01*
X191215600Y-117402201D01*
X180417600Y-117402201D01*
X180417600Y-128052101D01*
X180397915Y-128119140D01*
X180345111Y-128164895D01*
X180293600Y-128176101D01*
X163386945Y-128176101D01*
X163319906Y-128156416D01*
X163274151Y-128103612D01*
X163262948Y-128051238D01*
X163281444Y-125403944D01*
X164454499Y-125403944D01*
X164492947Y-125597230D01*
X164492950Y-125597240D01*
X164568364Y-125779308D01*
X164568371Y-125779321D01*
X164677860Y-125943182D01*
X164677863Y-125943186D01*
X164817214Y-126082537D01*
X164817218Y-126082540D01*
X164981079Y-126192029D01*
X164981092Y-126192036D01*
X165163160Y-126267450D01*
X165163165Y-126267452D01*
X165163169Y-126267452D01*
X165163170Y-126267453D01*
X165356456Y-126305901D01*
X165356459Y-126305901D01*
X165553543Y-126305901D01*
X165683582Y-126280033D01*
X165746835Y-126267452D01*
X165928914Y-126192033D01*
X166092782Y-126082540D01*
X166232139Y-125943183D01*
X166341632Y-125779315D01*
X166417051Y-125597236D01*
X166455500Y-125403944D01*
X173094499Y-125403944D01*
X173132947Y-125597230D01*
X173132950Y-125597240D01*
X173208364Y-125779308D01*
X173208371Y-125779321D01*
X173317860Y-125943182D01*
X173317863Y-125943186D01*
X173457214Y-126082537D01*
X173457218Y-126082540D01*
X173621079Y-126192029D01*
X173621092Y-126192036D01*
X173803160Y-126267450D01*
X173803165Y-126267452D01*
X173803169Y-126267452D01*
X173803170Y-126267453D01*
X173996456Y-126305901D01*
X173996459Y-126305901D01*
X174193543Y-126305901D01*
X174323582Y-126280033D01*
X174386835Y-126267452D01*
X174568914Y-126192033D01*
X174732782Y-126082540D01*
X174872139Y-125943183D01*
X174981632Y-125779315D01*
X175057051Y-125597236D01*
X175095500Y-125403942D01*
X175095500Y-124606860D01*
X175095500Y-124606857D01*
X175057052Y-124413571D01*
X175057051Y-124413570D01*
X175057051Y-124413566D01*
X175043957Y-124381953D01*
X174981635Y-124231493D01*
X174981628Y-124231480D01*
X174872139Y-124067619D01*
X174872136Y-124067615D01*
X174732785Y-123928264D01*
X174732781Y-123928261D01*
X174568920Y-123818772D01*
X174568907Y-123818765D01*
X174386839Y-123743351D01*
X174386829Y-123743348D01*
X174310850Y-123728235D01*
X174310849Y-123728234D01*
X174193544Y-123704901D01*
X174193541Y-123704901D01*
X173996459Y-123704901D01*
X173996457Y-123704901D01*
X173803170Y-123743348D01*
X173803160Y-123743351D01*
X173621092Y-123818765D01*
X173621079Y-123818772D01*
X173457218Y-123928261D01*
X173457214Y-123928264D01*
X173317863Y-124067615D01*
X173317860Y-124067619D01*
X173208371Y-124231480D01*
X173208364Y-124231493D01*
X173132950Y-124413561D01*
X173132947Y-124413571D01*
X173094500Y-124606857D01*
X173094500Y-124606860D01*
X173094500Y-125403942D01*
X173094500Y-125403944D01*
X173094499Y-125403944D01*
X166455500Y-125403944D01*
X166455500Y-125403942D01*
X166455500Y-124606860D01*
X166455500Y-124606857D01*
X166417052Y-124413571D01*
X166417051Y-124413570D01*
X166417051Y-124413566D01*
X166403957Y-124381953D01*
X166341635Y-124231493D01*
X166341628Y-124231480D01*
X166232139Y-124067619D01*
X166232136Y-124067615D01*
X166092785Y-123928264D01*
X166092781Y-123928261D01*
X165928920Y-123818772D01*
X165928907Y-123818765D01*
X165746839Y-123743351D01*
X165746829Y-123743348D01*
X165553543Y-123704901D01*
X165553541Y-123704901D01*
X165356459Y-123704901D01*
X165356457Y-123704901D01*
X165163170Y-123743348D01*
X165163160Y-123743351D01*
X164981092Y-123818765D01*
X164981079Y-123818772D01*
X164817218Y-123928261D01*
X164817214Y-123928264D01*
X164677863Y-124067615D01*
X164677860Y-124067619D01*
X164568371Y-124231480D01*
X164568364Y-124231493D01*
X164492950Y-124413561D01*
X164492947Y-124413571D01*
X164454500Y-124606857D01*
X164454500Y-124606860D01*
X164454500Y-125403942D01*
X164454500Y-125403944D01*
X164454499Y-125403944D01*
X163281444Y-125403944D01*
X163284638Y-124946780D01*
X163304789Y-124879883D01*
X163357912Y-124834499D01*
X163384439Y-124826034D01*
X163408266Y-124821295D01*
X163572147Y-124753414D01*
X163719635Y-124654865D01*
X163845064Y-124529436D01*
X163943613Y-124381948D01*
X164011494Y-124218067D01*
X164046100Y-124044092D01*
X164046100Y-123866710D01*
X164046100Y-123866707D01*
X164046099Y-123866705D01*
X164011496Y-123692742D01*
X164011493Y-123692733D01*
X163978345Y-123612705D01*
X176113500Y-123612705D01*
X176113500Y-123790096D01*
X176148103Y-123964059D01*
X176148106Y-123964068D01*
X176215983Y-124127941D01*
X176215990Y-124127954D01*
X176314535Y-124275435D01*
X176314538Y-124275439D01*
X176439961Y-124400862D01*
X176439965Y-124400865D01*
X176587446Y-124499410D01*
X176587459Y-124499417D01*
X176710363Y-124550324D01*
X176751334Y-124567295D01*
X176751336Y-124567295D01*
X176751341Y-124567297D01*
X176925304Y-124601900D01*
X176925307Y-124601901D01*
X176925309Y-124601901D01*
X177102693Y-124601901D01*
X177102694Y-124601900D01*
X177160682Y-124590365D01*
X177276658Y-124567297D01*
X177276661Y-124567295D01*
X177276666Y-124567295D01*
X177440547Y-124499414D01*
X177588035Y-124400865D01*
X177713464Y-124275436D01*
X177812013Y-124127948D01*
X177879894Y-123964067D01*
X177887017Y-123928261D01*
X177908796Y-123818769D01*
X177914500Y-123790092D01*
X177914500Y-123612710D01*
X177914500Y-123612707D01*
X177914499Y-123612705D01*
X177879896Y-123438742D01*
X177879893Y-123438733D01*
X177812016Y-123274860D01*
X177812009Y-123274847D01*
X177713464Y-123127366D01*
X177713461Y-123127362D01*
X177588038Y-123001939D01*
X177588034Y-123001936D01*
X177440553Y-122903391D01*
X177440540Y-122903384D01*
X177276667Y-122835507D01*
X177276658Y-122835504D01*
X177102694Y-122800901D01*
X177102691Y-122800901D01*
X176925309Y-122800901D01*
X176925306Y-122800901D01*
X176751341Y-122835504D01*
X176751332Y-122835507D01*
X176587459Y-122903384D01*
X176587446Y-122903391D01*
X176439965Y-123001936D01*
X176439961Y-123001939D01*
X176314538Y-123127362D01*
X176314535Y-123127366D01*
X176215990Y-123274847D01*
X176215983Y-123274860D01*
X176148106Y-123438733D01*
X176148103Y-123438742D01*
X176113500Y-123612705D01*
X163978345Y-123612705D01*
X163943616Y-123528860D01*
X163943609Y-123528847D01*
X163845064Y-123381366D01*
X163845061Y-123381362D01*
X163719638Y-123255939D01*
X163719634Y-123255936D01*
X163572153Y-123157391D01*
X163572140Y-123157384D01*
X163408267Y-123089507D01*
X163408258Y-123089505D01*
X163398282Y-123087520D01*
X163336373Y-123055131D01*
X163301802Y-122994414D01*
X163298483Y-122965038D01*
X163299630Y-122800901D01*
X163308901Y-121473944D01*
X164454499Y-121473944D01*
X164492947Y-121667230D01*
X164492950Y-121667240D01*
X164568364Y-121849308D01*
X164568371Y-121849321D01*
X164677860Y-122013182D01*
X164677863Y-122013186D01*
X164817214Y-122152537D01*
X164817218Y-122152540D01*
X164981079Y-122262029D01*
X164981092Y-122262036D01*
X165163160Y-122337450D01*
X165163165Y-122337452D01*
X165163169Y-122337452D01*
X165163170Y-122337453D01*
X165356456Y-122375901D01*
X165356459Y-122375901D01*
X165553543Y-122375901D01*
X165683582Y-122350033D01*
X165746835Y-122337452D01*
X165928914Y-122262033D01*
X166092782Y-122152540D01*
X166232139Y-122013183D01*
X166321106Y-121880034D01*
X166374716Y-121835230D01*
X166444041Y-121826523D01*
X166493098Y-121845824D01*
X166588707Y-121909708D01*
X166588713Y-121909711D01*
X166588714Y-121909712D01*
X166702548Y-121956864D01*
X166823389Y-121980900D01*
X166823393Y-121980901D01*
X166823394Y-121980901D01*
X166946607Y-121980901D01*
X166946608Y-121980900D01*
X167067452Y-121956864D01*
X167181286Y-121909712D01*
X167283733Y-121841259D01*
X167370858Y-121754134D01*
X167439311Y-121651687D01*
X167486463Y-121537853D01*
X167510500Y-121417007D01*
X167510500Y-121293795D01*
X167510499Y-121293790D01*
X172039500Y-121293790D01*
X172039500Y-121417011D01*
X172063535Y-121537845D01*
X172063538Y-121537855D01*
X172110687Y-121651684D01*
X172110692Y-121651693D01*
X172179141Y-121754133D01*
X172179144Y-121754137D01*
X172266263Y-121841256D01*
X172266267Y-121841259D01*
X172368707Y-121909708D01*
X172368713Y-121909711D01*
X172368714Y-121909712D01*
X172482548Y-121956864D01*
X172603389Y-121980900D01*
X172603393Y-121980901D01*
X172603394Y-121980901D01*
X172726607Y-121980901D01*
X172726608Y-121980900D01*
X172847452Y-121956864D01*
X172961286Y-121909712D01*
X173056901Y-121845823D01*
X173123578Y-121824946D01*
X173190958Y-121843430D01*
X173228894Y-121880035D01*
X173317860Y-122013182D01*
X173317863Y-122013186D01*
X173457214Y-122152537D01*
X173457218Y-122152540D01*
X173621079Y-122262029D01*
X173621092Y-122262036D01*
X173803160Y-122337450D01*
X173803165Y-122337452D01*
X173803169Y-122337452D01*
X173803170Y-122337453D01*
X173996456Y-122375901D01*
X173996459Y-122375901D01*
X174193543Y-122375901D01*
X174323582Y-122350033D01*
X174386835Y-122337452D01*
X174568914Y-122262033D01*
X174732782Y-122152540D01*
X174872139Y-122013183D01*
X174981632Y-121849315D01*
X175057051Y-121667236D01*
X175095500Y-121473942D01*
X175095500Y-120176860D01*
X175095500Y-120176857D01*
X175057052Y-119983571D01*
X175057051Y-119983570D01*
X175057051Y-119983566D01*
X175057049Y-119983561D01*
X174981635Y-119801493D01*
X174981628Y-119801480D01*
X174872139Y-119637619D01*
X174872136Y-119637615D01*
X174732785Y-119498264D01*
X174732781Y-119498261D01*
X174568920Y-119388772D01*
X174568907Y-119388765D01*
X174386839Y-119313351D01*
X174386829Y-119313348D01*
X174193543Y-119274901D01*
X174193541Y-119274901D01*
X173996459Y-119274901D01*
X173996457Y-119274901D01*
X173803170Y-119313348D01*
X173803160Y-119313351D01*
X173621092Y-119388765D01*
X173621079Y-119388772D01*
X173457218Y-119498261D01*
X173457214Y-119498264D01*
X173317863Y-119637615D01*
X173317860Y-119637619D01*
X173208371Y-119801480D01*
X173208364Y-119801493D01*
X173132950Y-119983561D01*
X173132947Y-119983571D01*
X173094500Y-120176857D01*
X173094500Y-120670689D01*
X173074815Y-120737728D01*
X173022011Y-120783483D01*
X172952853Y-120793427D01*
X172923048Y-120785250D01*
X172847458Y-120753940D01*
X172847454Y-120753938D01*
X172847452Y-120753938D01*
X172847448Y-120753937D01*
X172847444Y-120753936D01*
X172726610Y-120729901D01*
X172726606Y-120729901D01*
X172603394Y-120729901D01*
X172603389Y-120729901D01*
X172482555Y-120753936D01*
X172482545Y-120753939D01*
X172368716Y-120801088D01*
X172368707Y-120801093D01*
X172266267Y-120869542D01*
X172266263Y-120869545D01*
X172179144Y-120956664D01*
X172179141Y-120956668D01*
X172110692Y-121059108D01*
X172110687Y-121059117D01*
X172063538Y-121172946D01*
X172063535Y-121172956D01*
X172039500Y-121293790D01*
X167510499Y-121293790D01*
X167486463Y-121172949D01*
X167439311Y-121059115D01*
X167439310Y-121059114D01*
X167439307Y-121059108D01*
X167370858Y-120956668D01*
X167370855Y-120956664D01*
X167283736Y-120869545D01*
X167283732Y-120869542D01*
X167181292Y-120801093D01*
X167181283Y-120801088D01*
X167088477Y-120762647D01*
X167067452Y-120753938D01*
X167067448Y-120753937D01*
X167067444Y-120753936D01*
X166946610Y-120729901D01*
X166946606Y-120729901D01*
X166823394Y-120729901D01*
X166823389Y-120729901D01*
X166702555Y-120753936D01*
X166702541Y-120753940D01*
X166626952Y-120785250D01*
X166557483Y-120792719D01*
X166495004Y-120761443D01*
X166459352Y-120701354D01*
X166455500Y-120670689D01*
X166455500Y-120176857D01*
X166417052Y-119983571D01*
X166417051Y-119983570D01*
X166417051Y-119983566D01*
X166417049Y-119983561D01*
X166341635Y-119801493D01*
X166341628Y-119801480D01*
X166232139Y-119637619D01*
X166232136Y-119637615D01*
X166092785Y-119498264D01*
X166092781Y-119498261D01*
X165928920Y-119388772D01*
X165928907Y-119388765D01*
X165746839Y-119313351D01*
X165746829Y-119313348D01*
X165553543Y-119274901D01*
X165553541Y-119274901D01*
X165356459Y-119274901D01*
X165356457Y-119274901D01*
X165163170Y-119313348D01*
X165163160Y-119313351D01*
X164981092Y-119388765D01*
X164981079Y-119388772D01*
X164817218Y-119498261D01*
X164817214Y-119498264D01*
X164677863Y-119637615D01*
X164677860Y-119637619D01*
X164568371Y-119801480D01*
X164568364Y-119801493D01*
X164492950Y-119983561D01*
X164492947Y-119983571D01*
X164454500Y-120176857D01*
X164454500Y-120176860D01*
X164454500Y-121473942D01*
X164454500Y-121473944D01*
X164454499Y-121473944D01*
X163308901Y-121473944D01*
X163331943Y-118175851D01*
X177384754Y-118175851D01*
X177384754Y-118353242D01*
X177419357Y-118527205D01*
X177419360Y-118527214D01*
X177487237Y-118691087D01*
X177487244Y-118691100D01*
X177585789Y-118838581D01*
X177585792Y-118838585D01*
X177711215Y-118964008D01*
X177711219Y-118964011D01*
X177858700Y-119062556D01*
X177858713Y-119062563D01*
X177981617Y-119113470D01*
X178022588Y-119130441D01*
X178022590Y-119130441D01*
X178022595Y-119130443D01*
X178196558Y-119165046D01*
X178196561Y-119165047D01*
X178196563Y-119165047D01*
X178373947Y-119165047D01*
X178373948Y-119165046D01*
X178431936Y-119153511D01*
X178547912Y-119130443D01*
X178547915Y-119130441D01*
X178547920Y-119130441D01*
X178711801Y-119062560D01*
X178859289Y-118964011D01*
X178984718Y-118838582D01*
X179083267Y-118691094D01*
X179151148Y-118527213D01*
X179185754Y-118353238D01*
X179185754Y-118175856D01*
X179185754Y-118175853D01*
X179185753Y-118175851D01*
X179151150Y-118001888D01*
X179151147Y-118001879D01*
X179083270Y-117838006D01*
X179083263Y-117837993D01*
X178984718Y-117690512D01*
X178984715Y-117690508D01*
X178859292Y-117565085D01*
X178859288Y-117565082D01*
X178711807Y-117466537D01*
X178711794Y-117466530D01*
X178547921Y-117398653D01*
X178547912Y-117398650D01*
X178373948Y-117364047D01*
X178373945Y-117364047D01*
X178196563Y-117364047D01*
X178196560Y-117364047D01*
X178022595Y-117398650D01*
X178022586Y-117398653D01*
X177858713Y-117466530D01*
X177858700Y-117466537D01*
X177711219Y-117565082D01*
X177711215Y-117565085D01*
X177585792Y-117690508D01*
X177585789Y-117690512D01*
X177487244Y-117837993D01*
X177487237Y-117838006D01*
X177419360Y-118001879D01*
X177419357Y-118001888D01*
X177384754Y-118175851D01*
X163331943Y-118175851D01*
X163340752Y-116914925D01*
X163360903Y-116848030D01*
X163414026Y-116802646D01*
X163483252Y-116793185D01*
X163488940Y-116794180D01*
X163492533Y-116794894D01*
X163492534Y-116794895D01*
X163515377Y-116799438D01*
X163666506Y-116829501D01*
X163666509Y-116829501D01*
X163843893Y-116829501D01*
X163843894Y-116829500D01*
X163901882Y-116817965D01*
X164017858Y-116794897D01*
X164017861Y-116794895D01*
X164017866Y-116794895D01*
X164174381Y-116730065D01*
X164181740Y-116727017D01*
X164181740Y-116727016D01*
X164181747Y-116727014D01*
X164329235Y-116628465D01*
X164454664Y-116503036D01*
X164553213Y-116355548D01*
X164621094Y-116191667D01*
X164635491Y-116119292D01*
X164655699Y-116017696D01*
X164655700Y-116017694D01*
X164655700Y-115917756D01*
X164675385Y-115850717D01*
X164728189Y-115804962D01*
X164755505Y-115796140D01*
X164779866Y-115791295D01*
X164943747Y-115723414D01*
X165091235Y-115624865D01*
X165216664Y-115499436D01*
X165315213Y-115351948D01*
X165383094Y-115188067D01*
X165417700Y-115014092D01*
X165417700Y-114836710D01*
X165417700Y-114836707D01*
X165417699Y-114836705D01*
X165398625Y-114740809D01*
X165395024Y-114722705D01*
X170423900Y-114722705D01*
X170423900Y-114900096D01*
X170458503Y-115074059D01*
X170458506Y-115074068D01*
X170526383Y-115237941D01*
X170526390Y-115237954D01*
X170628067Y-115390123D01*
X170648945Y-115456800D01*
X170630461Y-115524181D01*
X170628068Y-115527904D01*
X170577189Y-115604049D01*
X170577183Y-115604060D01*
X170509306Y-115767933D01*
X170509303Y-115767942D01*
X170474700Y-115941905D01*
X170474700Y-116119296D01*
X170509303Y-116293259D01*
X170509306Y-116293268D01*
X170577183Y-116457141D01*
X170577190Y-116457154D01*
X170675735Y-116604635D01*
X170675738Y-116604639D01*
X170801161Y-116730062D01*
X170801165Y-116730065D01*
X170948646Y-116828610D01*
X170948659Y-116828617D01*
X171071563Y-116879524D01*
X171112534Y-116896495D01*
X171112536Y-116896495D01*
X171112541Y-116896497D01*
X171286504Y-116931100D01*
X171286507Y-116931101D01*
X171286509Y-116931101D01*
X171463893Y-116931101D01*
X171463894Y-116931100D01*
X171545213Y-116914925D01*
X171637858Y-116896497D01*
X171637861Y-116896495D01*
X171637866Y-116896495D01*
X171801747Y-116828614D01*
X171949235Y-116730065D01*
X172074664Y-116604636D01*
X172173213Y-116457148D01*
X172241094Y-116293267D01*
X172275700Y-116119292D01*
X172275700Y-115941910D01*
X172275700Y-115941907D01*
X172275699Y-115941905D01*
X172241096Y-115767942D01*
X172241093Y-115767933D01*
X172173216Y-115604060D01*
X172173209Y-115604047D01*
X172071532Y-115451878D01*
X172050654Y-115385201D01*
X172069138Y-115317821D01*
X172071510Y-115314128D01*
X172122413Y-115237948D01*
X172190294Y-115074067D01*
X172192879Y-115061075D01*
X172224899Y-114900096D01*
X172224900Y-114900094D01*
X172224900Y-114722707D01*
X172224899Y-114722705D01*
X172190296Y-114548742D01*
X172190293Y-114548733D01*
X172122416Y-114384860D01*
X172122409Y-114384847D01*
X172023864Y-114237366D01*
X172023861Y-114237362D01*
X171898438Y-114111939D01*
X171898434Y-114111936D01*
X171750953Y-114013391D01*
X171750940Y-114013384D01*
X171587067Y-113945507D01*
X171587058Y-113945504D01*
X171413094Y-113910901D01*
X171413091Y-113910901D01*
X171235709Y-113910901D01*
X171235706Y-113910901D01*
X171061741Y-113945504D01*
X171061732Y-113945507D01*
X170897859Y-114013384D01*
X170897846Y-114013391D01*
X170750365Y-114111936D01*
X170750361Y-114111939D01*
X170624938Y-114237362D01*
X170624935Y-114237366D01*
X170526390Y-114384847D01*
X170526383Y-114384860D01*
X170458506Y-114548733D01*
X170458503Y-114548742D01*
X170423900Y-114722705D01*
X165395024Y-114722705D01*
X165383095Y-114662741D01*
X165383094Y-114662735D01*
X165335874Y-114548735D01*
X165315216Y-114498860D01*
X165315209Y-114498847D01*
X165216664Y-114351366D01*
X165216661Y-114351362D01*
X165091238Y-114225939D01*
X165091234Y-114225936D01*
X164943753Y-114127391D01*
X164943740Y-114127384D01*
X164779867Y-114059507D01*
X164779858Y-114059504D01*
X164605894Y-114024901D01*
X164605891Y-114024901D01*
X164428509Y-114024901D01*
X164428506Y-114024901D01*
X164254541Y-114059504D01*
X164254532Y-114059507D01*
X164090659Y-114127384D01*
X164090646Y-114127391D01*
X163943165Y-114225936D01*
X163943161Y-114225939D01*
X163817738Y-114351362D01*
X163817735Y-114351366D01*
X163719190Y-114498847D01*
X163719183Y-114498860D01*
X163651306Y-114662733D01*
X163651303Y-114662742D01*
X163616700Y-114836705D01*
X163616700Y-114936644D01*
X163607753Y-114967111D01*
X163600452Y-114998007D01*
X163597981Y-115000390D01*
X163597015Y-115003683D01*
X163573026Y-115024468D01*
X163550172Y-115046521D01*
X163545795Y-115048064D01*
X163544211Y-115049438D01*
X163516888Y-115058262D01*
X163502744Y-115061075D01*
X163433152Y-115054846D01*
X163377976Y-115011981D01*
X163354734Y-114946091D01*
X163354559Y-114938631D01*
X163366610Y-113213845D01*
X163367743Y-113051735D01*
X163387896Y-112984834D01*
X163441018Y-112939449D01*
X163491740Y-112928601D01*
X168825100Y-112928601D01*
X168892139Y-112948286D01*
G37*
%TD.AperFunction*%
%TD*%
M02*
